<svg width="1920" height="1080" viewBox="0 0 1920 1080" fill="none" xmlns="http://www.w3.org/2000/svg">
<mask id="path-1-inside-1_10_27" fill="white">
<path d="M0 540V1080H960H1920V540V0.000732422H960H0V540ZM82.0674 39.564C83.008 39.6742 83.4783 41.7681 83.4783 46.3966V53.0089L89.1219 52.6782L94.6479 52.3475L95.0006 47.1681C95.3533 42.7599 95.7061 41.9884 98.2927 41.4374C99.8212 40.9966 117.34 40.7762 137.092 40.7762L172.953 40.8864L172.6 43.3109C172.247 45.4048 171.424 45.7354 166.133 46.0659L159.902 46.3966V50.2538V54.0006H960H1760.1V50.2538V46.3966L1753.98 46.0659C1748.69 45.7354 1747.75 45.4048 1747.75 43.5314C1747.75 41.3273 1748.69 41.3271 1783.61 40.9966C1803.37 40.8864 1820.65 40.9966 1822.18 41.3271C1824.41 41.8782 1824.76 42.6497 1824.76 47.4987V53.0089L1830.41 52.6782L1835.93 52.3475L1836.29 45.9558L1836.64 39.6741H1852.39H1868.27V54.5518V69.3191L1860.39 69.6497L1852.39 69.9803L1852.04 74.0579L1851.69 78.2455H1857.57H1863.56V114.613C1863.56 146.241 1863.33 150.98 1861.8 150.98C1860.51 150.98 1860.04 149.548 1860.04 145.029C1860.04 138.637 1859.1 137.646 1853.33 138.637L1850.63 139.078L1850.51 327.747C1850.4 431.449 1850.16 611.853 1850.04 728.67L1849.69 941.143H1854.75H1859.92L1860.27 935.633C1860.51 932.547 1861.21 930.012 1861.8 929.792C1862.51 929.682 1863.09 942.245 1863.33 965.498L1863.56 1001.42L1857.69 1001.31L1851.81 1001.09V1005.83V1010.57H1860.04H1868.27V1025.45V1040.33H1852.39H1836.52V1033.71V1027.1H1829.94C1823.59 1027.1 1823.47 1027.21 1823.59 1030.08C1823.71 1031.84 1823.82 1034.27 1823.71 1035.59L1823.59 1038.12H1785.96C1753.28 1038.12 1748.34 1037.9 1748.34 1036.47C1748.34 1035.15 1749.87 1034.82 1754.92 1034.82H1761.39L1761.04 1030.08L1760.69 1025.45H960H159.314L158.961 1030.08L158.609 1034.82H165.075C170.131 1034.82 171.66 1035.15 171.66 1036.47C171.66 1037.9 166.604 1038.12 133.448 1038.12H95.2358V1032.61V1027.1H89.357H83.4783V1033.71V1040.33H67.6056H51.733V1025.45V1010.57H60.0808H68.3111L67.9584 1005.94L67.6056 1001.2H61.962H56.436V965.057C56.436 933.759 56.6712 929.021 58.1996 929.021C59.493 929.021 59.9633 930.453 59.9633 934.972V940.923L64.196 941.363C66.4299 941.584 68.5462 941.474 68.7814 941.143C69.0165 940.812 69.2517 935.082 69.3693 928.359C69.6044 908.743 70.4274 910.837 62.3148 910.727C53.7318 910.616 47.853 907.31 43.6203 900.367L40.9161 895.629L44.9137 898.604C51.0276 902.902 60.1984 902.131 67.3705 896.731C69.2517 895.188 69.3693 876.343 69.3693 517.298C69.3693 261.625 69.0165 139.299 68.1935 138.858C67.4881 138.417 65.3717 138.307 63.4905 138.637C60.316 139.078 60.0808 139.409 59.7281 144.699C59.493 147.894 58.7875 150.429 57.9645 150.76C56.7887 151.09 56.436 143.376 56.436 114.723V78.2455H61.7269H67.0178V73.8374V69.4292H59.493H51.8506L51.4979 54.4415C51.2627 46.1761 51.2627 39.4537 51.3803 39.3435C51.4979 39.123 78.4225 39.3435 82.0674 39.564Z"/>
</mask>
<path d="M0 540V1080H960H1920V540V0.000732422H960H0V540ZM82.0674 39.564C83.008 39.6742 83.4783 41.7681 83.4783 46.3966V53.0089L89.1219 52.6782L94.6479 52.3475L95.0006 47.1681C95.3533 42.7599 95.7061 41.9884 98.2927 41.4374C99.8212 40.9966 117.34 40.7762 137.092 40.7762L172.953 40.8864L172.6 43.3109C172.247 45.4048 171.424 45.7354 166.133 46.0659L159.902 46.3966V50.2538V54.0006H960H1760.1V50.2538V46.3966L1753.98 46.0659C1748.69 45.7354 1747.75 45.4048 1747.75 43.5314C1747.75 41.3273 1748.69 41.3271 1783.61 40.9966C1803.37 40.8864 1820.65 40.9966 1822.18 41.3271C1824.41 41.8782 1824.76 42.6497 1824.76 47.4987V53.0089L1830.41 52.6782L1835.93 52.3475L1836.29 45.9558L1836.64 39.6741H1852.39H1868.27V54.5518V69.3191L1860.39 69.6497L1852.39 69.9803L1852.04 74.0579L1851.69 78.2455H1857.57H1863.56V114.613C1863.56 146.241 1863.33 150.98 1861.8 150.98C1860.51 150.98 1860.04 149.548 1860.04 145.029C1860.04 138.637 1859.1 137.646 1853.33 138.637L1850.63 139.078L1850.51 327.747C1850.4 431.449 1850.16 611.853 1850.04 728.67L1849.69 941.143H1854.75H1859.92L1860.27 935.633C1860.51 932.547 1861.21 930.012 1861.8 929.792C1862.51 929.682 1863.09 942.245 1863.33 965.498L1863.56 1001.42L1857.69 1001.31L1851.81 1001.09V1005.83V1010.57H1860.04H1868.27V1025.45V1040.33H1852.39H1836.52V1033.71V1027.1H1829.94C1823.59 1027.1 1823.47 1027.21 1823.59 1030.08C1823.71 1031.84 1823.82 1034.27 1823.71 1035.59L1823.59 1038.12H1785.96C1753.28 1038.12 1748.34 1037.9 1748.34 1036.47C1748.34 1035.15 1749.87 1034.82 1754.92 1034.82H1761.39L1761.04 1030.08L1760.69 1025.45H960H159.314L158.961 1030.08L158.609 1034.82H165.075C170.131 1034.82 171.66 1035.15 171.66 1036.47C171.66 1037.9 166.604 1038.12 133.448 1038.12H95.2358V1032.61V1027.1H89.357H83.4783V1033.71V1040.33H67.6056H51.733V1025.45V1010.57H60.0808H68.3111L67.9584 1005.94L67.6056 1001.2H61.962H56.436V965.057C56.436 933.759 56.6712 929.021 58.1996 929.021C59.493 929.021 59.9633 930.453 59.9633 934.972V940.923L64.196 941.363C66.4299 941.584 68.5462 941.474 68.7814 941.143C69.0165 940.812 69.2517 935.082 69.3693 928.359C69.6044 908.743 70.4274 910.837 62.3148 910.727C53.7318 910.616 47.853 907.31 43.6203 900.367L40.9161 895.629L44.9137 898.604C51.0276 902.902 60.1984 902.131 67.3705 896.731C69.2517 895.188 69.3693 876.343 69.3693 517.298C69.3693 261.625 69.0165 139.299 68.1935 138.858C67.4881 138.417 65.3717 138.307 63.4905 138.637C60.316 139.078 60.0808 139.409 59.7281 144.699C59.493 147.894 58.7875 150.429 57.9645 150.76C56.7887 151.09 56.436 143.376 56.436 114.723V78.2455H61.7269H67.0178V73.8374V69.4292H59.493H51.8506L51.4979 54.4415C51.2627 46.1761 51.2627 39.4537 51.3803 39.3435C51.4979 39.123 78.4225 39.3435 82.0674 39.564Z" stroke="#F1B243" stroke-width="6" mask="url(#path-1-inside-1_10_27)"/>
<path d="M57.5261 46.3663L57.5194 46.3898L57.5119 46.413C57.4805 46.5113 57.4164 46.8537 57.357 47.5199C57.3016 48.1405 57.2588 48.9326 57.2299 49.8465C57.1722 51.6721 57.1719 53.9295 57.2301 56.1657L57.2303 56.1746L57.2305 56.1834L57.3282 63.0559L61.4638 63.3034L61.4657 63.3035L65.4837 63.5491L66.1189 58.8718L66.1193 58.8682L66.9419 52.7004L67.1155 51.3986H68.4287H73.602H77.2753V48.4905V45.5823H67.7233C62.8561 45.5823 60.2018 45.6417 58.6998 45.8805C57.9532 45.9993 57.6872 46.1367 57.6073 46.1928C57.6069 46.1931 57.6064 46.1932 57.6056 46.1934C57.5981 46.1952 57.5731 46.2012 57.5261 46.3663Z" stroke="#F1B243" stroke-width="3"/>
<path d="M1858.13 63.3034L1862.06 63.5389V54.6619V45.5823H1852.39H1842.72V48.4905V51.3986H1846.4H1851.69H1853.1L1853.19 52.8065L1853.54 58.5371L1853.54 58.5388L1853.81 63.0505L1858.13 63.3032L1858.13 63.3034Z" stroke="#F1B243" stroke-width="3"/>
<path d="M146.263 52.5007H153.699V50.1436V47.7864H127.569H101.438V49.5926V51.3987H115.223H130.508H132.008V52.8987V59.5109V64.6232H134.035C135.025 64.6232 135.538 64.6005 135.858 64.5203C136.004 64.4835 135.994 64.4735 135.988 64.467C135.986 64.4656 135.985 64.4643 135.986 64.463C136.066 64.2924 136.17 63.8651 136.19 62.8397C136.209 61.8576 136.153 60.535 136.064 58.7052C136.064 58.7041 136.064 58.703 136.064 58.702L135.829 54.0768L135.749 52.5007H137.327H146.263Z" stroke="#F1B243" stroke-width="3"/>
<path d="M1804.78 51.3986H1818.56V49.5925V47.7864H1792.43H1766.3V50.1435V52.5007H1773.62H1782.44H1783.94V54.0007V60.1721C1783.94 61.68 1783.94 62.7479 1783.99 63.5331C1784.01 63.9209 1784.04 64.1972 1784.08 64.3953C1784.09 64.4371 1784.1 64.4729 1784.11 64.5035C1784.37 64.5195 1784.8 64.4886 1785.57 64.4108C1786.36 64.3256 1786.75 64.2562 1786.98 64.1657C1787.11 64.116 1787.13 64.094 1787.17 64.0018C1787.27 63.8112 1787.39 63.416 1787.5 62.5596C1787.6 61.7274 1787.67 60.6207 1787.76 59.0943C1787.76 59.0939 1787.76 59.0935 1787.76 59.0931L1788.11 52.8145L1788.19 51.3986H1789.61H1804.78Z" stroke="#F1B243" stroke-width="3"/>
<path d="M74.0231 61.08L74.0218 61.088L74.0204 61.096C73.6905 62.951 73.5827 65.8841 73.7967 67.5894L73.8021 67.6328L73.8051 67.6764C73.819 67.8861 73.8349 68.1185 73.8519 68.3685C73.974 70.1599 74.1575 72.8539 74.161 74.5596L74.3024 76.7456H84.0659H93.7355V67.7762V58.8068H84.1835H74.402L74.0231 61.08Z" stroke="#F1B243" stroke-width="3"/>
<path d="M101.439 82.5436V84.008L99.9748 84.0432L86.2185 84.3738L86.2182 84.3738L73.8086 84.6695V92.5722V92.5892L73.8082 92.6062C73.7502 95.1645 73.7792 97.7531 73.8518 99.8629C73.9257 102.01 74.0416 103.553 74.1373 104.096L74.3789 105.399H99.4684H124.305V82.1028V58.8069H112.872H101.439V69.9803V82.5436Z" stroke="#F1B243" stroke-width="3"/>
<path d="M1846.31 91.6126L1846.7 84.1538H1834.17H1820.06H1818.56V82.6538V69.9803V58.8069H1807.13H1795.69V82.1028V105.399H1820.65H1845.66L1845.72 103.783C1845.72 102.739 1845.85 100.332 1846.01 97.4964C1846.11 95.6347 1846.22 93.5882 1846.31 91.621L1846.31 91.6126Z" stroke="#F1B243" stroke-width="3"/>
<path d="M1835.93 58.8068H1826.26V67.7762V76.7456H1836.29H1846.37L1846.07 69.1565L1846.07 69.1454L1846.07 69.1342C1846.02 66.6536 1845.96 64.2346 1845.9 62.3399C1845.85 60.9423 1845.81 59.9054 1845.78 59.3265C1845.5 59.2477 1845.06 59.1619 1844.4 59.0863C1842.71 58.8907 1839.99 58.8068 1835.93 58.8068ZM1846.1 59.4454C1846.1 59.4452 1846.09 59.4409 1846.07 59.433C1846.09 59.4416 1846.1 59.4456 1846.1 59.4454Z" stroke="#F1B243" stroke-width="3"/>
<path d="M65.1328 132.734L67.8694 132.942V126.846V119.131V117.709L69.2899 117.633L75.5183 117.303C75.5187 117.303 75.5192 117.303 75.5197 117.303C77.0325 117.219 78.1057 117.153 78.9007 117.051C79.722 116.946 80.0463 116.823 80.1764 116.744C80.1791 116.743 80.1819 116.741 80.1849 116.74C80.2137 116.724 80.2548 116.703 80.3192 116.495C80.4199 116.172 80.4825 115.689 80.5752 114.792C80.5752 114.791 80.5753 114.79 80.5754 114.79L80.7699 112.845L74.9461 112.585L67.5389 112.254L66.1412 112.192L66.1062 110.793L65.7535 96.6875L65.7535 96.6872L65.4376 84.1538H63.4906H61.4772L61.6984 108.201L61.6985 108.207L62.0322 132.504L65.1298 132.733L65.1328 132.734Z" stroke="#F1B243" stroke-width="3"/>
<path d="M1853.42 96.5993L1853.42 96.5997L1853.89 110.706L1853.94 112.188L1852.46 112.254L1845.05 112.585L1839.23 112.845L1839.42 114.79C1839.42 114.79 1839.43 114.791 1839.43 114.792C1839.52 115.69 1839.58 116.17 1839.68 116.49C1839.75 116.693 1839.79 116.715 1839.82 116.733C1839.82 116.735 1839.83 116.737 1839.83 116.738C1839.97 116.821 1840.31 116.945 1841.15 117.051C1841.96 117.153 1843.06 117.219 1844.6 117.303L1850.71 117.634L1852.13 117.71V119.131V126.846V132.935L1854.62 132.735C1855.75 132.629 1856.67 132.474 1857.28 132.303C1857.31 132.295 1857.34 132.287 1857.36 132.279V132.279V132.26V132.241V132.221V132.202V132.182V132.162V132.142V132.121V132.1V132.079V132.058V132.037V132.015V131.993V131.971V131.949V131.927V131.904V131.881V131.858V131.834V131.811V131.787V131.763V131.739V131.714V131.69V131.665V131.64V131.614V131.589V131.563V131.537V131.511V131.485V131.458V131.431V131.404V131.377V131.35V131.322V131.294V131.266V131.238V131.21V131.181V131.152V131.123V131.094V131.064V131.034V131.004V130.974V130.944V130.914V130.883V130.852V130.821V130.789V130.758V130.726V130.694V130.662V130.63V130.597V130.564V130.531V130.498V130.465V130.431V130.398V130.364V130.33V130.295V130.261V130.226V130.191V130.156V130.121V130.085V130.049V130.014V129.978V129.941V129.905V129.868V129.831V129.794V129.757V129.72V129.682V129.644V129.606V129.568V129.53V129.491V129.452V129.413V129.374V129.335V129.295V129.256V129.216V129.176V129.136V129.095V129.055V129.014V128.973V128.932V128.89V128.849V128.807V128.765V128.723V128.681V128.639V128.596V128.553V128.51V128.467V128.424V128.38V128.337V128.293V128.249V128.205V128.16V128.116V128.071V128.026V127.981V127.936V127.891V127.845V127.799V127.753V127.707V127.661V127.614V127.568V127.521V127.474V127.427V127.38V127.332V127.285V127.237V127.189V127.141V127.093V127.044V126.995V126.947V126.898V126.849V126.799V126.75V126.7V126.651V126.601V126.55V126.5V126.45V126.399V126.349V126.298V126.247V126.195V126.144V126.092V126.041V125.989V125.937V125.885V125.832V125.78V125.727V125.675V125.622V125.568V125.515V125.462V125.408V125.355V125.301V125.247V125.193V125.138V125.084V125.029V124.974V124.919V124.864V124.809V124.754V124.698V124.643V124.587V124.531V124.475V124.419V124.362V124.306V124.249V124.192V124.135V124.078V124.021V123.963V123.906V123.848V123.79V123.732V123.674V123.616V123.558V123.499V123.44V123.381V123.323V123.263V123.204V123.145V123.085V123.026V122.966V122.906V122.846V122.786V122.725V122.665V122.604V122.544V122.483V122.422V122.361V122.3V122.238V122.177V122.115V122.053V121.991V121.929V121.867V121.805V121.742V121.68V121.617V121.554V121.491V121.428V121.365V121.302V121.238V121.175V121.111V121.047V120.983V120.919V120.855V120.791V120.727V120.662V120.597V120.533V120.468V120.403V120.337V120.272V120.207V120.141V120.076V120.01V119.944V119.878V119.812V119.746V119.679V119.613V119.546V119.48V119.413V119.346V119.279V119.212V119.145V119.077V119.01V118.942V118.875V118.807V118.739V118.671V118.603V118.535V118.466V118.398V118.329V118.261V118.192V118.123V118.054V117.985V117.916V117.846V117.777V117.707V117.638V117.568V117.498V117.428V117.358V117.288V117.218V117.148V117.077V117.007V116.936V116.865V116.794V116.724V116.653V116.581V116.51V116.439V116.367V116.296V116.224V116.153V116.081V116.009V115.937V115.865V115.793V115.72V115.648V115.575V115.503V115.43V115.358V115.285V115.212V115.139V115.066V114.992V114.919V114.846V114.772V114.699V114.625V114.551V114.478V114.404V114.33V114.256V114.182V114.107V114.033V113.959V113.884V113.81V113.735V113.66V113.585V113.511V113.436V113.36V113.285V113.21V113.135V113.059V112.984V112.908V112.833V112.757V112.681V112.606V112.53V112.454V112.378V112.301V112.225V112.149V112.073V111.996V111.92V111.843V111.766V111.69V111.613V111.536V111.459V111.382V111.305V111.228V111.15V111.073V110.996V110.918V110.841V110.763V110.686V110.608V110.53V110.452V110.374V110.296V110.218V110.14V110.062V109.984V109.906V109.827V109.749V109.67V109.592V109.513V109.435V109.356V109.277V109.198V109.119V109.04V108.961V108.882V108.803V108.724V108.645V108.566V108.486V108.407V108.327V108.248V108.168V108.089V108.009V107.929V107.849V107.77V107.69V107.61V107.53V107.45V84.1538H1855.22H1853.01L1853.42 96.5993ZM1857.77 132.124C1857.8 132.106 1857.8 132.106 1857.77 132.128C1857.77 132.127 1857.77 132.126 1857.77 132.124Z" stroke="#F1B243" stroke-width="3"/>
<path d="M64.6664 947.051H61.4634V971.449V995.847H64.0785H66.6936V982.91V968.474V966.877L68.2872 966.977L75.33 967.417L80.8026 967.673V965.167V962.511L76.1093 962.257L76.1077 962.257L69.8778 961.927L68.5227 961.855L68.4589 960.499L68.1062 953.006L68.1062 953.005L67.8218 947.051H64.6664Z" stroke="#F1B243" stroke-width="3"/>
<path d="M1850.95 960.98V962.48H1849.45H1843.58H1839.2V964.837V967.194H1844.75H1851.81H1853.31V968.694V983.021V995.847H1855.92H1858.54V971.449V947.051H1854.75H1850.95V953.265V960.98Z" stroke="#F1B243" stroke-width="3"/>
<path d="M124.07 998.097L124.291 974.602H98.763H73.2207V985.225V995.847H85.8297H99.9387H101.439V997.347V1010.57V1022.37L112.597 1022.08L112.598 1022.08L123.738 1021.78L124.07 998.104L124.07 998.097Z" stroke="#F1B243" stroke-width="3"/>
<path d="M1834.17 995.847H1846.78V985.225V974.602H1821.24H1795.69V998.449V1022.3H1807.13H1818.56V1010.57V997.347V995.847H1820.06H1834.17Z" stroke="#F1B243" stroke-width="3"/>
<path d="M73.4544 1013.37L73.4544 1013.37L73.4548 1013.38L73.7556 1021.74H84.066H94.3717L94.6768 1012.41C94.7348 1009.51 94.7051 1006.88 94.6048 1004.97C94.5632 1004.18 94.5107 1003.54 94.4516 1003.07C90.4099 1002.81 85.2312 1002.77 80.8804 1002.91C78.5173 1002.99 76.429 1003.11 74.918 1003.28C74.2982 1003.34 73.8033 1003.41 73.4383 1003.48C73.432 1003.57 73.4258 1003.66 73.4198 1003.75C73.3814 1004.36 73.3526 1005.19 73.3381 1006.17C73.3091 1008.14 73.338 1010.7 73.4544 1013.37ZM94.3296 1002.37C94.3275 1002.37 94.3275 1002.37 94.3303 1002.38C94.3301 1002.37 94.3299 1002.37 94.3296 1002.37Z" stroke="#F1B243" stroke-width="3"/>
<path d="M1825.32 1013.37L1825.32 1013.37L1825.32 1013.38L1825.63 1021.79L1833.63 1022.08L1833.64 1022.08C1834.05 1022.09 1834.46 1022.11 1834.85 1022.12C1838.05 1022.24 1840.42 1022.33 1842.22 1022.26C1844.28 1022.17 1845.22 1021.88 1845.7 1021.51C1846.1 1021.2 1846.45 1020.63 1846.63 1019.07C1846.78 1017.68 1846.78 1015.84 1846.78 1013.29C1846.78 1012.95 1846.78 1012.59 1846.78 1012.22V1003.23L1840.97 1003.14L1840.96 1003.14L1840.95 1003.14C1839.71 1003.11 1838.37 1003.08 1837.02 1003.04C1833.91 1002.97 1830.79 1002.89 1828.97 1002.81C1827.82 1002.82 1826.76 1002.92 1825.99 1003.08C1825.71 1003.14 1825.49 1003.21 1825.32 1003.26C1825.31 1003.4 1825.3 1003.56 1825.29 1003.75C1825.25 1004.36 1825.22 1005.19 1825.21 1006.17C1825.18 1008.14 1825.21 1010.7 1825.32 1013.37ZM1825.04 1003.39C1825.04 1003.39 1825.05 1003.39 1825.06 1003.38C1825.05 1003.38 1825.04 1003.39 1825.04 1003.39Z" stroke="#F1B243" stroke-width="3"/>
<path d="M71.5858 1028.6L71.5627 1028.6L71.5396 1028.6L71.5147 1028.6C70.8137 1028.63 70.0425 1028.66 69.3886 1028.52C68.5813 1028.35 67.8743 1027.92 67.4049 1027.1C67.017 1026.42 66.8501 1025.56 66.7394 1024.65C66.624 1023.7 66.5482 1022.46 66.4607 1020.9L66.4606 1020.9L66.182 1015.85L61.4123 1015.6L61.4107 1015.6L56.7603 1015.35V1025.45V1035.59L67.0936 1035.3L77.6482 1035.01L77.9874 1031.59C77.9875 1031.59 77.9876 1031.59 77.9877 1031.59C78.1093 1030.3 78.1595 1029.53 78.0978 1029.02C78.0699 1028.78 78.027 1028.69 78.0146 1028.67C78.0144 1028.67 78.0144 1028.67 78.0143 1028.67C78.0139 1028.66 78.0132 1028.66 77.9844 1028.64C77.8341 1028.55 77.3979 1028.42 76.2467 1028.4C75.1494 1028.38 73.6567 1028.46 71.5858 1028.6Z" stroke="#F1B243" stroke-width="3"/>
<path d="M132.041 1015.58C131.713 1015.63 131.458 1015.69 131.278 1015.74C131.204 1016.03 131.126 1016.46 131.056 1017.02C130.918 1018.15 130.832 1019.65 130.832 1021.26V1027.1V1028.6H129.332H114.635H101.438V1030.96V1033.32H127.686H153.701L153.468 1030.19L153.468 1030.19L153.216 1026.89L146.671 1026.62L146.67 1026.62L138.676 1026.29L137.238 1026.23V1024.79V1019.39C137.238 1017.98 137.237 1017.02 137.182 1016.32C137.142 1015.81 137.08 1015.58 137.048 1015.48C137.01 1015.47 136.952 1015.46 136.868 1015.45C136.466 1015.38 135.88 1015.38 134.858 1015.38C133.807 1015.38 132.8 1015.46 132.041 1015.58ZM137.109 1015.5C137.109 1015.5 137.106 1015.5 137.098 1015.5C137.104 1015.5 137.109 1015.5 137.109 1015.5Z" stroke="#F1B243" stroke-width="3"/>
<path d="M1782.76 1024.9V1026.4H1781.26H1773.03H1766.3V1029.86V1033.32H1792.43H1818.56V1030.96V1028.6H1805.36H1790.67H1789.17V1027.1V1020.49V1015.38H1785.96H1782.76V1019.39V1024.9Z" stroke="#F1B243" stroke-width="3"/>
<path d="M1853.31 1027.1V1028.6H1851.81H1846.05H1841.9L1842.13 1031.62L1842.13 1031.62L1842.38 1034.97H1852.51H1862.65V1025.45V1015.85L1857.96 1015.6L1857.96 1015.6L1853.31 1015.35V1020.38V1027.1Z" stroke="#F1B243" stroke-width="3"/>
</svg>
