<svg width="162" height="162" viewBox="0 0 162 162" fill="none" xmlns="http://www.w3.org/2000/svg">
<path d="M63.3695 1.30132C59.7695 2.10132 51.6362 5.03465 45.5029 8.10132C36.7029 12.2347 32.0362 15.7013 24.1695 23.7013C6.96952 40.9013 0.702851 56.2347 0.836185 81.168C0.836185 94.2347 1.36952 97.968 4.30285 106.235C18.7029 146.501 59.9029 168.901 100.57 158.501C115.503 154.768 125.903 148.768 137.503 137.168C154.97 119.968 162.17 101.301 160.97 76.5013C160.303 61.4347 157.37 51.168 150.17 38.9013C141.103 23.7013 123.903 9.70132 106.57 3.70132C96.7029 0.367985 74.4362 -0.965349 63.3695 1.30132ZM105.37 5.16799C129.236 13.168 148.436 32.368 156.17 56.1013C160.57 69.7013 160.57 92.368 156.17 105.168C147.503 129.968 127.503 149.035 102.036 156.635C91.2362 159.835 70.1695 159.835 59.3695 156.635C46.1695 152.768 36.0362 146.501 25.2362 135.701C3.10285 113.835 -3.83048 83.3013 6.70285 53.7013C15.9029 27.168 40.1695 7.30132 69.3695 1.96798C77.1029 0.501318 96.9695 2.36798 105.37 5.16799Z" fill="#D82E26"/>
<path d="M65.7696 5.83474C54.4363 8.36808 51.6363 9.96808 53.3696 13.1681C54.0363 14.5014 54.7029 16.2347 54.7029 16.9014C54.7029 18.1014 39.9029 27.8347 38.1696 27.8347C35.5029 27.8347 38.3029 24.5014 44.0363 21.0347C50.4363 17.0347 52.1696 14.2347 49.2363 12.5014C47.6363 11.4347 34.4363 19.1681 30.4363 23.4347L27.6363 26.5014L30.5696 29.7014L33.6363 32.9014L28.0363 40.1014C24.9696 43.9681 21.9029 47.3014 21.2363 47.5681C18.7029 48.5014 20.1696 45.1681 24.8363 39.0347C29.5029 33.0347 29.6363 32.6347 27.2363 30.9014C25.1029 29.4347 24.4363 29.4347 22.4363 31.4347C20.1696 33.8347 10.7029 49.0347 10.7029 50.5014C10.7029 50.9014 12.5696 51.9681 14.8363 52.7681C17.3696 53.7014 18.7029 55.0347 18.4363 56.1014C18.0363 57.0347 16.9696 61.3014 16.0363 65.4347C15.1029 69.7014 13.7696 73.1681 13.1029 73.1681C11.6363 73.1681 11.7696 68.2347 13.5029 61.9681C14.5696 57.8347 14.5696 56.5014 13.1029 55.7014C12.1696 55.0347 10.9696 54.5014 10.5696 54.5014C8.83627 54.5014 6.43627 62.3681 5.7696 70.7681L4.9696 79.8347H9.10294C13.7696 79.8347 13.9029 80.2347 15.3696 92.7681C16.3029 101.701 13.9029 102.235 12.7029 93.4347C11.5029 84.6347 11.1029 83.8347 8.03627 83.8347C4.70294 83.8347 4.43627 89.0347 7.3696 99.7014C9.50294 108.101 11.2363 110.501 13.6363 108.101C16.8363 104.901 19.3696 106.635 23.7696 114.635C26.1696 119.168 27.9029 123.168 27.5029 123.568C26.5696 124.501 21.9029 118.635 19.9029 114.101C18.3029 110.368 16.7029 109.701 13.5029 111.701C11.9029 112.768 12.4363 114.235 16.1696 120.501C18.7029 124.635 22.0363 129.301 23.6363 130.768L26.7029 133.568L30.0363 130.501L33.2363 127.435L38.1696 131.701C40.8363 134.101 44.4363 136.635 46.1696 137.435C47.9029 138.235 49.3696 139.435 49.3696 140.101C49.3696 142.368 45.5029 141.035 39.7696 136.501C33.9029 132.101 33.6363 132.101 31.5029 134.368C29.3696 136.768 29.6363 137.035 35.6363 141.568C41.3696 145.701 49.6363 150.501 51.1029 150.501C51.5029 150.501 52.4363 148.635 53.3696 146.368C54.8363 143.168 55.6363 142.501 57.9029 143.168C59.5029 143.701 63.1029 144.635 66.0363 145.435C74.4363 147.568 74.9696 147.701 74.1696 149.035C73.6363 149.701 70.1696 149.568 65.6363 148.368C55.9029 146.101 56.4363 146.101 55.6363 149.168C54.7029 152.635 55.6363 153.035 67.7696 155.168C76.8363 156.901 78.1696 156.768 79.6363 155.035C80.4363 153.835 80.8363 152.101 80.5696 151.168C79.5029 148.635 83.5029 147.035 93.1029 146.101C102.036 145.168 104.57 147.035 96.4363 148.368C84.8363 150.368 84.0363 150.635 84.0363 153.301C84.0363 156.635 90.7029 156.768 101.77 153.568C109.77 151.435 109.903 151.035 107.503 145.035C106.836 143.435 108.57 141.701 114.703 137.968C119.236 135.301 123.503 133.168 124.303 133.168C126.836 133.168 121.503 137.968 116.036 140.635C110.57 143.168 109.903 144.501 111.903 147.568C113.37 149.968 120.97 146.235 128.703 139.435C133.903 134.901 133.903 134.768 131.77 132.235C130.436 130.768 129.37 128.901 129.37 128.101C129.37 125.701 140.303 111.835 141.503 112.635C142.836 113.435 142.57 114.235 136.97 122.101C133.636 126.768 133.236 128.101 134.703 129.835C136.836 132.501 138.97 130.768 144.703 121.835C151.236 111.568 151.503 109.835 146.703 107.835C143.77 106.635 142.836 105.568 143.37 103.968C143.903 102.768 144.836 99.1681 145.636 95.8347C147.903 86.5014 147.903 86.2347 149.236 87.0347C150.303 87.7014 149.103 96.9014 147.37 102.635C146.303 105.701 151.636 107.035 153.236 104.101C154.17 102.235 157.37 85.1681 157.37 81.9681C157.37 81.5681 155.37 81.1681 152.97 81.1681H148.57L146.97 70.9014C145.503 61.5681 145.636 58.2347 147.37 60.1014C147.77 60.5014 148.836 64.5014 149.636 69.0347C150.97 76.3681 151.503 77.1681 154.436 77.1681C157.37 77.1681 157.503 76.9014 156.703 71.4347C156.17 68.3681 154.836 62.6347 153.77 58.7681C152.17 53.0347 151.37 51.8347 149.636 52.5014C143.636 55.0347 143.103 54.7681 138.57 46.9014C132.836 37.0347 132.836 37.1681 134.703 37.1681C135.503 37.1681 138.036 40.1014 140.303 43.8347C144.703 50.9014 144.97 51.1681 148.036 49.1681C149.77 48.1014 149.636 47.1681 146.836 42.2347C143.636 36.2347 136.836 27.8347 135.103 27.8347C134.57 27.8347 132.97 29.0347 131.37 30.5014C128.703 33.0347 128.57 33.0347 122.703 28.3681C119.37 25.7014 115.903 23.1681 114.836 22.5014C113.903 21.9681 113.236 20.9014 113.503 19.9681C113.903 19.0347 116.703 20.3681 120.97 23.3014C126.836 27.4347 128.303 27.9681 130.036 26.5014C132.703 24.2347 130.97 22.2347 120.836 15.5681C112.57 10.2347 109.37 9.30141 109.37 12.2347C109.37 13.1681 108.57 15.0347 107.636 16.2347C106.17 18.3681 105.503 18.5014 100.17 16.5014C96.9696 15.4347 92.9696 14.5014 91.2363 14.5014C89.3696 14.5014 88.0363 13.7014 88.0363 12.6347C88.0363 11.3014 89.2363 11.0347 93.7696 11.9681C96.8363 12.5014 100.436 13.4347 101.903 13.9681C104.303 14.9014 106.703 12.7681 106.703 9.70141C106.703 8.36808 99.9029 6.63474 86.4363 4.50141C81.3696 3.70141 81.3696 3.70141 81.3696 8.36808C81.3696 12.9014 81.2363 13.0347 75.1029 13.8347C71.5029 14.2347 67.1029 15.0347 65.1029 15.3014C62.9696 15.7014 61.3696 15.4347 61.3696 14.6347C61.3696 13.1681 63.6363 12.3681 71.7696 11.1681C76.5696 10.3681 77.3696 9.83474 77.3696 7.03474C77.3696 3.43474 77.1029 3.43474 65.7696 5.83474ZM76.0363 7.56808C76.0363 8.23474 72.3029 9.43474 67.9029 10.2347C63.3696 11.0347 59.3696 11.9681 59.1029 12.3681C58.7029 12.6347 58.8363 14.2347 59.3696 15.8347C60.0363 17.9681 60.9696 18.3681 63.1029 17.7014C64.7029 17.1681 69.6363 16.3681 74.0363 15.9681C81.9029 15.1681 82.0363 15.0347 82.4363 10.7681C82.8363 6.90141 83.2363 6.50141 87.5029 6.50141C90.0363 6.50141 94.8363 7.16808 98.1696 7.96808C105.37 9.83474 106.17 12.6347 99.1029 11.0347C90.0363 9.16808 86.0363 9.56808 86.0363 12.3681C86.0363 14.3681 88.1696 15.3014 96.5696 17.4347C106.703 19.9681 107.236 19.9681 108.836 17.8347C109.903 16.5014 110.836 14.7681 111.103 13.9681C111.77 12.1014 122.703 17.5681 126.836 21.9681C131.503 26.9014 129.37 26.7681 122.036 21.8347C118.303 19.3014 114.703 17.3014 113.903 17.1681C111.103 17.1681 110.303 21.7014 112.703 23.1681C114.036 23.8347 117.903 26.7681 121.37 29.4347C124.836 32.2347 128.17 34.5014 128.836 34.5014C129.37 34.5014 131.103 33.3014 132.703 31.8347L135.636 29.0347L138.97 33.4347C145.37 42.1014 148.303 47.8347 146.436 47.8347C145.503 47.8347 143.503 45.7014 142.17 43.1681C140.836 40.6347 138.57 37.5681 137.103 36.2347C134.836 34.2347 134.436 34.2347 132.436 36.1014C130.436 38.1014 130.57 38.6347 133.503 42.1014C135.236 44.2347 137.903 48.5014 139.236 51.5681C141.236 55.8347 142.303 57.0347 143.903 56.3681C149.236 54.1014 150.97 55.0347 152.836 61.1681C154.97 68.2347 155.236 75.8347 153.37 75.8347C152.703 75.8347 152.036 74.6347 152.036 73.0347C152.036 66.7681 149.103 58.5014 146.703 58.5014C143.37 58.5014 143.103 59.3014 144.303 66.1014C144.836 69.7014 145.636 74.7681 146.036 77.4347C146.703 81.9681 147.236 82.5014 150.703 82.5014C154.436 82.5014 154.703 82.9014 154.703 87.3014C154.703 93.5681 152.036 103.835 150.436 103.835C149.636 103.835 149.503 102.368 149.903 100.501C150.436 98.6347 151.103 94.5014 151.636 91.1681C152.303 85.4347 152.303 85.1681 149.103 85.1681C146.17 85.1681 145.636 85.8347 144.836 91.4347C144.436 94.9014 143.236 99.8347 142.303 102.368C141.103 105.701 141.103 107.035 142.17 107.435C142.97 107.701 144.703 108.768 146.17 109.701C148.17 111.168 148.303 112.101 147.103 114.635C144.436 120.368 137.37 129.301 136.036 128.501C135.37 128.101 136.97 124.768 139.503 121.035C144.17 114.768 144.703 110.501 141.103 110.501C140.17 110.501 136.436 114.501 132.836 119.301L126.436 127.968L129.236 131.035L132.17 134.101L127.37 138.235C121.903 143.035 114.836 147.035 113.636 145.968C112.836 145.035 112.436 145.435 120.436 139.968C123.903 137.568 126.703 134.768 126.703 133.701C126.703 130.101 122.97 130.235 117.503 134.235C114.57 136.368 110.436 138.901 108.17 139.701C104.57 141.301 104.303 141.701 105.636 145.435C106.703 148.635 106.703 149.701 105.236 150.635C103.103 151.968 91.7696 154.501 88.0363 154.501C83.3696 154.501 85.1029 152.101 90.4363 151.301C102.57 149.168 102.836 149.035 102.436 146.101C102.17 144.101 101.236 143.301 99.3696 143.568C97.9029 143.701 92.8363 144.368 88.0363 144.901C79.5029 145.835 79.3696 145.835 78.9696 150.101C78.5696 153.968 78.0363 154.501 74.7029 154.501C68.5696 154.501 57.3696 151.701 57.3696 150.235C57.3696 149.301 59.1029 149.168 62.0363 149.701C64.5696 150.101 68.8363 150.901 71.3696 151.301C75.6363 152.101 76.0363 151.968 76.0363 148.901C76.0363 145.968 75.2363 145.435 70.7029 144.635C67.6363 144.235 62.8363 142.901 59.9029 141.968C54.7029 140.101 54.5696 140.101 52.5696 143.968C51.5029 146.101 50.1696 147.835 49.5029 147.835C47.1029 147.835 31.9029 137.035 32.7029 135.835C33.1029 135.035 36.5696 136.501 40.4363 139.168C48.4363 144.635 48.8363 144.635 50.7029 141.301C51.7696 139.168 51.2363 138.235 46.3029 135.435C43.2363 133.568 39.2363 130.501 37.5029 128.635L34.1696 125.168L31.2363 127.968C29.5029 129.568 27.2363 130.501 26.1696 130.101C23.3696 129.035 14.3029 115.035 14.9696 113.035C15.2363 112.101 17.7696 114.768 20.5696 118.901C26.0363 127.035 26.8363 127.568 29.3696 124.501C30.5696 123.035 30.4363 121.835 28.3029 118.901C26.8363 116.901 24.4363 112.635 22.8363 109.568C20.1696 104.101 19.9029 103.968 16.0363 105.435C13.7696 106.235 11.6363 106.501 11.3696 106.235C10.4363 105.435 6.70294 90.2347 6.70294 87.5681C6.70294 83.1681 9.23627 85.1681 10.0363 90.1014C11.9029 101.168 13.5029 103.701 17.1029 101.301C18.5696 100.501 18.5696 99.1681 17.5029 95.0347C16.7029 92.1014 16.0363 87.3014 16.0363 84.1014C16.0363 78.6347 16.0363 78.5014 11.3696 78.5014C7.3696 78.5014 6.70294 78.1014 6.70294 75.4347C6.70294 69.1681 9.7696 57.1681 11.3696 57.1681C12.7029 57.1681 12.5696 59.0347 11.1029 65.1681C9.10294 73.8347 9.50294 75.8347 13.1029 75.8347C14.8363 75.8347 15.9029 73.4347 17.6363 66.7681C18.8363 61.8347 20.1696 56.9014 20.7029 55.7014C21.2363 54.1014 20.3029 53.0347 17.5029 51.8347C15.2363 50.9014 13.3696 49.9681 13.3696 49.5681C13.3696 48.2347 18.8363 38.7681 21.9029 35.1681C27.2363 28.6347 27.2363 32.3681 21.9029 40.5014C17.7696 46.6347 17.2363 48.2347 18.8363 49.3014C21.9029 51.1681 23.5029 50.7681 25.1029 47.3014C25.9029 45.4347 28.8363 41.5681 31.5029 38.5014L36.4363 33.0347L33.3696 29.8347C30.3029 26.6347 30.3029 26.5014 32.8363 23.7014C36.3029 19.8347 46.3029 14.1014 48.3029 14.7681C49.2363 15.1681 46.5696 17.5681 42.3029 20.2347C34.3029 25.4347 33.5029 26.5014 36.5696 29.0347C38.1696 30.3681 39.6363 29.8347 43.9029 26.7681C46.8363 24.6347 51.1029 22.1014 53.3696 21.1681C57.5029 19.4347 57.7696 18.6347 55.3696 12.9014C54.7029 11.0347 55.7696 10.2347 60.9696 8.63474C68.0363 6.50141 76.0363 5.96808 76.0363 7.56808Z" fill="#D82E26"/>
<path d="M62.7029 21.0347C52.1696 24.368 47.2363 27.3013 39.6363 34.368C32.0363 41.3013 25.6363 50.768 22.0363 60.5013C18.0363 70.768 18.4363 89.7013 22.7029 101.568C28.3029 117.301 43.1029 132.501 58.7029 138.768C69.3696 143.035 92.1696 143.035 102.97 138.635C118.703 132.501 132.836 118.368 138.836 102.901C142.436 93.168 143.636 76.9013 141.37 66.6347C136.57 44.768 118.57 26.1013 96.8363 20.368C87.3696 17.8347 71.6363 18.1013 62.7029 21.0347ZM82.4363 21.568C83.3696 22.6347 83.2363 23.968 81.9029 25.7013C80.8363 27.168 80.0363 27.568 80.0363 26.768C80.0363 25.8347 79.1029 25.168 78.0363 25.168C76.3029 25.168 76.1696 24.6347 77.3696 22.5013C78.9696 19.4347 80.4363 19.168 82.4363 21.568ZM73.9029 24.5013C73.2363 27.3013 73.5029 27.8347 75.7696 27.8347C77.2363 27.8347 78.7029 28.5013 78.9696 29.4347C79.3696 30.368 80.5696 30.6347 81.9029 30.1013C83.2363 29.568 84.0363 28.368 83.6363 27.4347C82.7029 25.0347 87.9029 25.4347 89.3696 27.7013C90.8363 30.2347 96.0363 28.2347 96.0363 25.0347C96.0363 23.4347 96.9696 22.5013 98.7029 22.5013C101.903 22.5013 108.036 28.1013 105.636 28.9013C102.57 29.8347 104.036 34.2347 108.436 37.0347C111.903 39.3013 112.97 39.4347 114.036 37.968C117.37 33.568 120.97 34.2347 125.903 39.968C130.97 45.968 132.036 50.1013 128.703 51.3013C126.57 52.2347 125.903 55.8347 127.903 55.8347C128.57 55.8347 129.636 57.0347 130.036 58.6347C130.836 60.768 131.636 61.168 134.836 60.5013C138.17 59.7013 138.703 59.968 138.703 62.5013C138.703 63.968 137.77 65.568 136.703 65.968C134.303 66.9013 134.036 72.768 136.436 73.568C137.503 73.968 137.103 74.9013 134.97 76.6347C132.57 78.768 132.17 79.8347 133.103 83.168C133.903 85.8347 135.103 87.168 136.836 87.168C140.036 87.168 140.703 90.6347 138.703 97.968C136.836 104.235 136.17 104.635 130.036 101.968C126.436 100.368 125.77 100.501 123.103 102.768C119.903 105.701 104.97 107.835 103.636 105.568C103.103 104.768 105.903 103.835 110.436 103.435C116.17 102.768 118.703 101.835 120.57 99.568C122.836 96.6347 122.836 96.5013 120.703 96.1013C119.37 95.8347 117.903 96.2347 117.37 97.168C116.57 98.368 116.17 98.368 115.37 97.0347C114.703 95.968 115.636 94.2347 117.77 92.368C121.37 89.3013 121.37 89.3013 118.703 87.4347C116.836 86.1013 113.77 85.7013 109.636 86.1013C104.97 86.5013 103.903 86.368 105.37 85.3013C106.436 84.5013 108.703 83.8347 110.436 83.8347C113.903 83.8347 114.036 83.0347 111.37 73.968C108.836 65.0347 103.503 59.8347 96.1696 58.9013C91.3696 58.2347 90.3029 58.6347 87.9029 61.7013C84.5696 65.968 81.6363 66.368 84.4363 62.1013C85.6363 60.2347 86.1696 57.4347 85.6363 55.168C85.1029 51.968 85.7696 50.6347 90.8363 46.368C95.5029 42.368 96.0363 41.4347 93.5029 42.1013C91.3696 42.6347 90.5696 42.368 91.1029 41.568C92.3029 39.568 81.6363 42.1013 77.6363 44.6347C74.1696 46.9013 70.3029 54.9013 73.1029 54.2347C73.6363 54.2347 75.1029 54.5013 76.4363 55.168C77.6363 55.7013 79.9029 55.8347 81.3696 55.4347C84.3029 54.6347 84.9696 57.0347 82.4363 59.568C80.0363 61.968 76.4363 61.4347 73.2363 58.1013L70.3029 55.168L71.2363 58.5013C71.6363 60.368 72.4363 63.168 72.8363 64.768C73.5029 67.168 73.1029 67.8347 70.9696 67.8347C67.6363 67.8347 54.3029 78.1013 55.1029 80.2347C55.3696 81.0347 57.6363 82.368 60.1696 83.0347C62.7029 83.7013 64.8363 84.368 65.1029 84.5013C65.2363 84.6347 64.0363 89.3013 62.1696 94.6347C58.5696 105.168 55.3696 125.968 56.4363 131.301C57.1029 135.035 55.1029 137.035 53.9029 133.968C53.5029 132.768 52.5696 132.235 51.9029 132.635C50.4363 133.568 41.3696 127.035 41.3696 125.035C41.3696 124.368 42.1696 123.835 43.2363 123.835C45.9029 123.835 47.2363 118.768 45.2363 116.368C44.0363 114.768 43.2363 114.768 41.6363 116.101C39.9029 117.568 39.7696 117.435 40.3029 115.835C41.3696 112.235 46.5696 112.635 48.3029 116.501C50.1696 120.501 53.9029 120.501 54.4363 116.235C54.7029 114.368 53.9029 112.768 52.1696 111.835C50.5696 111.035 49.3696 109.168 49.3696 107.701C49.3696 104.768 44.0363 101.701 40.8363 102.901C39.6363 103.435 39.1029 104.635 39.5029 105.835C39.9029 106.901 39.6363 107.835 38.8363 107.835C38.0363 107.835 37.3696 107.301 37.3696 106.635C37.3696 104.501 33.3696 103.835 30.0363 105.435C26.4363 107.035 23.6363 105.701 26.5696 103.835C28.7029 102.501 27.5029 98.368 25.1029 98.768C24.1696 99.0347 23.2363 97.8347 22.9696 96.1013C22.3029 92.1013 25.1029 92.368 26.7029 96.5013C27.5029 98.6347 28.5696 99.568 30.0363 99.0347C32.5696 97.968 32.5696 97.3013 29.7696 94.1013C27.5029 91.7013 27.5029 91.568 29.7696 90.368C32.4363 88.768 32.8363 85.7013 30.4363 84.6347C29.5029 84.2347 30.3029 84.2347 32.4363 84.6347C34.7029 85.168 36.0363 84.9013 36.0363 83.8347C36.0363 83.0347 36.7029 82.768 37.3696 83.168C39.3696 84.368 38.9696 86.5013 36.7029 86.5013C33.5029 86.5013 34.0363 93.968 37.2363 94.9013C40.9696 95.8347 44.9696 91.3013 42.8363 88.6347C41.9029 87.568 41.5029 85.968 42.0363 85.168C43.2363 83.168 46.7029 83.568 45.9029 85.7013C44.9696 88.2347 49.7696 89.168 51.9029 86.9013C53.2363 85.4347 53.2363 84.6347 52.0363 83.168C51.1029 82.1013 49.7696 81.4347 48.9696 81.568C48.0363 81.7013 47.2363 80.2347 46.9696 78.1013C46.7029 76.1013 45.7696 74.5013 44.9696 74.5013C44.0363 74.5013 42.0363 74.1013 40.4363 73.7013C38.1696 73.0347 37.3696 73.4347 37.3696 75.0347C37.3696 76.2347 36.4363 77.168 35.3696 77.168C34.3029 77.168 33.3696 76.368 33.3696 75.3013C33.3696 71.8347 30.0363 70.2347 26.1696 71.968C21.6363 74.1013 20.8363 73.0347 21.9029 67.0347C22.8363 62.2347 22.9696 62.2347 24.8363 65.0347C26.0363 66.768 28.3029 67.8347 30.5696 67.8347C33.9029 67.8347 34.3029 67.4347 33.9029 64.1013C33.6363 62.1013 33.7696 61.4347 34.1696 62.768C35.1029 65.7013 38.3029 66.768 41.3696 65.168C42.7029 64.368 45.9029 63.8347 48.5696 63.8347C54.1696 63.8347 56.0363 61.4347 52.5696 58.9013C49.9029 57.0347 47.5029 54.9013 43.5029 50.5013C39.9029 46.768 34.7029 47.0347 33.6363 50.768C32.8363 53.568 32.7029 53.568 32.0363 49.8347C30.9696 44.5013 36.4363 37.568 47.1029 30.368C56.3029 24.2347 58.7029 23.8347 58.7029 28.5013C58.7029 32.368 57.6363 32.768 55.3696 29.568C53.9029 27.7013 53.5029 27.968 51.6363 31.8347C48.9696 37.0347 48.8363 38.2347 50.9696 36.1013C53.1029 33.968 58.7029 34.1013 58.7029 36.368C58.7029 37.4347 56.0363 38.6347 51.7696 39.4347L44.7029 40.768L51.7696 41.0347L58.7029 41.168V47.168C58.7029 50.5013 59.3696 53.168 60.0363 53.168C60.8363 53.168 61.3696 50.1013 61.3696 46.5013V39.8347H68.0363C71.7696 39.8347 74.7029 39.168 74.7029 38.5013C74.7029 37.7013 71.7696 37.168 68.0363 37.168C62.9696 37.168 61.3696 36.6347 61.3696 35.168C61.3696 34.1013 62.5696 33.168 63.9029 33.168C65.3696 33.168 66.9696 32.5013 67.3696 31.8347C67.9029 31.0347 66.7029 30.5013 64.7029 30.5013C61.7696 30.5013 61.3696 29.968 61.6363 26.768C62.0363 22.6347 64.1696 21.4347 70.4363 21.3013C74.4363 21.168 74.7029 21.4347 73.9029 24.5013ZM94.0363 23.7013C94.9696 25.3013 92.4363 26.9013 90.7029 25.8347C89.2363 24.9013 90.1696 22.5013 92.0363 22.5013C92.7029 22.5013 93.5029 23.0347 94.0363 23.7013ZM112.57 28.6347C115.636 29.8347 115.236 33.168 112.036 33.168C110.303 33.168 109.37 32.2347 109.37 30.5013C109.37 27.568 109.503 27.4347 112.57 28.6347ZM88.0363 46.9013C88.0363 47.568 87.5029 47.568 86.7029 47.168C86.0363 46.768 85.3696 45.3013 85.3696 44.1013C85.3696 42.1013 85.6363 42.1013 86.7029 43.8347C87.3696 44.9013 88.0363 46.368 88.0363 46.9013ZM81.5029 48.1013C84.8363 52.1013 84.7029 53.4347 81.1029 52.9013C78.8363 52.6347 77.9029 51.4347 77.6363 48.768C77.1029 44.368 78.1696 44.2347 81.5029 48.1013ZM135.77 55.8347C136.17 58.5013 135.903 58.768 134.436 57.4347C133.37 56.6347 132.17 56.2347 131.636 56.6347C131.236 57.0347 131.236 56.1013 131.636 54.6347C132.57 50.9013 135.236 51.7013 135.77 55.8347ZM30.7029 58.6347C30.7029 59.3013 30.0363 59.568 29.3696 59.168C28.5696 58.6347 27.1029 59.0347 26.0363 59.8347C24.0363 61.4347 23.1029 59.8347 24.9696 58.1013C26.3029 56.6347 30.7029 57.0347 30.7029 58.6347ZM98.4363 68.368C98.8363 69.968 98.3029 70.6347 97.1029 70.2347C96.1696 69.8347 95.1029 68.5013 94.9696 67.3013C94.5696 65.7013 95.1029 65.0347 96.3029 65.4347C97.2363 65.8347 98.3029 67.168 98.4363 68.368ZM107.503 68.368C107.903 69.4347 108.036 71.4347 107.77 72.768C107.37 74.768 106.97 74.768 104.436 71.968C102.836 70.2347 101.77 68.2347 102.17 67.568C103.236 65.8347 106.703 66.368 107.503 68.368ZM89.9029 69.0347C90.3029 69.568 90.3029 70.5013 89.9029 70.9013C88.8363 71.968 85.3696 70.5013 85.3696 69.0347C85.3696 67.568 88.9696 67.4347 89.9029 69.0347ZM140.036 69.8347C140.036 70.9013 139.503 71.8347 138.836 71.8347C137.103 71.8347 135.903 69.7013 136.97 68.6347C138.436 67.168 140.036 67.8347 140.036 69.8347ZM74.1696 76.5013C73.7696 78.5013 74.1696 79.8347 75.1029 79.968C76.3029 79.968 76.1696 80.2347 74.9696 80.768C74.1696 81.0347 73.6363 81.968 74.1696 82.6347C75.1029 84.2347 69.9029 84.1013 63.7696 82.368C60.9696 81.7013 58.7029 80.2347 58.7029 79.3013C58.7029 77.168 67.1029 73.3013 71.7696 73.3013C74.3029 73.168 74.7029 73.7013 74.1696 76.5013ZM98.8363 75.8347C101.636 78.1013 101.77 78.368 99.5029 78.5013C97.9029 78.5013 97.3696 79.168 97.9029 80.5013C98.9696 83.3013 92.8363 83.168 90.5696 80.2347C89.2363 78.768 89.2363 78.368 90.4363 79.0347C91.2363 79.568 92.0363 79.3013 92.0363 78.6347C92.0363 77.8347 91.3696 77.168 90.5696 77.168C89.5029 77.168 89.5029 76.5013 90.7029 75.168C92.9696 72.5013 95.1029 72.6347 98.8363 75.8347ZM28.1696 75.8347C29.3696 74.2347 29.5029 74.2347 28.8363 76.368C28.1696 78.2347 28.5696 78.6347 30.1696 77.968C32.0363 77.3013 32.1696 77.4347 30.7029 79.168C29.3696 80.768 29.5029 81.168 31.5029 81.3013C33.6363 81.3013 33.6363 81.568 31.1029 82.5013C29.3696 83.168 28.0363 84.5013 28.0363 85.4347C28.0363 86.6347 27.6363 86.6347 26.7029 85.168C25.9029 83.8347 25.3696 83.7013 25.3696 84.768C25.3696 85.7013 24.8363 86.5013 24.3029 86.5013C23.6363 86.5013 23.1029 85.7013 22.9696 84.768C22.9696 83.968 22.5696 81.8347 22.1696 80.2347C21.7696 78.1013 22.0363 77.568 23.5029 78.1013C24.8363 78.6347 25.2363 78.1013 24.5696 76.368C23.9029 74.2347 24.0363 74.2347 25.2363 75.8347C26.5696 77.568 26.8363 77.568 28.1696 75.8347ZM43.3696 80.6347C40.4363 82.768 37.9029 81.168 39.2363 77.8347C39.9029 76.1013 40.5696 75.968 42.9696 77.3013C45.7696 78.768 45.7696 78.9013 43.3696 80.6347ZM140.836 83.4347C139.636 84.6347 135.77 82.2347 134.97 79.8347C134.57 78.9013 134.97 78.5013 135.77 79.0347C136.57 79.4347 137.636 79.168 138.17 78.2347C138.836 77.168 139.636 77.568 140.436 79.568C141.236 81.168 141.37 82.9013 140.836 83.4347ZM87.3696 82.5013C87.7696 83.3013 87.2363 84.2347 86.1696 84.6347C84.9696 85.0347 84.0363 85.968 84.0363 86.5013C84.0363 88.368 88.0363 89.168 91.5029 87.8347C94.4363 86.6347 94.8363 86.9013 94.4363 88.768C93.6363 93.3013 83.5029 92.5013 82.0363 87.7013C80.7029 83.568 85.2363 79.168 87.3696 82.5013ZM50.7029 85.168C50.7029 85.8347 50.1696 86.5013 49.3696 86.5013C48.7029 86.5013 48.0363 85.8347 48.0363 85.168C48.0363 84.368 48.7029 83.8347 49.3696 83.8347C50.1696 83.8347 50.7029 84.368 50.7029 85.168ZM78.4363 92.768C79.6363 93.7013 83.6363 94.5013 87.2363 94.5013C97.5029 94.5013 99.1029 96.6347 89.6363 97.7013C77.7696 99.0347 73.2363 96.5013 73.3696 88.768C73.5029 85.8347 73.5029 85.8347 74.9696 88.5013C75.7696 89.968 77.3696 91.968 78.4363 92.768ZM24.0363 89.0347C24.0363 89.8347 23.5029 90.768 22.7029 91.168C22.0363 91.568 21.3696 91.0347 21.3696 89.968C21.3696 88.768 22.0363 87.8347 22.7029 87.8347C23.5029 87.8347 24.0363 88.368 24.0363 89.0347ZM41.1029 90.768C40.3029 93.168 37.3696 93.568 37.3696 91.3013C37.3696 90.1013 38.3029 89.168 39.5029 89.168C40.7029 89.168 41.3696 89.8347 41.1029 90.768ZM110.703 95.7013C112.57 99.3013 112.436 100.501 110.303 98.768C109.37 97.968 107.236 97.568 105.636 98.1013C103.236 98.6347 102.703 98.2347 102.703 95.968C102.703 92.2347 108.703 92.1013 110.703 95.7013ZM70.7029 96.6347C70.7029 98.768 67.6363 102.501 66.0363 102.501C63.2363 102.501 63.5029 98.9013 66.4363 97.3013C68.9696 95.7013 70.7029 95.4347 70.7029 96.6347ZM77.3696 105.701C77.3696 107.568 76.4363 109.968 75.2363 111.168C73.1029 113.168 72.8363 113.168 70.8363 111.168C68.8363 109.168 68.9696 108.768 72.4363 105.701C77.1029 101.701 77.3696 101.701 77.3696 105.701ZM127.236 104.635C128.436 105.035 129.37 106.235 129.37 107.301C129.37 109.568 127.77 109.701 125.636 107.568C122.703 104.635 123.503 103.168 127.236 104.635ZM87.7696 112.768C87.5029 116.368 86.7029 117.968 85.1029 118.235C83.2363 118.635 82.7029 117.835 82.7029 114.901C82.7029 111.168 84.7029 107.835 87.1029 107.835C87.6363 107.835 88.0363 110.101 87.7696 112.768ZM119.77 110.768C122.036 113.035 121.77 115.835 119.37 115.835C118.303 115.835 117.37 115.301 117.37 114.635C117.37 113.968 116.97 112.501 116.57 111.301C115.636 108.768 117.503 108.501 119.77 110.768ZM99.3696 115.301C99.3696 117.835 98.5696 119.301 97.1029 119.568C94.5696 120.101 93.9029 116.768 95.5029 112.501C96.8363 109.168 99.3696 110.901 99.3696 115.301ZM110.703 116.635C110.703 120.901 106.97 120.768 105.903 116.635C105.503 114.768 105.503 112.635 106.036 111.835C107.503 109.568 110.703 112.901 110.703 116.635ZM130.703 114.501C129.503 116.768 126.703 118.235 126.703 116.635C126.703 114.501 128.703 111.835 130.17 111.835C131.77 111.835 131.77 112.368 130.703 114.501ZM38.7029 119.968C38.7029 120.635 38.1696 121.168 37.6363 121.168C36.9696 121.168 36.4363 120.235 36.4363 119.168C36.4363 118.101 36.9696 117.568 37.6363 117.968C38.1696 118.368 38.7029 119.168 38.7029 119.968ZM70.7029 118.368C70.7029 119.035 72.0363 119.835 73.7696 120.101C75.7696 120.368 76.5696 121.301 76.3029 122.768C76.0363 124.101 76.5696 125.168 77.3696 125.168C78.0363 125.168 78.7029 126.101 78.7029 127.168C78.7029 128.235 78.0363 129.168 77.2363 129.168C76.4363 129.168 76.1696 130.368 76.7029 131.835C77.5029 134.368 76.4363 135.168 72.4363 134.635C71.5029 134.501 70.7029 135.035 70.7029 135.835C70.7029 136.501 69.7696 137.168 68.7029 137.168C67.6363 137.168 66.7029 136.501 66.7029 135.835C66.7029 135.035 65.6363 134.501 64.4363 134.768C62.8363 135.035 61.9029 134.235 61.6363 132.101C61.3696 130.501 60.5696 129.168 59.9029 129.168C59.2363 129.168 58.7029 128.235 58.7029 127.168C58.7029 126.101 59.5029 125.168 60.5696 125.168C61.7696 125.168 62.1696 124.235 61.7696 122.501C61.2363 120.501 61.7696 119.835 63.9029 119.835C65.3696 119.835 66.7029 119.168 66.7029 118.501C66.7029 117.701 67.6363 117.168 68.7029 117.168C69.7696 117.168 70.7029 117.701 70.7029 118.368ZM121.37 125.168C114.703 130.901 112.436 130.635 114.17 124.101C114.836 121.701 115.903 121.168 120.57 121.168H126.036L121.37 125.168ZM104.036 129.968C104.036 131.035 104.836 131.435 106.036 131.035C107.103 130.501 109.103 130.635 110.436 131.168C112.303 131.968 112.17 132.368 108.703 134.101C105.77 135.701 104.703 135.835 104.303 134.501C103.77 133.168 103.503 133.168 102.703 134.635C101.77 135.968 101.236 135.968 99.5029 134.501C97.6363 133.035 97.3696 133.168 98.1696 135.035C98.7029 136.501 98.3029 137.168 96.8363 137.168C95.6363 137.168 94.7029 137.701 94.7029 138.501C94.7029 139.168 93.1029 139.835 91.1029 139.835C87.6363 139.701 87.5029 139.568 89.9029 137.835C91.2363 136.901 91.9029 135.301 91.3696 134.501C90.0363 132.368 93.1029 129.301 95.9029 130.101C97.3696 130.501 98.7029 129.835 99.1029 128.635C100.036 126.235 104.036 127.168 104.036 129.968ZM84.7029 131.835C83.6363 133.968 82.7029 136.901 82.7029 138.501C82.7029 139.968 81.7696 141.168 80.7029 141.168C77.9029 141.168 78.1696 137.301 81.3696 132.101C84.7029 126.768 87.5029 126.368 84.7029 131.835Z" fill="#D82E26"/>
<path d="M94.4362 36.768C94.0362 38.368 94.4362 39.4347 95.5029 39.4347C97.6362 39.4347 97.7695 38.6347 96.1695 36.1014C95.3695 34.6347 94.9695 34.9014 94.4362 36.768Z" fill="#D82E26"/>
<path d="M120.303 42.5013C119.37 44.1013 117.236 45.1679 115.236 45.1679C112.57 45.1679 111.903 45.7013 112.303 48.1013C112.836 51.9679 115.103 52.5013 118.17 49.5679C119.636 48.2346 120.17 47.5679 119.503 48.1013C117.636 49.5679 116.036 49.4346 116.036 47.8346C116.036 47.1679 117.503 46.2346 119.37 45.7013C121.503 45.1679 122.703 43.9679 122.703 42.3679C122.703 39.1679 122.436 39.1679 120.303 42.5013Z" fill="#D82E26"/>
<path d="M102.036 47.168C95.7696 50.5013 92.4363 55.8347 96.7029 55.8347C97.9029 55.8347 100.57 56.768 102.703 57.8347C106.436 59.7013 106.703 59.7013 108.303 56.9013C109.236 55.168 110.036 51.8347 110.036 49.568C110.036 44.5013 108.303 44.1013 102.036 47.168ZM104.036 49.8347C104.036 51.0347 104.97 52.2347 106.036 52.6347C109.103 53.8347 108.436 55.8347 104.836 55.8347C101.503 55.8347 99.1029 51.8347 100.703 49.168C101.903 47.168 104.036 47.568 104.036 49.8347Z" fill="#D82E26"/>
<path d="M113.37 70.6346C115.103 76.3679 115.37 76.5013 119.37 73.9679C123.636 71.1679 123.636 69.4346 119.236 67.8346C113.236 65.4346 112.036 65.9679 113.37 70.6346Z" fill="#D82E26"/>
<path d="M93.3696 77.168C93.3696 77.8347 94.0363 78.5013 94.8363 78.5013C95.503 78.5013 95.7696 77.8347 95.3696 77.168C94.9696 76.368 94.303 75.8347 93.903 75.8347C93.6363 75.8347 93.3696 76.368 93.3696 77.168Z" fill="#D82E26"/>
<path d="M65.6363 124.635C63.5029 126.901 63.5029 127.435 65.6363 129.701C67.6363 131.835 70.0363 131.701 72.4363 129.301C73.7696 127.968 73.3696 127.835 70.4363 128.501C67.5029 129.301 66.7029 129.035 66.7029 127.168C66.7029 125.301 67.3696 125.035 70.3029 125.835C74.3029 126.768 74.1696 126.368 70.0363 124.101C68.0363 123.168 66.9696 123.301 65.6363 124.635Z" fill="#D82E26"/>
</svg>
