<svg width="162" height="162" viewBox="0 0 162 162" fill="none" xmlns="http://www.w3.org/2000/svg">
<path d="M62.0362 2.50135C35.2362 9.96802 13.3696 30.1014 4.56958 55.4347C0.969581 65.8347 -0.230419 85.3014 1.90291 96.9014C7.36958 125.301 31.6362 151.301 60.0362 159.301C70.0363 162.101 95.5029 161.701 104.703 158.635C118.303 154.101 127.77 148.101 138.036 137.835C155.236 120.635 163.103 100.101 161.636 76.5014C160.303 55.7014 152.836 39.0347 138.17 24.368C128.703 15.0347 118.836 8.76802 106.436 4.36802C96.0363 0.634684 72.4363 -0.298649 62.0362 2.50135ZM97.3696 3.83468C124.836 9.56802 149.77 32.6347 157.236 59.168C168.97 101.301 144.97 144.635 102.57 157.301C90.0363 161.035 69.5029 160.501 56.0362 156.101C32.9696 148.501 14.9696 130.635 6.56958 107.168C3.36958 98.5014 2.96958 95.0347 2.83625 81.168C2.83625 68.1014 3.36958 63.7014 5.76958 56.9014C19.6362 17.8347 57.9029 -4.43198 97.3696 3.83468Z" fill="#D82E26"/>
<path d="M82.0363 8.50138C82.0363 13.3014 80.0363 14.368 68.4363 15.7014C57.903 16.9014 58.5696 14.5014 69.3696 12.5014C76.4363 11.168 78.0363 10.368 78.0363 8.36804C78.0363 5.03471 71.3696 4.90138 60.303 8.10138C52.303 10.2347 52.1696 10.6347 54.5696 16.6347C55.3696 18.2347 53.6363 19.968 47.7696 23.3014C37.903 29.0347 38.0363 29.0347 38.0363 27.168C38.0363 26.368 41.103 23.8347 44.703 21.568C51.7696 17.168 52.0363 16.9014 50.1696 14.1014C48.703 11.7014 41.103 15.4347 33.3696 22.2347L28.0363 26.9014L30.9696 30.1014L33.903 33.168L28.303 40.5014C23.103 47.4347 21.103 49.168 20.4363 47.968C20.1696 47.7014 22.0363 44.368 24.4363 40.6347C28.1696 35.0347 28.703 33.4347 27.3696 31.7014C25.903 29.968 25.3696 30.1014 23.103 32.1014C20.1696 34.768 11.3696 48.9014 11.3696 50.9014C11.3696 51.568 13.103 52.9014 15.2363 53.568L19.103 54.9014L17.103 63.4347C14.0363 75.968 14.0363 75.7014 12.703 74.368C11.903 73.568 12.1696 70.1014 13.3696 65.168C15.2363 57.168 14.703 55.3014 10.5696 55.168C9.23631 55.168 6.96965 63.168 5.23631 74.768L4.30298 80.5014H9.10298H13.7696L15.103 90.1014C15.903 95.4347 16.303 100.101 15.903 100.368C14.703 101.701 12.8363 97.3014 12.0363 90.9014C11.2363 85.3014 10.703 84.5014 7.90298 84.5014C6.16965 84.5014 4.70298 84.768 4.70298 85.0347C4.70298 85.3014 5.36965 88.6347 6.03631 92.5014C8.43631 105.035 10.1696 110.101 11.7696 109.435C18.8363 106.768 18.9696 106.901 23.503 114.768C29.2363 124.635 29.2363 124.501 27.3696 124.501C26.5696 124.501 24.0363 121.435 21.7696 117.835C17.3696 110.768 17.103 110.501 14.1696 112.368C12.4363 113.435 12.5696 114.368 14.8363 118.501C16.1696 121.301 19.503 125.968 22.303 129.035L27.103 134.501L30.5696 131.301L33.903 128.101L38.303 131.968C40.8363 134.101 44.1696 136.768 45.903 137.968C47.6363 139.035 48.8363 140.635 48.5696 141.435C48.303 142.368 45.903 141.435 42.703 139.035C35.103 133.568 34.0363 133.168 31.7696 135.435C30.0363 137.168 30.4363 137.968 34.9696 141.435C39.503 145.168 50.1696 151.168 52.0363 151.168C52.4363 151.168 52.703 150.368 52.703 149.435C52.703 148.501 53.503 146.635 54.4363 145.435C55.903 143.301 56.5696 143.168 61.903 145.168C65.103 146.235 69.103 147.168 70.8363 147.168C72.8363 147.168 74.0363 147.968 74.0363 149.168C74.0363 151.301 71.7696 151.168 62.1696 148.235C57.6363 146.901 54.8363 148.501 55.7696 151.835C56.4363 153.568 65.6363 156.101 73.503 156.768C79.903 157.168 80.0363 157.168 80.4363 152.901C80.8363 149.035 81.3696 148.635 86.4363 147.835C89.503 147.435 94.0363 146.635 96.4363 146.235C104.303 144.901 100.97 148.368 92.703 149.968C85.7696 151.301 84.703 151.968 84.703 154.501C84.703 157.301 84.9696 157.301 92.703 156.235C97.103 155.701 102.836 154.368 105.37 153.168C109.503 151.568 110.036 150.901 108.836 148.635C108.036 147.168 107.37 145.435 107.37 144.768C107.37 143.568 122.17 133.835 123.903 133.835C126.436 133.835 123.903 136.768 118.036 140.501C110.97 145.035 110.703 145.435 112.57 148.368C113.636 149.968 115.103 149.435 121.37 145.701C125.503 143.168 130.17 139.835 131.636 138.235L134.436 135.168L131.37 131.835L128.17 128.501L131.636 124.768C133.503 122.768 136.036 119.568 137.37 117.435C139.636 113.835 142.036 112.635 142.036 115.035C142.036 115.701 139.903 119.168 137.236 122.635C132.57 128.635 132.436 129.035 134.836 130.768C137.103 132.368 137.77 132.235 140.436 128.901C143.77 124.901 151.37 112.368 151.37 110.901C151.37 110.501 149.503 109.435 147.236 108.635C144.036 107.568 143.236 106.635 144.036 104.901C144.436 103.568 145.503 99.4347 146.303 95.8347C147.103 92.1014 148.303 88.6347 148.97 87.8347C150.57 86.1014 150.303 93.568 148.57 99.7014C147.503 103.835 147.503 105.168 148.97 105.968C149.903 106.635 151.236 106.901 152.036 106.768C153.77 106.101 156.703 94.368 156.703 87.568C156.703 82.2347 156.436 81.968 152.436 81.568C150.036 81.3014 148.17 80.368 148.036 79.168C146.303 66.1014 146.036 60.368 147.236 61.0347C148.036 61.568 148.97 64.1014 149.37 66.9014C150.97 77.0347 151.37 77.8347 154.036 77.8347C156.303 77.8347 156.703 76.9014 156.703 72.1014C156.57 65.568 152.57 53.0347 150.703 53.4347C149.903 53.568 147.636 54.1014 145.636 54.5014C143.236 55.168 142.036 54.9014 142.036 53.968C142.036 53.0347 139.903 49.168 137.37 45.168C134.703 41.0347 133.503 37.8347 134.436 37.8347C136.17 37.8347 143.37 47.4347 143.37 49.7014C143.37 51.4347 146.036 51.568 148.57 49.968C150.17 48.9014 149.636 47.4347 145.903 41.168C143.37 37.0347 140.036 32.368 138.436 30.9014L135.37 28.1014L132.036 31.168L128.836 34.2347L123.903 29.968C121.236 27.568 117.636 25.0347 115.903 24.2347C114.17 23.4347 112.703 22.2347 112.703 21.568C112.703 19.4347 116.436 20.6347 121.77 24.5014C128.036 29.0347 129.103 29.3014 131.37 26.6347C132.57 25.0347 131.903 23.8347 127.103 20.5014C121.903 16.6347 112.303 11.168 110.97 11.168C110.57 11.168 109.636 13.0347 108.703 15.3014C107.503 17.968 106.303 19.0347 104.97 18.5014C103.903 18.1014 100.303 17.168 96.8363 16.368C87.7696 14.2347 87.103 13.968 87.903 12.6347C88.4363 11.968 92.0363 12.2347 96.8363 13.3014C101.37 14.368 105.236 15.0347 105.37 14.9014C105.636 14.6347 106.036 13.3014 106.303 11.968C106.703 9.03471 101.37 6.90138 89.103 5.30138L82.0363 4.36804V8.50138ZM76.703 8.36804C76.703 9.03471 74.4363 9.96804 71.7696 10.368C59.503 12.5014 59.2363 12.6347 59.6363 15.568C59.903 17.568 60.8363 18.368 62.703 18.1014C64.1696 17.968 69.2363 17.3014 74.0363 16.768C82.5696 15.8347 82.703 15.8347 83.103 11.4347C83.503 7.70138 84.0363 7.16804 87.3696 7.16804C93.503 7.16804 104.703 9.96804 104.703 11.4347C104.703 12.368 103.103 12.5014 100.436 11.968C86.5696 9.16804 86.0363 9.16804 86.0363 13.0347C86.0363 15.7014 86.703 16.5014 88.9696 16.5014C90.5696 16.5014 95.503 17.568 99.903 18.768C105.103 20.2347 108.036 20.5014 108.303 19.568C108.57 18.9014 109.636 17.168 110.57 15.8347C112.17 13.7014 112.436 13.568 116.836 15.8347C123.77 19.3014 130.17 24.5014 129.37 25.8347C128.97 26.6347 125.503 25.0347 121.77 22.5014C118.036 19.8347 114.303 17.968 113.503 18.2347C109.903 19.4347 111.636 23.168 118.303 27.8347C122.17 30.6347 125.636 33.4347 125.77 34.1014C126.57 36.1014 131.236 35.168 132.57 32.768C133.636 31.0347 134.436 30.768 136.303 31.968C138.836 33.4347 147.37 45.3014 147.37 47.3014C147.37 50.1014 144.836 47.968 140.836 41.8347C138.436 38.1014 135.636 35.168 134.57 35.168C130.97 35.168 130.97 39.168 134.57 43.8347C136.57 46.368 139.103 50.6347 140.17 53.3014C141.636 56.9014 142.703 57.8347 144.436 57.168C150.57 54.6347 151.103 54.768 152.57 60.1014C154.97 68.5014 155.903 76.5014 154.303 76.5014C153.636 76.5014 152.303 72.6347 151.37 67.7014C149.903 59.968 149.37 59.0347 146.836 59.4347C144.703 59.7014 144.17 60.6347 144.303 63.168C144.57 65.0347 145.103 70.2347 145.503 74.768L146.436 83.168H150.836C154.703 83.168 155.37 83.7014 155.37 86.2347C155.37 92.5014 152.303 104.501 150.703 104.501C149.37 104.501 149.503 102.635 150.97 96.5014C152.97 87.7014 152.57 85.8347 148.836 85.8347C146.836 85.8347 146.17 87.3014 145.37 92.1014C144.836 95.7014 143.636 100.501 142.57 103.035C140.57 107.701 141.503 109.701 145.636 109.835C148.97 109.835 148.703 112.768 144.836 119.701C140.57 127.035 137.236 130.768 135.903 129.435C135.503 129.035 137.37 125.568 139.903 121.835C145.37 113.835 145.636 113.168 142.436 111.835C140.703 111.168 139.236 112.101 137.37 114.635C135.903 116.635 132.703 120.635 130.17 123.435L125.636 128.635L128.836 131.968L132.036 135.435L127.37 139.435C121.636 144.235 115.636 147.435 113.636 146.768C112.836 146.501 115.636 144.101 119.77 141.301C127.903 135.968 128.436 135.035 125.503 132.635C124.036 131.435 122.17 132.101 116.57 135.835C112.57 138.368 108.303 140.901 106.97 141.301C105.636 141.701 104.836 142.768 105.103 143.568C107.636 150.368 107.503 150.901 103.37 152.368C97.103 154.501 86.0363 155.701 86.0363 154.235C86.0363 153.568 89.903 152.235 94.703 151.301C99.503 150.368 103.37 148.901 103.37 147.968C103.37 145.301 100.97 142.768 99.503 143.835C98.5697 144.368 93.903 145.168 88.9696 145.568C80.0363 146.501 80.0363 146.501 79.6363 150.768C79.2363 154.635 78.703 155.168 75.3696 155.168C73.2363 155.168 68.4363 154.501 64.703 153.701C56.4363 151.968 55.503 149.168 63.7696 150.635C73.7696 152.501 76.0363 152.101 76.4363 148.768C76.8363 146.501 76.303 145.835 73.903 145.835C72.1696 145.835 67.3696 144.768 62.9696 143.568C55.3696 141.435 54.9696 141.435 53.2363 143.835C52.303 145.168 51.2363 146.768 50.9696 147.568C50.4363 149.301 42.4363 145.435 36.5696 140.635C29.903 134.901 32.5696 134.368 40.703 139.835C49.503 145.701 50.0363 145.701 50.5696 140.635C50.703 139.435 34.8363 127.168 33.103 127.168C32.5696 127.168 30.9696 128.368 29.3696 129.835L26.703 132.368L21.3696 125.035C18.4363 121.035 15.903 116.901 15.6363 115.835C14.703 111.968 17.503 113.968 21.7696 120.501C26.4363 127.701 27.503 128.235 30.0363 125.168C31.3696 123.568 31.103 122.501 28.5696 119.435C26.8363 117.435 24.1696 113.168 22.8363 110.101C20.8363 105.835 19.7696 104.635 18.1696 105.301C12.5696 107.701 10.9696 106.635 9.23631 99.8347C7.23631 92.368 6.83631 85.8347 8.43631 85.8347C8.96965 85.8347 10.1696 89.4347 10.9696 93.968C12.703 103.301 12.9696 103.701 16.303 102.635C18.5696 101.835 18.8363 101.035 17.7696 95.4347C17.2363 91.968 16.4363 86.9014 16.0363 84.1014C15.3696 79.7014 14.8363 79.168 11.3696 79.168C7.63631 79.168 7.36965 78.768 7.36965 74.368C7.36965 71.8347 8.03631 67.0347 8.83631 63.7014C10.5696 56.9014 13.503 55.568 12.1696 62.1014C9.50298 75.4347 9.50298 76.5014 12.5696 76.5014C14.1696 76.5014 15.6363 75.7014 15.903 74.768C17.103 70.368 19.7696 59.568 20.303 56.9014C20.8363 54.6347 20.1696 53.568 17.503 52.5014C12.303 50.6347 12.703 48.9014 21.6363 36.768C23.3696 34.368 25.3696 32.768 26.0363 33.168C26.703 33.568 25.103 36.9014 22.5696 40.6347C17.903 46.9014 17.3696 51.168 20.9696 51.168C21.903 51.168 25.6363 47.3014 29.103 42.5014C34.703 34.9014 35.2363 33.568 33.7696 31.168C32.8363 29.7014 31.6363 28.5014 31.103 28.5014C30.4363 28.5014 30.0363 27.968 30.0363 27.3014C30.0363 25.968 45.2363 15.168 47.2363 15.168C50.303 15.168 48.5696 17.8347 44.1696 19.8347C38.1696 22.6347 35.103 26.2347 36.1696 29.0347C37.3696 31.968 38.5696 31.7014 44.703 27.3014C47.503 25.3014 51.7696 22.768 53.903 21.8347C57.3696 20.5014 57.7696 19.8347 56.5696 16.9014C54.703 11.8347 54.9696 11.4347 61.7696 9.30138C68.9696 7.03471 76.703 6.63471 76.703 8.36804Z" fill="#D82E26"/>
<path d="M64.8363 21.3013C47.6363 25.968 33.2363 37.968 25.2363 54.6346C16.9696 71.968 17.2363 92.9013 26.303 109.968C36.703 129.968 58.303 143.168 80.5696 143.168C98.9696 143.168 114.036 136.501 126.836 122.768C135.103 113.835 138.703 107.168 141.37 95.8346C147.903 68.6346 136.036 41.3013 111.236 26.768C98.9696 19.568 79.7696 17.3013 64.8363 21.3013ZM79.6363 26.2346C79.903 28.6346 80.9696 29.168 85.3696 29.168C89.6363 29.168 90.703 28.6346 91.103 26.5013C91.3696 25.0346 92.1696 23.3013 92.703 22.6346C93.7696 21.568 103.37 23.968 103.37 25.4346C103.37 25.8346 102.036 28.368 100.57 31.168C97.903 35.8346 97.7696 40.5013 100.303 40.5013C100.97 40.5013 102.036 39.168 102.703 37.4346C104.17 34.2346 107.503 33.4346 108.436 36.2346C108.703 37.168 108.17 37.568 106.97 37.0346C105.903 36.6346 104.57 36.9013 104.17 37.568C102.703 39.968 104.97 43.168 108.17 43.168C110.303 43.168 111.103 42.6346 110.57 41.3013C110.17 40.2346 110.57 39.0346 111.503 38.368C112.436 37.8346 112.836 37.968 112.17 38.9013C110.703 41.3013 113.903 42.1013 118.836 40.5013C123.103 39.0346 123.903 39.168 126.436 41.7013C129.903 45.168 129.37 45.7013 120.836 46.768C117.103 47.168 114.036 48.1013 114.036 48.768C114.036 49.4346 116.97 49.568 120.703 49.0346C128.036 48.1013 128.303 48.5013 126.57 57.7013C125.77 61.3013 125.103 61.8346 121.236 61.8346C116.97 61.8346 116.836 61.7013 117.636 57.3013C118.036 54.9013 117.77 52.5013 116.97 52.1013C115.903 51.3013 113.503 64.368 114.57 65.4346C114.703 65.7013 116.703 65.3013 118.836 64.6346C120.97 63.968 125.503 63.0346 128.97 62.6346C136.036 61.8346 136.836 62.6346 135.503 70.5013C134.836 74.368 133.903 75.968 131.77 76.5013C129.103 77.168 129.103 77.4346 130.836 79.8346C132.836 82.5013 132.836 82.5013 135.503 79.3013C136.836 77.568 138.036 74.9013 138.036 73.3013C138.036 71.8346 138.57 69.7013 139.236 68.6346C140.836 66.1013 142.436 80.6346 141.37 88.5013C140.703 93.3013 139.636 95.568 137.236 97.168C134.436 98.9013 134.17 99.7013 135.503 102.101C136.57 103.968 136.57 104.501 135.503 103.968C134.703 103.435 134.036 103.968 134.036 105.435C134.036 107.435 133.77 107.568 132.703 105.835C131.503 104.101 131.37 104.101 131.37 105.835C131.37 107.435 131.103 107.568 130.17 105.968C129.503 105.035 128.303 104.635 127.503 105.035C126.703 105.568 126.036 105.701 126.036 105.301C126.036 105.035 125.636 103.568 125.236 102.235C124.57 100.235 124.703 100.101 126.036 101.835C127.37 103.568 127.503 103.301 126.97 100.768C126.57 99.168 126.836 98.1013 127.503 98.6346C128.17 99.0346 128.703 98.2346 128.703 96.9013C128.703 94.9013 128.97 94.768 130.036 96.5013C131.236 98.2346 131.37 98.2346 131.37 96.5013C131.37 94.9013 131.636 94.768 132.57 96.368C133.903 98.5013 136.703 97.168 136.703 94.368C136.703 91.4346 132.97 90.6346 129.236 92.6346C126.436 94.1013 125.636 94.1013 124.703 92.6346C124.17 91.568 122.97 91.3013 122.17 91.8346C119.636 93.3013 116.703 91.568 117.503 89.168C118.17 87.568 118.836 87.4346 119.77 88.368C121.503 90.1013 124.703 90.368 124.703 88.768C124.703 88.2346 123.103 87.0346 121.103 86.2346C118.17 84.768 117.37 84.9013 115.903 86.9013C114.836 88.1013 114.436 89.968 114.703 90.9013C115.103 91.968 115.37 93.3013 115.37 93.968C115.37 94.768 116.703 95.168 118.303 94.9013C120.436 94.6346 121.37 95.4346 122.17 98.368C123.636 103.568 122.436 104.635 119.636 100.901C117.77 98.368 116.57 97.968 112.436 98.6346C108.303 99.3013 107.37 99.168 107.37 97.3013C107.37 93.7013 100.97 94.6346 99.103 98.5013C97.7696 101.301 98.0363 102.235 100.17 103.835C103.103 105.968 106.036 106.368 106.036 104.635C106.036 103.835 107.636 103.435 109.77 103.568C112.036 103.701 113.236 103.168 112.97 102.101C112.836 100.901 113.636 101.035 115.903 102.635C118.57 104.368 118.97 105.168 117.77 107.035C116.97 108.368 115.503 109.435 114.57 109.435C113.636 109.435 113.103 108.901 113.503 108.368C114.436 106.901 111.503 105.435 109.37 106.368C106.703 107.301 108.436 111.168 111.37 111.168C113.503 111.168 113.77 111.968 113.103 116.101C112.703 118.901 111.77 121.701 111.236 122.368C109.236 124.635 109.903 129.568 112.436 131.035C114.303 132.101 113.503 132.901 106.97 135.835C102.703 137.835 98.9696 139.168 98.5696 138.901C98.303 138.501 99.103 135.568 100.57 132.368C102.97 126.768 103.903 123.035 103.503 119.568C103.503 118.768 99.503 116.768 94.8363 115.168C84.9696 111.968 84.0363 111.035 82.9696 103.968C82.5696 101.168 79.7696 94.9013 76.703 89.968C73.7696 85.0346 71.3696 80.368 71.3696 79.4346C71.3696 77.3013 79.6363 78.9013 81.3696 81.568C86.4363 89.3013 88.0363 90.2346 93.503 89.0346C97.7696 87.968 98.8363 87.168 99.103 84.2346C99.3696 82.368 98.5696 78.5013 97.503 75.8346C96.303 73.0346 95.3696 67.8346 95.3696 64.2346C95.3696 58.5013 95.103 57.7013 93.3696 59.168C91.3696 60.768 88.703 59.968 88.703 57.7013C88.703 56.9013 89.3696 56.768 90.1696 57.3013C92.0363 58.368 93.903 55.568 94.1696 51.168C94.303 48.1013 94.4363 48.2346 95.6363 52.1013C97.3696 57.168 100.703 57.968 100.703 53.3013C100.703 48.6346 94.703 42.768 90.5696 43.568C87.903 43.968 87.3696 43.568 87.3696 41.0346C87.3696 37.3013 86.4363 37.0346 82.0363 40.1013C79.103 42.1013 78.9696 42.1013 79.7696 40.1013C81.3696 35.7013 66.5696 30.768 62.9696 34.368C61.7696 35.568 59.7696 36.5013 58.303 36.5013C50.8363 36.5013 47.2363 38.2346 46.4363 42.1013C46.0363 44.368 44.4363 46.5013 42.8363 47.168C41.2363 47.7013 38.5696 49.8346 36.8363 51.7013C34.303 54.368 33.903 55.568 35.103 56.768C37.6363 59.3013 36.9696 62.768 33.3696 66.368C29.103 70.6346 29.2363 72.368 34.0363 78.5013C38.703 84.368 38.703 84.368 35.903 88.2346C34.1696 90.768 32.8363 91.3013 27.6363 90.9013L21.3696 90.5013L21.503 79.168C21.6363 61.0346 28.703 45.968 42.5696 34.6346C52.4363 26.6346 68.4363 20.2346 66.5696 25.0346C65.6363 27.568 71.2363 28.768 73.503 26.5013C74.5696 25.568 75.3696 23.7013 75.3696 22.368C75.3696 19.168 79.103 22.5013 79.6363 26.2346ZM88.5696 22.368C90.303 24.5013 89.2363 25.568 84.703 26.5013C83.2363 26.768 82.303 26.5013 82.703 25.7013C83.2363 25.0346 82.9696 24.5013 82.303 24.5013C81.6363 24.5013 81.103 23.568 81.103 22.5013C81.103 19.968 86.5696 19.8346 88.5696 22.368ZM72.703 23.8346C72.703 24.9013 71.7696 25.8346 70.703 25.8346C69.6363 25.8346 68.703 24.9013 68.703 23.8346C68.703 22.768 69.6363 21.8346 70.703 21.8346C71.7696 21.8346 72.703 22.768 72.703 23.8346ZM73.6363 38.6346C74.0363 39.8346 73.6363 41.3013 72.5696 41.8346C70.5696 43.168 67.3696 41.0346 67.3696 38.368C67.3696 35.8346 72.5696 35.968 73.6363 38.6346ZM60.703 42.9013C60.703 46.5013 54.703 49.4346 52.0363 47.168C50.1696 45.568 50.1696 45.168 52.1696 43.0346C55.2363 39.7013 60.703 39.7013 60.703 42.9013ZM84.4363 46.1013C84.1696 48.1013 82.9696 49.3013 81.103 49.568C77.6363 50.1013 77.3696 49.4346 79.3696 45.7013C81.3696 42.1013 84.9696 42.368 84.4363 46.1013ZM64.1696 48.6346C57.3696 53.168 51.2363 60.1013 44.703 70.768C40.0363 78.5013 38.703 79.7013 40.703 74.368C44.5696 64.368 54.0363 52.1013 61.2363 47.8346C69.103 43.0346 71.6363 43.7013 64.1696 48.6346ZM135.37 53.8346C136.836 56.6346 138.036 59.4346 138.036 59.8346C138.036 60.2346 135.903 60.5013 133.37 60.5013H128.57L129.503 55.4346C131.103 46.768 131.636 46.6346 135.37 53.8346ZM47.903 50.6346C50.703 51.7013 50.5696 53.3013 47.503 56.6346C44.4363 59.968 38.9696 59.0346 40.303 55.4346C42.1696 50.368 44.0363 49.168 47.903 50.6346ZM71.3696 51.8346C70.4363 52.9013 69.2363 53.8346 68.5696 53.8346C67.903 53.8346 67.3696 52.9013 67.3696 51.8346C67.3696 50.6346 68.5696 49.8346 70.1696 49.8346C72.5696 49.8346 72.703 50.1013 71.3696 51.8346ZM62.0363 57.8346C60.4363 60.9013 58.0363 61.4346 58.0363 58.768C58.0363 56.5013 59.3696 55.168 61.6363 55.168C63.103 55.168 63.103 55.8346 62.0363 57.8346ZM89.7696 62.1013C90.703 63.0346 91.3696 64.368 91.3696 65.3013C91.3696 67.4346 86.5696 68.5013 84.8363 66.768C82.9696 64.9013 82.9696 61.4346 84.703 62.5013C85.503 62.9013 86.0363 62.6346 86.0363 61.968C86.0363 60.1013 87.7696 60.1013 89.7696 62.1013ZM76.5696 63.7013C77.7696 65.168 77.7696 65.8346 76.5696 66.5013C75.7696 67.0346 74.5696 66.768 74.0363 65.8346C73.3696 64.768 72.703 64.6346 72.1696 65.7013C71.103 67.3013 73.503 72.5013 75.3696 72.5013C76.1696 72.5013 76.703 73.0346 76.703 73.8346C76.703 76.6346 71.7696 75.0346 70.303 71.8346C68.303 67.4346 68.303 65.4346 70.303 63.4346C72.4363 61.3013 74.703 61.4346 76.5696 63.7013ZM55.903 65.168C55.103 67.3013 52.703 67.968 52.703 66.1013C52.703 64.6346 54.1696 63.168 55.503 63.168C56.1696 63.168 56.303 64.1013 55.903 65.168ZM40.4363 69.4346C39.903 72.1013 38.0363 72.9013 35.503 71.3013C33.103 69.7013 34.8363 67.168 38.1696 67.168C40.0363 67.168 40.703 67.968 40.4363 69.4346ZM81.6363 70.768C80.4363 71.968 78.9696 72.5013 78.4363 71.968C77.903 71.4346 78.5696 70.1013 79.903 69.0346C83.2363 66.6346 84.5696 67.968 81.6363 70.768ZM56.703 73.8346C56.703 74.368 58.0363 75.168 59.503 75.568C62.0363 76.2346 62.303 76.9013 61.3696 81.4346C60.1696 88.1013 58.8363 89.4346 53.7696 89.3013C47.903 89.0346 46.5696 87.968 45.503 82.9013C44.703 79.168 45.2363 77.968 48.703 74.9013C52.4363 71.7013 56.703 71.168 56.703 73.8346ZM84.1696 74.768C82.8363 76.1013 81.6363 74.1013 82.8363 72.368C83.6363 70.9013 83.903 70.9013 84.4363 72.368C84.703 73.3013 84.5696 74.368 84.1696 74.768ZM88.703 73.8346C88.703 74.5013 88.0363 75.168 87.2363 75.168C86.5696 75.168 86.303 74.5013 86.703 73.8346C87.103 73.0346 87.7696 72.5013 88.1696 72.5013C88.4363 72.5013 88.703 73.0346 88.703 73.8346ZM98.0363 83.8346C98.0363 84.9013 97.503 85.8346 96.703 85.8346C96.0363 85.8346 95.3696 84.9013 95.3696 83.8346C95.3696 82.768 96.0363 81.8346 96.703 81.8346C97.503 81.8346 98.0363 82.768 98.0363 83.8346ZM71.3696 87.0346C71.3696 90.768 68.4363 92.6346 65.6363 90.5013C62.9696 88.6346 63.7696 84.9013 67.103 84.1013C70.1696 83.4346 71.3696 84.2346 71.3696 87.0346ZM46.5696 95.968C47.2363 98.5013 46.8363 99.968 45.103 101.301C41.903 103.701 41.503 103.568 38.9696 100.768C35.6363 97.168 37.503 92.5013 42.0363 92.5013C44.9696 92.5013 45.903 93.3013 46.5696 95.968ZM29.6363 96.768C31.3696 99.7013 31.2363 102.101 29.3696 103.968C26.8363 106.635 25.6363 106.235 26.4363 103.168C26.8363 101.701 26.5696 100.768 25.903 101.301C25.2363 101.701 24.703 101.435 24.703 100.635C24.703 99.968 25.503 99.0346 26.4363 98.768C27.3696 98.368 27.2363 97.968 25.7696 97.968C22.0363 97.7013 21.503 95.168 25.2363 95.168C27.103 95.168 28.9696 95.968 29.6363 96.768ZM62.8363 96.6346C63.2363 97.4346 64.1696 97.4346 65.103 96.768C68.0363 94.5013 71.3696 95.4346 71.3696 98.6346C71.3696 100.768 71.903 101.568 73.2363 101.035C74.303 100.635 75.7696 101.435 76.5696 103.035C77.7696 105.168 77.6363 105.968 75.903 106.901C74.4363 107.701 74.1696 108.368 75.2363 109.035C77.7696 110.635 76.9696 115.168 74.0363 115.168C72.303 115.168 71.3696 116.101 71.3696 117.701C71.3696 120.768 68.303 122.235 66.303 120.235C65.2363 119.168 64.303 119.168 62.9696 120.368C60.4363 122.368 56.703 120.901 56.703 117.701C56.703 116.101 55.7696 115.168 54.0363 115.168C50.9696 115.168 50.4363 111.301 52.9696 108.768C54.1696 107.568 54.1696 107.168 52.8363 107.168C51.903 107.168 51.3696 105.968 51.6363 104.101C51.903 102.101 52.8363 101.301 54.4363 101.568C56.0363 101.835 56.703 101.035 56.703 98.9013C56.703 96.768 57.503 95.7013 59.3696 95.568C60.8363 95.4346 62.303 95.968 62.8363 96.6346ZM105.37 100.501C105.37 101.435 104.57 102.501 103.77 102.768C102.703 103.168 102.036 102.235 102.036 100.501C102.036 98.768 102.703 97.8346 103.77 98.1013C104.57 98.5013 105.37 99.568 105.37 100.501ZM41.103 108.901C44.1696 111.435 44.5696 112.635 43.903 116.235C42.303 124.501 37.7696 124.235 31.7696 115.568C28.1696 110.501 28.0363 109.835 30.5696 109.835C31.6363 109.835 32.703 108.901 33.2363 107.835C34.303 105.035 36.703 105.435 41.103 108.901ZM127.903 109.435C129.636 108.768 132.703 110.768 132.703 112.501C132.703 112.901 129.903 113.168 126.436 113.168C121.503 113.035 120.036 112.501 119.236 110.235C118.303 107.568 118.436 107.435 122.17 108.768C124.303 109.435 126.836 109.835 127.903 109.435ZM125.503 117.701C128.17 115.568 127.77 117.701 124.836 122.635C122.836 125.835 121.37 126.768 118.036 126.768C114.17 126.768 114.036 126.501 115.903 125.035C118.036 123.568 118.036 123.301 115.77 121.835C113.77 120.635 113.77 120.501 116.703 121.301C119.77 122.101 119.903 122.101 118.036 119.835C116.17 117.701 116.303 117.568 119.103 118.368C120.703 118.901 122.036 118.901 121.903 118.235C121.503 115.835 122.436 114.635 122.97 116.901C123.503 118.768 124.036 119.035 125.503 117.701ZM90.703 119.168C90.703 122.101 85.503 121.701 84.9696 118.768C84.5696 116.768 85.103 116.368 87.6363 116.768C89.2363 117.035 90.703 118.101 90.703 119.168ZM81.6363 121.835C80.8363 125.701 80.8363 125.835 86.1696 125.835H91.6363L90.703 130.635C88.8363 140.901 88.0363 141.835 81.103 141.835C74.8363 141.835 65.103 140.101 63.903 138.768C63.503 138.368 66.303 135.168 70.0363 131.701C73.903 128.101 77.7696 123.568 78.8363 121.568C81.3696 116.635 82.5696 116.768 81.6363 121.835ZM101.77 122.101C102.17 123.835 101.37 124.501 98.8363 124.501C96.1696 124.501 95.3696 123.835 95.3696 121.701C95.3696 119.701 96.0363 119.035 98.303 119.435C100.036 119.701 101.503 120.901 101.77 122.101ZM57.103 126.635C57.6363 126.768 58.9696 126.901 60.0363 127.035C63.103 127.301 62.703 135.168 59.6363 135.168C55.2363 135.168 51.6363 131.568 52.303 127.835C52.703 125.835 53.6363 124.901 54.5696 125.435C55.3696 125.968 56.4363 126.501 57.103 126.635ZM98.0363 133.168C96.1696 135.301 92.703 135.835 92.703 133.968C92.703 132.635 94.9696 131.435 97.903 131.301C99.3696 131.168 99.3696 131.568 98.0363 133.168Z" fill="#D82E26"/>
<path d="M120.703 68.768C107.503 71.568 106.703 72.368 118.036 71.568C124.303 71.168 129.903 70.5014 130.57 70.1014C131.636 69.568 128.836 67.0347 127.37 67.3014C126.97 67.4347 124.036 68.1014 120.703 68.768Z" fill="#D82E26"/>
<path d="M51.3696 81.168C51.3696 82.2346 52.303 83.168 53.3696 83.168C54.4363 83.168 55.3696 82.2346 55.3696 81.168C55.3696 80.1013 54.4363 79.168 53.3696 79.168C52.303 79.168 51.3696 80.1013 51.3696 81.168Z" fill="#D82E26"/>
<path d="M63.503 102.235C63.3696 104.101 62.703 104.501 60.5696 103.835C58.5696 103.168 58.0363 103.301 58.5696 104.368C59.103 105.168 61.503 105.835 64.0363 105.835C66.5696 105.835 68.9696 105.168 69.503 104.368C70.0363 103.435 69.503 103.168 67.6363 103.701C65.6363 104.368 64.703 103.968 64.303 102.235C63.7696 99.968 63.6363 99.968 63.503 102.235Z" fill="#D82E26"/>
<path d="M58.0363 109.168C58.8363 110.235 59.2363 111.701 58.703 112.635C58.0363 113.701 58.5696 113.835 60.4363 113.301C62.4363 112.635 63.3696 113.035 63.7696 114.768C64.303 117.035 64.4363 117.035 64.5696 114.768C64.703 112.901 65.3696 112.501 67.503 113.168C69.503 113.835 70.0363 113.701 69.3696 112.635C68.8363 111.701 69.2363 110.235 70.0363 109.168C71.3696 107.568 71.2363 107.168 69.6363 107.168C68.5696 107.168 67.3696 108.101 66.8363 109.168C66.4363 110.235 65.2363 111.168 64.0363 111.168C62.8363 111.168 61.6363 110.235 61.2363 109.168C60.703 108.101 59.503 107.168 58.4363 107.168C56.8363 107.168 56.703 107.568 58.0363 109.168Z" fill="#D82E26"/>
<path d="M34.0363 114.501C34.0363 115.568 34.9696 116.501 36.0363 116.501C37.1029 116.501 38.0363 115.568 38.0363 114.501C38.0363 113.435 37.1029 112.501 36.0363 112.501C34.9696 112.501 34.0363 113.435 34.0363 114.501Z" fill="#D82E26"/>
</svg>
