<svg width="163" height="162" viewBox="0 0 163 162" fill="none" xmlns="http://www.w3.org/2000/svg">
<path d="M63.1029 2.50137C44.1696 6.6347 29.3696 16.5014 16.3029 33.8347C-8.89708 67.568 -2.76375 115.968 30.3029 143.435C57.7696 166.235 97.3696 167.968 127.103 147.568C160.036 125.168 171.636 80.6347 153.77 45.168C136.836 11.8347 100.036 -5.49863 63.1029 2.50137ZM106.836 6.36803C124.036 12.368 137.37 22.6347 147.103 37.568C157.236 52.9014 159.37 60.9014 159.37 81.8347C159.37 98.6347 159.103 100.501 155.503 109.168C147.636 128.235 133.903 143.301 116.57 151.835C85.7696 167.035 50.1696 161.168 25.7696 136.901C15.2363 126.235 6.83625 111.435 4.16959 98.1014C2.16959 88.2347 2.43625 71.968 4.70292 61.968C11.7696 32.2347 38.9696 7.4347 70.0363 2.6347C78.9696 1.30137 97.6363 3.16804 106.836 6.36803Z" fill="#D82E26"/>
<path d="M71.3696 5.43464C64.5696 6.36798 53.3696 9.83464 53.3696 11.168C53.3696 11.8346 53.903 13.8346 54.5696 15.568C55.7696 18.6346 55.2363 19.3013 47.7696 23.7013C43.2363 26.368 39.103 28.5013 38.5696 28.5013C35.6363 28.5013 38.0363 25.968 44.703 21.968C50.9696 18.1013 51.7696 17.168 50.5696 15.0346C49.903 13.7013 48.8363 12.5013 48.303 12.5013C47.2363 12.5013 36.303 19.8346 30.9696 24.1013L27.903 26.6346L30.703 30.2346L33.503 33.7013L27.903 41.8346C24.303 46.768 21.6363 49.3013 20.9696 48.6346C20.1696 47.8346 21.6363 44.768 24.703 40.5013C29.3696 34.1013 29.6363 33.4346 27.503 31.4346C25.503 29.3013 25.103 29.4346 22.0363 33.168C16.9696 39.3013 11.103 51.4346 12.8363 52.1013C13.6363 52.368 15.3696 53.3013 16.5696 54.2346C18.5696 55.7013 18.5696 56.5013 16.5696 65.568C15.103 71.8346 13.903 74.9013 13.103 74.1013C12.303 73.3013 12.5696 70.1013 13.7696 65.3013C15.503 58.1013 15.503 57.7013 12.9696 56.368C9.6363 54.5013 8.56963 55.968 6.8363 66.5013C4.4363 79.8346 4.70296 80.5013 10.0363 80.5013C14.4363 80.5013 14.703 80.768 14.703 84.768C14.703 87.168 15.3696 91.568 16.0363 94.5013C16.703 97.568 16.703 100.368 16.0363 101.035C14.703 102.368 12.0363 93.7013 12.0363 88.1013C12.0363 85.168 11.503 84.5013 8.70296 84.5013C6.16963 84.5013 5.36963 85.168 5.36963 87.4346C5.36963 91.168 9.36963 107.568 10.703 108.901C11.2363 109.435 13.3696 109.168 15.3696 108.235C18.4363 106.901 19.2363 106.901 19.7696 108.235C20.0363 109.168 22.303 113.035 24.8363 116.768C29.3696 123.568 29.903 126.368 26.0363 123.168C24.9696 122.235 22.703 119.168 21.103 116.235C18.1696 111.035 14.4363 109.835 13.6363 113.835C13.2363 116.235 23.6363 132.368 26.303 133.435C27.3696 133.835 29.503 133.035 30.9696 131.435L33.6363 128.768L41.503 134.235C45.7696 137.301 49.2363 140.235 49.2363 140.768C49.503 142.768 46.4363 141.701 40.5696 137.701C34.9696 133.968 30.703 133.301 30.703 136.368C30.703 139.435 49.503 152.101 52.0363 150.501C52.703 150.101 53.3696 148.901 53.3696 147.968C53.3696 144.101 56.703 143.035 62.703 145.168C65.7696 146.235 69.7696 147.168 71.503 147.168C73.3696 147.168 74.703 147.968 74.703 149.035C74.703 150.501 73.503 150.635 68.4363 149.568C58.0363 147.435 56.703 147.568 56.303 150.768C55.903 153.701 58.4363 154.635 75.7696 157.168L81.3696 158.101V153.435V148.901L90.8363 147.301C99.6363 145.835 102.97 146.101 101.103 147.835C100.703 148.235 96.703 149.168 92.1696 149.968C85.6363 151.168 84.0363 151.968 84.0363 153.968C84.0363 156.101 84.9696 156.501 89.7696 156.501C96.4363 156.501 109.37 153.035 109.37 151.168C109.37 150.501 108.836 148.501 108.036 146.635C106.836 143.435 107.236 142.901 113.37 139.835C116.97 138.101 120.17 135.968 120.703 135.168C121.636 133.568 125.37 133.301 125.37 134.901C125.37 135.435 122.036 137.968 118.036 140.368C111.77 144.235 110.97 145.168 112.17 147.301C112.836 148.635 114.036 149.835 114.57 149.835C116.036 149.835 129.236 141.035 132.57 137.701C135.236 135.301 135.236 135.168 132.17 131.968L129.103 128.768L134.703 121.301C139.77 114.635 142.703 112.235 142.703 114.635C142.703 115.168 140.57 118.501 137.903 122.235C133.503 128.368 133.37 129.035 135.236 131.035C137.236 132.901 137.636 132.768 140.703 129.168C145.77 123.035 151.636 110.901 149.903 110.235C144.17 108.235 143.903 106.901 146.17 97.4346C147.37 92.5013 148.97 88.5013 149.77 88.5013C150.836 88.5013 150.703 90.5013 148.436 101.968C148.036 104.501 148.436 105.701 150.036 106.368C151.37 106.768 152.703 106.901 153.103 106.635C154.17 105.435 157.37 90.6346 157.37 86.1013C157.37 82.2346 156.97 81.8346 153.37 81.8346C148.836 81.8346 148.836 81.8346 147.103 70.1013C146.17 63.7013 146.303 61.8346 147.503 61.8346C148.57 61.8346 149.636 64.768 150.17 69.8346C150.97 77.168 151.37 77.8346 154.17 77.8346C156.57 77.8346 157.37 77.0346 157.37 75.0346C157.37 70.768 153.236 53.968 152.036 53.168C151.37 52.768 149.236 53.168 147.236 54.1013C144.303 55.4346 143.503 55.4346 142.97 54.1013C142.703 53.168 140.436 49.3013 137.903 45.568C135.103 41.4346 133.77 38.2346 134.436 37.568C135.236 36.768 137.503 39.168 140.17 43.7013C144.57 50.9013 148.17 52.9013 149.103 48.368C149.503 45.968 139.236 29.968 136.436 28.9013C135.37 28.5013 133.236 29.4346 131.503 31.0346C128.836 33.568 128.17 33.7013 126.836 31.968C125.903 30.768 122.436 28.2346 119.236 26.2346C116.036 24.2346 113.37 22.1013 113.37 21.4346C113.37 19.3013 117.37 20.768 122.97 25.0346C127.503 28.5013 129.37 29.3013 130.57 28.1013C133.236 25.4346 132.17 23.4346 125.103 18.768C112.703 10.768 109.37 9.70131 109.37 14.2346C109.236 18.6346 107.37 19.0346 98.0363 16.6346C92.9696 15.3013 88.5696 13.4346 88.303 12.6346C87.7696 11.0346 89.2363 11.168 99.903 13.968C105.103 15.3013 106.703 14.6346 106.703 11.168C106.703 8.50131 98.9696 6.10131 88.0363 5.56798C82.1696 5.16798 82.0363 5.30131 81.6363 9.43464C81.2363 13.968 80.9696 14.1013 67.7696 15.8346C63.903 16.368 61.3696 16.1013 61.3696 15.3013C61.3696 14.1013 63.2363 13.568 73.7696 11.7013C77.903 11.0346 78.8363 10.368 78.4363 8.10131C78.0363 5.03464 77.103 4.63464 71.3696 5.43464ZM76.8363 8.10131C76.303 8.76798 72.1696 10.1013 67.6363 11.168C60.5696 12.9013 59.503 13.568 59.7696 15.8346C60.4363 19.568 60.703 19.7013 65.503 17.968C67.903 17.168 72.5696 16.5013 76.0363 16.5013C82.303 16.5013 82.4363 16.368 83.2363 11.8346C84.0363 7.83464 84.703 7.16798 88.0363 7.16798C93.7696 7.16798 105.37 10.1013 105.37 11.568C105.37 12.768 101.37 12.5013 91.103 10.368C87.103 9.56798 86.703 9.83464 86.703 12.9013C86.703 15.8346 87.3696 16.368 93.103 17.168C96.5696 17.7013 101.37 18.9013 103.77 19.968C108.17 21.8346 108.303 21.7013 109.77 17.8346C110.57 15.568 111.903 13.8346 112.703 13.8346C115.503 13.8346 129.37 23.4346 129.37 25.3013C129.37 26.6346 126.97 25.568 121.903 22.2346C114.57 17.4346 114.303 17.3013 112.436 19.8346C110.836 22.2346 110.836 22.6346 112.836 23.8346C114.036 24.5013 118.303 27.7013 122.17 30.768L129.103 36.368L132.17 33.0346C135.77 29.168 136.703 29.8346 143.37 39.8346C148.303 47.4346 148.836 48.5013 146.703 48.5013C146.036 48.5013 143.503 45.4346 141.103 41.8346C136.703 35.0346 134.97 34.1013 132.436 36.6346C131.37 37.7013 132.303 39.968 135.503 44.768C138.036 48.5013 140.436 52.9013 140.836 54.768C141.37 56.9013 142.303 57.7013 143.636 57.3013C151.103 54.368 151.636 54.6346 153.103 61.4346C156.303 75.568 156.436 76.9013 154.57 76.2346C153.503 75.8346 152.303 72.5013 151.636 68.368C150.436 60.2346 149.503 58.6346 146.17 59.968C144.303 60.6346 144.036 61.8346 144.703 65.0346C145.103 67.3013 145.903 72.368 146.303 76.1013C147.103 83.168 147.103 83.168 151.636 83.168H156.303L155.37 89.968C154.036 99.8346 152.836 103.568 150.703 104.235C149.503 104.635 149.236 104.101 149.903 102.368C150.436 100.901 151.236 96.6346 151.636 92.768C152.303 86.5013 152.17 85.8346 149.636 85.8346C147.503 85.8346 146.57 87.3013 144.97 94.1013C143.903 98.768 142.57 103.701 142.036 105.168C141.37 107.301 142.036 108.368 145.236 109.835L149.37 111.835L146.436 117.301C142.036 125.301 137.77 130.635 136.703 129.568C136.17 129.035 137.77 125.435 140.436 121.568C143.77 116.501 144.703 114.101 143.77 112.768C141.503 110.101 139.503 110.901 136.836 115.301C135.503 117.568 132.57 121.435 130.436 123.968L126.303 128.635L129.37 131.835C131.903 134.501 132.17 135.435 130.703 137.035C128.303 139.968 117.236 147.168 115.103 147.168C112.036 147.168 113.236 145.168 117.77 142.768C120.036 141.435 123.503 139.168 125.236 137.701C128.17 135.301 128.303 134.768 126.436 133.035C124.703 131.301 123.636 131.568 116.57 135.701C112.303 138.368 107.77 140.901 106.703 141.568C105.103 142.635 104.97 143.301 106.436 146.501C107.37 148.501 107.903 150.501 107.503 150.768C106.57 151.701 92.8363 155.168 89.7696 155.168C84.703 155.168 86.303 152.901 91.903 151.968C101.103 150.501 103.903 149.035 103.103 145.835C102.57 143.568 101.636 143.168 99.503 143.835C98.0363 144.235 92.9696 145.035 88.4363 145.435L80.0363 146.235V150.635C80.0363 154.901 79.7696 155.168 75.503 155.168C69.103 155.168 57.3696 152.368 57.3696 150.768C57.3696 149.568 61.3696 149.835 71.7696 151.968C75.7696 152.768 76.0363 152.635 76.0363 149.301C76.0363 146.501 75.3696 145.835 72.8363 145.835C71.103 145.835 67.103 144.901 64.0363 143.835C56.0363 141.035 53.7696 141.301 52.8363 145.168C52.303 147.035 51.2363 148.501 50.1696 148.501C47.3696 148.501 33.3696 138.768 33.3696 136.768C33.3696 134.901 33.503 134.901 42.4363 141.035C47.903 144.768 48.303 144.768 50.4363 142.635C52.5696 140.368 52.5696 140.101 50.1696 138.768C48.703 137.835 44.4363 134.635 40.5696 131.568L33.6363 125.968L30.5696 129.301L27.3696 132.635L24.303 128.901C18.1696 121.435 14.4363 114.901 15.7696 113.568C16.5696 112.768 18.303 114.501 20.4363 118.235C25.2363 126.235 27.6363 128.235 30.0363 125.701C31.6363 124.101 31.103 122.768 26.5696 115.968C23.7696 111.701 21.3696 107.301 21.3696 106.235C21.3696 104.901 20.5696 104.501 19.2363 105.035C11.503 107.968 11.2363 107.835 9.36963 98.9013C8.56963 94.2346 7.50296 89.4346 7.10296 87.968C6.70296 86.368 6.96963 85.7013 8.16963 86.1013C9.2363 86.5013 10.5696 90.2346 11.3696 94.6346C12.303 100.101 13.3696 102.635 14.9696 102.901C18.4363 103.568 18.703 101.568 17.103 89.968L15.503 79.168H10.9696H6.4363L7.2363 72.768C8.4363 64.2346 10.5696 57.8346 12.303 57.8346C13.103 57.8346 13.2363 58.768 12.8363 59.968C12.4363 61.168 11.6363 65.3013 11.2363 69.3013C10.4363 75.968 10.5696 76.5013 13.103 76.5013C15.2363 76.5013 16.1696 75.4346 16.703 72.768C17.103 70.768 18.303 66.1013 19.3696 62.368C21.903 53.7013 22.0363 54.5013 17.3696 52.5013L13.3696 50.9013L16.8363 44.6346C18.703 41.3013 21.3696 37.0346 22.8363 35.3013C27.3696 29.8346 27.2363 33.4346 22.703 40.5013C18.5696 46.9013 18.1696 51.3013 21.6363 51.0346C22.5696 51.0346 26.303 47.0346 29.7696 42.2346L36.1696 33.4346L33.503 30.6346C31.903 29.0346 30.703 27.3013 30.703 26.768C30.703 25.4346 45.6363 15.168 47.6363 15.168C50.703 15.168 49.503 17.168 44.8363 19.7013C42.303 21.0346 38.9696 23.568 37.3696 25.168C34.8363 27.8346 34.8363 28.2346 36.703 29.8346C38.4363 31.3013 39.3696 31.168 42.4363 28.9013C44.4363 27.4346 48.5696 24.9013 51.7696 23.3013C56.8363 20.768 57.2363 20.1013 56.9696 15.568C56.703 10.9013 56.8363 10.6346 62.703 9.03464C69.503 7.16798 78.303 6.63464 76.8363 8.10131Z" fill="#D82E26"/>
<path d="M66.0363 21.0346C28.7029 30.2346 8.70292 72.9013 25.3696 107.835C32.3029 122.368 45.9029 134.768 60.7029 139.835C69.5029 142.768 85.7696 143.835 94.5696 141.968C118.97 136.768 138.836 115.568 142.836 90.368C147.77 59.568 127.636 29.1679 96.9696 21.0346C88.5696 18.7679 75.1029 18.7679 66.0363 21.0346ZM78.7029 22.5013C77.3696 24.2346 77.5029 24.5013 80.1696 24.6346C82.3029 24.7679 82.5696 25.0346 81.1029 25.4346C78.7029 26.1013 76.9696 29.4346 78.0363 31.1679C78.4363 31.8346 78.1696 32.6346 77.3696 33.1679C76.7029 33.5679 76.0363 33.3013 76.0363 32.6346C76.0363 31.8346 75.3696 31.1679 74.5696 31.1679C73.9029 31.1679 73.6363 31.7013 74.0363 32.5013C74.4363 33.1679 74.3029 33.8346 73.7696 33.8346C73.1029 33.8346 72.0363 32.5013 71.3696 30.7679C70.3029 28.5013 69.1029 27.9679 65.7696 28.2346C63.5029 28.5013 61.2363 27.9679 60.7029 27.1679C59.3696 24.9013 60.9696 23.8346 63.1029 25.7013C64.1696 26.5013 66.0363 26.7679 67.2363 26.3679C69.1029 25.7013 69.1029 25.1679 67.7696 23.4346C66.8363 22.2346 66.7029 21.7013 67.3696 22.1013C68.4363 22.7679 76.1696 21.8346 79.9029 20.6346C80.1696 20.6346 79.6363 21.4346 78.7029 22.5013ZM90.7029 21.8346C92.3029 22.9013 92.1696 23.1679 89.7696 23.1679C88.0363 23.1679 86.7029 22.5013 86.7029 21.8346C86.7029 20.1013 88.1696 20.1013 90.7029 21.8346ZM110.703 28.2346C114.97 30.7679 116.036 31.8346 114.436 32.2346C112.57 32.6346 112.436 33.1679 113.77 35.1679C114.97 37.1679 114.97 38.1013 113.77 39.3013C112.57 40.5013 112.036 40.1013 111.236 37.3013C110.836 35.4346 109.903 33.8346 109.236 33.8346C105.236 33.8346 94.1696 41.4346 88.3029 48.1013C80.5696 57.0346 79.3696 58.2346 69.3696 66.9013C65.3696 70.5013 59.2363 74.768 55.6363 76.368C48.8363 79.7013 46.7029 83.568 49.2363 88.368C51.1029 91.568 48.4363 99.168 43.6363 104.368L40.7029 107.568L43.7696 106.768C46.0363 106.235 46.7029 106.501 46.1696 107.835C45.6363 109.435 46.1696 109.435 49.1029 108.235C51.1029 107.301 53.3696 105.835 54.1696 104.901C55.5029 103.435 55.9029 103.301 56.3029 104.768C56.7029 105.701 58.3029 103.968 59.9029 100.768C61.5029 97.7013 63.3696 95.168 64.0363 95.168C64.7029 95.168 64.9696 100.501 64.5696 108.101C64.0363 116.368 64.3029 123.435 65.3696 127.168C68.8363 140.368 68.8363 140.501 64.5696 139.301C56.9696 137.035 56.4363 136.501 57.1029 132.768C57.3696 130.768 58.3029 128.501 58.9696 127.568C59.7696 126.635 59.3696 125.435 58.0363 124.235C56.8363 123.301 55.1029 121.701 54.0363 120.768C51.5029 118.501 47.3696 119.301 47.5029 122.101C47.6363 123.435 46.9696 123.968 45.7696 123.568C44.8363 123.168 44.3029 121.835 44.5696 120.635C44.9696 119.435 44.4363 117.435 43.3696 116.101C41.9029 114.101 41.1029 113.835 38.7029 115.168C37.1029 116.101 36.1696 117.568 36.5696 118.635C37.7696 121.835 35.3696 120.768 32.4363 116.768C29.2363 112.501 24.0363 102.501 24.0363 100.768C24.0363 100.101 25.5029 99.8346 27.3696 100.235C29.6363 100.635 30.9696 100.101 31.5029 98.6346C32.7029 95.568 30.9696 94.1013 29.2363 96.5013C28.0363 98.2346 27.9029 98.2346 28.4363 96.5013C28.7029 95.4346 30.3029 94.6346 31.7696 94.768C33.5029 95.0346 34.8363 94.1013 35.3696 92.5013C35.9029 91.0346 36.8363 90.1013 37.5029 90.5013C38.1696 91.0346 39.6363 90.368 40.7029 89.3013C42.4363 87.7013 42.4363 86.768 41.2363 84.6346C40.3029 83.3013 38.7029 82.368 37.6363 82.768C36.3029 83.3013 35.9029 82.5013 36.3029 79.0346C36.7029 74.768 36.9696 74.5013 41.1029 74.9013C43.3696 75.168 45.3696 74.7679 45.3696 74.1013C45.3696 73.3013 45.7696 71.8346 46.1696 70.6346C46.7029 69.1679 46.3029 68.5013 44.8363 68.5013C43.6363 68.5013 42.7029 67.8346 42.7029 67.0346C42.7029 65.9679 42.0363 66.1013 40.7029 67.1679C39.1029 68.5013 38.1696 68.5013 37.1029 67.4346C36.1696 66.5013 34.4363 65.8346 33.1029 65.8346C31.7696 65.8346 30.3029 64.9013 29.9029 63.8346C29.3696 62.7679 28.3029 61.8346 27.2363 61.8346C26.1696 61.8346 25.3696 60.9013 25.3696 59.7013C25.3696 57.8346 26.3029 57.7013 30.8363 58.3679C34.4363 58.9013 36.9696 58.6346 38.3029 57.5679C39.9029 56.2346 40.1696 56.3679 39.7696 58.6346C39.5029 60.5013 40.0363 61.0346 42.0363 60.7679C46.9696 59.8346 47.5029 54.6346 42.9696 53.4346C41.5029 53.0346 41.7696 52.7679 43.7696 52.6346C45.9029 52.5013 47.2363 53.4346 47.6363 55.1679C48.0363 56.7679 49.1029 57.7013 49.9029 57.4346C51.7696 56.7679 52.7029 52.3679 51.1029 51.3013C50.4363 50.9013 48.9696 48.9013 47.6363 46.7679C44.9696 42.6346 41.3696 42.1013 40.4363 45.7013C39.7696 48.2346 39.7696 48.2346 37.1029 45.5679C34.4363 42.9013 34.4363 42.9013 37.5029 39.7013C40.9696 35.9679 44.0363 35.5679 44.0363 38.6346C44.0363 40.1013 44.7029 40.5013 46.1696 39.9679C47.3696 39.5679 48.8363 39.1679 49.5029 39.1679C50.1696 39.1679 50.7029 38.3679 50.7029 37.3013C50.7029 35.7013 51.6363 35.5679 54.8363 36.5013C59.6363 37.9679 61.3696 37.3013 61.3696 34.2346C61.3696 32.5013 61.7696 32.5013 63.3696 33.8346C66.1696 36.1013 65.9029 38.1013 62.5696 41.0346C60.4363 42.7679 60.1696 43.8346 61.2363 44.9013C63.3696 47.0346 63.1029 51.1679 60.7029 51.1679C57.7696 51.1679 58.1696 57.4346 61.2363 59.0346C63.1029 60.1013 64.1696 59.8346 65.9029 57.9679C67.1029 56.6346 68.0363 54.6346 67.7696 53.7013C67.5029 52.5013 68.7029 51.7013 70.7029 51.4346C73.2363 51.1679 74.4363 49.8346 75.5029 46.3679C76.8363 42.1013 76.7029 41.4346 73.9029 39.5679C72.1696 38.5013 70.9696 37.0346 71.3696 36.5013C72.3029 35.0346 78.7029 38.1013 78.7029 39.9679C78.7029 42.1013 84.1696 43.3013 86.3029 41.5679C88.7029 39.5679 88.4363 38.2346 85.1029 34.9013C81.9029 31.7013 82.9696 28.2346 87.5029 27.3013C89.6363 26.9013 89.7696 27.1679 88.1696 29.0346C86.7029 30.7679 86.8363 31.3013 90.0363 32.5013C94.9696 34.3679 95.5029 34.2346 98.0363 30.3679C100.17 27.1679 100.17 26.9013 97.7696 25.0346C95.6363 23.1679 95.7696 23.1679 100.036 23.9679C102.57 24.3679 107.37 26.3679 110.703 28.2346ZM94.7029 27.8346C94.7029 28.9013 93.7696 29.8346 92.7029 29.8346C91.6363 29.8346 90.7029 28.9013 90.7029 27.8346C90.7029 26.7679 91.6363 25.8346 92.7029 25.8346C93.7696 25.8346 94.7029 26.7679 94.7029 27.8346ZM59.1029 31.1679C59.9029 34.3679 59.2363 35.0346 56.0363 34.2346C53.7696 33.5679 53.3696 31.3013 54.5696 27.5679C54.9696 26.3679 58.5696 29.1679 59.1029 31.1679ZM51.3696 31.1679C51.7696 31.8346 51.2363 32.5013 50.1696 32.5013C48.9696 32.5013 48.0363 31.8346 48.0363 31.1679C48.0363 30.3679 48.5696 29.8346 49.2363 29.8346C50.0363 29.8346 50.9696 30.3679 51.3696 31.1679ZM70.7029 30.3679C70.7029 30.7679 70.1696 31.4346 69.3696 31.8346C68.7029 32.2346 68.0363 31.9679 68.0363 31.3013C68.0363 30.5013 68.7029 29.8346 69.3696 29.8346C70.1696 29.8346 70.7029 30.1013 70.7029 30.3679ZM48.0363 35.8346C48.0363 36.9013 47.5029 37.8346 46.7029 37.8346C46.0363 37.8346 45.3696 36.9013 45.3696 35.8346C45.3696 34.7679 46.0363 33.8346 46.7029 33.8346C47.5029 33.8346 48.0363 34.7679 48.0363 35.8346ZM120.703 36.2346C120.703 38.6346 118.036 38.2346 117.636 35.7013C117.236 34.3679 117.77 33.7013 118.97 34.1013C119.903 34.5013 120.703 35.4346 120.703 36.2346ZM85.3696 38.5013C85.3696 39.5679 84.4363 40.5013 83.3696 40.5013C81.2363 40.5013 80.7029 38.9013 82.3029 37.4346C83.7696 35.8346 85.3696 36.3679 85.3696 38.5013ZM107.503 38.5013C108.57 41.3013 106.703 43.9679 105.236 41.7013C103.636 39.1679 103.77 36.5013 105.37 36.5013C106.17 36.5013 107.103 37.4346 107.503 38.5013ZM71.2363 41.8346C70.7029 40.7679 70.8363 40.3679 71.3696 40.9013C73.3696 42.6346 72.9696 45.0346 70.5696 47.4346C68.5696 49.3013 68.1696 49.3013 67.5029 47.7013C67.1029 46.5013 66.0363 46.1013 65.3696 46.5013C63.3696 47.7013 64.3029 44.5013 66.7029 41.8346C68.4363 39.9679 68.8363 39.9679 70.4363 41.8346C71.9029 43.5679 72.0363 43.5679 71.2363 41.8346ZM101.37 43.3013C101.37 45.7013 101.103 45.8346 99.3696 44.5013C98.3029 43.5679 97.3696 42.3679 97.3696 41.7013C97.3696 41.0346 98.3029 40.5013 99.3696 40.5013C100.57 40.5013 101.37 41.7013 101.37 43.3013ZM127.77 42.1013C128.703 43.0346 129.37 43.9679 129.37 44.3679C129.37 44.9013 123.903 45.1679 117.37 45.1679C108.836 45.3013 106.036 44.9013 107.636 43.9679C113.503 40.7679 125.236 39.5679 127.77 42.1013ZM96.0363 47.9679C96.0363 50.1013 93.9029 50.5013 92.7029 48.5013C91.6363 46.7679 93.2363 44.2346 94.8363 45.1679C95.5029 45.7013 96.0363 46.9013 96.0363 47.9679ZM114.836 47.5679C114.703 48.1013 114.703 49.5679 114.703 50.7679C114.703 52.7679 114.436 52.9013 113.37 51.1679C111.636 48.5013 111.636 45.4346 113.503 46.1013C114.303 46.3679 114.836 47.0346 114.836 47.5679ZM122.436 48.1013C121.77 51.4346 118.703 51.8346 118.703 48.6346C118.703 47.0346 119.503 45.8346 120.836 45.8346C122.036 45.8346 122.703 46.7679 122.436 48.1013ZM129.103 48.7679C128.303 51.1679 125.37 51.5679 125.37 49.3013C125.37 48.1013 126.303 47.1679 127.503 47.1679C128.703 47.1679 129.37 47.8346 129.103 48.7679ZM108.036 51.1679C108.036 52.6346 107.503 53.8346 106.703 53.8346C106.036 53.8346 105.37 53.5679 105.37 53.3013C105.37 53.0346 104.97 51.8346 104.57 50.6346C104.036 49.1679 104.436 48.5013 105.903 48.5013C107.103 48.5013 108.036 49.5679 108.036 51.1679ZM91.2363 51.9679C91.7696 53.4346 91.3696 53.8346 89.7696 53.5679C88.5696 53.3013 87.3696 52.3679 86.9696 51.4346C86.1696 49.0346 90.3029 49.4346 91.2363 51.9679ZM101.77 53.8346C102.57 56.7679 101.77 57.1679 98.8363 55.3013C97.9029 54.6346 97.5029 53.4346 97.9029 52.6346C99.3696 50.3679 100.97 50.9013 101.77 53.8346ZM65.1029 55.4346C64.3029 57.8346 61.3696 58.2346 61.3696 55.9679C61.3696 54.7679 62.3029 53.8346 63.5029 53.8346C64.7029 53.8346 65.3696 54.5013 65.1029 55.4346ZM134.97 55.8346C138.303 57.1679 141.37 69.168 141.37 80.5013V90.9013L134.036 91.4346C127.903 91.7013 126.703 91.4346 126.703 89.568C126.703 88.368 128.303 86.768 130.436 86.1013L134.036 84.768L130.436 84.6346C125.37 84.5013 124.97 79.168 129.903 79.168C131.77 79.168 133.636 78.5013 134.036 77.8346C135.103 76.1013 131.77 76.2346 122.036 78.368C114.703 80.1013 114.436 80.2346 119.103 80.368C123.236 80.5013 124.17 80.9013 123.77 82.768C123.503 84.368 121.636 85.4346 118.703 85.968L114.036 86.768L119.103 87.0346C123.103 87.168 124.036 87.7013 124.036 89.8346C124.036 92.2346 123.103 92.5013 115.503 92.5013C110.436 92.5013 106.436 93.168 105.903 94.1013C105.236 95.168 107.37 95.3013 114.436 94.768L124.036 93.8346V100.635V107.568L118.036 106.768C107.77 105.301 97.3696 97.8346 97.3696 91.968C97.3696 82.5013 99.2363 72.5013 100.97 72.5013C103.636 72.5013 109.503 68.3679 108.57 67.0346C108.17 66.3679 105.77 65.8346 103.236 65.8346C100.703 65.8346 98.7029 65.3013 98.7029 64.7679C98.7029 62.9013 105.903 58.2346 112.17 55.9679C117.77 53.8346 129.77 53.8346 134.97 55.8346ZM95.9029 59.0346C95.5029 59.8346 94.5696 59.9679 93.5029 59.3013C92.5696 58.6346 92.1696 57.4346 92.7029 56.5013C93.9029 54.6346 96.5696 56.7679 95.9029 59.0346ZM91.3696 61.9679C91.9029 62.7679 92.0363 63.5679 91.6363 63.9679C90.7029 64.9013 86.7029 63.0346 86.7029 61.7013C86.7029 59.9679 90.3029 60.2346 91.3696 61.9679ZM28.5696 70.7679C29.3696 71.8346 30.7029 73.4346 31.6363 74.3679C32.9696 75.8346 32.7029 76.368 29.9029 77.0346C27.6363 77.7013 26.7029 78.6346 27.2363 79.8346C27.6363 80.9013 27.3696 81.8346 26.7029 81.8346C25.9029 81.8346 25.3696 80.768 25.3696 79.568C25.3696 77.568 25.1029 77.7013 23.5029 79.8346C21.7696 82.2346 21.6363 81.968 21.9029 76.5013C22.0363 73.3013 22.9696 70.3679 23.7696 70.1013C24.7029 69.8346 25.3696 68.6346 25.5029 67.4346C25.5029 65.5679 25.7696 65.5679 26.3029 67.1679C26.7029 68.2346 27.7696 69.8346 28.5696 70.7679ZM30.7029 68.5013C30.7029 69.1679 30.4363 69.8346 30.1696 69.8346C29.7696 69.8346 29.1029 69.1679 28.7029 68.5013C28.3029 67.7013 28.5696 67.1679 29.2363 67.1679C30.0363 67.1679 30.7029 67.7013 30.7029 68.5013ZM102.703 69.9679C102.703 70.6346 100.97 71.1679 98.7029 71.1679C94.9696 71.1679 93.6363 69.9679 95.3696 68.2346C96.4363 67.1679 102.703 68.6346 102.703 69.9679ZM33.3696 71.1679C33.3696 71.8346 32.7029 72.5013 31.9029 72.5013C31.2363 72.5013 30.9696 71.8346 31.3696 71.1679C31.7696 70.3679 32.4363 69.8346 32.8363 69.8346C33.1029 69.8346 33.3696 70.3679 33.3696 71.1679ZM43.7696 71.3013C43.5029 72.1013 42.7029 72.6346 42.0363 72.6346C41.3696 72.6346 40.5696 72.1013 40.3029 71.3013C40.0363 70.5013 40.8363 69.8346 42.0363 69.8346C43.2363 69.8346 44.0363 70.5013 43.7696 71.3013ZM82.0363 71.0346C82.4363 71.7013 82.1696 72.6346 81.3696 73.1679C80.5696 73.7013 80.3029 74.5013 80.7029 75.168C81.6363 76.6346 77.9029 77.968 75.5029 77.0346C74.3029 76.6346 73.9029 75.4346 74.3029 74.2346C74.8363 72.7679 74.5696 72.3679 73.6363 73.0346C71.9029 74.1013 71.3696 72.2346 72.9696 70.7679C74.3029 69.4346 81.1029 69.7013 82.0363 71.0346ZM89.9029 75.968C92.1696 76.768 92.9696 80.5013 90.9696 80.5013C90.3029 80.5013 88.7029 79.3013 87.3696 77.8346C84.9696 75.168 85.9029 74.5013 89.9029 75.968ZM31.3696 79.168C31.7696 79.8346 31.5029 80.5013 30.8363 80.5013C30.0363 80.5013 29.3696 79.8346 29.3696 79.168C29.3696 78.368 29.6363 77.8346 29.9029 77.8346C30.3029 77.8346 30.9696 78.368 31.3696 79.168ZM87.3696 80.5013C87.7696 81.168 87.7696 82.5013 87.2363 83.3013C86.4363 84.768 84.1696 82.5013 84.0363 80.1013C84.0363 78.768 86.4363 78.9013 87.3696 80.5013ZM77.3696 83.568C77.3696 85.3013 76.1696 87.968 74.7029 89.568C70.7029 93.8346 65.5029 93.3013 63.6363 88.2346C62.7029 85.568 66.0363 82.2346 67.3696 84.6346C67.9029 85.4346 67.6363 86.6346 66.7029 87.168C65.6363 87.8346 65.5029 88.5013 66.5696 89.0346C68.8363 90.5013 72.9696 87.568 73.9029 83.8346C74.9696 79.7013 77.3696 79.4346 77.3696 83.568ZM82.7029 82.6346C82.7029 83.7013 82.1696 84.2346 81.3696 83.8346C80.7029 83.4346 80.0363 82.5013 80.0363 81.7013C80.0363 81.0346 80.7029 80.5013 81.3696 80.5013C82.1696 80.5013 82.7029 81.4346 82.7029 82.6346ZM54.7029 83.0346C54.7029 83.7013 53.7696 84.5013 52.7029 85.0346C51.5029 85.4346 50.7029 85.0346 50.7029 83.8346C50.7029 82.768 51.6363 81.8346 52.7029 81.8346C53.7696 81.8346 54.7029 82.368 54.7029 83.0346ZM40.0363 86.5013C40.0363 87.568 39.1029 88.5013 38.0363 88.5013C36.9696 88.5013 36.0363 87.568 36.0363 86.5013C36.0363 85.4346 36.9696 84.5013 38.0363 84.5013C39.1029 84.5013 40.0363 85.4346 40.0363 86.5013ZM30.0363 90.5013C31.2363 91.568 30.9696 92.368 28.7029 94.1013C24.8363 97.0346 22.0363 95.3013 23.2363 90.6346C23.7696 88.6346 24.7029 87.4346 25.3696 87.8346C26.1696 88.2346 26.7029 87.8346 26.8363 86.9013C26.8363 85.7013 27.1029 85.8346 27.6363 87.168C28.0363 88.2346 29.1029 89.8346 30.0363 90.5013ZM33.1029 86.768C31.7696 87.0346 30.7029 87.968 30.7029 88.768C30.7029 89.568 30.3029 89.968 29.9029 89.4346C28.5696 88.1013 30.7029 85.8346 33.1029 85.968C35.1029 86.1013 35.1029 86.2346 33.1029 86.768ZM94.0363 93.8346C94.0363 97.4346 91.1029 99.0346 89.9029 95.968C88.8363 93.0346 90.3029 89.4346 92.4363 90.2346C93.2363 90.5013 94.0363 92.1013 94.0363 93.8346ZM56.5696 94.6346C57.7696 95.0346 58.7029 96.9013 58.7029 98.5013C58.7029 101.168 58.1696 101.568 55.7696 101.035C54.0363 100.635 51.9029 100.235 51.1029 100.235C48.9696 99.968 48.9696 99.7013 50.7029 96.368C52.1696 93.7013 53.2363 93.3013 56.5696 94.6346ZM85.7696 96.5013C86.4363 99.3013 83.6363 102.501 81.3696 101.168C79.5029 99.968 79.6363 95.568 81.7696 94.768C84.5696 93.568 85.1029 93.7013 85.7696 96.5013ZM140.036 95.8346C140.036 96.9013 139.103 100.235 137.903 103.168C135.903 108.101 135.37 108.501 130.436 108.501C125.103 108.501 125.103 108.501 125.903 104.368C126.303 102.101 126.703 98.768 126.703 97.0346C126.703 94.1013 127.236 93.8346 133.37 93.8346C138.303 93.8346 140.036 94.368 140.036 95.8346ZM74.7029 99.968C74.7029 103.568 71.3696 105.701 69.1029 103.435C67.1029 101.435 68.9696 97.0346 72.0363 96.9013C74.0363 96.768 74.7029 97.4346 74.7029 99.968ZM99.6363 103.968C98.4363 105.301 94.5696 101.835 95.5029 100.235C96.0363 99.4346 97.2363 99.7013 98.4363 101.035C99.6363 102.101 100.17 103.568 99.6363 103.968ZM108.57 106.635C109.77 107.035 110.703 107.968 110.703 108.768C110.703 110.635 104.97 109.435 104.303 107.435C103.77 105.701 105.236 105.435 108.57 106.635ZM90.1696 109.968C90.7029 111.035 91.3696 111.035 92.4363 109.968C94.4363 107.968 99.1029 108.101 101.103 110.101C102.036 111.035 102.703 113.301 102.703 115.301C102.703 117.301 103.636 119.568 104.703 120.501C106.836 122.235 107.37 126.768 105.636 129.435C105.103 130.368 103.103 131.301 101.37 131.435C99.5029 131.701 97.3696 133.035 96.7029 134.501C95.7696 136.101 93.6363 137.301 90.9696 137.568C87.3696 137.968 86.4363 137.435 85.3696 134.501C84.7029 132.635 83.6363 131.301 83.1029 131.568C82.4363 131.968 80.7029 131.701 79.1029 131.035C75.5029 129.701 74.8363 123.168 78.0363 120.501C79.2363 119.568 79.7696 117.701 79.3696 116.368C78.0363 112.368 80.9696 108.501 85.3696 108.501C87.5029 108.501 89.6363 109.168 90.1696 109.968ZM70.9696 114.501C69.3696 117.435 67.3696 114.768 68.5696 111.568C69.2363 109.968 69.9029 109.835 70.8363 110.768C71.7696 111.701 71.9029 113.035 70.9696 114.501ZM132.703 111.168C133.236 111.968 132.036 112.501 130.036 112.501C128.036 112.501 126.836 111.968 127.37 111.168C127.77 110.368 128.97 109.835 130.036 109.835C131.103 109.835 132.303 110.368 132.703 111.168ZM122.97 114.101C125.37 117.035 125.37 117.035 122.17 120.368C118.836 123.568 118.703 123.568 116.036 121.168C112.703 118.235 112.57 115.301 115.77 113.035C118.97 110.635 120.036 110.768 122.97 114.101ZM42.7029 119.301C42.7029 119.968 41.7696 120.501 40.7029 120.501C38.7029 120.501 38.0363 118.901 39.5029 117.435C40.5696 116.368 42.7029 117.568 42.7029 119.301ZM70.7029 124.635C70.7029 126.901 70.1696 128.368 69.3696 127.835C68.7029 127.435 68.0363 125.568 68.0363 123.701C68.0363 121.968 68.7029 120.501 69.3696 120.501C70.1696 120.501 70.7029 122.368 70.7029 124.635ZM54.4363 125.968C56.0363 125.968 56.1696 126.235 54.8363 126.768C53.3696 127.435 53.3696 127.701 54.8363 128.635C56.3029 129.568 56.1696 129.835 54.3029 129.835C52.9696 129.835 52.3029 130.368 52.7029 131.168C54.0363 133.301 48.9696 131.035 46.3029 128.235C44.3029 126.235 44.1696 125.835 46.0363 125.835C47.2363 125.835 48.4363 124.901 48.9696 123.701C49.6363 121.701 49.9029 121.701 50.9696 123.701C51.6363 124.901 53.2363 125.835 54.4363 125.968ZM41.3696 124.501C41.3696 125.168 41.1029 125.835 40.8363 125.835C40.4363 125.835 39.7696 125.168 39.3696 124.501C38.9696 123.701 39.2363 123.168 39.9029 123.168C40.7029 123.168 41.3696 123.701 41.3696 124.501ZM75.2363 135.968C76.5696 139.301 76.1696 140.501 74.0363 139.701C72.9696 139.168 72.0363 137.701 72.0363 136.368C72.0363 133.301 74.1696 133.035 75.2363 135.968Z" fill="#D82E26"/>
<path d="M128.97 71.4346L126.703 75.3013L130.703 72.9013C135.103 70.3679 135.636 69.1679 132.97 68.1013C132.036 67.7013 130.303 69.1679 128.97 71.4346Z" fill="#D82E26"/>
<path d="M117.37 70.6346C117.37 71.568 120.97 75.168 121.903 75.168C123.636 75.168 122.57 71.4346 120.57 70.6346C118.036 69.7013 117.37 69.568 117.37 70.6346Z" fill="#D82E26"/>
<path d="M76.7029 72.5014C76.3029 73.1681 76.5696 73.8347 77.2362 73.8347C78.0362 73.8347 78.7029 73.1681 78.7029 72.5014C78.7029 71.7014 78.4362 71.168 78.1696 71.168C77.7696 71.168 77.1029 71.7014 76.7029 72.5014Z" fill="#D82E26"/>
<path d="M90.8363 115.968C90.703 119.168 87.903 120.768 84.4363 119.701C83.103 119.435 83.3697 119.835 85.103 120.635C87.503 121.968 88.0363 123.035 87.3697 125.435C86.703 128.235 86.8363 128.368 89.2363 126.901C91.2363 125.701 92.303 125.701 93.7697 127.035C95.503 128.368 95.7697 128.235 95.103 125.835C94.5697 124.101 95.2363 122.368 96.703 121.301C98.9697 119.701 98.8363 119.568 96.0363 119.701C93.7697 119.835 92.5697 118.901 91.903 116.501C91.103 113.568 90.9697 113.435 90.8363 115.968Z" fill="#D82E26"/>
<path d="M117.37 116.501C117.37 117.168 118.036 117.835 118.703 117.835C119.503 117.835 120.036 117.168 120.036 116.501C120.036 115.701 119.503 115.168 118.703 115.168C118.036 115.168 117.37 115.701 117.37 116.501Z" fill="#D82E26"/>
</svg>
