<svg width="162" height="162" viewBox="0 0 162 162" fill="none" xmlns="http://www.w3.org/2000/svg">
<path d="M62.2362 2.03461C33.5696 8.56795 8.23624 33.9013 1.70291 62.7013C-0.430428 71.9013 -0.430428 90.0346 1.70291 99.1013C8.63624 128.701 32.3696 152.568 61.8362 159.501C84.3696 164.701 110.37 159.635 127.703 146.435C158.37 123.101 169.303 84.5679 154.903 49.9013C145.97 28.7013 127.036 10.9679 105.97 4.16794C94.5029 0.434616 73.5696 -0.498718 62.2362 2.03461ZM104.37 5.63461C115.303 9.23462 119.303 11.2346 128.236 18.0346C141.703 28.1679 152.636 44.568 156.903 61.1013C159.57 71.368 159.57 90.7013 157.036 100.701C153.703 113.635 146.103 126.568 135.703 136.835C86.2362 186.301 1.83624 151.368 1.70291 81.2346C1.70291 67.368 3.70291 58.8346 9.83624 45.9013C19.7029 25.1013 40.6362 8.83461 64.3696 3.50128C75.7029 0.967941 93.0362 1.90128 104.37 5.63461Z" fill="#D82E26"/>
<path d="M81.3029 5.10127C80.7696 5.50127 80.3696 7.6346 80.3696 9.6346C80.3696 13.6346 79.9696 13.7679 66.7696 15.5013C59.1696 16.4346 57.9696 14.1679 65.4362 12.9679C76.9029 10.9679 77.7029 10.7013 77.7029 8.03461C77.7029 5.10127 72.5029 4.70126 62.1029 6.83461C52.7696 8.83461 51.7029 9.76793 53.4362 14.5679C54.7696 18.4346 54.6362 18.7013 46.7696 23.3679C42.2362 26.0346 38.1029 28.1679 37.5696 28.1679C34.6362 28.1679 37.0362 25.6346 43.7029 21.6346C49.9696 17.7679 50.7696 16.8346 49.5696 14.7013C48.9029 13.3679 47.8362 12.1679 47.3029 12.1679C46.2362 12.1679 35.3029 19.5013 29.7029 24.0346L26.3696 26.7013L29.4362 29.9013L32.5029 33.1013L26.9029 41.2346C23.8362 45.7679 20.7696 49.1013 20.1029 48.7013C18.9029 47.9013 21.5696 42.7013 25.9696 37.1013C28.6362 33.7679 28.7696 33.3679 26.7696 31.2346C24.7696 29.2346 24.3696 29.3679 21.1696 32.9679C16.2362 38.5679 10.1029 51.1013 11.8362 51.7679C12.6362 52.0346 14.3696 52.9679 15.7029 54.0346C17.8362 55.6346 17.8362 56.1679 15.7029 65.2346C14.3696 70.5679 12.7696 74.8346 12.2362 74.8346C10.5029 74.8346 10.7696 70.8346 12.9029 63.6346C14.6362 57.7679 14.6362 57.3679 12.1029 56.0346C10.6362 55.2346 9.30291 54.8346 9.16957 55.1013C7.83624 56.7013 5.70291 65.3679 4.90291 72.0346L4.10291 80.0346L8.50291 80.4346C12.9029 80.8346 12.9029 80.9679 14.5029 90.1679C15.3029 95.2346 15.7029 99.9013 15.4362 100.568C14.1029 102.968 12.5029 99.6346 11.7029 92.1679C10.9029 84.7013 10.5029 84.1679 7.43624 84.1679C4.10291 84.1679 4.10291 84.4346 4.90291 90.3013C5.83624 97.6346 7.96957 105.501 9.43624 107.901C10.3696 109.368 11.3029 109.368 14.3696 107.901C17.4362 106.568 18.2362 106.568 18.7696 107.901C19.0362 108.835 21.3029 112.701 23.8362 116.435C26.6362 120.435 27.9696 123.768 27.3029 124.435C26.2362 125.501 23.5696 122.035 17.0362 111.101C16.3696 110.035 12.3696 112.701 12.3696 114.168C12.3696 116.568 23.0362 132.301 25.3029 133.101C26.3696 133.501 28.5029 132.701 29.9696 131.101L32.6362 128.435L38.6362 132.968C41.8362 135.368 45.4362 137.901 46.6362 138.568C47.7029 139.235 48.5029 140.568 48.2362 141.368C47.8362 142.435 45.1696 141.368 40.6362 138.301C33.0362 132.968 31.3029 132.568 30.2362 135.501C29.7029 136.835 30.7696 138.701 33.1696 140.568C37.4362 144.035 48.6362 150.835 49.9696 150.835C50.5029 150.835 51.8362 149.101 53.0362 146.968L55.0362 143.101L61.1696 144.968C64.6362 146.035 68.9029 146.835 70.6362 146.835C72.5029 146.835 73.7029 147.635 73.7029 148.835C73.7029 150.968 72.9029 150.835 61.8362 148.035C56.6362 146.701 55.0362 147.368 55.0362 150.835C55.0362 153.368 60.3696 155.101 74.1029 156.968L80.3696 157.768V153.101C80.3696 147.901 80.2362 148.035 94.1029 146.168C102.636 145.101 102.236 147.501 93.7029 149.368C89.9696 150.168 85.9696 150.835 84.9029 150.835C83.5696 150.835 83.0362 151.901 83.3029 153.768C83.7029 156.435 84.3696 156.835 89.0362 156.435C96.1029 155.901 108.37 152.435 108.37 150.835C108.37 150.168 107.836 148.168 107.036 146.301C105.97 143.235 106.37 142.701 114.636 138.168C119.436 135.501 123.703 133.768 124.103 134.168C125.036 135.101 121.17 138.168 114.636 141.635C110.37 143.901 109.836 144.568 111.036 146.835C111.836 148.301 112.903 149.501 113.436 149.501C114.903 149.501 125.303 142.568 130.37 138.435L134.37 135.101L131.303 131.768L128.236 128.435L132.903 122.168C135.57 118.835 137.703 115.368 137.703 114.701C137.703 114.035 138.636 113.501 139.703 113.501C142.503 113.501 142.236 114.435 136.903 121.768C133.17 127.101 132.503 128.701 133.836 130.301C134.636 131.368 135.836 132.168 136.503 132.168C138.103 132.168 149.703 114.301 149.703 111.768C149.703 110.835 148.103 109.235 146.236 108.301C143.436 107.101 142.903 106.168 143.57 103.768C144.103 102.168 145.17 97.6346 145.97 93.7679C147.836 84.9679 150.503 84.3013 149.036 93.1013C147.436 103.635 147.57 106.035 149.836 106.568C152.636 107.101 154.636 101.501 155.836 90.1679L156.77 81.6346L152.236 81.2346C147.836 80.8346 147.703 80.5679 146.903 74.1679C146.37 70.4346 145.703 66.0346 145.17 64.4346C144.503 62.3013 144.77 61.5013 146.103 61.5013C147.436 61.5013 148.37 63.9013 149.17 69.1013C150.236 75.6346 150.77 76.8346 153.436 77.2346C155.703 77.6346 156.37 76.9679 156.37 74.8346C156.37 70.4346 152.236 53.6346 151.036 52.8346C150.37 52.4346 148.236 52.8346 146.236 53.7679C143.303 55.1013 142.503 55.1013 141.97 53.7679C141.703 52.8346 139.436 48.9679 136.903 45.2346C134.37 41.5013 132.636 38.1679 133.036 37.7679C134.103 36.7013 138.37 41.1013 141.17 46.3013C143.703 50.9679 147.303 51.9013 148.103 48.0346C148.503 45.6346 138.236 29.6346 135.436 28.5679C134.37 28.1679 132.236 29.1013 130.503 30.7013C127.836 33.2346 127.17 33.3679 125.836 31.6346C124.903 30.4346 121.436 27.9013 118.236 25.9013C115.036 23.9013 112.37 21.7679 112.37 21.1013C112.37 19.1013 115.57 20.3013 121.703 24.7013C126.37 28.0346 128.503 28.8346 129.57 27.7679C130.37 26.9679 131.036 25.7679 131.036 25.1013C131.036 23.3679 126.103 19.5013 118.103 14.7013C111.303 10.8346 108.37 10.5679 108.37 13.9013C108.236 18.1679 106.37 18.8346 99.5696 16.8346C95.9696 15.7679 91.7029 14.8346 90.1029 14.8346C88.3696 14.8346 87.0362 14.1679 87.0362 13.3679C87.0362 12.3013 89.0362 12.0346 93.4362 12.7013C96.9029 13.1013 100.903 13.6346 102.37 13.7679C104.236 14.0346 105.17 13.2346 105.436 11.2346C105.836 8.70126 104.903 8.16794 98.7696 7.10127C85.5696 4.56793 82.2362 4.16794 81.3029 5.10127ZM75.8362 7.76793C75.3029 8.4346 71.1696 9.76793 66.6362 10.8346C59.5696 12.5679 58.5029 13.2346 58.7696 15.5013C59.4362 19.2346 59.4362 19.2346 65.3029 17.6346C68.1029 16.8346 72.9029 16.1679 76.1029 16.1679C80.1029 16.1679 81.7029 15.6346 81.8362 14.1679C81.9696 13.1013 82.2362 11.5013 82.3696 10.8346C82.5029 10.0346 82.7696 8.83461 82.9029 8.16794C83.1696 5.36794 101.97 8.03461 103.97 11.2346C104.77 12.5679 100.903 12.1679 90.1029 10.0346C85.9696 9.2346 85.7029 9.36794 85.7029 12.7013C85.7029 15.2346 86.3696 16.1679 88.2362 16.1679C89.7029 16.1679 94.5029 17.3679 99.0362 18.7013L107.303 21.3679L108.77 17.3679C109.57 15.2346 110.77 13.5013 111.57 13.5013C113.17 13.5013 121.436 18.5679 126.103 22.3013C132.236 27.3679 127.57 27.2346 121.036 22.1679C113.836 16.7013 112.903 16.5679 111.036 20.1679C109.97 22.3013 110.236 22.9679 112.636 24.3013C114.37 25.1013 118.503 28.1679 121.836 30.9679L127.97 36.0346L131.17 32.7013L134.37 29.3679L137.436 33.1013C143.836 40.7013 147.303 47.1013 145.97 48.4346C145.036 49.3679 143.703 48.1679 141.97 44.7013C138.103 37.2346 134.37 34.0346 131.703 36.1679C129.97 37.5013 130.236 38.4346 133.57 43.3679C135.57 46.3013 138.37 50.7013 139.57 53.1013C141.57 57.1013 141.97 57.2346 145.836 55.9013C147.97 55.1013 150.103 54.8346 150.503 55.1013C151.436 56.1679 155.17 75.1013 154.503 75.7679C152.903 77.3679 151.303 74.3013 150.636 68.0346C149.703 60.1679 148.236 58.0346 144.903 59.3679C143.17 60.0346 142.903 61.1013 143.57 64.5679C144.103 66.8346 144.903 72.0346 145.303 75.7679C146.103 82.8346 146.103 82.8346 150.636 82.8346H155.303L154.37 89.6346C153.036 99.5013 151.836 103.235 149.703 103.901C148.503 104.301 148.236 103.768 148.903 102.035C149.436 100.568 150.236 96.3013 150.636 92.4346C151.303 86.1679 151.17 85.5013 148.636 85.5013C146.503 85.5013 145.703 86.9679 143.97 94.4346C142.77 99.5013 141.57 104.435 141.036 105.635C140.503 107.235 141.436 108.301 144.236 109.501C146.503 110.435 148.37 111.635 148.37 112.168C148.37 114.035 137.57 129.501 136.236 129.501C134.103 129.501 134.903 127.768 139.97 120.435C143.97 114.568 144.503 113.101 142.903 112.035C139.836 110.035 138.37 110.701 135.836 114.968C134.503 117.235 131.57 121.101 129.436 123.635L125.303 128.301L128.37 131.501C130.903 134.168 131.17 135.101 129.836 136.701C127.57 139.368 115.836 146.835 113.97 146.835C110.77 146.835 112.636 144.701 119.703 140.435C127.436 135.768 128.103 134.701 125.17 132.301C123.703 131.101 121.836 131.768 116.236 135.501C112.236 138.035 107.97 140.568 106.636 140.968C104.236 141.768 104.103 143.101 106.37 148.435C107.036 150.301 105.97 151.101 100.236 152.701C92.5029 155.101 85.7029 155.501 85.7029 153.635C85.7029 152.968 88.5029 152.035 92.1029 151.501C100.636 150.301 102.903 148.835 102.103 145.501C101.57 143.368 100.77 142.968 98.5029 143.635C97.0362 144.168 92.1029 144.968 87.7029 145.368C79.8362 146.168 79.7029 146.301 79.3029 150.568C78.9029 154.568 78.5029 154.835 73.9696 154.835C67.4362 154.701 59.0362 152.701 57.1696 150.701C56.1029 149.501 56.7696 149.368 60.3696 150.035C75.0362 152.835 75.0362 152.835 75.0362 148.968C75.0362 146.035 74.3696 145.501 71.4362 145.501C69.3029 145.368 64.6362 144.301 60.7696 142.968L53.8362 140.568L52.2362 144.435C51.4362 146.435 49.9696 148.168 49.0362 148.168C46.3696 148.168 32.3696 138.435 32.3696 136.435C32.3696 134.568 32.5029 134.568 41.5696 140.835C47.1696 144.701 47.4362 144.701 49.3029 142.168C50.9029 139.768 50.9029 139.368 48.9029 138.168C47.7029 137.368 43.8362 134.568 40.2362 131.768C36.6362 129.101 33.3029 126.835 32.7696 126.835C32.3696 126.835 30.5029 128.035 28.9029 129.635L26.1029 132.301L22.1029 127.235C17.0362 120.835 13.1696 113.501 14.9029 113.501C15.7029 113.501 18.1029 116.168 20.3696 119.368C25.3029 126.568 26.6362 127.501 29.0362 125.501C30.5029 124.301 29.9696 122.568 25.5696 115.901C22.7696 111.368 20.3696 106.968 20.3696 106.035C20.3696 104.835 19.3029 104.701 15.5696 105.768C12.9029 106.435 10.5029 106.835 10.2362 106.435C9.16957 105.501 5.56957 86.5679 6.23624 85.9013C7.56957 84.5679 9.70291 87.1013 9.70291 89.9013C9.70291 95.2346 12.5029 102.835 14.3696 102.835C17.4362 102.835 17.7029 100.968 16.1029 89.6346L14.5029 78.8346H10.1029H5.56957L6.50291 71.7679C7.83624 61.7679 8.90291 58.4346 11.0362 57.7679C12.2362 57.3679 12.5029 57.9013 11.9696 59.3679C11.4362 60.7013 10.6362 64.9679 10.2362 68.9679C9.43624 75.6346 9.56957 76.1679 12.1029 76.1679C14.1029 76.1679 15.1696 75.1013 15.8362 72.4346C16.2362 70.4346 17.4362 65.7679 18.5029 61.9013C20.9029 53.2346 21.0362 54.1679 16.3696 52.1679C12.9029 50.7013 12.6362 50.1679 13.8362 47.6346C16.5029 42.5679 23.7029 32.1679 24.7696 32.1679C26.6362 32.1679 25.7029 34.8346 21.5696 40.7013C17.4362 46.5679 17.0362 50.8346 20.7696 50.8346C21.7029 50.8346 23.5696 48.9679 24.9029 46.7013C26.2362 44.4346 29.1696 40.5679 31.3029 38.0346L35.4362 33.3679L32.2362 30.0346L29.1696 26.8346L33.8362 22.9679C39.9696 17.7679 46.7696 14.1679 48.1029 15.5013C48.6362 16.0346 48.3696 16.8346 47.4362 17.1013C46.6362 17.3679 43.0362 19.7679 39.7029 22.4346C33.9696 26.7013 33.5696 27.3679 35.5696 29.2346C37.4362 31.2346 37.9696 31.1013 41.4362 28.5679C43.4362 27.1013 47.7029 24.5679 50.7696 22.9679C56.7696 19.9013 57.0362 19.3679 55.0362 14.3013C53.8362 11.1013 54.1029 10.8346 59.4362 9.50127C62.5029 8.70126 65.7029 7.76793 66.3696 7.50127C68.9029 6.56793 76.7696 6.83461 75.8362 7.76793Z" fill="#D82E26"/>
<path d="M64.3696 20.7013C51.3029 24.3013 38.5029 33.2346 30.2363 44.4346C7.83628 74.9679 19.1696 120.701 53.0363 136.701C63.1696 141.501 72.3696 143.235 85.1696 142.568C94.9029 142.035 97.7029 141.235 107.57 136.435C159.436 110.701 151.57 35.5013 95.4363 20.8346C86.3696 18.4346 72.7696 18.4346 64.3696 20.7013ZM89.7029 21.5013C91.9696 22.1679 92.2363 22.5679 90.7696 22.7013C89.1696 22.8346 88.3696 23.9013 88.3696 26.0346C88.3696 28.4346 89.4363 29.6346 92.2363 30.5679C94.3696 31.3679 96.9029 33.3679 97.8363 35.1013C99.8363 38.9679 101.836 40.3013 103.703 38.8346C104.37 38.3013 106.503 37.5013 108.37 37.2346C110.636 36.9679 111.703 35.9013 111.836 34.1679C111.97 32.7013 112.103 31.1013 112.236 30.4346C112.37 29.1013 119.036 33.5013 119.036 34.9679C119.036 35.6346 118.103 35.7679 117.036 35.3679C113.703 34.0346 112.103 40.3013 115.17 43.1013C116.503 44.4346 117.97 45.5013 118.236 45.5013C120.103 45.5013 124.103 40.8346 123.436 39.6346C122.903 38.8346 123.836 39.3679 125.57 40.7013C130.503 45.1013 134.103 51.9013 133.17 55.3679C132.236 58.9679 128.37 61.2346 128.37 58.1679C128.37 57.1013 129.17 56.1679 130.103 56.0346C131.436 56.0346 131.436 55.7679 130.103 55.2346C129.17 54.9679 128.37 53.5013 128.37 52.0346C128.37 50.7013 127.703 49.5013 127.036 49.5013C126.236 49.5013 125.97 50.9679 126.503 52.8346C127.17 55.5013 126.77 56.1679 124.903 56.3013C122.503 56.4346 122.503 56.5679 124.77 57.1013C127.97 57.9013 126.903 60.5679 122.903 61.7679C119.836 62.7013 119.97 62.7013 123.436 62.3013C127.97 61.7679 127.97 62.4346 123.436 67.2346C120.903 69.7679 120.503 70.7013 122.103 70.1679C123.836 69.3679 124.37 69.9013 124.37 72.5679C124.37 75.2346 124.903 75.7679 127.036 75.2346C128.503 74.8346 130.636 75.2346 131.703 76.1679C133.436 77.6346 133.703 76.9679 133.703 70.9679C133.703 64.8346 133.436 64.1679 130.77 64.1679C127.036 64.1679 129.17 62.1679 133.97 60.9679C137.303 60.1679 137.703 60.5679 138.903 65.1013C139.57 67.9013 140.37 73.1013 140.636 76.8346L140.903 83.3679L133.036 84.9679C128.636 85.9013 123.303 87.2346 121.303 88.0346C115.703 90.1679 110.77 87.5013 109.303 81.5013C105.436 65.7679 105.836 66.3013 102.77 69.1013C99.9696 71.5013 99.9696 71.5013 101.57 68.5679C103.836 64.1679 103.436 60.9679 99.0363 52.4346C96.9029 48.0346 95.0363 43.9013 95.0363 43.1013C95.0363 42.4346 94.103 41.1013 92.9029 40.1679C91.3029 38.7013 90.503 38.8346 88.3696 40.9679C86.9029 42.3013 84.6363 45.9013 83.3029 48.7013L80.7696 53.9013L75.7029 48.4346C72.903 45.5013 69.8363 43.3679 68.7696 43.7679C66.1029 44.8346 66.3696 57.3679 69.1696 58.4346C70.903 59.1013 70.5029 59.9013 67.3029 63.3679C65.1696 65.6346 62.6363 68.8346 61.8363 70.4346C60.7696 72.4346 59.0363 73.5013 56.9029 73.5013C54.2363 73.5013 53.5696 74.0346 54.2363 75.7679C54.7696 77.3679 54.2363 77.1013 52.9029 75.1013C50.2363 71.5013 47.5696 71.3679 45.7029 74.7013C44.7696 76.5679 44.7696 77.3679 45.9696 77.7679C46.9029 78.1679 47.1696 79.3679 46.6363 80.7013C46.1029 81.9013 45.0363 82.5679 44.2363 82.1679C43.3029 81.5013 43.0363 82.3013 43.3029 84.3013C43.5696 86.9679 44.6363 87.6346 49.7029 88.3013C53.0363 88.7013 54.9029 89.2346 54.1029 89.2346C49.3029 89.9013 56.2363 96.9679 64.1029 99.3679C67.5696 100.435 67.4363 100.035 65.5696 109.901C64.1029 118.301 66.2363 130.435 70.5029 136.835L72.6363 140.168L67.3029 139.635C59.9696 138.968 58.6363 138.035 60.5029 134.701C62.2363 131.368 59.7029 127.635 56.2363 128.568C54.5029 129.101 53.7029 128.168 53.1696 124.701C52.1029 119.235 51.4363 118.835 45.7029 120.035C42.3696 120.701 41.1696 121.635 41.4363 123.235C42.1029 126.968 39.4363 125.768 34.5029 119.901C31.3029 116.301 30.2363 114.035 31.1696 113.368C31.9696 112.835 33.3029 111.635 33.9696 110.701C34.9029 109.368 35.0363 109.635 34.6363 111.768C33.8363 115.235 35.8363 116.301 40.1029 114.701C43.8363 113.235 43.8363 107.368 39.9696 107.635C38.7696 107.768 37.7029 107.368 37.7029 106.701C37.7029 106.035 39.1696 105.501 41.0363 105.501C43.4363 105.501 44.5029 106.435 45.1696 108.835C46.1029 112.568 48.1029 113.235 49.1696 110.168C50.1029 108.035 46.2363 98.8346 43.8363 97.2346C43.0363 96.7013 41.0363 96.1679 39.4363 96.1679C37.1696 96.1679 36.6363 96.7013 37.3029 98.4346C37.9696 100.435 37.7029 100.568 36.2363 99.1013C34.1029 97.2346 27.5696 96.9679 26.3696 98.8346C23.5696 103.368 20.3696 94.5679 20.3696 82.8346C20.3696 75.6346 20.5029 75.5013 22.7696 78.4346C24.3696 80.5679 25.9696 81.1013 28.6363 80.5679C32.5029 79.7679 34.5029 76.8346 32.1029 75.3679C31.3029 74.8346 29.9696 75.3679 29.1696 76.4346C27.8363 78.1679 27.4363 78.1679 25.3029 76.1679C23.1696 74.0346 23.1696 73.7679 25.0363 72.1679C26.6363 70.8346 27.5696 70.8346 28.6363 71.9013C30.9029 74.1679 33.7029 73.9013 33.7029 71.5013C33.7029 69.6346 32.1029 68.9679 29.4363 69.3679C28.7696 69.3679 28.3696 68.8346 28.3696 68.0346C28.3696 67.1013 29.7029 66.8346 31.7029 67.3679C33.9696 67.9013 35.8363 67.5013 37.1696 66.1679C39.0363 64.4346 39.0363 64.1679 37.1696 64.1679C35.9696 64.1679 35.0363 64.5679 35.0363 65.2346C35.0363 66.5679 24.6363 65.6346 23.7029 64.1679C23.4363 63.6346 25.8363 61.5013 29.0363 59.3679C33.8363 56.4346 35.0363 54.8346 35.0363 51.9013C35.0363 49.1013 35.7029 48.1679 37.5696 48.1679C39.0363 48.1679 40.6363 47.5013 41.0363 46.8346C41.5696 46.0346 43.0363 45.7679 44.2363 46.1679C47.3029 47.1013 50.1029 43.7679 49.1696 40.4346C48.6363 38.9679 49.4363 36.5679 50.9029 34.5679C52.7696 32.1679 53.1696 30.8346 52.1029 29.7679C51.1696 28.8346 51.5696 28.0346 53.5696 26.9679C56.1029 25.6346 56.5029 25.9013 57.7029 28.9679C58.5029 31.1013 59.8363 32.1679 60.9029 31.7679C61.8363 31.3679 63.4363 31.7679 64.3696 32.5679C65.5696 33.7679 65.8363 33.5013 65.4363 30.9679C65.1696 29.1013 65.8363 27.5013 66.903 27.1013C68.2363 26.7013 68.5029 27.3679 67.8363 30.0346C66.7696 34.1679 69.1696 34.8346 70.3696 30.8346C71.7029 26.5679 68.903 24.0346 64.9029 25.7679C63.1696 26.5679 61.3029 26.8346 60.7696 26.3013C56.9029 22.4346 80.3696 18.5679 89.7029 21.5013ZM99.0363 24.9679C99.0363 27.2346 96.103 26.8346 95.3029 24.4346C95.0363 23.5013 95.7029 22.8346 96.9029 22.8346C98.103 22.8346 99.0363 23.7679 99.0363 24.9679ZM93.7029 26.1679C93.7029 27.2346 93.1696 28.1679 92.503 28.1679C90.7696 28.1679 89.5696 26.0346 90.6363 24.9679C92.103 23.5013 93.7029 24.1679 93.7029 26.1679ZM107.97 29.7679C106.77 30.5679 106.77 30.8346 108.103 30.8346C109.17 30.8346 108.903 31.6346 107.436 33.2346C105.836 34.8346 104.636 35.1013 104.103 34.3013C103.436 33.3679 103.036 33.3679 103.036 34.5679C103.036 35.9013 102.636 35.9013 101.17 34.5679C99.8363 33.3679 99.7029 32.5679 100.903 31.9013C101.97 31.1013 101.97 30.8346 100.77 30.8346C99.5696 30.8346 99.8363 30.0346 101.436 28.4346C103.17 26.5679 104.37 26.4346 106.636 27.5013C108.636 28.4346 109.036 29.1013 107.97 29.7679ZM45.0363 38.7013C45.0363 41.3679 44.5029 42.3013 43.1696 41.7679C41.9696 41.3679 41.5696 41.6346 42.2363 42.5679C43.5696 44.8346 41.8363 44.5679 39.4363 42.1679C38.3696 41.1013 36.7696 40.5679 35.9696 41.1013C35.0363 41.5013 35.8363 40.3013 37.5696 38.4346C41.9696 33.6346 45.0363 33.7679 45.0363 38.7013ZM119.703 38.8346C121.17 41.1013 119.036 43.1013 116.903 41.3679C115.97 40.5679 115.436 39.3679 115.836 38.7013C116.77 37.1013 118.636 37.2346 119.703 38.8346ZM31.4363 55.6346C23.1696 62.1679 22.1029 60.1679 28.7696 50.0346L33.0363 43.5013L33.4363 48.5679C33.7029 52.3013 33.1696 54.3013 31.4363 55.6346ZM92.3696 49.1013C93.1696 51.2346 94.6363 54.4346 95.7029 56.4346C97.9696 60.4346 98.3696 64.9679 96.3696 66.1679C95.7029 66.5679 95.0363 65.7679 95.0363 64.3013C95.0363 62.7013 94.103 61.5013 93.0363 61.5013C91.9696 61.5013 91.0363 60.8346 91.0363 60.0346C91.0363 59.3679 90.503 58.9679 89.8363 59.5013C89.1696 59.9013 88.103 59.5013 87.5696 58.7013C87.0363 57.6346 86.3696 57.7679 85.5696 58.9679C83.8363 61.9013 84.103 52.9679 85.9696 48.8346C87.9696 44.4346 90.7696 44.5679 92.3696 49.1013ZM81.0363 56.0346C79.4363 57.3679 72.3696 59.2346 72.3696 58.1679C72.3696 57.2346 77.7029 54.9679 80.3696 54.9679C81.4363 54.8346 81.7029 55.2346 81.0363 56.0346ZM136.37 57.5013C136.37 58.1679 135.703 58.8346 134.903 58.8346C134.236 58.8346 133.97 58.1679 134.37 57.5013C134.77 56.7013 135.436 56.1679 135.836 56.1679C136.103 56.1679 136.37 56.7013 136.37 57.5013ZM131.436 68.4346C132.503 72.0346 131.57 73.5013 128.236 73.5013C125.436 73.5013 124.636 70.9679 127.436 70.7013C128.77 70.7013 128.77 70.4346 127.436 69.9013C124.77 68.9679 125.436 65.5013 128.236 65.5013C129.703 65.5013 131.036 66.7013 131.436 68.4346ZM23.5696 68.8346C22.7696 70.9679 20.3696 71.6346 20.3696 69.7679C20.3696 68.3013 21.8363 66.8346 23.1696 66.8346C23.8363 66.8346 23.9696 67.7679 23.5696 68.8346ZM79.8363 73.1013C79.9696 75.6346 79.3029 76.1679 76.1029 76.1679C73.8363 76.1679 72.5029 75.6346 73.0363 74.8346C73.4363 74.0346 73.1696 73.5013 72.2363 73.5013C71.1696 73.5013 71.1696 72.9679 72.3696 71.5013C74.903 68.4346 79.7029 69.5013 79.8363 73.1013ZM66.6363 75.5013C67.8363 78.7013 66.5029 79.1013 64.6363 76.1679C63.5696 74.4346 63.5696 73.5013 64.3696 73.5013C65.1696 73.5013 66.1029 74.4346 66.6363 75.5013ZM98.103 78.8346C99.1696 78.8346 99.1696 79.2346 98.103 80.3013C97.1696 81.2346 95.4363 81.5013 94.103 80.9679C92.103 80.1679 92.103 79.9013 93.7029 78.8346C95.3029 77.7679 95.3029 77.5013 93.8363 77.5013C92.3696 77.5013 92.3696 77.1013 93.8363 75.2346C95.5696 73.2346 95.7029 73.3679 96.103 75.9013C96.3696 77.5013 97.1696 78.8346 98.103 78.8346ZM61.1696 76.8346C62.6363 80.4346 60.9029 81.7679 59.3029 78.3013C58.3696 76.1679 58.2363 74.8346 59.1696 74.8346C59.8363 74.8346 60.7696 75.7679 61.1696 76.8346ZM87.7029 77.6346C88.2363 78.3013 88.2363 80.4346 87.8363 82.1679C86.9029 86.0346 81.8363 87.7679 77.8363 85.5013C73.3029 83.1013 74.5029 81.3679 80.2363 82.3013C84.103 82.9679 85.4363 82.5679 86.103 81.1013C86.6363 79.6346 86.2363 79.2346 84.9029 79.7679C83.8363 80.1679 83.0363 79.6346 83.0363 78.3013C83.0363 75.9013 86.3696 75.3679 87.7029 77.6346ZM52.1029 80.7013C52.5029 82.3013 51.9696 82.9679 50.7696 82.5679C49.8363 82.1679 48.7696 80.8346 48.6363 79.6346C48.2363 78.0346 48.7696 77.3679 49.9696 77.7679C50.9029 78.1679 51.9696 79.5013 52.1029 80.7013ZM105.703 82.9679C105.703 87.3679 102.103 92.8346 98.103 94.7013L94.3696 96.4346L98.103 92.4346C100.103 90.3013 102.103 86.4346 102.636 83.7679C103.436 78.8346 105.703 78.1679 105.703 82.9679ZM132.37 90.8346C133.036 90.8346 133.97 92.0346 134.37 93.6346C135.57 97.3679 131.57 100.435 128.103 98.3013C124.103 95.9013 125.303 88.5679 129.436 90.1679C130.37 90.5679 131.703 90.8346 132.37 90.8346ZM72.7696 96.7013C73.9696 96.7013 75.0363 97.2346 75.0363 97.7679C75.0363 99.6346 64.9029 98.8346 62.2363 96.8346C59.8363 94.9679 60.1029 94.8346 65.0363 95.7679C67.9696 96.3013 71.4363 96.7013 72.7696 96.7013ZM114.37 98.8346C115.036 100.968 115.703 101.235 117.836 100.168C121.17 98.3013 124.77 101.368 122.903 104.301C121.17 107.101 121.436 107.768 124.37 108.568C127.703 109.368 127.97 114.435 124.636 115.368C123.036 115.901 122.236 117.501 122.37 119.901C122.37 122.968 121.836 123.501 118.77 123.235C116.236 123.101 114.903 123.768 114.37 125.635C113.303 128.968 108.77 128.968 107.703 125.501C106.77 122.568 105.97 122.301 103.17 124.035C100.503 125.768 97.5696 121.635 99.1696 118.568C100.103 116.835 99.7029 116.168 97.7029 115.501C94.2363 114.435 94.2363 109.501 97.7029 108.568C100.636 107.768 100.903 107.101 99.1696 104.301C97.3029 101.368 100.903 98.3013 104.236 100.035C106.236 101.235 106.903 100.968 107.436 98.8346C108.37 95.3679 113.303 95.3679 114.37 98.8346ZM90.103 102.035C90.3696 102.835 90.2363 104.835 89.5696 106.435C87.8363 111.101 80.903 110.701 79.8363 106.035C78.5029 100.968 82.103 97.1013 86.3696 99.1013C88.103 99.9013 89.8363 101.235 90.103 102.035ZM136.37 103.768C136.236 104.435 135.436 106.301 134.37 108.168C132.77 111.101 132.503 111.235 131.703 109.101C131.17 107.901 131.436 105.901 132.37 104.835C134.103 102.701 136.37 102.168 136.37 103.768ZM74.5029 119.501C73.7029 121.901 69.7029 120.701 69.7029 118.035C69.7029 115.368 74.2363 113.101 74.7696 115.635C75.0363 116.701 74.903 118.568 74.5029 119.501ZM48.5029 123.368C49.1696 122.968 49.7029 124.168 49.7029 126.035C49.7029 129.635 48.7696 130.035 45.1696 128.701C43.5696 128.035 43.4363 127.368 44.7696 124.568C45.5696 122.701 46.5029 121.901 46.7696 122.701C47.0363 123.501 47.8363 123.901 48.5029 123.368ZM83.0363 128.035C83.0363 129.368 81.7029 131.768 80.103 133.501L77.3029 136.568L74.7696 133.501C72.2363 130.435 72.3696 130.435 75.8363 126.701C78.6363 123.768 79.9696 123.235 81.3029 124.301C82.2363 125.101 83.0363 126.835 83.0363 128.035ZM94.9029 130.701C97.1696 132.168 95.5696 140.168 93.0363 140.168C92.103 140.168 89.4363 140.568 87.1696 140.968L82.9029 141.901L86.6363 135.768C90.503 129.501 91.7029 128.701 94.9029 130.701ZM52.9029 132.968C53.4363 134.301 53.0363 134.835 52.1029 134.568C50.1029 133.901 49.0363 130.835 50.7696 130.835C51.4363 130.835 52.5029 131.768 52.9029 132.968ZM58.7696 132.435C57.9696 134.835 55.0363 135.235 55.0363 132.968C55.0363 131.768 55.9696 130.835 57.1696 130.835C58.3696 130.835 59.0363 131.501 58.7696 132.435Z" fill="#D82E26"/>
<path d="M56.3696 32.0345C56.3696 32.8345 55.9696 33.3679 55.4363 33.3679C52.7696 32.9679 52.2363 33.6345 53.8363 35.6345C54.9029 36.8345 55.7029 38.8345 55.7029 40.0345C55.7029 41.1012 56.7696 42.3012 58.1029 42.5679C61.1696 43.2345 62.7696 38.8345 60.1029 36.9679C59.0363 36.1679 58.3696 34.8345 58.6363 33.9012C58.9029 33.1012 58.5029 32.0345 57.8363 31.5012C57.0363 31.1012 56.3696 31.3679 56.3696 32.0345ZM59.5696 40.3012C59.1696 40.9679 58.2363 41.2345 57.5696 40.7012C56.9029 40.3012 56.6363 39.3679 57.1696 38.7012C57.5696 38.0345 58.5029 37.7679 59.1696 38.3012C59.8363 38.7012 60.1029 39.6345 59.5696 40.3012Z" fill="#D82E26"/>
<path d="M43.8363 53.1012C41.4363 56.3012 41.4363 56.7012 43.5696 60.1679C46.3696 64.9679 46.2363 65.5012 42.7696 65.5012C40.3696 65.5012 40.1029 65.7679 41.7029 66.8345C43.0363 67.6345 44.5029 67.3679 46.3696 65.6345C47.8363 64.1679 50.2363 62.8345 51.7029 62.5679C53.7029 62.3012 54.3696 60.9679 54.6363 57.1012C55.0363 52.9679 54.6363 52.1679 52.5029 52.1679C51.0363 52.1679 49.4363 51.5012 49.0363 50.8345C47.7029 48.8345 46.6363 49.2345 43.8363 53.1012ZM51.0363 57.6345C51.0363 60.9679 46.6363 60.5679 45.9696 57.1012C45.7029 55.5012 46.3696 54.8345 48.2363 54.8345C50.2363 54.8345 51.0363 55.6345 51.0363 57.6345Z" fill="#D82E26"/>
<path d="M118.37 53.6346C117.703 55.5012 117.036 55.9012 115.97 54.9679C114.77 54.0346 114.37 54.5679 114.37 56.8346C114.37 58.5679 114.77 59.6346 115.436 59.2346C117.17 58.1679 116.503 60.7012 113.703 65.5012C111.036 69.9012 111.036 70.0346 113.57 67.1012C116.77 63.3679 117.97 64.9679 116.37 70.8346C115.036 75.3679 115.57 77.5012 117.436 75.6346C117.97 75.1012 118.37 70.4346 118.37 65.5012C118.37 59.9012 119.036 55.6346 120.103 54.7012C121.97 52.7012 122.236 50.8346 120.503 50.8346C119.836 50.8346 118.77 52.0346 118.37 53.6346Z" fill="#D82E26"/>
<path d="M112.37 105.101C111.303 106.835 110.636 106.968 110.236 105.768C109.17 103.501 106.636 103.768 107.57 106.168C108.103 107.501 107.436 108.168 105.436 108.168C103.036 108.168 102.903 108.435 104.503 110.435C105.97 112.168 105.97 112.701 104.77 113.101C101.836 114.168 102.903 115.901 105.836 115.235C107.303 114.835 108.236 113.768 107.836 112.701C106.77 110.035 110.636 107.501 112.903 109.501C113.97 110.301 114.636 111.768 114.236 112.701C113.836 113.768 114.77 114.835 116.236 115.235C119.17 115.901 120.236 114.168 117.436 113.101C116.103 112.701 116.103 112.168 117.57 110.435C119.17 108.435 119.036 108.168 116.636 108.168C114.636 108.168 114.103 107.501 114.636 105.501C115.57 102.168 114.37 102.035 112.37 105.101Z" fill="#D82E26"/>
<path d="M109.703 112.168C109.703 112.835 110.37 113.501 111.036 113.501C111.836 113.501 112.37 112.835 112.37 112.168C112.37 111.368 111.836 110.835 111.036 110.835C110.37 110.835 109.703 111.368 109.703 112.168Z" fill="#D82E26"/>
<path d="M107.97 115.635C107.436 116.168 107.036 117.501 107.036 118.568C107.036 120.168 107.436 120.168 109.036 118.835C110.636 117.501 111.436 117.501 113.17 118.968C115.036 120.568 115.303 120.435 114.903 118.168C114.37 115.501 109.836 113.901 107.97 115.635Z" fill="#D82E26"/>
<path d="M83.0363 104.168C83.0363 104.835 83.9696 105.501 85.1696 105.501C86.2363 105.501 86.7696 104.835 86.3696 104.168C85.9696 103.368 85.0363 102.835 84.2363 102.835C83.5696 102.835 83.0363 103.368 83.0363 104.168Z" fill="#D82E26"/>
</svg>
