<svg width="162" height="162" viewBox="0 0 162 162" fill="none" xmlns="http://www.w3.org/2000/svg">
<path d="M62.9696 1.83458C36.3029 7.83458 13.7696 28.5013 4.70294 55.1679C-2.36373 76.2346 0.569604 102.501 12.1696 121.835C33.5029 157.301 79.6363 171.301 116.17 153.168C133.103 144.768 143.236 135.168 152.303 118.768C164.836 96.1013 165.236 67.3013 153.37 43.8346C144.303 25.9679 125.236 9.56792 107.103 3.70125C95.5029 0.101242 74.7029 -0.832092 62.9696 1.83458ZM100.57 3.83458C125.77 10.2346 146.17 28.5013 155.503 52.6346C160.303 64.9013 161.37 86.9013 158.036 99.8346C148.57 136.235 113.636 161.968 77.2363 159.301C34.7029 156.235 2.70294 122.501 2.70294 80.6346C2.70294 29.0346 50.9696 -8.83209 100.57 3.83458Z" fill="#D82E26"/>
<path d="M71.3696 4.76802C64.5696 5.70135 53.3696 9.16803 53.3696 10.5014C53.3696 11.168 53.9029 13.168 54.7029 15.0347C55.9029 18.2347 55.5029 18.768 49.3696 21.8347C45.7696 23.568 42.5696 25.7014 42.0363 26.5014C41.1029 28.1013 37.3696 28.368 37.3696 26.768C37.3696 26.2347 39.7696 24.2347 42.7029 22.5014C52.7029 16.368 52.3029 16.768 50.1696 13.8347C48.4363 11.3014 48.1696 11.3014 42.5696 15.0347C39.3696 17.168 34.7029 20.368 32.3029 22.1013L28.0363 25.3013L30.7029 29.3014L33.5029 33.168L28.8363 39.168C26.3029 42.6347 24.0363 45.968 23.7696 46.768C23.5029 47.568 22.4363 47.968 21.5029 47.7013C20.3029 47.3013 21.3696 44.9014 24.7029 39.968C29.2363 33.4347 29.5029 32.6347 27.5029 30.6347C25.5029 28.768 25.1029 28.9014 22.0363 32.5014C16.9696 38.6347 11.1029 50.768 12.8363 51.4347C13.6363 51.7013 15.3696 52.6347 16.7029 53.7013C18.8363 55.3013 18.8363 55.8347 16.7029 65.0347C13.7696 76.768 10.8363 76.2347 13.5029 64.5014C14.9696 58.1013 14.8363 56.768 13.2363 55.7013C12.1696 55.0347 10.9696 54.5014 10.4363 54.5014C9.10294 54.5014 6.9696 62.9014 5.90294 72.1013L4.9696 79.8347H9.90294C14.4363 79.8347 14.7029 80.1013 14.7029 84.1013C14.7029 86.5014 15.3696 90.9014 16.0363 93.8347C16.7029 96.9014 16.7029 99.7014 16.0363 100.368C14.7029 101.701 12.0363 93.0347 12.0363 87.4347C12.0363 84.368 11.5029 83.8347 8.5696 83.8347C5.10294 83.8347 5.10294 84.1013 5.7696 89.4347C6.30294 92.6347 7.50294 98.368 8.70294 102.235C10.4363 108.101 11.2363 109.168 13.1029 108.501C18.5696 106.235 19.5029 106.368 21.3696 110.101C22.4363 112.101 24.7029 115.835 26.4363 118.235C28.1696 120.635 29.2363 123.035 28.8363 123.435C27.6363 124.635 24.3029 121.301 21.1029 115.701C18.1696 110.368 15.2363 109.035 13.9029 112.501C12.7029 115.568 24.3029 133.168 27.5029 133.168C28.3029 133.168 30.0363 131.968 31.2363 130.635C33.5029 128.101 33.7696 128.101 41.3696 133.568C45.7696 136.635 49.2363 139.568 49.2363 140.101C49.5029 142.235 46.1696 141.035 40.0363 136.501C34.3029 132.235 33.5029 132.101 31.9029 133.968C30.3029 135.968 30.7029 136.768 34.8363 140.368C37.5029 142.635 42.3029 145.835 45.5029 147.568C50.9696 150.501 51.3696 150.501 52.9696 148.368C53.9029 147.035 54.7029 145.168 54.7029 144.235C54.7029 141.968 55.7696 142.101 62.7029 144.501C65.7696 145.568 69.7696 146.501 71.5029 146.501C73.3696 146.501 74.7029 147.301 74.7029 148.368C74.7029 149.835 73.3696 149.835 66.4363 148.501C57.6363 146.635 56.0363 146.768 56.0363 149.968C56.0363 152.368 60.4363 154.101 70.4363 155.701C79.7696 157.168 81.3696 156.501 81.3696 151.701C81.3696 147.568 81.9029 147.301 94.4363 145.835C98.4363 145.435 101.37 145.568 101.37 146.368C101.37 147.568 99.5029 148.101 89.1029 149.968C85.2363 150.635 84.0363 151.435 84.0363 153.568C84.0363 155.968 84.5696 156.101 91.7696 155.435C95.9029 155.035 101.636 153.968 104.436 153.168C109.503 151.701 109.503 151.568 108.703 146.768C107.903 141.968 108.17 141.701 113.636 138.768C116.836 137.168 120.436 135.168 121.636 134.235C122.836 133.301 124.303 133.035 124.836 133.568C125.903 134.635 120.703 139.168 115.77 141.301C112.036 142.901 110.703 146.901 113.503 148.635C114.836 149.435 132.436 138.368 134.17 135.568C134.57 134.901 133.636 132.901 132.036 131.168L128.97 127.968L132.97 122.901C135.236 120.101 137.636 116.501 138.57 114.768C140.17 111.701 142.703 110.768 142.703 113.301C142.703 114.101 140.57 117.835 137.903 121.435C133.37 127.568 133.103 128.235 135.236 130.235C137.236 132.368 137.636 132.235 140.703 128.501C145.77 122.368 151.636 110.235 149.903 109.568C149.103 109.301 147.37 108.368 146.17 107.435C144.036 105.835 144.036 105.168 146.303 96.1013C147.503 90.9014 149.103 86.5014 149.77 86.5014C150.97 86.5014 150.57 90.6347 148.57 100.635C147.903 103.835 148.303 105.035 150.036 105.701C151.37 106.101 152.703 106.235 153.103 105.968C154.17 104.768 157.37 89.968 157.37 85.568C157.37 81.7013 156.97 81.3013 153.103 80.9013C148.97 80.5014 148.703 80.2347 147.903 73.8347C147.37 70.1013 146.836 65.8347 146.57 64.2347C146.303 62.6347 146.703 61.168 147.37 60.9014C148.17 60.6347 149.236 64.2347 149.903 68.768C151.103 76.368 151.503 77.168 154.303 77.168C158.036 77.168 158.17 73.8347 154.97 61.168C152.703 52.368 152.303 51.968 146.036 53.7013C143.903 54.368 142.436 52.9014 138.57 46.1013C135.903 41.568 134.036 37.3014 134.303 36.6347C135.236 35.3014 140.703 41.8347 142.836 46.768C144.436 50.768 146.836 51.568 149.103 48.768C150.036 47.568 148.836 44.6347 144.57 38.1013C137.77 27.7014 135.636 26.368 131.77 30.2347L128.97 32.9014L122.436 27.7014C118.703 24.9014 115.236 22.5014 114.57 22.5014C113.903 22.5014 113.37 21.8347 113.37 21.168C113.37 18.6347 116.97 19.8347 122.97 24.368C127.503 27.8347 129.37 28.6347 130.57 27.4347C133.103 24.9014 132.303 23.0347 126.436 18.9014C120.703 14.9014 112.836 10.5014 111.37 10.5014C110.97 10.5014 109.903 12.368 109.103 14.6347C108.036 17.568 107.103 18.368 105.503 17.8347C104.303 17.3014 99.9029 16.2347 95.7696 15.4347C91.1029 14.5014 88.0363 13.168 88.0363 12.2347C88.0363 10.368 89.2363 10.5014 99.9029 13.3014C105.236 14.6347 106.703 13.968 106.703 10.5014C106.703 8.63469 105.103 7.70135 99.7696 6.63469C95.9029 5.83469 90.3029 5.0347 87.3696 4.76802C82.3029 4.50136 82.0363 4.76802 81.6363 8.63469C81.2363 12.6347 80.9696 12.9014 71.7696 14.368C63.1029 15.8347 59.7696 15.568 61.6363 13.8347C62.0363 13.4347 66.0363 12.368 70.5696 11.568C77.6363 10.2347 78.7029 9.56802 78.4363 7.30136C78.0363 4.36803 77.1029 4.10136 71.3696 4.76802ZM76.8363 7.70135C76.4363 8.36803 73.7696 9.30136 71.1029 9.70135C58.8363 11.8347 59.1029 11.7014 59.7696 15.3014C60.3029 18.1014 60.9696 18.5014 63.2363 17.8347C64.7029 17.3014 69.9029 16.5014 74.7029 16.1014C80.9696 15.4347 83.3696 14.6347 83.5029 13.168C83.9029 6.76802 84.0363 6.50136 88.0363 6.50136C94.1696 6.50136 105.37 9.30136 105.37 10.768C105.37 11.7014 103.77 11.8347 101.103 11.3014C87.3696 8.50136 86.7029 8.63469 86.7029 12.1014C86.7029 15.0347 87.5029 15.568 94.4363 16.9014C98.5696 17.8347 103.636 18.9014 105.503 19.3014C108.436 19.968 109.103 19.568 109.903 16.6347C110.303 14.768 111.503 13.168 112.57 13.168C115.37 13.168 130.97 23.7014 130.036 25.168C129.636 25.8347 125.903 24.2347 121.77 21.568C114.836 16.9014 114.303 16.768 112.57 19.0347C110.97 21.3014 111.636 22.1013 118.57 27.168C122.97 30.368 126.836 33.7013 127.37 34.5014C128.036 35.568 129.503 34.9014 132.036 32.5014L135.636 29.0347L139.636 34.1013C144.036 39.8347 148.036 46.1013 148.036 47.168C148.036 49.4347 145.236 46.9014 141.236 41.168C136.57 34.368 134.97 33.4347 132.436 35.968C131.236 37.168 131.636 38.6347 133.903 41.7013C135.636 43.968 138.303 48.368 139.903 51.4347C142.57 56.9014 142.836 57.0347 146.703 55.568C148.97 54.768 151.103 54.5014 151.503 54.768C152.436 55.8347 156.17 74.768 155.503 75.4347C153.903 77.0347 152.303 73.968 151.636 67.7013C150.703 59.8347 149.236 57.7013 145.903 59.0347C144.17 59.7013 143.903 60.768 144.57 64.2347C145.103 66.5014 145.903 71.7013 146.303 75.4347C147.103 82.5014 147.103 82.5014 151.636 82.5014H156.303L155.37 89.3014C154.036 99.168 152.836 102.901 150.703 103.568C149.503 103.968 149.236 103.435 149.903 101.701C150.436 100.235 151.236 95.968 151.636 92.1013C152.303 85.8347 152.17 85.168 149.636 85.168C147.503 85.168 146.57 86.6347 144.97 93.4347C143.903 98.1013 142.57 103.168 142.036 104.635C141.37 107.035 141.903 107.701 145.37 108.901L149.503 110.368L146.17 116.768C142.036 124.501 137.636 129.835 136.436 128.635C135.903 128.101 136.036 126.901 136.703 125.968C143.503 116.901 145.503 112.768 143.77 111.701C140.836 109.701 139.37 110.368 136.836 114.635C135.503 116.901 132.57 120.768 130.436 123.301L126.303 127.968L129.236 131.035C130.703 132.635 132.036 134.368 132.036 134.901C132.036 136.235 117.103 146.501 115.103 146.501C112.036 146.501 113.236 144.501 117.77 142.101C120.036 140.768 123.503 138.501 125.236 137.035C128.303 134.501 128.303 134.235 126.303 132.235C124.17 130.101 123.77 130.101 120.303 132.768C118.303 134.235 114.036 136.768 110.836 138.368C105.103 141.435 104.836 142.101 107.37 148.101C108.036 149.835 107.103 150.635 103.103 151.835C94.7029 154.235 86.7029 155.035 86.7029 153.435C86.7029 152.635 89.2363 151.701 92.4363 151.168C101.77 149.568 103.903 148.368 103.103 145.168C102.57 142.901 101.636 142.501 99.5029 143.168C98.0363 143.568 92.9696 144.368 88.4363 144.768L80.0363 145.568V150.235V154.901L72.4363 154.101C63.6363 153.301 56.8363 151.035 57.9029 149.301C58.3029 148.768 61.7696 149.035 65.6363 149.968C75.1029 152.501 76.0363 152.368 76.0363 148.501C76.0363 146.101 75.3696 145.168 73.5029 145.168C72.0363 145.168 67.2363 143.968 62.7029 142.635L54.4363 140.101L53.1029 143.968C52.4363 146.101 51.2363 147.835 50.4363 147.835C48.4363 147.835 38.0363 141.435 35.3696 138.501C31.2363 133.968 33.9029 134.368 41.2363 139.301C47.9029 143.835 48.4363 143.968 50.5696 141.835C52.5696 139.701 52.5696 139.435 50.1696 138.101C48.8363 137.168 44.5696 133.968 40.7029 130.901C33.7696 125.301 33.6363 125.301 31.3696 127.835C30.0363 129.301 28.3029 130.501 27.3696 130.501C25.9029 130.501 19.3696 122.101 16.1696 116.235C13.2363 110.635 17.1029 111.835 20.4363 117.568C25.2363 125.568 27.6363 127.435 30.0363 125.035C31.6363 123.435 31.1029 122.101 26.5696 115.301C23.7696 111.035 21.3696 106.635 21.3696 105.568C21.3696 104.235 20.5696 103.968 18.4363 104.635C12.8363 106.368 11.7696 105.835 10.0363 101.168C7.23627 93.168 6.70294 85.168 8.83627 85.168C10.0363 85.168 10.7029 86.6347 10.7029 88.768C10.7029 94.768 13.3696 102.501 15.3696 102.501C18.4363 102.501 18.7029 100.635 17.1029 89.3014L15.5029 78.5014H10.9696H6.30294L7.23627 72.768C8.70294 63.4347 10.7029 57.168 12.3029 57.168C13.1029 57.168 13.3696 58.368 12.8363 60.1013C12.3029 61.8347 11.6363 65.968 11.1029 69.4347C10.4363 75.3013 10.5696 75.8347 13.1029 75.8347C15.2363 75.8347 16.1696 74.768 16.7029 72.1013C17.1029 70.1013 18.3029 65.4347 19.3696 61.7013C21.9029 53.0347 22.0363 53.8347 17.3696 51.8347L13.3696 50.2347L16.8363 43.968C18.7029 40.6347 21.3696 36.368 22.8363 34.6347C27.3696 29.168 27.2363 32.768 22.7029 39.8347C18.5696 46.368 18.1696 50.5014 21.7696 50.5014C22.7029 50.5014 24.5696 48.6347 25.9029 46.368C27.2363 44.1013 30.1696 40.2347 32.3029 37.7013L36.4363 33.0347L33.5029 29.968C32.0363 28.368 30.7029 26.6347 30.7029 26.1013C30.7029 24.768 45.6363 14.5014 47.6363 14.5014C50.9696 14.5014 49.3696 16.5014 42.7029 20.368C35.3696 24.768 33.9029 26.9014 36.8363 29.3014C38.4363 30.6347 39.9029 30.1013 44.4363 27.0347C47.5029 24.768 51.6363 22.368 53.7696 21.4347C57.7696 19.7014 58.0363 18.9014 56.0363 13.968C54.9696 11.0347 55.2363 10.5014 59.1029 9.30136C68.1696 6.50136 78.0363 5.56802 76.8363 7.70135Z" fill="#D82E26"/>
<path d="M66.303 19.968C52.4364 23.168 37.3697 33.968 29.503 46.2346C15.503 67.968 16.303 96.6346 31.3697 117.035C48.703 140.501 79.2364 148.901 106.036 137.568C131.503 126.768 147.37 97.8346 142.703 70.6346C138.57 46.1013 119.37 25.3013 95.903 19.968C88.8364 18.2346 73.2364 18.368 66.303 19.968ZM88.0364 22.368C88.0364 27.168 94.5697 26.9013 94.703 22.1013C94.703 19.168 97.7697 22.368 97.903 25.4346C98.0364 27.4346 97.6364 28.6346 97.103 28.368C94.9697 27.0346 94.703 30.6346 96.8364 33.8346C98.703 36.6346 99.7697 37.168 102.836 36.5013C107.503 35.4346 108.17 38.1013 103.636 39.168C102.036 39.7013 100.036 41.3013 99.3697 42.9013C98.1697 45.568 95.503 46.6346 96.4364 44.1013C96.5697 43.568 97.103 43.3013 97.7697 43.4346C98.303 43.7013 98.703 43.168 98.703 42.5013C98.703 40.9013 98.303 40.9013 95.503 41.968C93.3697 42.768 92.4364 46.368 94.4364 46.6346C100.836 47.4346 107.103 47.0346 108.303 45.568C109.103 44.6346 110.836 43.8346 112.17 43.8346C113.636 43.8346 114.703 43.168 114.703 42.5013C114.703 41.7013 115.103 41.3013 115.77 41.3013C118.436 41.7013 120.036 41.0346 120.036 39.168C120.036 38.1013 119.37 37.168 118.436 37.168C117.236 37.168 117.236 36.768 118.57 35.4346C119.903 34.1013 121.37 35.168 126.436 40.5013L132.703 47.168L128.703 47.568C126.57 47.8346 124.17 48.768 123.636 49.568C122.836 50.6346 122.703 50.368 123.103 48.9013C123.903 46.5013 121.103 44.768 118.436 45.968C117.503 46.368 115.37 48.768 113.636 51.4346C110.97 55.7013 110.836 56.5013 112.436 58.2346C114.17 59.968 114.57 59.8346 115.903 57.3013C116.836 55.7013 118.703 54.5013 120.436 54.6346H123.37L120.436 55.8346C117.103 57.168 116.436 59.7013 118.97 62.2346C121.503 64.768 124.036 64.1013 124.036 61.0346C124.036 58.768 124.436 58.5013 125.903 59.7013C127.103 60.6346 129.77 60.9013 133.236 60.368C137.636 59.7013 138.703 59.8346 138.703 61.568C138.703 62.768 137.903 64.5013 136.836 65.568C134.303 68.1013 135.636 73.168 138.836 73.168C141.103 73.168 141.37 74.2346 141.37 81.968C141.37 93.3013 138.036 98.9013 131.503 98.2346C127.636 97.8346 127.37 97.4346 126.97 92.1013C126.703 87.968 126.97 86.5013 128.436 86.5013C129.503 86.5013 130.703 85.4346 131.236 84.1013C131.636 82.9013 132.436 81.0346 132.836 80.1013C133.37 79.0346 132.303 78.5013 129.77 78.5013C126.436 78.368 126.303 78.2346 128.436 76.6346C131.903 73.968 131.236 72.768 126.703 73.4346C123.636 73.8346 122.703 73.568 123.236 72.2346C124.703 68.6346 121.37 70.6346 119.236 74.768C117.103 78.9013 117.103 79.0346 119.236 77.168C122.703 74.5013 125.636 74.2346 125.103 76.9013C124.836 78.1013 122.57 79.568 119.77 80.2346C115.236 81.3013 114.97 81.568 116.303 84.5013C117.103 86.2346 118.57 87.8346 119.636 88.1013C121.103 88.368 120.703 89.7013 118.036 93.8346L114.436 99.168L117.903 95.968C119.77 94.2346 121.636 91.7013 122.17 90.2346C123.503 85.968 125.37 87.7013 125.37 93.0346C125.37 99.168 126.436 100.235 133.503 100.101C139.37 99.968 139.236 99.8346 137.103 104.368C136.036 106.768 134.836 107.568 132.836 107.168C131.236 106.901 125.903 106.368 120.836 105.835C112.17 105.035 102.57 101.568 100.703 98.368C100.17 97.568 101.503 95.0346 103.503 92.768C105.636 90.368 108.17 87.168 109.103 85.4346C110.703 82.6346 110.436 81.968 107.236 78.768C105.37 76.768 102.303 73.3013 100.436 71.0346C97.503 67.0346 92.4364 64.1013 87.503 63.3013C84.8364 62.9013 84.8364 62.6346 86.703 56.1013C89.6364 45.4346 87.503 30.2346 82.4364 25.568C80.1697 23.568 79.7697 23.568 77.903 25.4346C76.4364 26.9013 75.7697 30.368 75.7697 37.7013C75.6364 43.3013 75.2364 48.2346 74.703 48.5013C74.1697 48.768 72.4364 45.8346 70.8364 41.968C69.2364 38.1013 65.903 32.9013 63.3697 30.368C60.8364 27.8346 58.703 25.4346 58.703 24.9013C58.703 22.9013 70.4364 20.2346 81.103 19.968C87.103 19.8346 88.0364 20.2346 88.0364 22.368ZM92.5697 23.968C92.1697 24.6346 91.2364 24.9013 90.5697 24.368C89.903 23.968 89.6364 23.0346 90.1697 22.368C90.5697 21.7013 91.503 21.4346 92.1697 21.968C92.8364 22.368 93.103 23.3013 92.5697 23.968ZM103.236 31.968C101.236 34.2346 100.703 34.2346 99.7697 32.6346C99.2364 31.568 99.103 29.8346 99.503 28.6346C100.17 27.0346 100.836 26.9013 102.97 27.968C105.503 29.3013 105.503 29.4346 103.236 31.968ZM111.903 28.368C113.103 29.8346 112.836 30.368 110.836 30.9013C107.636 31.7013 106.703 30.9013 107.636 28.368C108.57 25.968 109.903 25.968 111.903 28.368ZM61.103 57.7013C64.703 64.368 68.1697 71.8346 68.5697 74.1013C69.2364 76.768 68.303 82.9013 66.1697 91.568C61.2364 110.901 61.503 119.968 67.3697 131.035C72.0364 139.701 72.0364 139.835 68.9697 139.835C67.2364 139.835 64.703 138.901 63.2364 137.835C61.2364 136.235 61.103 135.701 62.5697 134.635C65.6364 132.635 59.903 127.835 56.5697 129.568C55.103 130.368 53.6364 131.568 53.103 132.235C52.5697 133.168 50.1697 132.235 46.703 129.968C42.1697 127.035 41.503 125.968 42.8364 124.368C44.8364 121.968 45.903 121.968 44.8364 124.501C44.303 125.968 44.9697 126.501 47.2364 126.501C50.4364 126.501 52.703 123.301 51.2364 121.035C50.8364 120.368 49.503 119.835 48.303 119.835C46.4364 119.835 46.4364 119.568 47.903 118.635C50.5697 116.901 53.3697 118.368 53.3697 121.301C53.3697 124.235 55.103 124.635 57.2364 121.968C58.4364 120.501 58.303 119.701 56.9697 118.235C55.903 117.168 54.703 115.035 54.1697 113.568C53.2364 110.501 48.9697 108.368 46.703 109.835C45.903 110.368 45.6364 111.301 46.0364 111.968C46.5697 112.635 46.303 113.168 45.503 113.168C44.8364 113.168 43.7697 112.501 43.3697 111.835C42.0364 109.701 38.9697 110.235 36.0364 113.168C32.8364 116.368 31.503 115.835 28.703 110.368C26.303 105.968 27.2364 102.768 30.0364 105.168C33.3697 107.968 37.903 106.235 38.703 101.968C39.3697 97.8346 42.703 95.4346 42.703 99.0346C42.703 100.235 43.503 101.168 44.5697 101.168C45.6364 101.168 47.3697 101.435 48.4364 101.968C51.103 102.901 55.503 96.1013 53.503 94.1013C51.3697 91.968 51.6364 90.9013 54.703 90.1013C57.503 89.4346 58.303 85.968 56.0364 84.5013C53.7697 83.0346 49.503 85.168 50.303 87.3013C50.703 88.368 50.1697 89.168 48.9697 89.168C47.903 89.168 46.703 89.8346 46.4364 90.768C45.7697 92.6346 36.0364 88.6346 36.0364 86.5013C36.0364 85.168 36.9697 84.9013 42.703 84.6346C46.5697 84.5013 48.0364 80.2346 44.5697 78.9013C43.103 78.368 41.6364 79.0346 40.5697 80.5013C39.503 81.968 38.703 82.2346 38.703 81.3013C38.703 80.368 38.1697 80.1013 37.3697 80.5013C35.903 81.4346 35.6364 79.8346 36.0364 74.768C36.1697 72.6346 35.503 71.8346 33.503 71.8346C31.7697 71.8346 30.703 71.0346 30.703 69.7013C30.703 68.5013 28.8364 66.9013 26.703 66.1013C21.103 63.968 22.4364 61.8346 29.103 62.368C34.0364 62.6346 34.703 62.368 34.703 59.968C34.703 56.768 35.2364 56.6346 38.9697 58.6346C42.1697 60.368 44.703 58.5013 44.703 54.1013C44.8364 52.5013 45.903 48.9013 47.2364 46.1013C49.3697 41.7013 49.503 40.768 47.7697 39.4346C42.5697 35.0346 42.4364 33.568 46.9697 30.768L51.3697 27.968L52.9697 36.6346C54.0364 42.2346 56.9697 49.8346 61.103 57.7013ZM83.7697 33.168C84.1697 34.1013 83.7697 34.5013 82.9697 33.968C82.1697 33.568 81.2364 33.7013 80.703 34.5013C80.303 35.3013 81.103 35.8346 82.8364 35.8346C85.6364 35.8346 85.7697 36.2346 84.9697 44.768C84.1697 53.3013 81.903 57.4346 79.7697 54.1013C78.5697 52.2346 78.303 35.568 79.503 32.5013C80.4364 30.1013 82.8364 30.368 83.7697 33.168ZM61.503 34.1013C64.703 38.1013 68.0364 44.768 69.903 51.0346C71.503 56.1013 71.503 57.168 69.7697 57.7013C66.9697 58.768 61.903 52.6346 58.703 44.2346C55.903 36.6346 55.503 34.1013 56.9697 32.768C58.303 31.3013 59.503 31.7013 61.503 34.1013ZM116.036 36.368C116.036 37.4346 115.236 38.9013 114.17 39.7013C112.57 41.0346 112.036 40.768 111.37 38.368C110.703 36.6346 111.103 35.0346 112.17 34.368C114.303 33.168 116.036 33.968 116.036 36.368ZM44.4364 42.5013C44.8364 43.968 44.5697 45.168 43.7697 45.168C43.103 45.168 42.9697 45.8346 43.503 46.6346C44.1697 47.7013 43.6364 47.7013 41.7697 46.6346C40.303 45.8346 38.5697 45.7013 38.0364 46.2346C37.3697 46.768 37.3697 46.368 37.903 45.4346C38.4364 44.5013 38.1697 43.8346 37.103 43.7013C35.7697 43.7013 35.7697 43.4346 37.103 42.9013C37.903 42.6346 38.4364 41.7013 37.903 41.0346C37.503 40.368 38.703 39.8346 40.4364 39.8346C42.5697 39.8346 43.903 40.768 44.4364 42.5013ZM106.436 42.768C105.636 45.168 102.703 45.568 102.703 43.3013C102.703 42.1013 103.636 41.168 104.836 41.168C106.036 41.168 106.703 41.8346 106.436 42.768ZM34.5697 44.1013C34.0364 48.1013 34.9697 49.168 38.4364 49.3013C40.5697 49.4346 41.103 49.7013 39.7697 50.1013C38.4364 50.368 37.3697 51.568 37.3697 52.5013C37.3697 54.6346 33.7697 53.7013 30.9697 50.9013C29.503 49.568 29.6364 48.6346 31.6364 45.8346C34.4364 42.1013 34.9697 41.8346 34.5697 44.1013ZM42.703 55.3013C42.703 57.4346 40.5697 57.8346 39.3697 55.8346C38.303 54.1013 39.903 51.568 41.503 52.5013C42.1697 53.0346 42.703 54.2346 42.703 55.3013ZM32.4364 56.368C33.6364 59.3013 30.0364 61.7013 28.0364 59.3013C27.2364 58.1013 26.8364 56.6346 27.3697 55.8346C28.5697 53.8346 31.6364 54.2346 32.4364 56.368ZM85.2364 69.968C85.6364 72.1013 85.3697 72.2346 83.503 70.6346C80.9697 68.5013 80.703 66.1013 83.103 66.768C83.903 67.168 84.9697 68.5013 85.2364 69.968ZM88.703 67.8346C89.103 68.5013 88.8364 69.168 88.1697 69.168C87.3697 69.168 86.703 68.5013 86.703 67.8346C86.703 67.0346 86.9697 66.5013 87.2364 66.5013C87.6364 66.5013 88.303 67.0346 88.703 67.8346ZM140.703 70.5013C140.036 71.568 139.236 71.568 138.436 70.768C137.636 69.968 137.503 68.6346 138.036 67.8346C138.703 66.768 139.503 66.768 140.303 67.568C141.103 68.368 141.236 69.7013 140.703 70.5013ZM28.703 70.368C29.103 71.0346 28.8364 72.1013 28.0364 72.5013C26.0364 73.7013 22.303 72.1013 23.3697 70.5013C24.4364 68.768 27.6364 68.768 28.703 70.368ZM83.2364 72.6346C84.0364 74.768 81.6364 75.0346 78.8364 73.3013C76.5697 71.8346 78.1697 69.0346 80.703 69.968C81.6364 70.368 82.8364 71.568 83.2364 72.6346ZM96.0364 73.168C97.6364 74.2346 97.7697 74.6346 96.1697 75.7013C94.703 76.6346 94.703 76.9013 96.1697 77.568C97.2364 77.8346 96.4364 78.6346 94.303 79.168C91.903 79.8346 89.903 79.568 88.9697 78.6346C87.903 77.568 88.0364 77.168 89.503 77.168C91.103 77.168 91.103 76.9013 89.503 75.968C88.5697 75.3013 88.1697 74.1013 88.5697 73.3013C89.7697 71.4346 93.3697 71.4346 96.0364 73.168ZM25.7697 75.4346C26.9697 75.0346 29.103 75.7013 30.5697 77.0346C33.2364 79.3013 33.2364 79.4346 29.103 82.9013C22.9697 88.368 21.3697 87.7013 21.3697 79.4346C21.3697 74.9013 21.7697 73.168 22.5697 74.368C23.2364 75.4346 24.703 75.8346 25.7697 75.4346ZM73.503 84.2346C72.4364 85.3013 72.0364 85.168 72.0364 83.7013C72.0364 81.0346 73.7697 79.168 74.4364 81.168C74.8364 82.1013 74.303 83.4346 73.503 84.2346ZM81.3697 81.168C81.3697 81.8346 80.8364 82.5013 80.0364 82.5013C79.3697 82.5013 78.703 81.8346 78.703 81.168C78.703 80.368 79.3697 79.8346 80.0364 79.8346C80.8364 79.8346 81.3697 80.368 81.3697 81.168ZM129.103 82.1013C128.836 83.4346 127.636 84.6346 126.436 84.9013C124.836 85.168 124.436 84.6346 124.97 82.6346C125.903 79.3013 129.77 78.9013 129.103 82.1013ZM122.703 83.0346C122.703 85.8346 119.903 87.168 118.703 85.0346C118.036 84.1013 117.903 82.768 118.17 82.2346C119.37 80.368 122.703 81.0346 122.703 83.0346ZM102.703 85.168C102.703 85.8346 102.436 86.5013 102.17 86.5013C101.77 86.5013 101.103 85.8346 100.703 85.168C100.303 84.368 100.57 83.8346 101.236 83.8346C102.036 83.8346 102.703 84.368 102.703 85.168ZM54.703 87.168C54.703 88.2346 54.1697 89.168 53.3697 89.168C52.703 89.168 52.0364 88.2346 52.0364 87.168C52.0364 86.1013 52.703 85.168 53.3697 85.168C54.1697 85.168 54.703 86.1013 54.703 87.168ZM84.0364 87.3013C84.0364 88.6346 83.2364 89.168 82.0364 88.6346C79.503 87.7013 79.503 89.7013 82.0364 91.8346C83.103 92.768 85.503 93.168 87.3697 92.9013C91.503 92.1013 92.9697 93.8346 89.6364 95.7013C85.7697 97.7013 79.503 95.568 78.9697 91.968C78.703 90.368 78.8364 88.1013 79.2364 87.0346C80.1697 84.5013 84.0364 84.6346 84.0364 87.3013ZM31.503 88.6346C30.8364 90.2346 31.3697 90.5013 33.7697 89.968C35.3697 89.568 35.903 89.568 35.103 89.968C32.5697 91.0346 32.9697 93.168 35.7697 93.168C37.6364 93.168 37.6364 93.4346 36.1697 94.368C35.103 95.0346 34.1697 97.0346 33.903 98.768C33.7697 100.368 33.503 102.101 33.503 102.501C33.3697 102.901 32.703 102.235 32.0364 101.168C30.8364 99.4346 30.5697 99.4346 29.3697 101.168C28.303 102.901 28.0364 102.768 28.0364 100.635C28.0364 98.6346 27.6364 98.5013 26.0364 99.8346C24.4364 101.168 24.1697 100.768 24.703 97.3013C24.9697 95.0346 24.5697 93.168 23.903 93.168C23.2364 93.168 22.703 92.6346 22.703 91.8346C22.703 91.168 23.7697 91.0346 24.9697 91.4346C26.5697 92.1013 26.9697 91.7013 26.303 90.1013C25.903 88.9013 26.0364 87.8346 26.703 87.8346C27.503 87.8346 28.0364 88.6346 28.0364 89.4346C28.0364 90.368 28.703 90.1013 29.503 88.768C31.103 85.968 32.5697 85.7013 31.503 88.6346ZM104.036 89.168C104.036 89.8346 103.503 90.5013 102.703 90.5013C102.036 90.5013 101.37 89.8346 101.37 89.168C101.37 88.368 102.036 87.8346 102.703 87.8346C103.503 87.8346 104.036 88.368 104.036 89.168ZM72.1697 90.9013C72.0364 91.4346 72.0364 92.768 72.0364 93.8346C72.0364 94.9013 71.503 95.8346 70.703 95.8346C70.0364 95.8346 69.3697 94.2346 69.3697 92.368C69.3697 90.5013 70.0364 89.168 70.8364 89.4346C71.6364 89.7013 72.1697 90.368 72.1697 90.9013ZM49.3697 97.8346C48.4364 98.9013 47.2364 99.4346 46.5697 99.0346C44.8364 97.968 45.103 93.4346 47.103 92.768C49.503 91.968 51.2364 95.7013 49.3697 97.8346ZM37.3697 98.5013C37.3697 99.168 37.103 99.8346 36.8364 99.8346C36.4364 99.8346 35.7697 99.168 35.3697 98.5013C34.9697 97.7013 35.2364 97.168 35.903 97.168C36.703 97.168 37.3697 97.7013 37.3697 98.5013ZM71.7697 104.768C72.303 108.501 68.9697 111.168 66.8364 108.635C65.6364 107.168 65.503 105.968 66.703 103.835C68.4364 100.501 71.2364 100.901 71.7697 104.768ZM91.103 104.101C96.9697 108.235 97.2364 108.768 95.503 113.568C93.2364 120.235 92.5697 120.768 86.1697 120.768C80.303 120.901 80.303 120.901 78.303 114.901C76.8364 110.501 76.703 108.635 77.903 107.701C81.7697 104.635 86.0364 101.301 86.4364 101.168C86.703 101.168 88.703 102.501 91.103 104.101ZM110.036 107.701C110.436 108.368 110.17 109.301 109.503 109.701C107.903 110.768 104.036 109.301 104.036 107.701C104.036 106.101 108.97 106.101 110.036 107.701ZM121.903 108.635C124.303 109.568 124.703 112.635 122.703 113.835C122.036 114.235 119.503 113.568 117.103 112.368L112.703 109.968L116.036 109.035C117.903 108.501 119.503 108.101 119.636 107.968C119.77 107.835 120.703 108.235 121.903 108.635ZM133.37 111.701C133.37 113.568 130.97 114.768 129.37 113.835C128.57 113.301 128.303 112.368 128.703 111.701C129.77 110.101 133.37 110.101 133.37 111.701ZM106.036 113.168C106.436 113.835 105.903 114.501 104.836 114.501C103.77 114.501 102.436 113.835 102.036 113.168C101.636 112.368 102.17 111.835 103.236 111.835C104.303 111.835 105.636 112.368 106.036 113.168ZM115.77 116.501C115.37 118.101 111.903 117.568 110.036 115.568C109.103 114.768 109.903 114.501 112.436 114.768C114.436 115.035 115.903 115.701 115.77 116.501ZM71.7697 120.101C72.1697 123.035 71.6364 123.701 69.503 123.435C66.8364 123.301 64.8364 119.168 66.1697 116.901C67.7697 114.501 71.3697 116.635 71.7697 120.101ZM128.036 117.835C128.036 119.968 126.836 120.368 123.37 119.035C121.636 118.368 121.503 117.968 122.97 117.035C125.636 115.301 128.036 115.568 128.036 117.835ZM105.103 119.701C107.77 121.301 106.436 125.835 103.103 126.235C99.6364 126.768 97.3697 121.568 100.17 119.701C102.436 118.235 102.97 118.235 105.103 119.701ZM91.3697 127.701C90.9697 128.501 89.903 128.901 89.2364 128.501C88.5697 127.968 88.0364 128.635 88.0364 129.701C88.0364 132.501 89.3697 132.368 91.503 129.568C93.903 126.101 95.503 128.501 93.3697 132.501C91.2364 136.368 89.7697 136.635 86.4364 133.568C83.3697 130.768 83.3697 129.301 86.9697 126.235C89.903 123.701 93.2364 124.768 91.3697 127.701ZM121.37 125.168C121.37 126.768 110.836 133.835 109.903 132.768C108.57 131.435 110.836 126.501 112.836 126.501C113.903 126.501 114.703 125.835 114.703 125.168C114.703 124.368 116.17 123.835 118.036 123.835C119.903 123.835 121.37 124.368 121.37 125.168ZM77.3697 130.501C77.3697 131.168 77.7697 132.501 78.1697 133.701C78.8364 135.301 78.1697 135.835 75.6364 135.835C71.903 135.835 69.903 132.368 72.1697 129.701C73.6364 127.968 77.3697 128.501 77.3697 130.501ZM102.036 135.035C99.903 138.235 97.3697 139.701 97.3697 137.568C97.3697 136.235 103.103 130.368 103.77 131.035C104.036 131.301 103.236 133.168 102.036 135.035ZM59.7697 133.301C59.503 134.101 58.703 134.635 58.0364 134.635C57.3697 134.635 56.5697 134.101 56.303 133.301C56.0364 132.501 56.8364 131.835 58.0364 131.835C59.2364 131.835 60.0364 132.501 59.7697 133.301Z" fill="#D82E26"/>
<path d="M130.703 91.1679C131.636 92.3679 132.703 92.9013 132.97 92.6346C133.903 91.7013 132.036 89.1679 130.436 89.1679C129.636 89.1679 129.636 89.9679 130.703 91.1679Z" fill="#D82E26"/>
<path d="M47.7696 67.9681C47.2363 71.5681 41.6363 74.1014 41.9029 70.7681C42.0363 69.4347 40.8363 68.3681 39.1029 68.1014C35.7696 67.5681 35.1029 69.7014 37.3696 73.1681C38.4363 74.7681 38.7029 74.7681 38.7029 72.5014C38.7029 70.2347 38.9696 70.2347 40.9696 73.1681C44.1696 77.9681 45.7696 78.7681 47.6363 76.3681C48.5696 75.1681 50.1696 74.6347 51.6363 75.0347C54.7029 75.9681 57.9029 71.4347 56.7029 67.7014C55.5029 63.9681 48.4363 64.1014 47.7696 67.9681ZM53.9029 71.1681C53.5029 72.2347 52.3029 72.6347 51.2363 72.2347C49.1029 71.4347 49.1029 71.4347 50.1696 68.6347C50.8363 66.9014 51.5029 66.7681 52.8363 67.8347C53.7696 68.7681 54.1696 70.2347 53.9029 71.1681Z" fill="#D82E26"/>
<path d="M59.3696 38.6347C58.1696 40.5014 59.1029 41.3014 61.2363 39.968C62.3029 39.168 62.4363 38.5014 61.6363 37.968C60.8363 37.568 59.7696 37.8347 59.3696 38.6347Z" fill="#D82E26"/>
<path d="M62.3029 44.7681C60.7029 46.3681 61.3696 47.7014 63.3696 47.0347C64.4362 46.5014 65.3696 45.7014 65.3696 45.0347C65.3696 43.5681 63.5029 43.4347 62.3029 44.7681Z" fill="#D82E26"/>
<path d="M84.3029 111.835C84.5696 112.901 85.6363 113.835 86.7029 113.835C87.7696 113.835 88.8363 112.901 89.1029 111.835C89.3696 110.501 88.4363 109.701 86.7029 109.701C84.9696 109.701 84.0363 110.501 84.3029 111.835Z" fill="#D82E26"/>
<path d="M102.036 122.501C101.636 123.168 101.903 123.835 102.57 123.835C103.37 123.835 104.036 123.168 104.036 122.501C104.036 121.701 103.77 121.168 103.503 121.168C103.103 121.168 102.436 121.701 102.036 122.501Z" fill="#D82E26"/>
</svg>
