<svg width="162" height="162" viewBox="0 0 162 162" fill="none" xmlns="http://www.w3.org/2000/svg">
<path d="M61.9029 2.5013C30.5696 10.368 6.83623 35.7013 1.23623 67.4346C-6.23043 109.568 20.8362 150.101 63.2362 159.968C75.9029 163.035 94.4362 161.968 107.236 157.435C156.303 140.235 176.703 81.3013 148.703 37.968C138.436 22.1013 124.436 10.9013 107.236 4.9013C95.1029 0.634635 73.7696 -0.565365 61.9029 2.5013ZM106.036 6.36797C128.97 14.2346 147.636 32.768 155.503 55.168C159.636 67.0346 160.57 88.368 157.37 100.501C150.703 126.235 129.903 148.368 104.436 156.635C90.9696 161.035 70.9696 161.035 57.1029 156.768C32.3029 149.035 10.7029 126.368 4.16957 100.901C1.5029 90.6346 1.5029 71.3013 4.03623 61.3013C10.4362 36.9013 31.1029 14.368 54.4362 6.5013C71.2362 0.767968 90.0362 0.767968 106.036 6.36797Z" fill="#D82E26"/>
<path d="M69.2362 5.96806C54.4362 7.96806 50.8362 10.5014 54.0362 16.5014C55.2362 18.7681 54.5695 19.5681 49.1029 22.5014C45.5029 24.3681 41.6362 26.6347 40.4362 27.4347C39.2362 28.3681 37.7695 28.6347 37.2362 28.1014C36.0362 26.9014 39.5029 24.1014 46.4362 20.3681C50.7029 18.1014 51.2362 17.4347 50.0362 15.1681C49.2362 13.7014 48.0362 12.5014 47.5029 12.5014C45.9029 12.5014 30.7029 22.7681 28.7029 25.1681C27.2362 26.9014 27.5029 27.8347 30.0362 30.5014L32.9695 33.7014L26.9695 41.8347C19.6362 51.4347 17.3695 50.3681 24.1695 40.5014C28.4362 34.2347 28.7029 33.3014 26.9695 31.4347C25.1029 29.7014 24.5695 29.8347 21.5029 33.3014C16.5695 38.9014 10.4362 51.4347 12.1695 52.1014C12.9695 52.3681 14.7029 53.3014 15.9029 54.2347C18.0362 55.8347 18.0362 56.5014 15.7695 65.5681C14.4362 71.3014 12.9695 74.6347 12.3029 73.9681C11.6362 73.3014 11.7695 69.7014 12.8362 65.1681C14.3029 58.7681 14.1695 57.4347 12.5695 56.3681C11.5029 55.7014 10.3029 55.1681 9.90286 55.1681C8.70286 55.1681 5.90286 65.5681 5.10286 73.3014L4.30286 80.3681L8.83619 80.7681C13.2362 81.1681 13.3695 81.4347 14.4362 88.5014C14.9695 92.5014 15.5029 96.9014 15.7695 98.1014C15.9029 99.3014 15.5029 100.501 14.7029 100.768C14.0362 101.035 12.8362 97.4347 12.1695 92.7681C10.9695 85.3014 10.5695 84.5014 7.76952 84.5014C5.50286 84.5014 4.70286 85.3014 4.70286 87.3014C4.70286 91.5681 8.83619 108.368 10.0362 109.168C10.7029 109.568 12.8362 109.168 14.8362 108.235C17.7695 106.901 18.5695 106.901 19.1029 108.235C19.3695 109.168 21.6362 113.035 24.1695 116.768C26.7029 120.501 28.4362 123.835 28.0362 124.235C26.9695 125.301 22.7029 120.901 19.9029 115.835C17.3695 111.035 14.4362 109.835 13.2362 113.035C11.9029 116.501 23.1029 133.835 26.7029 133.835C27.6362 133.835 29.3695 132.635 30.5695 131.301C32.8362 128.768 33.1029 128.768 39.7695 133.968C43.6362 136.768 47.1029 139.168 47.7695 139.168C48.3029 139.168 48.7029 139.701 48.7029 140.501C48.7029 142.768 46.0362 141.968 39.9029 137.701C33.9029 133.701 30.0362 133.301 30.0362 136.901C30.0362 138.768 36.9695 143.968 45.6362 148.768C51.2362 151.835 51.2362 151.835 52.9695 147.035C54.1695 143.701 54.8362 143.168 57.2362 143.835C58.7029 144.368 62.9695 145.435 66.5695 146.368C70.3029 147.301 73.5029 148.768 73.7695 149.701C74.3029 151.301 72.9695 151.168 62.1695 148.368C56.9695 147.035 55.3695 147.701 55.3695 151.168C55.3695 153.835 62.9695 156.101 74.0362 156.768C79.9029 157.168 80.0362 157.035 80.4362 152.901C80.8362 149.035 81.3695 148.635 86.4362 147.835C89.5029 147.435 94.0362 146.635 96.4362 146.235C98.9695 145.835 100.703 146.101 100.703 146.901C100.703 148.235 98.8362 148.768 88.3029 150.635C84.0362 151.301 83.2362 151.968 83.6362 154.368C84.0362 156.768 84.8362 157.168 89.3695 156.768C92.3029 156.501 97.9029 155.435 101.77 154.368C108.97 152.368 110.036 150.768 107.37 145.835C106.17 143.568 106.836 142.768 112.57 139.835C116.17 138.101 119.503 135.968 120.036 135.168C120.97 133.568 124.703 133.301 124.703 134.901C124.703 135.435 121.37 137.968 117.37 140.368C110.97 144.235 110.303 145.168 111.503 147.435C112.303 148.901 113.77 149.701 114.836 149.301C117.77 148.101 132.436 137.968 133.37 136.368C133.903 135.568 132.97 133.568 131.37 131.835L128.436 128.768L132.836 122.768C135.37 119.435 138.036 115.701 138.836 114.368C139.77 112.901 140.57 112.501 141.103 113.435C141.636 114.235 139.903 117.968 137.236 121.835C132.836 128.368 132.57 129.035 134.703 131.035C136.703 133.035 136.97 132.901 139.503 129.835C143.37 124.901 150.036 113.435 150.036 111.568C150.036 110.635 148.57 109.568 146.703 109.035C144.836 108.635 143.37 107.568 143.37 106.901C143.37 103.968 147.636 89.0347 148.836 87.8347C150.57 86.1014 150.303 90.7681 148.303 98.7681C146.57 105.301 146.57 105.701 149.236 106.368C152.703 107.301 153.503 105.835 155.236 95.8347C157.503 82.9014 157.37 82.1014 152.436 81.5681C148.17 81.1681 148.036 81.0347 146.703 71.4347C145.903 66.1014 145.636 61.4347 146.17 61.0347C147.503 60.2347 150.036 69.1681 150.036 74.1014C150.036 77.1681 150.57 77.8347 153.37 77.8347C155.903 77.8347 156.703 77.1681 156.703 74.9014C156.703 71.1681 152.703 54.7681 151.37 53.4347C150.836 52.9014 148.703 53.1681 146.703 54.1014C143.636 55.4347 142.836 55.4347 142.303 54.1014C142.036 53.1681 139.77 49.3014 137.236 45.7014C132.17 37.9681 132.036 37.8347 134.436 37.8347C135.37 37.8347 137.903 40.7681 140.036 44.5014C143.903 51.0347 147.636 52.7681 148.436 48.3681C148.836 45.9681 138.57 29.9681 135.77 28.9014C134.703 28.5014 132.57 29.3014 131.103 30.9014L128.436 33.5681L120.57 28.1014C116.303 25.0347 112.836 22.1014 112.836 21.4347C112.57 19.4347 115.903 20.6347 122.036 25.0347C126.703 28.3681 128.836 29.1681 129.903 28.1014C130.703 27.3014 131.37 25.9681 131.37 25.1681C131.37 23.5681 113.37 11.1681 111.103 11.1681C110.436 11.1681 109.103 12.9014 108.303 15.1681C106.57 19.8347 106.703 19.8347 99.3695 17.1681C96.3029 16.1014 92.3029 15.1681 90.5695 15.1681C88.7029 15.1681 87.3695 14.3681 87.3695 13.3014C87.3695 11.8347 88.7029 11.8347 94.4362 12.9014C104.836 14.7681 105.37 14.7681 105.77 11.7014C106.036 9.43473 105.103 8.76806 99.1029 7.43473C95.2362 6.50139 89.6362 5.70139 86.7029 5.43473C81.6362 5.16806 81.3695 5.30139 80.9695 9.43473C80.5695 13.3014 80.0362 13.7014 74.9695 14.5014C71.9029 14.9014 67.3695 15.7014 65.1029 16.1014C62.4362 16.5014 60.7029 16.2347 60.7029 15.4347C60.7029 14.1014 62.5695 13.5681 73.1029 11.7014C76.7029 11.1681 78.0362 10.2347 78.0362 8.36806C78.0362 5.16806 77.1029 4.90139 69.2362 5.96806ZM75.3695 8.36806C75.3695 9.16806 72.5695 10.1014 69.1029 10.6347C60.4362 11.8347 58.1695 13.1681 58.9695 16.5014C59.5029 18.5014 60.4362 19.0347 61.9029 18.5014C63.1029 17.9681 68.0362 17.3014 73.1029 16.9014L82.0362 16.1014V11.4347V6.76806L89.9029 7.56806C98.8362 8.50139 105.236 10.6347 104.17 12.3681C103.77 12.9014 100.303 12.6347 96.4362 11.7014C86.9695 9.16806 86.0362 9.30139 86.0362 13.0347C86.0362 15.7014 86.8362 16.2347 91.3695 17.0347C94.4362 17.4347 99.2362 18.7681 102.17 19.7014L107.636 21.5681L108.97 17.7014C109.636 15.5681 110.97 13.8347 111.903 13.8347C114.57 13.8347 130.036 24.6347 129.236 25.9681C128.436 27.3014 128.303 27.1681 119.636 21.3014C114.17 17.5681 113.77 17.5681 111.636 19.7014C109.503 21.9681 109.503 22.2347 111.903 23.5681C113.37 24.5014 117.636 27.7014 121.503 30.7681L128.436 36.3681L131.503 33.0347L134.703 29.7014L138.436 34.1014C143.37 39.9681 147.636 48.2347 146.17 49.0347C145.503 49.5681 143.37 47.3014 141.636 44.1014C136.836 35.9681 134.436 34.2347 131.903 36.7681C130.036 38.5014 130.17 39.1681 133.103 42.6347C134.836 44.7681 137.636 49.0347 139.236 52.1014C141.903 57.3014 142.303 57.7014 145.503 56.5014C150.036 54.7681 150.703 55.3014 152.57 62.1014C154.703 70.3681 154.97 75.4347 153.236 76.1014C152.303 76.3681 151.37 73.5681 150.836 68.5014C150.17 63.1681 149.236 60.1014 147.903 59.5681C144.036 58.1014 143.37 61.0347 144.97 72.2347L146.57 83.1681H151.103H155.503L154.703 89.4347C153.503 98.1014 151.503 104.501 149.77 104.501C148.97 104.501 148.836 103.435 149.37 102.101C149.903 100.901 150.57 96.6347 150.97 92.7681C151.636 86.5014 151.503 85.8347 148.97 85.8347C146.836 85.8347 145.903 87.3014 144.303 94.1014C143.236 98.7681 141.903 103.701 141.37 105.301C140.703 107.568 141.236 108.368 144.57 109.835C146.836 110.768 148.703 111.701 148.703 111.835C148.703 114.101 137.636 129.835 136.17 129.835C134.436 129.835 135.503 127.035 139.503 121.301C143.636 115.435 144.036 111.168 140.303 111.168C139.37 111.168 137.503 113.035 136.17 115.301C134.836 117.568 131.903 121.435 129.77 123.968L125.636 128.635L128.57 131.701C130.036 133.301 131.37 135.035 131.37 135.568C131.37 136.901 116.436 147.168 114.436 147.168C111.236 147.168 112.703 145.168 118.836 141.568C125.103 137.701 127.236 134.501 125.103 132.368C124.17 131.435 121.236 132.501 116.303 135.701C112.17 138.368 108.17 140.501 107.37 140.501C105.103 140.501 104.436 143.701 105.903 147.568C107.236 150.901 106.97 151.168 102.303 152.501C99.6362 153.301 94.8362 154.235 91.7695 154.768C82.8362 155.968 84.8362 153.035 94.1695 151.301C101.236 149.835 102.17 149.301 101.77 146.768C101.503 145.035 100.57 143.968 99.3695 144.235C98.3029 144.501 93.3695 145.035 88.4362 145.435C79.1029 146.235 78.5695 146.635 79.1029 152.768C79.2362 154.635 78.3029 155.168 74.5695 155.168C68.5695 155.168 58.3029 152.635 57.1029 150.768C56.3029 149.435 60.1695 149.835 71.1029 151.968C75.1029 152.768 75.3695 152.635 75.3695 149.301C75.3695 146.501 74.7029 145.835 72.0362 145.835C70.1695 145.835 65.3695 144.635 61.2362 143.301L53.9029 140.635L52.4362 144.635C51.7695 146.768 50.3029 148.501 49.5029 148.501C46.5695 148.501 31.2362 137.835 32.0362 136.501C32.9695 135.035 33.1029 135.035 41.9029 141.168C47.5029 145.035 47.7695 145.035 49.6362 142.501C51.2362 140.101 51.2362 139.701 49.2362 138.501C48.0362 137.701 43.7695 134.635 40.0362 131.568L33.1029 126.101L30.3029 128.768C26.7029 132.501 24.7029 131.435 18.8362 122.501C13.6362 114.768 13.3695 110.101 18.5695 117.035C25.3695 126.501 27.1029 127.968 28.9695 126.101C30.3029 124.768 30.3029 123.701 28.3029 120.768C27.1029 118.768 24.7029 114.368 23.1029 110.901C20.5695 105.701 19.5029 104.768 17.3695 105.435C12.0362 107.035 10.8362 106.501 9.23619 101.835C6.83619 94.3681 5.76952 85.8347 7.36952 85.8347C9.10286 85.8347 9.63619 87.3014 10.7029 95.5681C11.2362 99.4347 12.3029 102.235 13.5029 102.768C17.3695 104.235 18.0362 101.301 16.4362 90.1014L14.8362 79.1681H10.4362C5.36952 79.1681 5.23619 78.6347 7.76952 66.6347C8.70286 62.2347 10.3029 58.3681 11.2362 58.1014C12.5695 57.7014 12.8362 58.1014 12.1695 59.9681C11.6362 61.4347 10.8362 65.7014 10.4362 69.4347C9.76952 75.8347 9.90286 76.5014 12.4362 76.5014C14.5695 76.5014 15.5029 75.0347 17.1029 68.1014C18.1695 63.5681 19.5029 58.6347 20.0362 57.0347C20.7029 54.7681 20.1695 53.9681 16.8362 52.5014L12.8362 50.9014L15.6362 45.4347C18.9695 38.6347 23.5029 32.5014 24.9695 32.5014C27.1029 32.5014 25.9029 35.3014 21.1029 41.9681C17.2362 47.4347 16.7029 49.0347 18.1695 49.9681C21.2362 51.9681 22.7029 51.3014 25.2362 47.0347C26.5695 44.7681 29.5029 40.9014 31.6362 38.3681L35.7695 33.7014L32.7029 30.5014C30.1695 27.8347 29.9029 26.9014 31.2362 25.3014C33.5029 22.6347 45.2362 15.1681 47.1029 15.1681C50.0362 15.1681 48.7029 17.1681 44.1695 19.7014C41.6362 21.0347 38.3029 23.5681 36.7029 25.1681C34.3029 27.7014 34.1695 28.3681 35.9029 29.7014C37.3695 31.0347 39.2362 30.3681 45.2362 26.5014C49.2362 23.9681 53.2362 21.8347 54.0362 21.8347C56.3029 21.8347 56.9695 18.6347 55.5029 14.7681C54.1695 11.4347 54.4362 11.1681 59.7695 9.83473C62.8362 9.03473 66.0362 8.10139 66.7029 7.83473C69.5029 6.90139 75.3695 7.16806 75.3695 8.36806Z" fill="#D82E26"/>
<path d="M64.7029 21.0346C54.3029 23.8346 45.7696 28.9013 37.2363 37.1679C12.3029 61.5679 12.3029 100.635 37.2363 125.168C55.9029 143.568 82.8363 148.501 106.036 137.568C127.503 127.435 139.503 110.635 142.57 86.6346C146.036 58.2346 125.236 28.7679 96.3029 21.0346C87.9029 18.7679 72.8363 18.7679 64.7029 21.0346ZM83.3696 21.0346C83.3696 21.3013 82.9696 22.5013 82.5696 23.7013C81.9029 25.3013 81.3696 25.4346 80.0363 24.1013C79.1029 23.1679 78.5696 22.1013 78.9696 21.4346C79.5029 20.5013 83.3696 20.1013 83.3696 21.0346ZM71.5029 25.4346C72.3029 27.7013 72.1696 28.2346 70.8363 27.7013C69.7696 27.3013 68.5696 27.5679 68.1696 28.3679C67.6363 29.1679 66.4363 28.9013 64.9696 27.4346C62.8363 25.4346 62.8363 25.0346 64.7029 23.5679C67.5029 21.1679 70.1696 21.9679 71.5029 25.4346ZM92.0363 23.3013C91.5029 24.1013 92.1696 25.4346 93.5029 26.5013C95.5029 27.9679 96.4363 27.8346 98.8363 26.2346C101.37 24.6346 102.436 24.6346 106.703 26.3679C110.836 28.1013 111.37 28.9013 110.703 31.3013C109.636 34.6346 102.303 43.1679 100.436 43.1679C99.9029 43.1679 99.2363 41.1679 99.2363 38.7679C99.1029 36.2346 98.8363 35.5679 98.4363 37.1679C98.1696 38.6346 96.9696 44.2346 95.7696 49.5679C94.7029 54.9013 93.3696 59.0346 92.9696 58.6346C92.5696 58.2346 91.9029 55.5679 91.3696 52.9013L90.3029 47.8346L90.0363 53.8346C89.9029 57.1679 89.2363 61.3013 88.5696 63.1679C87.5029 66.2346 87.5029 66.1013 87.9029 62.1013C88.0363 59.8346 87.7696 57.8346 87.2363 57.8346C85.2363 57.8346 78.0363 64.7679 73.2363 71.3013C69.2363 76.9013 68.5696 78.6346 69.2363 82.5013C70.0363 86.2346 69.6363 87.3013 67.1029 89.0346C63.3696 91.7013 57.2363 91.7013 52.1696 89.1679C48.8363 87.4346 48.5696 87.4346 50.0363 89.1679C50.8363 90.2346 53.6363 91.4346 56.1696 91.9679C61.7696 93.0346 62.0363 94.6346 56.8363 95.5679C49.3696 97.0346 50.4363 103.568 58.4363 104.901C60.8363 105.301 64.5696 105.968 66.7029 106.368C68.9696 106.901 69.9029 106.768 69.1029 106.368C66.0363 105.035 67.2363 102.635 75.3696 94.1013C82.3029 86.7679 83.6363 85.8346 86.0363 87.1679C87.5029 87.9679 88.7029 89.3013 88.7029 90.1013C88.7029 91.7013 75.2363 105.035 73.9029 104.768C73.5029 104.768 73.1029 106.768 73.1029 109.301C72.9696 113.035 73.5029 113.968 76.3029 114.635C78.0363 115.168 80.1696 114.901 80.8363 114.235C81.6363 113.435 84.8363 113.168 87.9029 113.435C93.9029 114.235 97.3696 111.968 92.7029 110.501C88.5696 109.168 89.5029 107.168 94.3029 107.168H98.5696L95.5029 105.035L92.3029 102.768L96.1696 101.035C98.3029 100.101 99.2363 99.3013 98.4363 99.3013C95.1029 99.0346 96.8363 96.7679 101.103 95.8346C103.37 95.3013 104.57 94.6346 103.77 94.2346C100.836 93.1679 101.903 91.1679 105.236 91.1679C107.103 91.1679 108.97 90.5013 109.37 89.8346C109.77 89.0346 109.503 88.5013 108.836 88.5013C105.77 88.5013 107.636 86.2346 111.77 84.7679C117.903 82.6346 118.036 82.6346 118.036 87.1679C118.036 97.7013 108.036 109.701 89.3696 121.835C82.8363 126.235 74.8363 131.568 71.6363 133.835C68.5696 135.968 65.5029 137.835 64.9696 137.835C64.4363 137.835 63.2363 135.835 62.3029 133.435C60.7029 129.435 60.8363 129.035 64.7029 125.835C67.2363 123.701 68.7029 121.301 68.7029 119.168V115.835L66.9696 119.035C64.4363 123.968 61.9029 124.235 62.8363 119.435C63.5029 116.235 63.1029 115.168 60.7029 113.835C58.0363 112.368 57.9029 112.501 59.2363 115.035C60.1696 116.501 60.3029 119.435 59.9029 121.435L58.9696 125.168L57.3696 120.635C56.5696 118.101 54.5696 115.568 52.9696 115.035C49.6363 113.701 49.1029 114.901 52.0363 117.035C54.8363 119.168 55.9029 128.635 53.5029 131.568C51.9029 133.568 51.1029 133.835 48.7029 132.501C46.3029 131.168 45.9029 130.235 46.7029 126.368C47.3696 122.235 47.1029 121.701 43.7696 120.368C41.1029 119.435 39.3696 119.435 37.7696 120.368C35.9029 121.568 34.9696 121.035 32.7029 117.835C30.0363 113.968 29.9029 113.701 32.1696 111.435C34.3029 109.435 34.4363 109.435 33.7696 111.435C32.7029 114.101 35.1029 115.301 38.4363 113.568C41.3696 112.101 41.3696 109.035 38.4363 107.301C36.1696 105.968 36.1696 105.968 38.3029 105.835C39.5029 105.835 41.5029 107.168 42.5696 108.768C44.3029 111.168 44.9696 111.435 46.3029 110.101C47.6363 108.768 47.6363 107.968 46.3029 106.101C45.3696 104.901 44.1696 102.501 43.5029 101.035C41.3696 96.1013 35.3696 95.4346 35.3696 99.9679C35.3696 101.701 35.1029 101.701 33.2363 99.8346C31.9029 98.6346 30.1696 98.1013 28.8363 98.6346C24.5696 100.368 22.9696 99.7013 21.9029 95.9679C20.5696 91.3013 21.5029 89.4346 24.5696 90.5013C27.2363 91.3013 30.7029 87.9679 29.3696 85.8346C28.0363 83.7013 24.9696 84.2346 23.5029 86.7679C22.4363 88.7679 22.1696 88.6346 21.3696 85.4346C20.8363 83.3013 20.9696 80.3679 21.7696 78.7679C22.5696 77.1679 23.2363 76.6346 23.2363 77.5679C23.3696 78.5013 23.7696 79.0346 24.4363 78.7679C24.9696 78.3679 26.1696 78.9013 27.1029 79.9679C28.4363 81.4346 28.4363 81.8346 27.1029 81.8346C25.7696 81.8346 25.9029 82.2346 27.2363 83.0346C28.4363 83.8346 30.1696 83.8346 31.5029 83.0346C35.1029 81.1679 35.3696 81.4346 34.5696 85.8346C33.7696 89.1679 34.1696 89.8346 36.4363 89.8346C39.3696 89.8346 41.1029 86.9013 39.9029 83.8346C39.3696 82.7679 39.7696 80.9013 40.7029 79.9679C42.8363 77.3013 38.5696 70.3679 36.0363 72.5013C35.2363 73.1679 34.0363 73.4346 33.5029 72.9013C32.9696 72.3679 32.3029 73.3013 31.7696 74.9013C30.9696 78.2346 28.4363 78.7679 26.0363 75.8346C25.1029 74.7679 23.5029 73.8346 22.5696 73.8346C20.3029 73.8346 20.3029 73.4346 22.5696 65.1679C24.7029 56.9013 29.5029 47.3013 32.0363 46.3679C32.9696 45.9679 35.3696 45.8346 37.2363 46.1013L40.5696 46.5013L37.9029 52.5013C36.4363 55.8346 33.2363 60.5013 30.9696 63.0346C27.1029 67.0346 27.1029 67.3013 30.0363 65.8346C35.5029 62.9013 39.2363 57.8346 41.9029 49.4346C44.1696 42.7679 45.9029 44.3679 45.5029 52.6346C45.2363 58.1013 44.4363 60.1013 41.9029 62.1013L38.7029 64.6346L41.7696 63.8346C44.0363 63.1679 45.3696 63.7013 46.7029 65.4346C48.1696 67.3013 50.1696 67.8346 56.0363 67.7013C64.9696 67.4346 67.3696 65.5679 65.9029 59.8346C65.5029 57.5679 64.9696 56.9013 64.8363 58.1013C64.5696 62.1013 60.8363 64.5013 54.5696 64.5013C46.0363 64.5013 45.6363 61.7013 52.8363 54.3679C57.5029 49.5679 58.3029 48.2346 56.8363 46.9013C55.7696 45.8346 54.8363 45.7013 54.5696 46.5013C54.3029 47.1679 52.7029 49.9679 51.1029 52.5013C48.1696 57.1679 48.0363 57.1679 47.6363 53.7013C46.9696 48.5013 49.5029 43.1679 52.7029 43.1679C54.1696 43.1679 55.3696 42.5013 55.3696 41.7013C55.3696 40.6346 53.6363 40.5013 50.0363 41.0346C44.3029 41.9679 44.3029 41.8346 45.5029 35.3013C46.3029 31.3013 51.1029 27.1679 57.3696 25.3013C59.7696 24.6346 60.1696 25.0346 60.0363 28.1013C60.0363 31.0346 60.7029 31.8346 62.9696 31.8346C64.5696 31.8346 66.3029 32.3679 66.8363 32.9013C69.1029 35.1679 72.5696 33.5679 73.9029 29.8346C75.2363 25.7013 77.7696 24.7679 80.3029 27.3013C81.3696 28.3679 82.5696 27.8346 84.8363 25.3013C87.9029 22.1013 93.7696 20.3679 92.0363 23.3013ZM96.8363 23.5679C96.7029 25.1679 94.8363 24.7679 94.3029 23.0346C93.9029 22.2346 94.4363 21.7013 95.3696 21.9679C96.1696 22.3679 96.8363 23.0346 96.8363 23.5679ZM42.0363 38.5013C42.0363 40.9013 41.1029 42.2346 38.5696 43.3013C36.5696 43.9679 34.7029 44.2346 34.3029 43.8346C33.6363 43.3013 40.4363 35.1679 41.6363 35.1679C41.9029 35.1679 42.0363 36.6346 42.0363 38.5013ZM118.036 37.8346C118.036 38.5013 117.103 38.7679 116.036 38.3679C113.37 37.3013 111.903 41.3013 114.036 43.8346C114.97 44.9013 116.703 45.8346 118.036 45.8346C119.903 45.8346 120.303 45.0346 119.77 42.7679C119.103 40.3679 119.37 40.1013 120.836 41.4346C121.77 42.3679 123.77 43.1679 125.103 43.1679C128.036 43.1679 130.17 45.4346 134.036 52.7679C137.503 59.1679 137.503 61.0346 134.17 59.1679C132.703 58.5013 128.303 57.3013 124.436 56.7679L117.37 55.7013L121.37 53.4346L125.37 51.3013L117.903 51.1679C113.77 51.1679 108.17 52.1013 105.37 53.3013C100.836 55.1679 100.436 55.1679 101.103 53.3013C101.636 52.1013 101.503 51.1679 100.836 51.1679C99.1029 51.1679 97.7696 59.7013 98.8363 63.7013C99.3696 66.1013 98.8363 68.3679 97.2363 70.9013C95.9029 72.9013 94.9696 74.9013 95.1029 75.4346C95.5029 76.7679 90.0363 79.5679 88.9696 78.6346C88.5696 78.2346 89.1029 77.8346 90.1696 77.8346C91.5029 77.7013 91.2363 77.1679 89.5029 75.8346C87.3696 74.2346 87.2363 73.8346 88.9696 73.8346C90.1696 73.8346 92.4363 72.6346 94.1696 71.1679L97.3696 68.6346L93.3696 68.5013C89.7696 68.3679 89.6363 68.2346 92.3029 67.1679C94.3029 66.3679 95.5029 64.1013 96.5696 59.1679C97.3696 55.4346 98.0363 51.3013 98.0363 49.9679C98.0363 47.1679 105.903 41.0346 108.836 41.5679C110.17 41.8346 111.37 40.7679 111.77 39.1679C112.436 36.5013 118.036 35.1679 118.036 37.8346ZM110.036 56.6346C108.036 60.1013 109.103 61.1679 112.436 59.3013C114.036 58.5013 115.503 57.8346 115.77 57.8346C117.37 57.8346 117.903 62.1013 116.703 65.1679C115.77 67.8346 115.903 68.5013 118.036 69.1679C121.503 70.2346 121.37 71.7013 117.77 75.0346L114.97 77.7013L118.17 79.0346C121.103 80.2346 121.236 80.3679 118.57 80.3679C115.37 80.5013 111.103 76.3679 113.503 75.5679C114.303 75.3013 116.17 74.2346 117.503 73.1679C119.903 71.4346 119.77 71.3013 115.77 70.3679C110.97 69.4346 110.303 68.3679 113.37 65.8346C116.17 63.5679 115.903 60.1013 113.103 61.0346C111.77 61.4346 108.97 62.1013 106.836 62.6346L102.836 63.5679L105.77 59.8346C108.036 56.9013 108.436 55.8346 107.103 54.9013C105.903 54.2346 106.303 53.8346 108.436 53.8346C111.103 53.8346 111.236 54.2346 110.036 56.6346ZM136.703 75.5679C140.303 83.9679 139.77 95.9679 135.236 104.635C131.77 111.568 121.236 122.901 111.37 130.368C99.2363 139.701 99.7696 138.901 115.103 123.701C133.103 105.835 135.903 100.901 136.036 86.9013C136.036 77.5679 135.636 76.2346 131.77 70.6346C126.57 63.3013 126.17 61.5679 130.57 65.7013C132.303 67.4346 135.103 71.8346 136.703 75.5679ZM139.37 66.5013C139.37 67.5679 138.836 68.5013 138.17 68.5013C137.503 68.5013 136.303 67.5679 135.37 66.5013C134.036 64.7679 134.17 64.5013 136.57 64.5013C138.17 64.5013 139.37 65.3013 139.37 66.5013ZM108.436 74.6346C108.97 80.6346 106.17 82.1013 92.3029 83.3013C81.3696 84.2346 79.7696 84.6346 76.9696 87.8346C73.7696 91.7013 72.0363 91.7013 73.5029 87.9679C74.9696 83.9679 81.3696 81.8346 91.6363 81.8346C102.703 81.8346 107.77 79.5679 107.103 74.7679C106.57 71.0346 100.703 69.8346 100.703 73.3013C100.703 74.6346 100.303 75.3013 99.9029 74.7679C97.9029 72.7679 100.836 69.7013 104.303 70.1013C107.37 70.3679 108.17 71.3013 108.436 74.6346ZM81.3696 73.7013C80.9696 74.3679 81.2363 75.4346 82.0363 75.8346C83.9029 77.0346 81.2363 80.5013 78.5696 80.5013C76.3029 80.5013 76.1696 78.2346 78.4363 77.4346C79.2363 77.1679 79.6363 76.3679 78.9696 75.8346C78.4363 75.1679 77.1029 75.8346 76.1696 77.3013C73.7696 80.5013 72.0363 78.9013 74.0363 75.3013C74.8363 73.5679 76.8363 72.5013 78.8363 72.5013C80.7029 72.5013 81.9029 73.0346 81.3696 73.7013ZM131.37 75.8346C131.37 78.2346 130.436 79.3013 128.17 79.9679C124.303 80.9013 122.036 79.8346 122.036 77.0346C122.036 75.5679 122.836 75.3013 124.703 75.8346C126.436 76.3679 127.636 75.9679 128.17 74.6346C129.37 71.4346 131.37 72.1013 131.37 75.8346ZM38.0363 77.8346C38.0363 79.3013 37.2363 80.5013 36.1696 80.5013C35.2363 80.5013 34.0363 79.3013 33.6363 77.8346C33.1029 75.8346 33.6363 75.1679 35.5029 75.1679C37.1029 75.1679 38.0363 76.1013 38.0363 77.8346ZM134.57 86.2346C134.97 85.8346 135.37 86.5013 135.37 87.9679C135.37 89.4346 134.036 91.7013 132.57 93.0346C130.436 94.7679 130.17 95.7013 131.37 96.5013C132.57 97.3013 132.57 98.2346 131.503 100.235C130.17 102.635 129.503 102.901 126.836 101.568C123.503 100.101 121.37 95.7013 123.503 94.3679C124.17 93.9679 124.703 92.3679 124.703 90.9013C124.703 87.3013 128.703 84.3679 131.503 85.9679C132.703 86.5013 134.036 86.6346 134.57 86.2346ZM38.0363 87.1679C38.0363 87.8346 37.5029 88.5013 36.7029 88.5013C36.0363 88.5013 35.3696 87.8346 35.3696 87.1679C35.3696 86.3679 36.0363 85.8346 36.7029 85.8346C37.5029 85.8346 38.0363 86.3679 38.0363 87.1679ZM91.5029 93.4346C89.9029 97.1679 78.0363 108.368 78.0363 106.235C78.0363 105.568 80.9696 102.101 84.7029 98.5013C89.7696 93.5679 91.2363 91.3013 90.5696 89.1679C89.9029 87.0346 90.0363 86.7679 91.3696 88.1013C92.7029 89.3013 92.7029 90.5013 91.5029 93.4346ZM59.9029 98.9013C60.1696 99.4346 59.9029 100.768 59.2363 101.835C58.1696 103.568 57.9029 103.568 56.8363 101.835C55.5029 99.8346 56.0363 97.8346 58.0363 97.8346C58.7029 97.8346 59.5029 98.3679 59.9029 98.9013ZM116.97 109.035C116.57 109.701 116.97 109.835 117.77 109.301C118.703 108.768 120.303 108.901 121.503 109.568C123.37 110.635 123.37 110.901 121.503 112.368C118.703 114.768 114.17 112.901 113.236 108.901C112.17 104.901 115.503 101.835 116.836 105.568C117.37 106.768 117.37 108.368 116.97 109.035ZM105.503 117.968C105.636 118.635 105.77 119.701 105.903 120.501C105.903 121.168 107.236 121.835 108.836 121.835C112.436 121.835 111.37 125.035 107.503 125.568C102.036 126.368 98.5696 120.501 102.303 116.768C103.903 115.168 105.236 115.701 105.503 117.968ZM44.1696 125.168C44.5696 127.701 41.5029 127.701 39.5029 125.301C38.1696 123.835 38.4363 123.301 40.3029 122.901C43.1029 122.235 43.7696 122.635 44.1696 125.168ZM93.5029 126.501C93.1029 127.568 93.3696 128.501 94.0363 128.501C94.8363 128.501 95.2363 130.368 95.1029 132.501C94.8363 135.168 93.9029 136.768 92.0363 137.301C90.5696 137.835 88.5696 138.768 87.6363 139.568C84.5696 141.968 80.4363 141.568 79.6363 138.901C79.3696 137.568 78.1696 136.501 77.2363 136.501C76.1696 136.501 75.3696 136.101 75.3696 135.435C75.3696 133.701 80.5696 131.168 82.7029 131.968C84.9696 132.901 89.1029 130.101 88.0363 128.368C87.6363 127.835 88.4363 126.768 89.6363 125.968C93.1029 123.968 94.4363 124.235 93.5029 126.501Z" fill="#D82E26"/>
<path d="M52.5696 35.7013C54.7029 38.2347 58.4362 38.5013 57.7696 36.1013C57.3696 35.3013 55.7696 34.2347 54.0362 34.1013C51.2362 33.7013 51.1029 33.8347 52.5696 35.7013Z" fill="#D82E26"/>
<path d="M80.9696 37.968C80.7029 42.9013 78.4363 56.6346 77.1029 61.168C76.4363 63.4346 76.5696 63.568 78.5696 61.968C79.7696 60.9013 80.7029 58.2346 80.7029 55.168C80.7029 51.3013 81.7696 49.168 85.3696 45.4346C87.9029 42.768 90.0363 39.968 90.0363 39.168C90.0363 38.368 88.4363 39.568 86.4363 41.968L82.7029 46.368L81.9029 39.8346C81.2363 34.2346 81.1029 33.968 80.9696 37.968Z" fill="#D82E26"/>
<path d="M72.8362 60.9013C72.7029 65.7013 73.2362 68.368 74.0362 67.8347C75.6362 66.9013 75.6362 61.3013 74.0362 56.5013C73.2362 53.968 72.9695 55.0347 72.8362 60.9013Z" fill="#D82E26"/>
<path d="M57.7695 81.4346C58.7028 81.8346 59.9028 81.7013 60.3028 81.3013C60.8362 80.9013 60.0362 80.5013 58.5695 80.6346C57.1028 80.6346 56.7028 81.0346 57.7695 81.4346Z" fill="#D82E26"/>
<path d="M79.5029 93.168C77.1029 95.568 75.3696 98.368 75.7696 99.4347C76.3029 100.768 76.5696 100.635 76.5696 99.0347C76.7029 97.968 78.7029 96.1013 80.9696 95.0347C83.3696 93.968 85.5029 92.1013 85.7696 90.768C86.4362 87.568 84.7029 88.2347 79.5029 93.168Z" fill="#D82E26"/>
</svg>
