<svg width="162" height="162" viewBox="0 0 162 162" fill="none" xmlns="http://www.w3.org/2000/svg">
<path d="M60.4363 2.70132C7.10293 17.2346 -16.6304 78.8347 13.5029 124.968C35.5029 158.968 80.5696 171.368 116.436 153.368C144.303 139.368 161.37 112.168 161.37 81.768C161.37 67.2347 159.503 58.968 153.103 45.5013C143.903 26.4346 124.836 9.90132 104.436 3.36798C93.7696 0.0346527 71.7696 -0.365341 60.4363 2.70132ZM105.903 6.03465C157.503 23.368 176.57 85.368 143.636 128.968C137.636 136.968 125.77 147.235 118.036 151.235C109.77 155.368 96.3029 158.968 85.9029 159.768C63.2363 161.368 42.0363 153.101 25.3696 136.301C6.03626 116.835 -1.4304 93.2347 3.23626 67.2347C8.70293 36.0347 33.2363 10.568 64.3029 3.50131C76.3029 0.701324 93.1029 1.76799 105.903 6.03465Z" fill="#D82E26"/>
<path d="M81.3696 8.96803C81.3696 13.6347 81.2363 13.768 67.7696 15.5014C60.7029 16.4347 58.7029 14.168 65.3696 12.968C67.6363 12.568 71.2363 11.768 73.3696 11.368C76.3029 10.8347 77.3696 9.90135 77.3696 7.90135C77.3696 5.36803 76.8363 5.2347 69.3696 5.90135C64.9696 6.43469 59.2363 7.63469 56.7029 8.83469C52.5696 10.4347 52.0363 11.1014 53.2363 13.368C55.5029 17.5014 54.9696 19.9014 51.7696 20.968C50.0363 21.5014 46.5696 23.2347 44.0363 24.968C39.1029 28.4347 37.3696 28.8347 37.3696 26.968C37.3696 26.3014 40.4363 23.9014 44.0363 21.5014C50.4363 17.368 52.1696 14.568 49.3696 12.8347C47.7696 11.768 38.7029 16.968 32.0363 22.568L27.3696 26.568L30.4363 29.9014L33.6363 33.2347L28.1696 40.168C25.1029 43.9014 22.7029 47.6347 22.7029 48.3014C22.7029 48.968 22.1696 49.5014 21.3696 49.5014C18.8363 49.5014 20.0363 45.6347 24.8363 39.5014C29.2363 33.6347 29.3696 33.1014 27.1029 31.5014C25.1029 29.9014 24.4363 30.0347 22.4363 31.9014C20.0363 34.4347 10.7029 49.368 10.7029 50.968C10.7029 51.5014 12.5696 52.568 14.7029 53.368C16.9696 54.0347 18.7029 55.1014 18.7029 55.5014C18.7029 57.5014 14.0363 72.968 13.1029 74.0347C11.5029 75.9014 11.7696 68.4347 13.5029 62.3014C14.5696 58.168 14.5696 56.8347 13.1029 56.0347C12.1696 55.368 10.8363 55.1014 10.0363 55.2347C8.30293 55.768 5.63626 67.1014 5.50293 74.4347C5.36959 79.9014 5.50293 80.168 9.23626 80.168C11.5029 80.168 13.5029 80.568 13.7696 81.1014C15.2363 83.6347 16.1696 101.768 14.8363 100.968C14.0363 100.435 13.1029 97.9014 12.7029 95.1014C10.9696 84.8347 10.7029 84.168 7.76959 84.168C5.23626 84.168 5.10293 84.7014 5.76959 91.1014C6.83626 100.968 9.63626 108.835 12.0363 108.568C13.1029 108.435 15.2363 108.035 16.7029 107.501C18.8363 106.835 20.0363 108.035 23.3696 114.301C28.4363 124.035 28.5696 124.168 26.8363 124.168C26.0363 124.168 23.7696 121.235 21.6363 117.501C17.9029 110.701 16.8363 110.035 13.5029 112.035C11.9029 112.968 12.3029 114.301 15.1029 119.235C19.2363 126.168 25.1029 133.501 26.5696 133.501C27.2363 133.501 28.9696 132.301 30.7029 130.835L33.6363 128.301L38.5696 132.168C41.2363 134.301 44.8363 137.368 46.7029 138.835C52.3029 143.235 46.5696 142.035 40.3029 137.501C34.0363 132.968 32.9696 132.701 30.8363 135.235C29.7696 136.701 30.1696 137.768 32.4363 139.768C35.2363 142.435 49.5029 150.835 50.9696 150.835C51.3696 150.835 52.4363 148.968 53.3696 146.701C54.5696 143.901 55.6363 142.968 57.2363 143.501C58.4363 144.035 62.0363 144.968 65.3696 145.768C74.7029 148.035 74.9696 148.035 74.1696 149.368C73.5029 150.435 67.9029 149.768 59.9029 147.635C56.9696 146.835 56.3029 147.101 55.6363 149.501C55.1029 151.635 55.7696 152.568 58.1696 153.501C62.5696 155.235 78.8363 157.768 79.7696 156.968C80.1696 156.568 80.4363 154.435 80.3029 152.301C80.1696 148.701 80.7029 148.301 85.5029 147.635C88.3029 147.235 93.1029 146.435 96.0363 146.035C103.903 144.968 102.703 147.635 94.7029 149.368C90.9696 150.168 86.9696 150.835 86.0363 150.835C84.0363 150.835 83.2363 155.501 85.1029 156.701C86.3029 157.368 97.6363 155.501 104.436 153.368C109.503 151.635 109.636 151.368 107.103 144.701C106.57 143.368 121.77 133.501 124.436 133.501C126.703 133.501 122.436 137.501 116.436 141.101C110.303 144.701 110.036 145.101 112.036 148.168C113.103 149.901 113.77 149.768 117.636 147.635C124.57 143.635 133.236 136.968 133.37 135.635C133.37 134.835 132.17 133.101 130.836 131.635C128.303 128.835 128.303 128.835 134.303 120.835C137.636 116.435 140.703 113.101 141.236 113.501C142.436 114.435 141.77 115.901 137.103 122.301C133.636 127.101 133.236 128.435 134.703 130.168C136.036 131.768 136.703 131.901 138.436 130.568C141.236 128.168 150.703 113.501 150.703 111.368C150.703 110.568 148.836 109.101 146.57 108.301C143.236 107.235 142.57 106.301 143.37 104.568C144.17 102.701 147.103 91.5014 147.903 86.8347C148.036 86.568 148.57 86.8347 149.37 87.6347C150.17 88.4347 149.903 91.768 148.703 96.8347C147.37 102.835 147.236 105.101 148.436 105.768C152.303 108.301 154.97 102.835 156.57 89.1014L157.37 81.5014H152.97H148.57L146.97 71.9014C146.17 66.568 145.77 61.9014 146.17 61.6347C147.37 60.3014 149.236 64.7014 150.036 71.1014C150.836 76.7014 151.37 77.5014 154.17 77.5014C157.236 77.5014 157.37 77.1014 156.57 71.768C156.17 68.7014 154.97 62.968 153.903 59.1014C152.303 53.2347 151.503 52.168 149.636 52.8347C143.77 55.2347 142.836 55.1014 140.57 50.568C139.37 48.168 137.236 44.7014 135.903 42.968C133.103 39.368 132.703 37.5014 134.703 37.5014C135.503 37.5014 138.036 40.568 140.303 44.168C144.703 51.2347 144.97 51.5014 148.036 49.5014C149.77 48.4347 149.77 47.768 147.636 43.768C146.303 41.368 142.97 36.7014 140.17 33.5014L134.97 27.5014L131.503 30.7014L128.17 33.9014L122.97 29.368C120.17 26.8347 116.703 24.168 115.236 23.368C113.903 22.4347 113.103 21.368 113.77 20.7014C114.303 20.168 117.503 21.6347 120.703 23.9014C124.036 26.3014 127.636 28.168 128.57 28.168C132.303 28.168 131.903 24.3014 127.77 20.8347C123.77 17.5014 110.703 10.168 110.17 11.1014C110.036 11.368 109.236 13.2347 108.303 15.2347C107.37 17.368 105.903 18.7014 104.97 18.4347C104.17 18.0347 99.9029 16.968 95.7696 16.0347C91.5029 15.1014 88.0363 13.6347 88.0363 12.7014C88.0363 11.5014 90.0363 11.5014 96.3029 12.968C102.97 14.568 104.703 14.568 105.636 13.2347C106.17 12.3014 106.436 10.968 106.303 10.168C105.636 8.43469 96.7029 5.90135 88.3029 5.2347L81.3696 4.56802V8.96803ZM76.0363 7.90135C76.0363 8.56802 72.1696 9.76802 67.3696 10.7014C59.1029 12.4347 57.5029 13.6347 59.7696 17.1014C60.4363 18.3014 62.3029 18.3014 66.0363 17.5014C68.9696 16.8347 73.9029 16.168 77.1029 16.168C82.5696 16.168 82.7029 16.0347 82.7029 11.5014C82.7029 7.2347 82.9696 6.83469 86.7029 6.83469C93.3696 6.83469 104.036 9.63469 104.036 11.368C104.036 12.7014 102.436 12.7014 96.5696 11.2347C88.1696 8.96803 85.3696 9.63469 85.3696 13.5014C85.3696 15.368 86.3029 16.168 88.3029 16.168C89.9029 16.168 94.7029 17.2347 99.1029 18.4347C106.703 20.568 107.103 20.568 108.836 18.168C109.77 16.8347 110.836 15.1014 111.103 14.3014C111.636 12.568 119.503 16.568 125.77 21.768C132.303 27.2347 129.103 27.6347 121.636 22.3014C114.17 16.8347 112.703 16.568 111.37 19.768C110.836 21.368 111.503 22.8347 113.37 24.168C114.836 25.2347 119.103 28.3014 122.57 31.1014L128.97 35.9014L131.77 33.1014C134.57 30.3014 134.703 30.3014 137.503 32.968C141.236 36.3014 147.103 46.4347 146.436 48.3014C146.17 49.1014 143.77 46.4347 140.97 42.3014C135.77 34.4347 134.57 33.768 132.303 36.568C131.236 37.9014 131.77 39.768 134.703 44.168C136.836 47.5014 139.37 51.768 140.17 53.9014C141.103 55.9014 142.436 57.368 143.236 57.1014C150.436 54.4347 150.436 54.4347 152.57 61.6347C154.97 69.6347 155.37 76.168 153.37 76.168C152.703 76.168 152.036 74.968 152.036 73.368C152.036 68.4347 149.103 58.8347 147.503 58.8347C143.903 58.968 142.57 60.968 143.903 64.568C144.703 66.4347 145.37 70.568 145.503 73.768C145.903 81.9014 146.436 82.8347 150.836 82.8347C154.436 82.8347 154.703 83.2347 154.703 87.6347C154.703 90.168 154.036 94.968 153.236 98.3014C151.503 105.101 148.57 106.568 150.036 99.768C150.436 97.5014 151.236 93.2347 151.636 90.4347C152.303 85.6347 152.17 85.2347 149.37 85.768C146.836 86.0347 146.036 87.768 143.77 96.8347C142.17 103.101 141.636 107.635 142.303 107.768C143.103 108.035 144.836 109.101 146.17 110.168C148.703 111.901 148.703 112.035 146.036 116.968C142.436 123.768 137.37 129.635 135.903 128.835C135.37 128.435 136.836 125.101 139.37 121.635C144.703 114.301 144.97 112.835 141.77 111.501C140.17 110.968 138.836 111.501 138.036 112.968C137.37 114.168 134.436 118.035 131.77 121.635C128.97 125.235 126.703 128.435 126.703 128.835C126.703 129.235 127.903 130.835 129.37 132.435C131.903 135.235 131.903 135.235 126.97 139.101C120.57 144.168 114.703 147.235 113.636 146.035C113.103 145.501 113.37 144.835 114.303 144.568C117.103 143.501 126.703 136.168 126.703 134.968C126.703 134.301 125.77 133.101 124.703 132.168C123.103 130.835 122.036 131.101 118.97 133.635C116.97 135.368 112.703 138.035 109.636 139.368C105.37 141.235 104.17 142.568 104.836 144.035C107.103 149.768 106.97 150.835 103.503 152.168C97.5029 154.435 85.3696 155.368 85.3696 153.635C85.3696 152.835 86.5696 152.168 88.1696 152.168C89.6363 152.168 93.5029 151.501 96.8363 150.701C101.77 149.368 102.836 148.701 102.436 146.301C102.17 144.301 101.236 143.635 99.3696 143.901C97.9029 144.168 92.8363 144.701 88.0363 145.235C79.5029 146.168 79.3696 146.168 78.9696 150.568C78.5696 154.435 78.1696 154.835 73.9029 154.835C67.6363 154.835 57.3696 152.168 57.3696 150.568C57.3696 149.768 59.5029 149.635 63.1029 150.301C73.1029 152.168 75.3696 151.768 75.7696 148.435C76.1696 146.168 75.6363 145.501 73.2363 145.501C71.5029 145.501 66.5696 144.435 62.1696 143.235C56.9696 141.768 54.0363 141.501 53.7696 142.435C53.5029 143.101 52.4363 144.968 51.3696 146.301C49.6363 148.835 49.5029 148.835 45.1029 146.301C37.3696 141.901 31.9029 137.368 32.8363 136.035C33.2363 135.368 36.5696 136.968 40.1696 139.635C46.5696 144.301 50.7029 144.835 50.7029 140.968C50.7029 139.901 48.7029 137.768 46.4363 136.301C44.0363 134.835 40.3029 132.035 38.3029 130.168C34.5696 126.701 33.5029 126.568 29.1029 129.768C27.3696 130.968 26.4363 130.968 24.5696 129.368C22.0363 127.368 14.7029 116.301 14.7029 114.568C14.7029 111.901 17.2363 114.035 21.2363 120.168C23.6363 123.768 25.7696 126.835 26.0363 126.835C27.6363 126.835 30.7029 124.968 30.7029 124.035C30.7029 123.368 28.7029 119.768 26.3029 115.901C23.7696 112.035 21.5029 107.768 20.9696 106.568C20.3029 104.568 19.5029 104.435 15.9029 105.768C12.7029 106.835 11.5029 106.835 10.7029 105.501C9.10293 102.835 6.30293 86.8347 7.23626 85.9014C8.70293 84.4347 9.36959 86.168 10.8363 94.7014C12.1696 102.035 12.7029 102.968 15.2363 102.568C18.3029 102.168 18.3029 102.435 16.5696 87.1014L15.6363 78.8347H11.2363C6.03626 78.8347 5.76959 77.5014 8.16959 65.1014C9.23626 60.168 10.4363 57.5014 11.6363 57.5014C12.9696 57.5014 13.2363 58.3014 12.5696 60.4347C11.2363 64.8347 9.50293 72.568 9.36959 74.4347C9.36959 75.368 10.7029 76.168 12.4363 76.168C14.9696 76.168 15.6363 74.968 17.5029 67.1014C18.8363 62.168 20.0363 57.368 20.1696 56.3014C20.4363 55.2347 19.1029 53.5014 17.1029 52.568C14.9696 51.5014 13.3696 50.168 13.3696 49.6347C13.3696 47.6347 24.0363 32.168 25.3696 32.168C27.3696 32.168 27.1029 32.968 21.7696 40.968C17.7696 47.1014 17.2363 48.568 18.8363 49.6347C21.9029 51.5014 23.5029 51.1014 25.1029 47.6347C25.9029 45.768 28.8363 41.9014 31.5029 38.8347L36.4363 33.368L33.3696 30.168C30.8363 27.5014 30.5696 26.568 31.9029 24.968C34.7029 21.6347 46.5696 14.568 48.3029 15.1014C49.2363 15.5014 46.5696 18.0347 42.3029 20.8347C34.1696 26.3014 33.6363 26.968 36.5696 29.368C38.1696 30.7014 39.9029 30.0347 45.3696 26.3014C49.2363 23.6347 53.1029 21.5014 54.1696 21.5014C56.8363 21.5014 57.5029 19.368 56.0363 15.368C54.3029 10.968 54.4363 10.8347 62.3029 8.70135C69.7696 6.70135 76.0363 6.30136 76.0363 7.90135Z" fill="#D82E26"/>
<path d="M66.3029 20.3014C50.7029 24.0347 31.6362 39.2347 25.1029 53.5014C13.9029 77.6347 17.7696 103.635 35.3696 122.568C48.1696 136.435 62.5696 142.835 80.7029 142.835C105.103 142.835 125.903 129.768 136.836 107.501C141.103 98.7014 141.77 96.0347 142.436 84.968C142.97 74.7014 142.57 70.8347 140.17 63.1014C133.77 42.0347 117.636 26.3014 96.7029 20.8347C88.1696 18.7014 74.3029 18.4347 66.3029 20.3014ZM99.9029 23.6347C100.303 24.0347 99.7696 24.8347 98.8362 25.5014C97.7696 26.0347 97.3696 27.5014 97.7696 28.8347C98.4362 30.4347 98.1696 30.8347 96.3029 30.3014C92.4362 29.1014 90.1696 31.368 91.9029 34.7014C93.5029 37.5014 97.3696 38.568 97.3696 36.168C97.3696 33.9014 109.37 35.2347 111.636 37.768C112.97 39.2347 114.303 39.768 115.236 38.968C118.57 36.4347 122.57 36.4347 124.97 39.1014C126.436 40.7014 126.836 42.0347 125.903 42.568C125.103 43.1014 124.036 44.968 123.636 46.8347C122.97 49.5014 123.503 50.4347 126.036 51.6347C128.57 52.968 129.636 52.8347 130.97 51.2347C132.303 49.6347 132.836 50.0347 134.836 53.768C138.036 59.5014 137.903 61.1014 134.703 61.9014C132.836 62.3014 132.036 63.768 132.036 66.0347C132.036 68.168 131.236 69.5014 130.036 69.5014C127.37 69.5014 127.503 73.5014 130.17 75.5014C131.37 76.3014 132.436 78.8347 132.57 80.968C132.97 86.168 134.436 88.568 136.703 87.6347C139.236 86.7014 141.103 89.2347 140.303 92.968C139.636 96.3014 138.17 97.1014 136.703 94.8347C135.236 92.568 128.303 93.2347 127.636 95.768C127.103 97.6347 126.97 97.368 126.836 95.1014C126.57 90.7014 120.436 90.968 119.236 95.368C118.836 97.2347 117.636 98.968 116.57 99.368C114.303 100.168 114.036 103.635 116.17 104.835C116.97 105.368 118.436 104.568 119.503 102.968C121.636 100.035 124.703 99.2347 125.903 101.368C126.303 102.035 125.636 102.435 124.436 102.301C121.636 102.168 120.436 106.701 122.97 108.301C126.036 110.301 128.036 109.635 128.036 106.568C128.036 103.768 128.17 103.768 129.77 106.168C130.836 107.501 132.303 108.168 133.103 107.635C135.236 106.301 135.103 109.635 132.836 112.435C131.636 114.168 129.236 114.835 125.103 114.835C110.97 114.835 100.836 99.6347 104.836 84.4347L105.636 81.5014L108.836 84.8347C112.436 88.7014 115.903 89.1014 120.036 85.768C122.836 83.5014 122.836 83.368 120.57 78.568C118.436 74.0347 118.436 73.5014 120.436 70.3014C123.503 65.6347 123.236 64.0347 119.103 60.7014C116.17 58.4347 115.37 56.568 115.37 52.8347C115.37 46.0347 112.703 44.4347 104.57 46.568C99.2362 48.0347 98.0362 47.9014 96.0362 46.168C94.8362 45.1014 92.7029 44.168 91.3696 44.168C88.4362 44.168 82.7029 49.2347 82.7029 51.768C82.7029 53.2347 81.5029 53.368 77.7696 52.7014L72.7029 51.9014L77.9029 56.968L83.1029 62.168L76.5696 62.968C72.9696 63.368 70.9696 63.9014 72.1696 63.9014C73.3696 64.0347 75.7696 65.368 77.5029 66.7014C80.5696 69.2347 80.5696 69.5014 78.4362 71.6347C77.1029 72.968 74.1696 74.7014 71.7696 75.368C68.4362 76.4347 67.2362 77.768 66.9696 80.4347C66.5696 83.2347 67.3696 84.4347 70.7029 86.168C72.9696 87.368 76.1696 87.9014 77.7696 87.5014C80.0362 86.8347 80.3029 86.968 78.7029 88.0347C77.6362 88.8347 75.3696 89.5014 73.7696 89.5014C72.0362 89.5014 70.7029 90.0347 70.7029 90.7014C70.7029 91.368 67.3696 94.7014 63.2362 98.168L55.7696 104.568L56.3029 99.368L56.7029 94.168L49.1029 94.568L41.3696 95.1014V88.3014C41.3696 82.7014 41.7696 81.5014 43.7696 81.368C45.2362 81.368 45.3696 81.1014 44.3029 80.568C42.9696 80.0347 42.9696 79.368 44.7029 77.5014C46.1696 75.9014 46.4362 74.8347 45.5029 74.168C44.7029 73.768 44.0362 73.9014 44.0362 74.568C44.0362 75.1014 42.9696 76.8347 41.7696 78.3014C40.0362 80.168 39.3696 83.1014 39.3696 89.1014V97.5014L44.0362 96.7014C46.5696 96.3014 49.7696 95.6347 51.1029 95.2347C53.2362 94.7014 53.5029 95.368 53.1029 100.435C52.8362 104.968 52.1696 106.168 50.3029 106.035C48.1696 105.768 48.0362 106.035 49.6362 108.435C51.2362 110.835 51.1029 112.168 49.1029 118.035C47.9029 121.768 46.8362 125.901 46.7029 127.101C46.7029 130.168 45.5029 130.035 41.5029 126.835C38.9696 124.568 38.7029 123.768 40.0362 122.168C40.9696 121.101 41.2362 120.168 40.7029 120.168C40.1696 120.168 40.5696 119.235 41.5029 118.035C42.9696 116.168 42.7029 115.501 40.0362 113.368C36.4362 110.701 33.3696 110.035 33.3696 112.168C33.3696 115.635 28.9696 112.835 26.7029 107.901L24.3029 102.435L28.3029 98.3014C32.0362 94.7014 32.5696 94.568 34.0362 96.568C36.4362 99.9014 37.7696 97.5014 35.3696 94.0347C33.9029 91.768 33.7696 90.0347 34.7029 87.5014C36.5696 82.7014 36.4362 81.5014 33.9029 81.5014C32.5696 81.5014 32.0362 82.3014 32.5696 83.5014C33.9029 86.968 32.0362 89.6347 28.8362 88.7014C26.1696 87.9014 26.1696 87.9014 28.4362 90.568C30.7029 93.1014 30.7029 93.368 27.5029 96.968L24.3029 100.835L22.7029 96.8347C21.9029 94.7014 21.1029 88.3014 20.9696 82.8347C20.7029 73.1014 20.8362 72.8347 24.0362 72.3014C25.9029 72.168 27.7696 71.2347 28.3029 70.3014C28.9696 69.5014 29.3696 70.0347 29.3696 71.768C29.3696 75.368 32.3029 75.768 35.2362 72.8347C37.6362 70.4347 36.8362 67.2347 33.6362 66.4347C32.1696 66.0347 32.4362 65.768 34.4362 65.6347C36.5696 65.5014 37.9029 66.4347 38.3029 68.168C38.7029 69.6347 39.5029 70.8347 40.1696 70.8347C42.5696 70.8347 42.9696 66.7014 40.8362 64.3014C39.6362 62.968 38.7029 61.2347 38.7029 60.4347C38.7029 58.4347 33.7696 55.768 32.0362 56.8347C31.2362 57.2347 30.7029 58.7014 30.5696 59.9014C30.5696 61.368 30.1696 61.5014 29.7696 60.4347C29.5029 59.6347 28.3029 58.8347 27.2362 58.8347C24.5696 58.8347 24.9696 56.568 28.3029 51.1014C31.1029 46.568 31.2362 46.568 32.3029 49.368C32.8362 51.1014 34.3029 52.168 35.6362 52.0347C36.9696 51.9014 39.6362 52.4347 41.6362 53.2347C44.1696 54.3014 44.9696 55.368 44.4362 57.2347C43.6362 60.3014 44.4362 60.8347 50.4362 62.168C54.3029 62.968 54.8362 62.7014 54.4362 60.568C54.1696 58.568 54.9696 58.168 58.9696 58.168C64.9696 58.0347 65.9029 57.2347 64.8362 52.968C64.1696 50.4347 63.2362 49.6347 61.1029 50.0347C59.5029 50.168 57.9029 51.1014 57.6362 51.9014C56.8362 54.3014 53.3696 53.768 53.3696 51.368C53.3696 49.768 52.4362 49.5014 49.5029 50.168C46.5696 50.8347 45.5029 50.4347 44.8362 48.568C44.3029 47.368 44.3029 46.7014 44.8362 47.2347C45.3696 47.768 46.7029 47.368 47.7696 46.568C50.1696 44.4347 57.2362 44.0347 60.4362 45.6347C63.7696 47.5014 68.0362 44.8347 68.0362 40.8347C68.0362 38.7014 68.8362 37.5014 70.0362 37.5014C71.1029 37.5014 72.0362 38.7014 72.0362 40.168C72.0362 41.6347 72.5696 42.8347 73.2362 42.8347C73.9029 42.8347 75.3696 43.1014 76.3029 43.5014C77.5029 44.0347 78.8362 42.968 79.6362 41.1014C81.5029 36.968 78.7029 32.8347 74.8362 34.168C73.2362 34.7014 72.0362 34.4347 72.0362 33.6347C72.0362 32.168 74.5696 31.6347 79.7696 32.0347C81.6362 32.168 83.1029 31.368 83.5029 29.9014C86.7029 20.568 86.7029 20.568 93.1029 21.768C96.4362 22.3014 99.5029 23.2347 99.9029 23.6347ZM70.7029 27.1014C70.7029 27.768 69.5029 28.168 68.1696 28.168C66.7029 28.168 65.3696 28.968 64.9696 29.768C64.7029 30.8347 63.9029 30.968 63.2362 30.3014C62.5696 29.6347 62.7029 28.8347 63.7696 28.568C64.5696 28.168 65.3696 26.8347 65.3696 25.6347C65.3696 22.0347 66.9696 21.2347 68.8362 23.9014C69.7696 25.1014 70.7029 26.568 70.7029 27.1014ZM80.5696 23.5014C81.3696 25.9014 76.7029 28.968 75.3696 26.8347C74.8362 26.0347 74.0362 25.768 73.3696 26.168C72.7029 26.568 72.3029 25.768 72.4362 24.4347C72.5696 21.368 79.3696 20.568 80.5696 23.5014ZM57.7696 28.4347C58.3029 29.768 58.8362 29.6347 59.9029 28.168C61.1029 26.4347 61.3696 26.568 61.3696 28.568C61.3696 30.0347 62.5696 31.368 64.0362 31.768C65.5029 32.168 66.7029 33.1014 66.7029 33.768C66.7029 34.4347 66.1696 34.568 65.3696 34.168C64.7029 33.768 64.0362 34.0347 64.0362 34.7014C64.0362 35.5014 64.7029 36.168 65.3696 36.168C66.1696 36.168 66.7029 36.8347 66.7029 37.6347C66.7029 38.3014 66.0362 38.568 65.3696 38.168C63.1029 36.8347 58.7029 38.8347 58.5696 41.2347C58.4362 42.568 58.0362 42.0347 57.5029 40.168C56.3029 36.0347 51.2362 34.968 48.7029 38.4347C46.9696 40.7014 46.8362 40.7014 44.8362 38.168C42.3029 34.8347 42.3029 34.168 44.7029 32.168C46.3029 30.8347 46.8362 30.968 47.5029 32.7014C48.7029 35.768 54.3029 35.368 55.3696 32.168C55.7696 30.7014 55.7696 28.968 55.3696 28.168C54.9696 27.5014 55.1029 26.8347 55.9029 26.8347C56.5696 26.8347 57.5029 27.6347 57.7696 28.4347ZM106.97 29.2347C107.636 31.768 105.37 32.568 101.503 31.368C100.036 30.968 100.036 30.4347 101.37 28.8347C103.636 26.168 106.303 26.3014 106.97 29.2347ZM54.0362 30.8347C54.4362 31.5014 54.1696 32.168 53.5029 32.168C52.7029 32.168 52.0362 31.5014 52.0362 30.8347C52.0362 30.0347 52.3029 29.5014 52.5696 29.5014C52.9696 29.5014 53.6362 30.0347 54.0362 30.8347ZM117.103 33.9014C117.503 35.9014 117.103 36.0347 114.17 34.7014C112.303 33.768 111.103 32.568 111.503 31.9014C112.703 29.9014 116.57 31.368 117.103 33.9014ZM96.0362 33.5014C96.0362 34.168 95.5029 34.8347 94.7029 34.8347C94.0362 34.8347 93.3696 34.168 93.3696 33.5014C93.3696 32.7014 94.0362 32.168 94.7029 32.168C95.5029 32.168 96.0362 32.7014 96.0362 33.5014ZM76.8362 39.9014C73.9029 40.568 72.8362 39.5014 74.0362 37.5014C74.7029 36.4347 75.5029 36.568 76.9696 37.768C78.9696 39.368 78.8362 39.5014 76.8362 39.9014ZM56.0362 38.8347C56.0362 39.5014 55.3696 40.168 54.5696 40.168C53.9029 40.168 53.6362 39.5014 54.0362 38.8347C54.4362 38.0347 55.1029 37.5014 55.5029 37.5014C55.7696 37.5014 56.0362 38.0347 56.0362 38.8347ZM44.7029 43.2347C45.5029 42.7014 44.9696 43.368 43.6362 44.968C42.4362 46.4347 41.6362 48.0347 42.0362 48.4347C42.4362 48.7014 41.7696 49.1014 40.7029 49.1014C39.6362 49.1014 38.7029 48.568 38.7029 47.9014C38.7029 47.2347 37.3696 46.168 35.7696 45.5014C34.0362 44.8347 33.5029 44.3014 34.4362 44.3014C35.3696 44.168 35.7696 43.5014 35.2362 42.568C34.7029 41.768 34.8362 41.5014 35.7696 42.0347C36.5696 42.4347 38.0362 42.0347 38.9696 40.968C40.4362 39.368 40.9696 39.5014 42.1696 41.6347C42.8362 43.1014 44.0362 43.768 44.7029 43.2347ZM63.3696 40.168C63.7696 40.8347 63.5029 41.5014 62.8362 41.5014C62.0362 41.5014 61.3696 40.8347 61.3696 40.168C61.3696 39.368 61.6362 38.8347 61.9029 38.8347C62.3029 38.8347 62.9696 39.368 63.3696 40.168ZM130.436 47.9014C130.703 48.8347 129.636 49.5014 128.17 49.5014C125.37 49.5014 124.57 48.0347 126.303 46.3014C127.503 45.1014 129.77 46.0347 130.436 47.9014ZM93.3696 47.9014C93.3696 49.6347 90.3029 52.168 88.4362 52.168C86.9696 52.168 86.9696 51.5014 88.0362 49.5014C89.3696 46.968 93.3696 45.768 93.3696 47.9014ZM112.036 51.5014C112.036 52.968 110.57 53.5014 107.236 53.5014C103.103 53.5014 102.57 53.2347 104.036 51.5014C104.97 50.4347 107.103 49.5014 108.836 49.5014C110.836 49.5014 112.036 50.3014 112.036 51.5014ZM62.7029 54.168C62.7029 55.2347 61.7696 56.168 60.7029 56.168C59.6362 56.168 58.7029 55.2347 58.7029 54.168C58.7029 53.1014 59.6362 52.168 60.7029 52.168C61.7696 52.168 62.7029 53.1014 62.7029 54.168ZM52.7029 54.7014C53.1029 55.368 52.8362 56.3014 52.0362 56.8347C51.2362 57.368 50.9696 58.168 51.3696 58.8347C51.7696 59.368 50.9696 59.768 49.7696 59.6347C47.5029 59.2347 46.5696 56.8347 47.6362 54.4347C48.4362 53.1014 51.7696 53.2347 52.7029 54.7014ZM101.37 57.1014C105.77 59.6347 108.17 64.0347 107.903 69.2347C107.636 72.8347 107.636 72.8347 107.103 69.5014C106.17 64.568 101.503 58.8347 96.8362 56.7014C94.1696 55.5014 93.5029 54.968 95.1029 54.8347C96.5696 54.8347 99.3696 55.768 101.37 57.1014ZM95.2362 60.968C96.4362 61.368 97.3696 62.968 97.3696 64.4347C97.3696 65.768 96.8362 66.7014 96.1696 66.3014C95.5029 65.768 94.7029 66.168 94.4362 66.968C94.1696 67.9014 92.7029 68.168 91.1029 67.6347C89.2362 66.968 88.4362 65.768 88.5696 63.5014C88.7029 60.168 90.9696 59.368 95.2362 60.968ZM118.703 64.168C120.303 65.1014 120.303 65.768 119.103 66.968C117.77 68.3014 116.703 68.3014 113.77 66.968C110.836 65.6347 110.57 65.1014 112.17 64.0347C114.57 62.568 116.17 62.568 118.703 64.168ZM137.636 67.1014C135.636 69.1014 134.17 67.6347 135.236 64.7014C135.903 62.968 136.436 62.7014 137.636 63.9014C138.836 65.1014 138.836 65.9014 137.636 67.1014ZM139.77 73.1014C137.503 75.768 133.236 75.368 134.303 72.4347C135.103 70.4347 134.97 70.4347 132.97 72.0347C131.636 73.1014 130.303 73.5014 129.77 72.968C128.303 71.5014 130.57 70.4347 134.703 70.4347C136.97 70.4347 138.703 69.768 138.703 68.968C138.703 68.168 139.236 68.4347 140.036 69.5014C140.703 70.7014 140.703 72.0347 139.77 73.1014ZM100.57 72.968C102.97 79.2347 96.0362 83.5014 90.0362 79.6347C88.1696 78.4347 86.7029 76.568 86.7029 75.5014C86.7029 72.968 88.5696 72.968 90.7029 75.5014C92.5696 77.768 98.1696 78.168 99.3696 76.168C99.7696 75.368 99.2362 74.8347 98.1696 74.8347C95.9029 74.8347 95.3696 73.2347 96.9696 71.768C98.4362 70.3014 99.7696 70.7014 100.57 72.968ZM79.7696 79.5014C79.3696 83.2347 74.3029 85.6347 71.7696 83.1014C69.6362 80.968 71.3696 77.768 74.9696 77.1014C76.7029 76.8347 78.4362 76.4347 78.9696 76.3014C79.5029 76.3014 79.9029 77.6347 79.7696 79.5014ZM114.836 77.5014C117.37 78.968 118.436 84.168 116.17 84.168C114.703 84.168 110.703 78.968 110.703 77.2347C110.703 75.768 111.77 75.9014 114.836 77.5014ZM141.37 80.4347C141.37 83.2347 140.703 84.168 138.836 84.168C135.903 84.168 134.57 80.3014 136.57 78.0347C139.103 75.368 141.37 76.568 141.37 80.4347ZM96.1696 86.8347C97.6362 87.6347 98.5696 89.368 98.3029 90.8347C97.7696 94.168 96.7029 95.2347 93.3696 95.768C89.6362 96.3014 86.9696 90.568 89.5029 87.6347C91.7696 85.2347 92.7029 85.1014 96.1696 86.8347ZM77.3696 98.968C81.9029 101.368 82.4362 102.035 81.2362 104.301C79.3696 107.901 77.2362 108.568 72.0362 107.235C65.9029 105.635 64.1696 102.435 67.2362 98.968C70.4362 95.5014 70.7029 95.5014 77.3696 98.968ZM99.7696 104.035C102.036 106.301 104.036 108.435 104.036 108.835C104.036 110.568 96.9696 118.835 95.5029 118.835C93.5029 118.835 85.3696 112.168 85.3696 110.568C85.3696 108.568 92.1696 100.168 93.9029 100.168C94.7029 100.168 97.3696 101.901 99.7696 104.035ZM60.0362 114.301C60.7029 114.435 61.5029 114.568 61.7696 114.835C62.5696 115.368 67.7696 116.168 72.3029 116.301C77.1029 116.435 77.2362 116.568 76.4362 120.701C75.3696 126.035 75.7696 125.768 68.3029 126.435C62.5696 126.835 61.2362 126.435 57.5029 122.968C53.2362 118.968 52.3029 115.101 54.9696 112.435C56.1696 111.235 56.8362 111.235 57.6362 112.568C58.1696 113.368 59.2362 114.301 60.0362 114.301ZM38.1696 116.301C39.5029 118.568 36.4362 121.101 34.5696 119.235C32.9696 117.635 34.0362 114.835 36.0362 114.835C36.7029 114.835 37.6362 115.501 38.1696 116.301ZM87.7696 120.568C89.9029 123.101 86.5696 126.835 82.9696 125.901C80.4362 125.235 80.0362 123.501 81.2362 119.101C81.6362 118.035 86.5696 119.101 87.7696 120.568ZM122.036 121.235C122.036 123.635 119.37 123.235 118.97 120.701C118.57 119.368 119.103 118.701 120.303 119.101C121.236 119.501 122.036 120.435 122.036 121.235ZM95.7696 127.101C93.2362 129.501 90.3029 133.768 89.2362 136.435C87.9029 140.301 86.7029 141.501 84.5696 141.501C81.7696 141.501 81.6362 141.101 82.8362 137.768C84.1696 133.768 90.0362 127.635 96.0362 123.901C101.103 120.701 100.97 122.168 95.7696 127.101ZM111.77 125.501C112.17 128.301 112.036 128.435 110.17 126.968C107.636 124.835 107.37 121.101 109.77 121.768C110.57 122.168 111.636 123.768 111.77 125.501ZM57.6362 133.235C59.3696 133.501 63.5029 133.901 67.1029 134.035C72.7029 134.168 73.3696 134.435 73.3696 137.101C73.3696 139.635 72.7029 140.168 69.7696 140.035C66.1696 140.035 58.0362 137.101 52.8362 134.035C51.3696 133.101 50.7029 131.901 51.3696 130.835C52.1696 129.501 52.5696 129.635 53.3696 130.968C54.0362 131.901 55.9029 132.835 57.6362 133.235ZM105.103 132.435C105.37 134.035 104.836 134.435 102.836 133.901C101.236 133.501 100.036 132.301 100.036 131.235C100.036 128.568 104.57 129.635 105.103 132.435Z" fill="#D82E26"/>
<path d="M56.303 62.168C56.5696 64.168 56.0363 64.7013 54.0363 64.4347C51.503 64.168 51.503 64.168 53.7696 65.6347C57.2363 67.6347 59.503 65.368 57.503 61.9013C56.0363 59.6347 56.0363 59.6347 56.303 62.168Z" fill="#D82E26"/>
<path d="M47.7696 80.3013C50.1696 82.8346 49.9029 89.5013 47.2362 89.5013C45.3696 89.5013 45.3696 89.768 46.8362 91.6346C48.4362 93.5013 48.7029 93.5013 50.3029 91.2346C53.1029 87.6346 52.0362 79.6346 48.7029 79.1013C46.5696 78.7013 46.3029 78.968 47.7696 80.3013Z" fill="#D82E26"/>
<path d="M26.4362 83.768C27.2362 84.0347 28.8362 84.0347 29.7695 83.768C30.5695 83.368 29.9028 83.1014 28.0362 83.1014C26.1695 83.1014 25.5028 83.368 26.4362 83.768Z" fill="#D82E26"/>
<path d="M44.703 85.5014C45.103 86.1681 45.7696 86.8347 46.1696 86.8347C46.4363 86.8347 46.703 86.1681 46.703 85.5014C46.703 84.7014 46.0363 84.1681 45.2363 84.1681C44.5696 84.1681 44.303 84.7014 44.703 85.5014Z" fill="#D82E26"/>
<path d="M36.0363 101.368C33.5029 101.768 32.0363 102.568 32.7029 102.968C33.5029 103.368 38.3029 102.968 43.3696 102.035C51.5029 100.701 51.9029 100.435 46.7029 100.568C43.3696 100.568 38.5696 100.835 36.0363 101.368Z" fill="#D82E26"/>
<path d="M92.0363 90.8346C92.0363 91.5013 92.7029 92.168 93.3696 92.168C94.1696 92.168 94.7029 91.5013 94.7029 90.8346C94.7029 90.0346 94.1696 89.5013 93.3696 89.5013C92.7029 89.5013 92.0363 90.0346 92.0363 90.8346Z" fill="#D82E26"/>
<path d="M95.3695 106.835C94.9695 107.501 93.6362 107.635 92.3029 107.235C90.4362 106.568 90.3029 106.835 91.6362 108.168C92.8362 109.501 92.9695 110.435 91.9029 111.768C90.8362 112.968 90.8362 113.501 91.7695 113.501C92.5695 113.501 93.6362 112.835 94.0362 112.168C94.7029 111.101 95.5029 111.235 96.8362 112.301C98.0362 113.235 98.7029 113.368 98.7029 112.435C98.7029 111.635 98.0362 110.568 97.3695 110.168C96.3029 109.501 96.4362 108.701 97.5029 107.368C98.4362 106.168 98.5695 105.501 97.6362 105.501C96.8362 105.501 95.9029 106.035 95.3695 106.835Z" fill="#D82E26"/>
</svg>
