<svg width="1920" height="1080" viewBox="0 0 1920 1080" fill="none" xmlns="http://www.w3.org/2000/svg">
<path d="M0 540V1080H960H1920V540V0.000836253H960H0V540ZM82.0673 39.5641C83.0079 39.6743 83.4782 41.7682 83.4782 46.3967V53.009L89.1218 52.6783L94.6479 52.3477L95.0006 47.1681C95.3533 42.76 95.706 41.9886 98.2927 41.4375C99.8212 40.9967 117.34 40.7763 137.092 40.7763L172.953 40.8865L172.6 43.311C172.247 45.4049 171.424 45.7355 166.133 46.0661L159.902 46.3967V50.2539V54.0008H960H1760.1V50.2539V46.3967L1753.98 46.0661C1748.69 45.7355 1747.75 45.4049 1747.75 43.5314C1747.75 41.3273 1748.69 41.3273 1783.61 40.9967C1803.37 40.8865 1820.65 40.9967 1822.18 41.3273C1824.41 41.8784 1824.76 42.6498 1824.76 47.4988V53.009L1830.41 52.6783L1835.93 52.3477L1836.29 45.9559L1836.64 39.6743H1852.39H1868.27V54.5518V69.3191L1860.39 69.6498L1852.39 69.9804L1852.04 74.0579L1851.69 78.2457H1857.57H1863.56V114.613C1863.56 146.242 1863.33 150.98 1861.8 150.98C1860.51 150.98 1860.04 149.548 1860.04 145.029C1860.04 138.637 1859.1 137.646 1853.33 138.637L1850.63 139.078L1850.51 327.748C1850.4 431.449 1850.16 611.853 1850.04 728.67L1849.69 941.143H1854.75H1859.92L1860.27 935.633C1860.51 932.547 1861.21 930.012 1861.8 929.792C1862.51 929.682 1863.09 942.245 1863.33 965.498L1863.56 1001.42L1857.68 1001.31L1851.81 1001.09V1005.83V1010.57H1860.04H1868.27V1025.45V1040.33H1852.39H1836.52V1033.71V1027.1H1829.94C1823.59 1027.1 1823.47 1027.21 1823.59 1030.08C1823.71 1031.84 1823.82 1034.27 1823.71 1035.59L1823.59 1038.12H1785.96C1753.28 1038.12 1748.34 1037.9 1748.34 1036.47C1748.34 1035.15 1749.87 1034.82 1754.92 1034.82H1761.39L1761.04 1030.08L1760.69 1025.45H960H159.314L158.961 1030.08L158.609 1034.82H165.075C170.131 1034.82 171.659 1035.15 171.659 1036.47C171.659 1037.9 166.604 1038.12 133.448 1038.12H95.2357V1032.61V1027.1H89.357H83.4782V1033.71V1040.33H67.6056H51.733V1025.45V1010.57H60.0808H68.3111L67.9583 1005.94L67.6056 1001.2H61.962H56.436V965.057C56.436 933.759 56.6711 929.021 58.1996 929.021C59.4929 929.021 59.9632 930.453 59.9632 934.972V940.923L64.1959 941.363C66.4299 941.584 68.5462 941.474 68.7814 941.143C69.0165 940.812 69.2517 935.082 69.3692 928.359C69.6044 908.743 70.4274 910.837 62.3147 910.727C53.7318 910.616 47.853 907.31 43.6203 900.367L40.9161 895.629L44.9136 898.604C51.0275 902.902 60.1984 902.131 67.3705 896.731C69.2517 895.188 69.3692 876.343 69.3692 517.298C69.3692 261.625 69.0165 139.299 68.1935 138.858C67.488 138.417 65.3717 138.307 63.4905 138.637C60.316 139.078 60.0808 139.409 59.7281 144.699C59.4929 147.895 58.7875 150.429 57.9645 150.76C56.7887 151.091 56.436 143.376 56.436 114.723V78.2457H61.7269H67.0177V73.8375V69.4294H59.4929H51.8506L51.4978 54.4416C51.2627 46.1763 51.2627 39.4539 51.3803 39.3437C51.4978 39.1233 78.4225 39.3437 82.0673 39.5641Z" fill="url(#paint0_linear_12_93)"/>
<path d="M56.0833 45.9559C55.7306 47.0579 55.613 51.6865 55.7306 56.2048L55.8482 64.4701L61.3742 64.8007L66.7827 65.1313L67.6057 59.0701L68.4287 52.8987H73.602H78.7753V48.4905V44.0824H67.7233C58.0821 44.0824 56.5536 44.3028 56.0833 45.9559Z" fill="url(#paint1_linear_12_93)"/>
<path d="M1841.22 48.4905V52.8987H1846.4H1851.69L1852.04 58.6293L1852.39 64.4701L1858.04 64.8007L1863.56 65.1313V54.662V44.0824H1852.39H1841.22V48.4905Z" fill="url(#paint2_linear_12_93)"/>
<path d="M99.9387 49.5927V52.8988H115.223H130.508V59.5111V66.1233H134.035C137.798 66.1233 137.915 65.9029 137.563 58.6294L137.328 54.0009H146.263H155.199V50.1437V46.2866H127.569H99.9387V49.5927Z" fill="url(#paint3_linear_12_93)"/>
<path d="M1764.8 50.1436V54.0007H1773.62H1782.44V60.1722C1782.44 66.1232 1782.44 66.2334 1785.73 65.9028C1788.79 65.5722 1788.9 65.2415 1789.26 59.1803L1789.61 52.8987H1804.78H1820.06V49.5926V46.2864H1792.43H1764.8V50.1436Z" fill="url(#paint4_linear_12_93)"/>
<path d="M72.5438 60.8334C72.191 62.817 72.0735 65.9028 72.3086 67.7762C72.4262 69.5395 72.6613 72.7354 72.6613 74.6089L72.8965 78.2456H84.0661H95.2357V67.7762V57.3068H84.1837H73.1316L72.5438 60.8334Z" fill="url(#paint5_linear_12_93)"/>
<path d="M99.9387 69.9803V82.5436L86.1825 82.8742L72.3086 83.2048V92.5722C72.191 97.7517 72.4262 103.042 72.6613 104.364L73.1316 106.899H99.4684H125.805V82.1028V57.3069H112.872H99.9387V69.9803Z" fill="url(#paint6_linear_12_93)"/>
<path d="M1794.19 82.1028V106.899H1820.65H1847.1L1847.22 103.813C1847.22 102.16 1847.57 96.7599 1847.81 91.6905L1848.28 82.6538H1834.17H1820.06V69.9803V57.3069H1807.13H1794.19V82.1028Z" fill="url(#paint7_linear_12_93)"/>
<path d="M1824.76 67.7762V78.2456H1836.29H1847.93L1847.57 69.0987C1847.46 64.1395 1847.34 59.4007 1847.22 58.6293C1847.1 57.6375 1844.05 57.3068 1835.93 57.3068H1824.76V67.7762Z" fill="url(#paint8_linear_12_93)"/>
<path d="M142.501 61.9354C142.854 65.462 142.971 65.5722 149.085 65.9028L155.199 66.2334V75.0496V83.866L146.734 83.5354L138.151 83.2048L137.798 77.1436C137.328 70.7517 136.269 69.3191 132.742 70.2007C130.626 70.7517 130.508 72.0742 130.508 90.4783V110.205H116.752C109.11 110.205 99.3509 110.535 95.0006 110.976L87.0055 111.637V115.274V119.021H94.06H101.232L100.879 126.956L100.527 135.001L91.4734 135.331L82.3025 135.662V129.49C82.3025 126.184 81.9498 123.319 81.4795 123.319C80.8916 123.209 79.2456 123.099 77.5995 122.988L74.6601 122.878L74.3074 507.931C74.0723 874.249 74.1898 892.874 76.071 892.102C77.2468 891.772 84.1837 891.441 91.4734 891.441C98.6454 891.551 104.642 891.331 104.642 890.89C104.642 890.559 103.348 888.796 101.702 886.923C95.3533 879.87 98.9982 866.535 108.757 861.135C113.342 858.71 115.224 858.27 120.514 858.71C126.276 859.151 126.863 859.041 127.451 856.727C128.509 852.98 134.036 847.359 138.386 845.706C143.324 843.723 151.907 843.723 156.845 845.706C160.372 847.139 165.075 851.437 166.016 854.302C166.369 855.184 167.427 854.963 169.308 853.751C170.954 852.759 173.306 851.878 174.834 851.878C176.48 851.878 177.656 850.996 178.126 849.343C178.596 848.021 180.242 845.376 181.771 843.392C183.417 841.298 184.593 838.433 184.593 836.119C184.593 824.106 193.999 814.408 205.874 814.188C209.636 814.188 210.812 813.637 212.223 811.212C217.043 803.057 224.568 798.98 235.032 798.98C250.552 798.98 262.427 807.135 264.073 818.927L264.896 824.327H270.07C284.061 824.327 292.762 832.812 292.762 846.698V853.861L300.287 853.31C309.575 852.539 315.101 854.192 319.686 859.041C324.86 864.661 326.623 873.478 324.037 881.192C323.331 883.396 323.566 883.506 328.975 882.955C348.14 881.302 370.009 891 376.358 904.114C379.65 910.837 379.179 911.278 372.713 908.302C361.308 903.012 352.725 903.894 340.967 911.498C329.445 918.992 317.805 921.416 306.871 918.661L300.404 917.119L297.23 920.645C294.761 923.51 292.527 924.612 287.001 925.825C280.887 927.037 279.946 927.588 279.358 930.233C278.535 934.421 271.951 941.143 266.307 943.457C260.899 945.772 249.259 946.212 243.498 944.339C240.206 943.237 239.383 943.347 237.149 945.331C233.739 948.306 225.509 951.061 219.983 951.061C213.516 951.061 203.993 946.433 200.818 941.694C198.584 938.388 197.644 937.837 195.175 938.388C189.531 939.6 175.304 940.261 171.189 939.6C165.546 938.608 159.432 933.429 156.727 927.367C155.199 923.841 154.141 922.629 152.848 923.07C151.907 923.4 148.732 923.951 145.793 924.282C138.856 924.943 133.33 921.637 129.568 914.474L126.863 909.294L121.455 912.049C114.048 915.686 107.111 915.465 95.1182 911.388C88.2988 908.963 83.7134 908.082 80.0686 908.302L74.6601 908.633L74.3074 933.208L74.0723 957.784L77.8347 957.343C81.5971 957.012 81.7146 956.792 82.0674 951.282C82.5377 944.67 83.3607 944.229 94.06 944.67L100.527 945L100.879 953.045L101.232 960.98H93.4721H85.8298V964.837V968.694L107.699 968.914L129.568 969.245L129.803 989.633L129.92 1010.02H134.036H138.151L138.503 1003.08L138.856 996.245H146.969H155.199V1005.06C155.199 1011.56 154.846 1013.88 153.788 1013.77C152.965 1013.66 150.026 1013.66 147.321 1013.77C142.383 1013.88 142.266 1013.99 142.266 1017.73V1021.59H960H1777.73V1017.73V1013.88H1771.27H1764.8V1005.06V996.245L1773.03 996.355L1781.14 996.576L1781.5 1003.3L1781.85 1010.02H1785.96H1790.08L1790.2 989.633L1790.31 969.245L1811.36 969.025C1822.88 968.914 1832.52 968.584 1832.76 968.253C1832.88 967.923 1832.99 966.049 1832.99 964.286V960.98H1825.94H1818.77L1819.12 952.935L1819.47 945L1828.64 944.67L1837.7 944.339V950.29C1837.7 956.572 1838.64 957.674 1843.69 957.674C1845.93 957.674 1845.93 951.061 1845.93 540.551C1845.93 263.278 1845.57 123.429 1844.75 123.319C1844.16 123.209 1842.75 123.099 1841.81 123.099C1840.87 123.099 1839.58 123.209 1838.87 123.319C1838.29 123.319 1837.7 126.184 1837.7 129.49V135.552H1828.29H1818.89V127.286V119.021H1825.94H1832.99V115.164V111.307L1811.6 111.086L1790.08 110.756L1789.73 90.5884C1789.61 78.5761 1789.02 70.4211 1788.32 70.4211C1783.14 69.7599 1783.02 69.8701 1782.44 76.5925L1781.85 83.2048H1773.15H1764.57V74.9395V66.6742L1770.8 66.1232C1776.91 65.5721 1777.15 65.462 1777.5 61.9354L1777.85 58.4089H960H142.148L142.501 61.9354ZM600.22 166.96C652.071 172.25 701.452 187.348 746.719 211.923C769.176 224.156 797.864 243.111 809.034 253.36C820.321 263.719 825.259 267.686 825.612 267.025C825.964 266.584 826.2 264.711 826.317 262.948C826.67 258.539 830.785 254.682 836.076 253.911C839.721 253.36 840.661 252.699 841.249 250.054C842.778 243.882 852.654 238.923 860.179 240.686C861.942 241.127 864.882 243.001 866.88 244.984C868.762 246.858 871.701 248.621 873.347 248.841C875.111 249.062 877.227 249.723 878.05 250.384C880.284 252.148 882.988 257.327 882.988 259.972C882.988 263.388 886.751 268.678 889.573 269.229C891.101 269.45 893.1 268.678 894.746 267.025C899.684 262.286 910.031 263.499 912.264 269.229C912.852 270.772 914.381 271.433 917.438 271.654C923.904 271.984 927.667 275.731 927.667 281.682C927.667 284.327 926.961 286.752 926.256 287.303C925.315 287.854 928.137 288.405 933.075 288.845C939.189 289.286 942.246 290.058 944.715 291.821C948.242 294.466 953.416 295.017 955.65 292.923C956.59 292.041 957.06 291.931 957.06 292.813C957.06 293.474 955.65 295.127 953.886 296.45C950.947 298.654 949.653 298.874 942.599 298.323C936.955 297.882 933.428 298.103 930.371 299.315C926.138 301.078 918.496 300.968 914.498 299.315C912.97 298.654 912.382 298.874 912.382 300.086C912.382 303.062 906.386 306.588 902.388 306.037C899.214 305.596 898.508 305.927 896.509 309.454C893.688 314.303 887.926 316.066 880.519 314.303C876.169 313.311 875.816 313.421 873.582 316.286L871.231 319.372L876.992 327.417C888.632 344.278 903.681 371.498 910.854 389.021C928.137 431.119 935.427 465.392 936.72 509.143C937.543 538.568 936.015 559.727 931.194 584.082C927.667 602.266 925.903 608.988 918.261 633.013C914.969 643.151 907.091 661.335 900.507 673.678L897.097 679.959L903.329 679.298C914.146 678.086 924.14 682.384 928.255 689.878C929.548 692.082 930.606 692.853 932.252 692.413C935.427 691.641 942.364 693.955 946.479 697.262C950.006 700.017 953.533 708.392 953.533 714.123C953.533 715.776 954.591 717.98 955.767 718.972C957.061 720.074 958.354 722.057 958.707 723.38C959.177 725.143 960.823 726.245 964.115 727.237C968.818 728.559 968.936 728.449 972.698 724.812C977.519 719.853 983.868 718.2 990.805 719.853C996.566 721.176 1002.56 726.025 1003.62 730.213C1004.33 732.747 1004.8 732.968 1008.91 732.306C1014.79 731.315 1022.78 734.621 1026.55 739.58C1030.07 744.319 1030.54 754.568 1027.37 757.874C1023.26 762.172 1024.55 762.943 1034.42 762.061C1045.48 761.18 1051.83 762.502 1059.35 767.351C1065.82 771.649 1073.93 772.2 1078.05 768.784C1080.98 766.249 1081.22 767.682 1078.52 771.429C1073.11 778.812 1064.88 781.237 1054.3 778.592C1045.01 776.388 1043.71 776.388 1031.84 780.355C1020.43 784.102 1016.08 783.992 1008.91 780.135C1006.79 778.923 1004.91 778.041 1004.68 778.261C1004.56 778.482 1003.86 780.245 1002.91 782.229C1002.09 784.212 999.858 787.078 997.859 788.621C994.567 791.266 993.391 791.486 987.042 791.045L979.87 790.494L977.754 795.343C974.579 802.506 969.053 805.923 959.882 806.474C955.767 806.804 950.006 806.363 947.067 805.702L941.776 804.49L936.72 809.339C928.372 817.494 917.908 818.486 907.326 812.204C903.211 809.78 901.683 809.449 899.919 810.331C896.274 812.204 884.046 811.763 879.461 809.559C873.582 806.694 869.114 802.506 867.704 798.429C866.763 795.563 865.587 794.792 861.002 793.69C857.71 792.808 854.065 790.825 851.948 788.731L848.304 785.204L841.837 786.637C834.783 788.29 826.317 787.298 818.91 783.992L814.795 782.229L807.505 788.4C785.989 806.694 749.07 829.617 721.323 841.959C669.59 864.882 616.093 876.123 557.893 876.123C524.149 876.123 496.637 873.037 465.597 865.653C339.557 835.898 239.383 748.396 197.526 631.47C177.773 576.147 173.423 509.143 185.886 451.617C187.062 445.776 188.473 440.156 188.825 439.274C189.413 437.841 188.59 437.731 183.77 438.282C177.303 438.943 171.424 436.849 169.308 433.213C168.25 431.229 168.367 431.229 171.777 432.331C174.952 433.543 176.127 433.213 182.241 430.017C186.004 428.143 190.001 426.49 190.942 426.49C192 426.49 192.823 425.719 192.823 424.727C192.823 422.082 201.641 397.947 207.637 384.282C217.984 360.478 237.619 327.747 253.021 308.462C281.827 272.535 315.924 242.89 355.077 219.858C407.045 189.441 462.54 171.588 521.445 166.409C548.487 163.984 573.178 164.205 600.22 166.96ZM1188.45 479.829C1190.8 481.813 1198.68 488.425 1205.73 494.266L1218.66 505.066L1219.02 491.07L1219.37 477.184H1224.54H1229.83V501.429C1229.83 514.764 1229.48 525.674 1229.13 525.674C1228.78 525.674 1220.78 519.502 1211.38 511.898C1202.09 504.294 1193.86 498.123 1193.27 498.123C1192.68 498.123 1192.21 504.074 1192.21 511.347V524.572H1187.51H1182.8V500.327C1182.8 486.992 1183.04 476.082 1183.39 476.082C1183.75 476.082 1186.1 477.735 1188.45 479.829ZM1402.32 490.409L1419.72 504.845L1420.07 490.96L1420.42 477.074L1425.36 477.405L1430.3 477.735L1430.65 499.225C1430.89 511.127 1430.53 521.817 1430.06 523.249C1429.12 525.453 1427.95 524.682 1412.31 511.898C1403.14 504.294 1395.14 498.123 1394.67 498.123C1394.2 498.123 1393.73 503.964 1393.62 511.127L1393.5 524.021L1388.68 524.351L1383.86 524.682V500.437C1383.86 486.992 1384.09 476.082 1384.33 476.082C1384.56 476.082 1392.68 482.584 1402.32 490.409ZM1685.67 484.568C1689.79 492.943 1699.78 513.772 1703.19 520.935L1704.84 524.572H1698.61H1692.37L1690.61 519.833L1688.73 515.204L1680.26 514.874L1671.92 514.543L1669.57 519.613C1667.45 524.351 1667.1 524.572 1662.51 524.572C1659.92 524.572 1657.81 524.131 1657.81 523.47C1657.81 522.919 1661.81 514.102 1666.74 503.964C1671.68 493.715 1676.74 483.356 1678.03 480.711C1679.21 478.176 1680.5 476.082 1680.85 476.082C1681.09 476.082 1683.32 479.939 1685.67 484.568ZM1096.39 478.727C1101.09 480.6 1101.09 480.6 1098.62 485.56C1096.74 489.196 1096.62 489.196 1093.33 487.654C1085.57 483.796 1075.58 486.882 1071.93 494.045C1064.99 507.6 1079.81 520.935 1093.92 514.102C1095.8 513.111 1097.45 512.56 1097.56 512.67C1098.5 513.772 1101.8 520.384 1101.44 520.715C1096.15 525.013 1080.98 526.004 1073.58 522.478C1067.93 519.723 1062.41 513.772 1060.53 508.482C1057.7 500.768 1061.11 487.653 1067.23 482.474C1073.22 477.404 1088.04 475.531 1096.39 478.727ZM1119.31 486.551V495.919H1130.48H1141.65V486.551V477.184H1146.94H1152.23V500.988V524.682L1147.3 524.351L1142.24 524.021L1141.89 514.874L1141.54 505.837H1130.48H1119.31V515.204V524.572H1114.14C1107.67 524.572 1108.03 526.115 1108.5 498.343L1108.85 477.184H1114.02H1119.31V486.551ZM1172.46 478.286C1172.69 478.837 1172.69 489.527 1172.46 501.98L1172.11 524.572H1166.93H1161.64V500.878V477.184H1166.81C1169.64 477.184 1172.22 477.625 1172.46 478.286ZM1274.51 481.592V485.89L1261.93 486.221L1249.23 486.551V490.96V495.368L1260.4 495.919L1271.57 496.47V500.878V505.286L1260.05 505.617L1248.53 505.947L1248.88 510.576L1249.23 515.204L1262.52 515.535L1275.69 515.866V520.164V524.572H1257.46H1239.24V500.878V477.184H1256.88H1274.51V481.592ZM1309.55 479.388L1314.61 481.482L1312.72 484.898C1311.2 487.764 1310.37 488.205 1308.26 487.433C1306.85 486.992 1302.73 486.551 1299.2 486.551C1292.85 486.551 1292.74 486.551 1292.74 489.858C1292.74 492.833 1293.56 493.494 1301.79 497.351C1308.61 500.547 1311.2 502.421 1312.61 505.066C1314.61 509.143 1314.25 514.874 1311.67 518.511C1307.43 524.572 1292.74 526.556 1282.98 522.368L1277.92 520.274L1279.8 516.858C1281.92 513.111 1282.51 513 1288.27 515.204C1293.33 517.188 1295.79 517.298 1299.79 515.535C1302.14 514.543 1302.73 513.551 1302.5 511.458C1302.26 509.143 1300.61 507.821 1294.5 504.956C1290.39 502.972 1285.8 500.327 1284.39 499.115C1278.63 494.045 1280.27 483.576 1287.68 479.388C1292.74 476.523 1302.73 476.523 1309.55 479.388ZM1355.64 481.592V485.89L1343.65 486.221L1331.54 486.551L1331.18 491.18L1330.83 495.919H1342.12H1353.41L1353.05 500.547L1352.7 505.286L1341.88 505.617L1330.95 505.947V510.135C1330.95 515.315 1332.01 515.755 1346.59 515.755H1356.82V520.164V524.572H1338.59H1320.37V500.878V477.184H1338H1355.64V481.592ZM1475.8 481.592L1475.33 486H1463.1H1450.88V490.96V495.809L1461.81 496.139L1472.63 496.47V500.878V505.286L1461.81 505.617L1450.88 505.947V510.906C1450.88 514.213 1451.35 515.756 1452.4 515.645C1453.11 515.535 1458.99 515.535 1465.34 515.645L1476.74 515.755V520.164V524.572H1458.52H1440.29V500.878V477.184H1458.28H1476.27L1475.8 481.592ZM1495.67 490.298C1498.49 497.572 1501.08 503.302 1501.43 503.082C1501.9 502.862 1503.67 499.115 1505.43 494.817C1508.72 486.992 1508.72 486.551 1505.55 479.058C1504.84 477.515 1505.43 477.184 1509.43 477.184C1512.01 477.184 1514.6 477.845 1515.19 478.507C1515.78 479.278 1518.6 485.009 1521.3 491.18C1524.12 497.462 1526.59 502.531 1526.83 502.531C1527.06 502.531 1529.06 496.8 1531.41 489.858L1535.65 477.184H1541.06C1545.99 477.184 1546.35 477.405 1545.76 479.609C1545.05 482.584 1528.95 521.817 1527.42 524.241C1526.71 525.453 1524.83 522.258 1520.72 513.111C1517.54 506.058 1514.72 500.327 1514.37 500.327C1514.01 500.327 1510.6 506.168 1506.84 513.221C1502.02 522.368 1499.79 525.674 1499.08 524.572C1496.38 519.943 1480.27 481.372 1480.27 479.388C1480.27 477.515 1480.97 477.184 1485.44 477.184H1490.62L1495.67 490.298ZM1584.68 487.764L1590.44 498.343L1593.26 493.604C1594.9 490.96 1597.49 486.111 1599.02 483.025L1601.96 477.184H1608.19C1611.48 477.184 1614.3 477.515 1614.3 477.845C1614.3 478.396 1605.25 494.045 1598.55 504.735C1596.08 508.702 1595.49 511.127 1595.49 517.078V524.572H1590.2H1584.91V516.968C1584.91 509.694 1584.56 508.923 1577.39 496.911C1573.39 489.968 1569.04 482.694 1567.98 480.711L1565.98 477.184H1572.45H1578.8L1584.68 487.764ZM1655.46 481.592V486H1642.52H1629.59V490.96V495.919H1640.76H1651.93V500.878V505.837H1640.64H1629.47L1629.82 510.466L1630.18 515.204L1642.88 515.535L1655.46 515.866V520.164V524.572H1637.23H1619.01V500.878V477.184H1637.23H1655.46V481.592ZM1732.11 478.286C1737.88 479.829 1743.4 485.119 1744.34 489.968C1745.28 495.037 1743.17 501.98 1739.4 505.396L1736.58 508.041L1742.34 516.086L1748.1 524.021L1742.23 524.351C1735.64 524.682 1735.29 524.462 1729.88 515.425C1727.18 510.907 1726.35 510.245 1722.83 510.245H1718.95V517.409V524.572H1713.66H1708.36V500.878V477.184H1718.12C1723.41 477.184 1729.76 477.735 1732.11 478.286ZM1228.66 551.241C1228.66 553.445 1228.54 553.445 1226.42 551.682C1224.31 549.919 1224.07 549.919 1221.72 552.784C1220.31 554.437 1217.25 561.49 1214.9 568.543C1207.5 590.804 1202.32 597.637 1193.15 597.086C1190.45 596.976 1188.21 596.204 1187.86 595.433C1186.8 593.009 1188.57 592.457 1190.8 594.331C1193.5 596.645 1195.62 596.645 1198.79 594.221C1201.62 592.127 1205.14 586.176 1205.14 583.641C1205.14 580.996 1200.56 568.874 1196.68 561.49C1192.92 554.107 1190.56 552.013 1187.74 552.894C1186.21 553.445 1186.1 553.225 1187.04 552.233C1187.74 551.462 1190.45 550.58 1192.92 550.249C1198.68 549.588 1201.5 551.682 1205.03 559.286C1211.26 572.621 1210.08 572.29 1214.31 561.6C1218.31 551.902 1221.13 548.817 1225.95 548.817C1227.95 548.817 1228.66 549.478 1228.66 551.241ZM1357.4 549.919C1357.87 550.58 1357.87 551.902 1357.52 552.784C1356.93 554.327 1356.46 554.217 1354.7 552.123C1351.64 548.486 1348.94 550.249 1348.35 556.09C1348 560.609 1348.23 560.939 1350.82 560.939C1352.35 560.939 1353.29 561.27 1352.82 561.711C1352.35 562.151 1351.17 562.592 1350.11 562.592C1348.59 562.592 1348.23 564.245 1348.35 573.062C1348.59 588.711 1345.53 594 1335.65 595.653C1330.95 596.425 1326.48 594.111 1328.01 591.796C1328.72 590.694 1329.3 590.804 1330.48 592.237C1332.48 594.882 1337.06 594 1338.83 590.694C1339.77 588.931 1340.35 583.2 1340.35 574.935C1340.35 562.372 1340.24 562.041 1337.77 561.931L1335.06 561.711L1337.77 561.27C1339.77 560.939 1340.35 560.058 1340.35 557.523C1340.35 552.453 1344.94 548.817 1351.41 548.817C1354.35 548.817 1357.05 549.368 1357.4 549.919ZM1404.79 556.311C1405.14 562.482 1405.37 563.253 1407.14 562.482C1408.2 562.041 1410.78 561.49 1412.78 561.27C1415.72 560.829 1416.54 561.27 1417.72 563.694C1419.84 568.102 1419.48 579.784 1417.13 582.98C1412.9 588.821 1407.37 590.804 1410.43 585.404C1412.55 581.547 1412.66 568.653 1410.43 565.898C1409.02 564.135 1408.55 564.025 1406.9 565.237C1405.61 566.229 1405.02 569.094 1404.79 575.596C1404.79 575.609 1404.79 575.622 1404.78 575.634C1404.43 584.523 1404.43 584.633 1401.26 584.964L1397.97 585.294V569.976V554.658L1395.03 553.445C1393.38 552.674 1390.91 552.123 1389.74 552.123C1387.62 552.123 1387.39 553.225 1387.15 568.323L1386.8 584.633H1383.27H1379.74L1379.39 568.213L1379.04 551.902L1375.86 552.674C1370.92 553.776 1367.4 556.311 1367.4 558.735C1367.4 560.609 1367.99 560.829 1370.34 560.278C1372.81 559.727 1373.28 559.947 1373.28 561.821C1373.28 564.686 1371.51 565.678 1368.1 564.906C1364.69 564.135 1363.52 559.727 1365.87 556.531C1368.81 552.564 1374.57 550.69 1386.21 549.919C1405.37 548.596 1404.43 548.155 1404.79 556.311ZM1314.49 550.47C1314.49 550.8 1313.67 552.343 1312.61 553.776C1310.02 557.413 1309.2 571.409 1311.2 576.809C1313.08 581.988 1315.43 583.531 1319.54 582.539C1323.66 581.658 1325.42 575.817 1324.84 564.906C1324.48 558.184 1323.89 556.09 1321.9 554.107C1319.78 552.123 1319.07 552.013 1317.55 553.225C1315.08 554.988 1315.19 558.625 1317.66 561.16C1319.43 563.033 1319.43 563.143 1317.08 563.143C1313.67 563.143 1312.37 558.294 1314.61 554.437C1315.9 552.233 1317.43 551.462 1321.07 551.241C1324.84 551.021 1326.25 551.462 1328.95 553.996C1334.83 559.837 1335.42 572.841 1330.01 579.564C1323.31 588.16 1307.55 586.617 1303.2 576.919C1301.08 571.96 1301.08 562.813 1303.32 558.735C1305.67 554.547 1314.49 548.045 1314.49 550.47ZM1489.32 552.674C1494.5 555.539 1496.14 559.066 1496.14 567C1496.14 578.792 1488.5 585.735 1476.04 584.964L1470.28 584.633L1469.69 568.653L1469.1 552.674L1466.28 553.004C1462.52 553.335 1460.28 555.209 1460.28 557.853C1460.28 559.727 1460.87 559.947 1463.34 559.396C1465.93 558.735 1466.28 558.955 1465.93 561.16C1465.34 565.017 1459.58 565.347 1457.69 561.49C1456.52 559.066 1456.75 558.184 1458.75 555.649C1460.05 553.996 1462.87 552.013 1465.1 551.241C1470.75 549.368 1484.85 550.139 1489.32 552.674ZM1569.63 558.404C1569.63 559.396 1568.8 561.049 1567.86 562.041C1566.45 563.474 1566.33 564.576 1567.27 566.89C1569.86 573.502 1564.69 579.674 1556.58 579.674C1551.87 579.674 1550.46 581.106 1553.87 582.319C1554.93 582.649 1557.52 582.98 1559.63 582.98C1566.33 582.98 1569.63 584.964 1569.63 589.041C1569.63 591.025 1568.8 593.229 1567.86 594C1565.39 595.874 1551.75 596.755 1548.7 595.213C1545.64 593.67 1545.29 590.143 1548.11 588.6C1549.87 587.719 1549.87 587.388 1548.58 585.845C1547.29 584.413 1547.29 583.421 1548.23 581.327C1549.29 579.123 1549.17 577.8 1547.64 574.825C1545.52 570.417 1546.23 566.339 1549.87 562.923C1551.99 560.939 1553.28 560.719 1559.28 561.27C1566.22 561.821 1566.33 561.821 1565.63 559.176C1565.04 557.082 1565.28 556.531 1567.27 556.531C1568.69 556.531 1569.63 557.302 1569.63 558.404ZM1238.65 563.143C1241.24 565.788 1240.3 567 1232.77 571.519C1229.83 573.172 1227.48 574.935 1227.48 575.376C1227.48 575.706 1228.66 577.47 1230.07 579.123C1232.19 581.657 1233.13 581.988 1236.54 581.547C1239.95 580.996 1240.42 581.106 1239.24 582.429C1237.24 584.633 1230.19 585.735 1226.9 584.302C1220.9 581.658 1218.19 574.053 1221.25 567.992C1224.66 561.38 1234.3 558.735 1238.65 563.143ZM1260.99 562.702C1262.87 564.025 1263.46 565.898 1263.81 573.062C1264.05 578.021 1264.75 581.878 1265.34 581.878C1266.05 581.878 1265.93 582.539 1265.11 583.531C1263.34 585.515 1259.11 585.735 1257.11 583.862C1256.05 582.87 1255.35 582.87 1254.29 583.862C1252.17 585.845 1246.88 585.404 1244.65 583.09C1243.12 581.547 1242.77 580.004 1243.36 577.58C1243.94 574.935 1245.35 573.723 1249.94 571.739C1254.17 569.866 1255.7 568.653 1255.7 566.89C1255.7 563.915 1253.11 561.821 1250.53 562.702C1248.41 563.474 1248.06 564.907 1249.82 565.898C1251.7 567 1248.88 569.755 1246.77 568.984C1244.41 568.213 1244.65 564.245 1247.24 562.482C1249.94 560.498 1258.05 560.609 1260.99 562.702ZM1277.81 562.813C1278.86 564.466 1279.1 564.466 1280.98 562.702C1283.57 560.278 1286.74 560.829 1287.21 563.915C1287.56 565.788 1287.09 566.119 1285.33 565.678C1284.04 565.458 1281.92 565.678 1280.51 566.339C1278.28 567.441 1278.04 568.653 1278.04 576.368V585.184H1274.51H1270.99V574.715C1270.99 566.119 1270.63 564.025 1269.1 563.474C1267.58 562.923 1267.58 562.702 1268.87 561.931C1271.46 560.278 1276.63 560.829 1277.81 562.813ZM1441.94 562.702C1445.11 565.678 1444.17 567.111 1436.65 571.298C1432.42 573.502 1431.24 574.715 1431.71 576.368C1432.77 580.335 1436.3 582.209 1441.12 581.547L1445.58 580.776L1442.06 582.98C1437.24 585.955 1431.83 585.735 1427.6 582.429C1418.78 575.486 1424.77 561.049 1436.41 560.939C1438.41 560.939 1441 561.711 1441.94 562.702ZM1509.43 562.813C1510.49 564.466 1510.72 564.466 1512.6 562.702C1515.19 560.278 1518.36 560.829 1518.83 563.804C1519.19 565.788 1518.72 566.009 1515.78 565.568C1511.07 565.017 1509.78 567 1509.43 576.368C1509.08 584.523 1508.96 584.633 1505.9 584.964L1502.61 585.294V574.715C1502.61 566.119 1502.26 564.025 1500.73 563.474C1499.2 562.923 1499.2 562.702 1500.49 561.931C1503.08 560.278 1508.25 560.829 1509.43 562.813ZM1538.47 563.694C1541.06 566.009 1541.41 567.331 1541.41 574.053C1541.41 579.123 1541.88 581.878 1542.94 582.208C1543.76 582.429 1542.94 583.311 1541.06 584.192C1538.47 585.294 1537.18 585.294 1535.53 584.302C1533.88 583.421 1532.47 583.421 1529.89 584.302C1524.36 586.286 1520.24 584.082 1520.24 579.233C1520.24 576.368 1521.07 574.935 1523.54 573.282C1525.3 572.07 1527.77 570.968 1528.95 570.747C1532.24 570.086 1534 566.89 1532.47 564.466C1530.94 562.151 1528.48 561.711 1526.12 563.143C1524.6 564.025 1524.6 564.355 1526.01 565.237C1527.77 566.339 1526.95 569.755 1524.95 569.755C1524.24 569.755 1523.18 568.653 1522.6 567.221C1520.13 561.27 1532.94 558.404 1538.47 563.694ZM1589.5 562.592C1593.96 564.686 1595.49 569.094 1594.2 575.817C1593.61 578.792 1593.02 581.217 1592.79 581.327C1592.67 581.437 1591.26 582.319 1589.61 583.311C1579.15 590.033 1567.51 577.69 1573.74 566.449C1576.8 560.829 1582.91 559.396 1589.5 562.592ZM1607.25 562.592C1608.66 564.135 1609.01 564.135 1610.78 562.592C1613.25 560.498 1617.13 560.498 1619.36 562.592C1621.71 564.686 1622.89 571.96 1621.95 577.47C1621.12 582.208 1615.83 588.49 1612.66 588.49C1610.9 588.49 1610.89 588.27 1612.54 585.955C1613.6 584.302 1614.42 580.555 1614.42 576.147C1614.54 567.772 1613.6 564.245 1611.37 564.245C1608.54 564.245 1607.25 568.213 1607.25 576.919V585.294L1604.08 584.964L1600.78 584.633L1600.43 573.833C1600.2 567.551 1599.61 563.143 1598.9 563.143C1598.2 563.143 1598.08 562.592 1598.43 562.041C1599.61 560.388 1605.6 560.719 1607.25 562.592Z" fill="url(#paint9_linear_12_93)"/>
<path d="M1096.39 478.727C1101.09 480.6 1101.09 480.6 1098.62 485.56C1096.74 489.196 1096.62 489.196 1093.33 487.654C1085.57 483.796 1075.58 486.882 1071.93 494.045C1064.99 507.6 1079.81 520.935 1093.92 514.102C1095.8 513.111 1097.45 512.56 1097.56 512.67C1098.5 513.772 1101.8 520.384 1101.44 520.715C1096.15 525.013 1080.98 526.004 1073.58 522.478C1067.93 519.723 1062.41 513.772 1060.53 508.482C1057.7 500.768 1061.11 487.653 1067.23 482.474C1073.22 477.404 1088.04 475.531 1096.39 478.727Z" fill="url(#paint10_linear_12_93)"/>
<path d="M1119.31 486.551V495.919H1130.48H1141.65V486.551V477.184H1146.94H1152.23V500.988V524.682L1147.3 524.351L1142.24 524.021L1141.89 514.874L1141.54 505.837H1130.48H1119.31V515.204V524.572H1114.14C1107.67 524.572 1108.03 526.115 1108.5 498.343L1108.85 477.184H1114.02H1119.31V486.551Z" fill="url(#paint11_linear_12_93)"/>
<path d="M1172.46 478.286C1172.69 478.837 1172.69 489.527 1172.46 501.98L1172.11 524.572H1166.93H1161.64V500.878V477.184H1166.81C1169.64 477.184 1172.22 477.625 1172.46 478.286Z" fill="url(#paint12_linear_12_93)"/>
<path d="M1188.45 479.829C1190.8 481.813 1198.68 488.425 1205.73 494.266L1218.66 505.066L1219.02 491.07L1219.37 477.184H1224.54H1229.83V501.429C1229.83 514.764 1229.48 525.674 1229.13 525.674C1228.78 525.674 1220.78 519.502 1211.38 511.898C1202.09 504.294 1193.86 498.123 1193.27 498.123C1192.68 498.123 1192.21 504.074 1192.21 511.347V524.572H1187.51H1182.8V500.327C1182.8 486.992 1183.04 476.082 1183.39 476.082C1183.75 476.082 1186.1 477.735 1188.45 479.829Z" fill="url(#paint13_linear_12_93)"/>
<path d="M1274.51 481.592V485.89L1261.93 486.221L1249.23 486.551V490.96V495.368L1260.4 495.919L1271.57 496.47V500.878V505.286L1260.05 505.617L1248.53 505.947L1248.88 510.576L1249.23 515.204L1262.52 515.535L1275.69 515.866V520.164V524.572H1257.46H1239.24V500.878V477.184H1256.88H1274.51V481.592Z" fill="url(#paint14_linear_12_93)"/>
<path d="M1309.55 479.388L1314.61 481.482L1312.72 484.898C1311.2 487.764 1310.37 488.205 1308.26 487.433C1306.85 486.992 1302.73 486.551 1299.2 486.551C1292.85 486.551 1292.74 486.551 1292.74 489.858C1292.74 492.833 1293.56 493.494 1301.79 497.351C1308.61 500.547 1311.2 502.421 1312.61 505.066C1314.61 509.143 1314.25 514.874 1311.67 518.511C1307.43 524.572 1292.74 526.556 1282.98 522.368L1277.92 520.274L1279.8 516.858C1281.92 513.111 1282.51 513 1288.27 515.204C1293.33 517.188 1295.79 517.298 1299.79 515.535C1302.14 514.543 1302.73 513.551 1302.5 511.458C1302.26 509.143 1300.61 507.821 1294.5 504.956C1290.39 502.972 1285.8 500.327 1284.39 499.115C1278.63 494.045 1280.27 483.576 1287.68 479.388C1292.74 476.523 1302.73 476.523 1309.55 479.388Z" fill="url(#paint15_linear_12_93)"/>
<path d="M1355.64 481.592V485.89L1343.65 486.221L1331.54 486.551L1331.18 491.18L1330.83 495.919H1342.12H1353.41L1353.05 500.547L1352.7 505.286L1341.88 505.617L1330.95 505.947V510.135C1330.95 515.315 1332.01 515.755 1346.59 515.755H1356.82V520.164V524.572H1338.59H1320.37V500.878V477.184H1338H1355.64V481.592Z" fill="url(#paint16_linear_12_93)"/>
<path d="M1402.32 490.409L1419.72 504.845L1420.07 490.96L1420.42 477.074L1425.36 477.405L1430.3 477.735L1430.65 499.225C1430.89 511.127 1430.53 521.817 1430.06 523.249C1429.12 525.453 1427.95 524.682 1412.31 511.898C1403.14 504.294 1395.14 498.123 1394.67 498.123C1394.2 498.123 1393.73 503.964 1393.62 511.127L1393.5 524.021L1388.68 524.351L1383.86 524.682V500.437C1383.86 486.992 1384.09 476.082 1384.33 476.082C1384.56 476.082 1392.68 482.584 1402.32 490.409Z" fill="url(#paint17_linear_12_93)"/>
<path d="M1475.8 481.592L1475.33 486H1463.1H1450.88V490.96V495.809L1461.81 496.139L1472.63 496.47V500.878V505.286L1461.81 505.617L1450.88 505.947V510.906C1450.88 514.213 1451.35 515.756 1452.4 515.645C1453.11 515.535 1458.99 515.535 1465.34 515.645L1476.74 515.755V520.164V524.572H1458.52H1440.29V500.878V477.184H1458.28H1476.27L1475.8 481.592Z" fill="url(#paint18_linear_12_93)"/>
<path d="M1495.67 490.298C1498.49 497.572 1501.08 503.302 1501.43 503.082C1501.9 502.862 1503.67 499.115 1505.43 494.817C1508.72 486.992 1508.72 486.551 1505.55 479.058C1504.84 477.515 1505.43 477.184 1509.43 477.184C1512.01 477.184 1514.6 477.845 1515.19 478.507C1515.78 479.278 1518.6 485.009 1521.3 491.18C1524.12 497.462 1526.59 502.531 1526.83 502.531C1527.06 502.531 1529.06 496.8 1531.41 489.858L1535.65 477.184H1541.06C1545.99 477.184 1546.35 477.405 1545.76 479.609C1545.05 482.584 1528.95 521.817 1527.42 524.241C1526.71 525.453 1524.83 522.258 1520.72 513.111C1517.54 506.058 1514.72 500.327 1514.37 500.327C1514.01 500.327 1510.6 506.168 1506.84 513.221C1502.02 522.368 1499.79 525.674 1499.08 524.572C1496.38 519.943 1480.27 481.372 1480.27 479.388C1480.27 477.515 1480.97 477.184 1485.44 477.184H1490.62L1495.67 490.298Z" fill="url(#paint19_linear_12_93)"/>
<path d="M1584.68 487.764L1590.44 498.343L1593.26 493.604C1594.9 490.96 1597.49 486.111 1599.02 483.025L1601.96 477.184H1608.19C1611.48 477.184 1614.3 477.515 1614.3 477.845C1614.3 478.396 1605.25 494.045 1598.55 504.735C1596.08 508.702 1595.49 511.127 1595.49 517.078V524.572H1590.2H1584.91V516.968C1584.91 509.694 1584.56 508.923 1577.39 496.911C1573.39 489.968 1569.04 482.694 1567.98 480.711L1565.98 477.184H1572.45H1578.8L1584.68 487.764Z" fill="url(#paint20_linear_12_93)"/>
<path d="M1655.46 481.592V486H1642.52H1629.59V490.96V495.919H1640.76H1651.93V500.878V505.837H1640.64H1629.47L1629.82 510.466L1630.18 515.204L1642.88 515.535L1655.46 515.866V520.164V524.572H1637.23H1619.01V500.878V477.184H1637.23H1655.46V481.592Z" fill="url(#paint21_linear_12_93)"/>
<path d="M1685.67 484.568C1689.79 492.943 1699.78 513.772 1703.19 520.935L1704.84 524.572H1698.61H1692.37L1690.61 519.833L1688.73 515.204L1680.26 514.874L1671.92 514.543L1669.57 519.613C1667.45 524.351 1667.1 524.572 1662.51 524.572C1659.92 524.572 1657.81 524.131 1657.81 523.47C1657.81 522.919 1661.81 514.102 1666.74 503.964C1671.68 493.715 1676.74 483.356 1678.03 480.711C1679.21 478.176 1680.5 476.082 1680.85 476.082C1681.09 476.082 1683.32 479.939 1685.67 484.568Z" fill="url(#paint22_linear_12_93)"/>
<path d="M1732.11 478.286C1737.88 479.829 1743.4 485.119 1744.34 489.968C1745.28 495.037 1743.17 501.98 1739.4 505.396L1736.58 508.041L1742.34 516.086L1748.1 524.021L1742.23 524.351C1735.64 524.682 1735.29 524.462 1729.88 515.425C1727.18 510.907 1726.35 510.245 1722.83 510.245H1718.95V517.409V524.572H1713.66H1708.36V500.878V477.184H1718.12C1723.41 477.184 1729.76 477.735 1732.11 478.286Z" fill="url(#paint23_linear_12_93)"/>
<path d="M1228.66 551.241C1228.66 553.445 1228.54 553.445 1226.42 551.682C1224.31 549.919 1224.07 549.919 1221.72 552.784C1220.31 554.437 1217.25 561.49 1214.9 568.543C1207.5 590.804 1202.32 597.637 1193.15 597.086C1190.45 596.976 1188.21 596.204 1187.86 595.433C1186.8 593.009 1188.57 592.457 1190.8 594.331C1193.5 596.645 1195.62 596.645 1198.79 594.221C1201.62 592.127 1205.14 586.176 1205.14 583.641C1205.14 580.996 1200.56 568.874 1196.68 561.49C1192.92 554.107 1190.56 552.013 1187.74 552.894C1186.21 553.445 1186.1 553.225 1187.04 552.233C1187.74 551.462 1190.45 550.58 1192.92 550.249C1198.68 549.588 1201.5 551.682 1205.03 559.286C1211.26 572.621 1210.08 572.29 1214.31 561.6C1218.31 551.902 1221.13 548.817 1225.95 548.817C1227.95 548.817 1228.66 549.478 1228.66 551.241Z" fill="url(#paint24_linear_12_93)"/>
<path d="M1238.65 563.143C1241.24 565.788 1240.3 567 1232.77 571.519C1229.83 573.172 1227.48 574.935 1227.48 575.376C1227.48 575.706 1228.66 577.47 1230.07 579.123C1232.19 581.657 1233.13 581.988 1236.54 581.547C1239.95 580.996 1240.42 581.106 1239.24 582.429C1237.24 584.633 1230.19 585.735 1226.9 584.302C1220.9 581.658 1218.19 574.053 1221.25 567.992C1224.66 561.38 1234.3 558.735 1238.65 563.143Z" fill="url(#paint25_linear_12_93)"/>
<path d="M1260.99 562.702C1262.87 564.025 1263.46 565.898 1263.81 573.062C1264.05 578.021 1264.75 581.878 1265.34 581.878C1266.05 581.878 1265.93 582.539 1265.11 583.531C1263.34 585.515 1259.11 585.735 1257.11 583.862C1256.05 582.87 1255.35 582.87 1254.29 583.862C1252.17 585.845 1246.88 585.404 1244.65 583.09C1243.12 581.547 1242.77 580.004 1243.36 577.58C1243.94 574.935 1245.35 573.723 1249.94 571.739C1254.17 569.866 1255.7 568.653 1255.7 566.89C1255.7 563.915 1253.11 561.821 1250.53 562.702C1248.41 563.474 1248.06 564.907 1249.82 565.898C1251.7 567 1248.88 569.755 1246.77 568.984C1244.41 568.213 1244.65 564.245 1247.24 562.482C1249.94 560.498 1258.05 560.609 1260.99 562.702Z" fill="url(#paint26_linear_12_93)"/>
<path d="M1277.81 562.813C1278.86 564.466 1279.1 564.466 1280.98 562.702C1283.57 560.278 1286.74 560.829 1287.21 563.915C1287.56 565.788 1287.09 566.119 1285.33 565.678C1284.04 565.458 1281.92 565.678 1280.51 566.339C1278.28 567.441 1278.04 568.653 1278.04 576.368V585.184H1274.51H1270.99V574.715C1270.99 566.119 1270.63 564.025 1269.1 563.474C1267.58 562.923 1267.58 562.702 1268.87 561.931C1271.46 560.278 1276.63 560.829 1277.81 562.813Z" fill="url(#paint27_linear_12_93)"/>
<path d="M1314.49 550.47C1314.49 550.8 1313.67 552.343 1312.61 553.776C1310.02 557.413 1309.2 571.409 1311.2 576.809C1313.08 581.988 1315.43 583.531 1319.54 582.539C1323.66 581.658 1325.42 575.817 1324.84 564.906C1324.48 558.184 1323.89 556.09 1321.9 554.107C1319.78 552.123 1319.07 552.013 1317.55 553.225C1315.08 554.988 1315.19 558.625 1317.66 561.16C1319.43 563.033 1319.43 563.143 1317.08 563.143C1313.67 563.143 1312.37 558.294 1314.61 554.437C1315.9 552.233 1317.43 551.462 1321.07 551.241C1324.84 551.021 1326.25 551.462 1328.95 553.996C1334.83 559.837 1335.42 572.841 1330.01 579.564C1323.31 588.16 1307.55 586.617 1303.2 576.919C1301.08 571.96 1301.08 562.813 1303.32 558.735C1305.67 554.547 1314.49 548.045 1314.49 550.47Z" fill="url(#paint28_linear_12_93)"/>
<path d="M1357.4 549.919C1357.87 550.58 1357.87 551.902 1357.52 552.784C1356.93 554.327 1356.46 554.217 1354.7 552.123C1351.64 548.486 1348.94 550.249 1348.35 556.09C1348 560.609 1348.23 560.939 1350.82 560.939C1352.35 560.939 1353.29 561.27 1352.82 561.711C1352.35 562.151 1351.17 562.592 1350.11 562.592C1348.59 562.592 1348.23 564.245 1348.35 573.062C1348.59 588.711 1345.53 594 1335.65 595.653C1330.95 596.425 1326.48 594.111 1328.01 591.796C1328.72 590.694 1329.3 590.804 1330.48 592.237C1332.48 594.882 1337.06 594 1338.83 590.694C1339.77 588.931 1340.35 583.2 1340.35 574.935C1340.35 562.372 1340.24 562.041 1337.77 561.931L1335.06 561.711L1337.77 561.27C1339.77 560.939 1340.35 560.058 1340.35 557.523C1340.35 552.453 1344.94 548.817 1351.41 548.817C1354.35 548.817 1357.05 549.368 1357.4 549.919Z" fill="url(#paint29_linear_12_93)"/>
<path d="M1404.79 556.311C1405.14 562.482 1405.37 563.253 1407.14 562.482C1408.2 562.041 1410.78 561.49 1412.78 561.27C1415.72 560.829 1416.54 561.27 1417.72 563.694C1419.84 568.102 1419.48 579.784 1417.13 582.98C1412.9 588.821 1407.37 590.804 1410.43 585.404C1412.55 581.547 1412.66 568.653 1410.43 565.898C1409.02 564.135 1408.55 564.025 1406.9 565.237C1405.61 566.229 1405.02 569.094 1404.79 575.596L1404.78 575.634C1404.43 584.523 1404.43 584.633 1401.26 584.964L1397.97 585.294V569.976V554.658L1395.03 553.445C1393.38 552.674 1390.91 552.123 1389.74 552.123C1387.62 552.123 1387.39 553.225 1387.15 568.323L1386.8 584.633H1383.27H1379.74L1379.39 568.213L1379.04 551.902L1375.86 552.674C1370.92 553.776 1367.4 556.311 1367.4 558.735C1367.4 560.609 1367.99 560.829 1370.34 560.278C1372.81 559.727 1373.28 559.947 1373.28 561.821C1373.28 564.686 1371.51 565.678 1368.1 564.906C1364.69 564.135 1363.52 559.727 1365.87 556.531C1368.81 552.564 1374.57 550.69 1386.21 549.919C1405.37 548.596 1404.43 548.155 1404.79 556.311Z" fill="url(#paint30_linear_12_93)"/>
<path d="M1441.94 562.702C1445.11 565.678 1444.17 567.111 1436.65 571.298C1432.42 573.502 1431.24 574.715 1431.71 576.368C1432.77 580.335 1436.3 582.209 1441.12 581.547L1445.58 580.776L1442.06 582.98C1437.24 585.955 1431.83 585.735 1427.6 582.429C1418.78 575.486 1424.77 561.049 1436.41 560.939C1438.41 560.939 1441 561.711 1441.94 562.702Z" fill="url(#paint31_linear_12_93)"/>
<path d="M1489.32 552.674C1494.5 555.539 1496.14 559.066 1496.14 567C1496.14 578.792 1488.5 585.735 1476.04 584.964L1470.28 584.633L1469.69 568.653L1469.1 552.674L1466.28 553.004C1462.52 553.335 1460.28 555.209 1460.28 557.853C1460.28 559.727 1460.87 559.947 1463.34 559.396C1465.93 558.735 1466.28 558.955 1465.93 561.16C1465.34 565.017 1459.58 565.347 1457.69 561.49C1456.52 559.066 1456.75 558.184 1458.75 555.649C1460.05 553.996 1462.87 552.013 1465.1 551.241C1470.75 549.368 1484.85 550.139 1489.32 552.674Z" fill="url(#paint32_linear_12_93)"/>
<path d="M1538.47 563.694C1541.06 566.009 1541.41 567.331 1541.41 574.053C1541.41 579.123 1541.88 581.878 1542.94 582.208C1543.76 582.429 1542.94 583.311 1541.06 584.192C1538.47 585.294 1537.18 585.294 1535.53 584.302C1533.88 583.421 1532.47 583.421 1529.89 584.302C1524.36 586.286 1520.24 584.082 1520.24 579.233C1520.24 576.368 1521.07 574.935 1523.54 573.282C1525.3 572.07 1527.77 570.968 1528.95 570.747C1532.24 570.086 1534 566.89 1532.47 564.466C1530.94 562.151 1528.48 561.711 1526.12 563.143C1524.6 564.025 1524.6 564.355 1526.01 565.237C1527.77 566.339 1526.95 569.755 1524.95 569.755C1524.24 569.755 1523.18 568.653 1522.6 567.221C1520.13 561.27 1532.94 558.404 1538.47 563.694Z" fill="url(#paint33_linear_12_93)"/>
<path d="M1509.43 562.813C1510.49 564.466 1510.72 564.466 1512.6 562.702C1515.19 560.278 1518.36 560.829 1518.83 563.804C1519.19 565.788 1518.72 566.009 1515.78 565.568C1511.07 565.017 1509.78 567 1509.43 576.368C1509.08 584.523 1508.96 584.633 1505.9 584.964L1502.61 585.294V574.715C1502.61 566.119 1502.26 564.025 1500.73 563.474C1499.2 562.923 1499.2 562.702 1500.49 561.931C1503.08 560.278 1508.25 560.829 1509.43 562.813Z" fill="url(#paint34_linear_12_93)"/>
<path d="M1569.63 558.404C1569.63 559.396 1568.8 561.049 1567.86 562.041C1566.45 563.474 1566.33 564.576 1567.27 566.89C1569.86 573.502 1564.69 579.674 1556.58 579.674C1551.87 579.674 1550.46 581.106 1553.87 582.319C1554.93 582.649 1557.52 582.98 1559.63 582.98C1566.33 582.98 1569.63 584.964 1569.63 589.041C1569.63 591.025 1568.8 593.229 1567.86 594C1565.39 595.874 1551.75 596.755 1548.7 595.213C1545.64 593.67 1545.29 590.143 1548.11 588.6C1549.87 587.719 1549.87 587.388 1548.58 585.845C1547.29 584.413 1547.29 583.421 1548.23 581.327C1549.29 579.123 1549.17 577.8 1547.64 574.825C1545.52 570.417 1546.23 566.339 1549.87 562.923C1551.99 560.939 1553.28 560.719 1559.28 561.27C1566.22 561.821 1566.33 561.821 1565.63 559.176C1565.04 557.082 1565.28 556.531 1567.27 556.531C1568.69 556.531 1569.63 557.302 1569.63 558.404Z" fill="url(#paint35_linear_12_93)"/>
<path d="M1589.5 562.592C1593.96 564.686 1595.49 569.094 1594.2 575.817C1593.61 578.792 1593.02 581.217 1592.79 581.327C1592.67 581.437 1591.26 582.319 1589.61 583.311C1579.15 590.033 1567.51 577.69 1573.74 566.449C1576.8 560.829 1582.91 559.396 1589.5 562.592Z" fill="url(#paint36_linear_12_93)"/>
<path d="M1607.25 562.592C1608.66 564.135 1609.01 564.135 1610.78 562.592C1613.25 560.498 1617.13 560.498 1619.36 562.592C1621.71 564.686 1622.89 571.96 1621.95 577.47C1621.12 582.208 1615.83 588.49 1612.66 588.49C1610.9 588.49 1610.89 588.27 1612.54 585.955C1613.6 584.302 1614.42 580.555 1614.42 576.147C1614.54 567.772 1613.6 564.245 1611.37 564.245C1608.54 564.245 1607.25 568.213 1607.25 576.919V585.294L1604.08 584.964L1600.78 584.633L1600.43 573.833C1600.2 567.551 1599.61 563.143 1598.9 563.143C1598.2 563.143 1598.08 562.592 1598.43 562.041C1599.61 560.388 1605.6 560.719 1607.25 562.592Z" fill="url(#paint37_linear_12_93)"/>
<path d="M516.154 173.682C482.645 177.099 440.436 187.899 407.868 201.454C383.177 211.703 354.254 227.462 336.029 240.466C279.241 280.911 238.207 331.494 211.753 393.649C208.461 401.364 205.756 407.976 205.756 408.307C205.756 408.637 207.285 408.196 209.284 407.204C211.165 406.323 214.222 405.551 216.103 405.551C219.277 405.551 219.865 404.89 223.863 395.633C226.332 390.123 228.801 385.715 229.389 385.715C232.093 385.715 245.732 392.327 245.732 393.649C245.732 394.531 244.909 396.294 243.851 397.617C242.44 399.6 242.322 400.482 243.38 401.694C245.261 403.788 250.788 401.804 252.786 398.388C253.609 396.845 254.785 395.633 255.373 395.633C255.843 395.633 256.314 394.2 256.314 392.437C256.314 387.919 258.547 382.519 261.017 381.307C262.78 380.425 272.186 365.768 271.246 365.327C271.128 365.217 267.483 363.123 263.133 360.588C258.783 358.054 254.55 355.96 253.727 355.96C252.904 355.96 250.2 359.486 247.731 363.674L243.263 371.388L248.554 373.813C254.315 376.347 254.903 377.449 252.434 380.645C251.023 382.409 250.435 382.298 242.44 378.992C237.854 377.009 233.974 375.025 233.974 374.364C233.974 372.821 248.201 347.364 249.729 346.151C250.552 345.6 256.314 348.135 265.72 353.425C273.832 357.943 280.887 362.021 281.357 362.572C281.945 363.013 281.475 364.776 280.416 366.319C277.83 369.956 278.418 370.617 283.238 369.074C285.237 368.413 288.059 368.082 289.352 368.413C291.233 368.853 292.997 367.09 298.876 358.935C345.671 293.474 415.628 249.723 499.106 233.743C532.615 227.352 575.882 227.131 613.389 233.082C641.254 237.601 677.232 249.172 702.863 261.845C737.195 278.927 773.408 306.698 797.746 334.47C823.143 363.454 844.776 401.033 854.77 433.102C856.181 437.621 858.062 443.572 858.885 446.327C863.353 460.323 867.233 484.237 868.409 504.735L869.232 517.409L874.993 523.249L880.872 529.09L880.402 509.694C880.049 493.164 880.284 490.409 881.813 490.409C882.753 490.298 890.748 489.637 899.449 488.866C908.149 487.984 915.674 487.653 916.144 488.094C916.615 488.425 917.32 496.139 917.791 505.066L918.614 521.266H908.385H898.273V518.07C898.273 514.874 898.508 514.764 904.505 514.433L910.618 514.102L910.266 505.286C910.031 500.437 909.56 496.249 909.325 495.919C908.62 495.368 901.33 495.698 893.1 496.58L887.456 497.241L888.279 510.135C888.632 517.409 888.514 529.641 887.691 538.788C886.986 547.494 886.633 554.878 887.103 555.209C888.044 556.2 907.679 558.515 908.149 557.743C908.385 557.413 908.972 553.004 909.443 547.935L910.266 538.898H904.505C897.685 538.898 897.215 538.678 898.038 534.931C898.508 532.286 898.743 532.176 908.149 532.506L917.673 532.837L917.32 541.653C917.085 546.502 916.497 553.666 915.909 557.633C915.321 561.6 914.734 565.017 914.734 565.457C914.734 565.898 879.344 562.151 878.638 561.6C878.403 561.49 878.991 555.649 879.696 548.706C880.402 541.653 880.637 534.821 880.284 533.278C879.461 530.523 871.819 522.368 869.937 522.368C869.35 522.368 868.879 525.674 868.879 529.751C868.644 575.155 851.243 630.037 823.378 672.686C801.509 706.078 764.238 742.225 729.435 763.825C689.695 788.51 642.665 804.821 595.4 810.221C579.527 811.984 536.142 811.984 520.857 810.221C443.493 801.074 373.418 765.919 322.861 710.817C303.226 689.217 293.82 676.433 281.239 653.51C259.606 614.057 248.789 574.715 247.26 529.531C246.437 505.947 249.024 477.184 253.492 459.992C254.08 458.009 253.492 457.568 250.2 457.127C248.083 456.796 245.497 456.245 244.438 455.804C242.91 455.143 242.205 456.576 240.676 464.18C239.618 469.249 238.089 480.931 237.266 490.188C236.561 499.445 235.62 507.38 235.15 507.931C234.562 508.813 199.878 507.38 198.819 506.388C197.996 505.506 201.053 475.641 202.229 474.539C202.699 474.098 207.05 474.098 211.87 474.539L220.453 475.531L220.806 479.168L221.159 482.915L214.81 482.143L208.461 481.372L207.755 487.323C207.285 490.519 206.932 494.817 206.932 496.69V500.327L215.75 500.547C220.571 500.658 225.509 500.768 226.685 500.768C228.331 500.878 228.683 499.776 228.919 495.368C229.506 485.119 234.327 457.347 237.031 448.2C237.619 446.658 236.796 446.327 231.976 446.327C226.92 446.327 225.979 445.886 222.687 442.249C220.688 440.045 218.572 438.613 217.867 438.943C216.691 439.604 212.811 452.939 212.811 456.135C212.811 456.686 215.515 457.458 218.69 457.898C223.04 458.449 224.568 459.111 224.568 460.433C224.451 464.731 222.922 465.282 215.045 463.96C202.464 461.866 203.405 463.188 205.874 451.617C207.167 446.107 207.99 441.478 207.873 441.368C204.698 439.604 197.408 437.951 196.821 438.833C195.41 440.817 190.472 466.164 188.59 480.821C184.946 508.372 186.004 547.384 191.177 576.919C199.642 625.188 221.159 675.772 250.435 716.327C269.012 742.114 306.283 779.143 332.149 797.437C386.939 836.229 445.139 858.6 514.979 867.527C532.497 869.731 587.17 869.4 605.511 866.976C637.962 862.567 662.418 856.727 690.518 846.808C740.37 829.065 788.34 799.2 825.964 762.282C884.164 705.417 918.966 636.429 928.372 559.066C930.959 538.127 930.959 501.87 928.372 481.592C921.318 424.507 900.507 372.049 865.705 323.78C857.004 311.658 849.597 302.731 836.311 288.515C804.566 254.462 759.064 222.833 714.856 203.988C708.742 201.343 702.158 198.588 700.159 197.707C684.287 190.874 645.369 180.294 623.735 176.878C591.52 171.809 547.782 170.486 516.154 173.682ZM582.349 185.694C582.349 186.907 581.879 194.731 581.408 202.996L580.585 218.205H559.304C547.547 218.205 530.851 218.976 521.798 219.968C512.745 220.96 505.102 221.401 504.632 221.07C503.809 220.188 498.283 188.339 498.988 187.678C499.694 187.017 525.208 184.041 530.616 184.041H534.966V189.221C534.966 192.196 535.319 196.384 535.672 198.588L536.495 202.776H532.145C528.029 202.776 527.912 202.666 527.912 198.588C527.912 191.866 527.089 191.315 516.86 192.307C506.631 193.188 507.219 192.196 509.335 205.311L510.746 213.907L514.861 213.245C524.972 211.703 543.784 210.49 558.129 210.49H573.648L574.001 200.572L574.354 190.654H566.476C562.244 190.654 557.893 190.323 556.835 189.992C555.307 189.441 554.954 190.323 554.954 195.503V201.674H550.839H546.724V192.196V182.829L564.713 183.16C581.761 183.49 582.584 183.601 582.349 185.694ZM621.149 188.119C630.555 189.552 632.554 190.213 632.083 191.645C631.848 192.637 630.908 196.715 630.202 200.792C628.909 207.294 628.438 208.286 626.205 208.286C621.737 208.286 620.914 206.964 621.972 201.674C622.56 198.919 622.56 196.384 622.207 196.054C620.678 194.841 605.159 192.747 604.336 193.629C603.395 194.621 600.926 211.703 601.514 212.805C601.749 213.245 606.334 214.127 611.625 214.898C623.03 216.441 647.133 221.621 655.363 224.266C662.065 226.47 661.83 226.69 665.945 215.119L668.884 207.074L665.71 205.862C662.3 204.65 651.366 201.674 649.955 201.674C649.367 201.674 649.014 202.556 649.014 203.768C649.014 204.87 648.426 207.294 647.721 209.168C646.545 212.254 646.075 212.584 643.37 212.033C639.02 211.041 639.138 211.152 640.784 205.311C644.076 193.299 644.311 192.858 647.133 193.299C655.481 194.731 678.408 201.784 678.408 202.886C678.408 204.429 667.591 233.082 666.65 234.074C666.062 234.515 661.595 233.743 656.421 232.09C643.488 228.123 624.794 224.156 608.333 221.952C600.691 220.85 593.871 219.637 593.401 219.307C592.46 218.535 595.4 190.433 596.811 186.466C597.399 184.813 601.396 185.033 621.149 188.119ZM486.643 197.817C487.348 201.454 488.877 208.617 490.17 213.796C491.464 218.976 492.051 223.494 491.699 223.825C491.228 224.266 486.878 225.368 482.058 226.47C467.126 229.666 453.957 233.633 437.026 239.915C428.091 243.221 420.566 245.756 420.448 245.535C419.743 244.764 405.634 216.001 405.634 215.45C405.634 214.017 433.852 202.776 437.614 202.776C438.79 202.776 439.731 203.437 439.731 204.209C439.731 204.98 441.024 208.837 442.67 212.694C444.316 216.552 445.374 219.858 445.257 220.078C445.021 220.188 443.258 220.629 441.377 221.07C438.085 221.621 437.732 221.401 436.203 217.103C435.38 214.678 434.205 212.364 433.852 212.143C432.558 211.372 417.156 217.433 416.568 218.866C415.98 220.409 423.976 235.837 425.504 235.837C425.974 235.837 430.207 234.405 434.675 232.641C443.258 229.335 471.711 221.07 479.001 219.858C481.352 219.417 483.233 218.645 483.233 218.205C483.233 216.882 479.824 201.454 479.118 199.801C478.765 198.809 476.414 199.029 470.182 200.682C465.479 201.894 461.247 203.107 460.776 203.437C460.306 203.658 460.659 206.192 461.717 208.947C463.716 214.458 462.893 216.001 457.955 216.001C455.956 216.001 455.133 214.458 453.017 207.515C451.488 202.776 450.783 198.699 451.253 198.258C451.723 197.927 457.367 196.274 463.833 194.621C481.94 190.213 483.821 189.772 484.644 190.543C485.115 190.874 485.938 194.18 486.643 197.817ZM698.043 209.278C707.684 212.805 724.262 220.739 724.262 221.731C724.262 222.282 722.381 226.139 720.029 230.327L715.797 238.041L712.387 236.388C708.86 234.625 708.86 233.192 712.152 228.674C712.975 227.462 713.68 225.919 713.68 225.258C713.68 224.156 699.689 217.103 697.337 217.103C696.279 217.103 688.99 232.09 688.99 234.074C689.107 234.735 696.397 238.703 705.332 242.78C714.386 246.968 726.143 253.029 731.552 256.335C736.843 259.641 741.781 262.176 742.486 261.956C743.544 261.625 751.187 252.037 753.656 247.849C754.596 246.307 753.421 245.094 747.424 241.458C743.309 238.923 739.312 236.939 738.606 236.939C737.901 236.939 736.137 238.923 734.844 241.347C732.14 246.307 731.434 246.527 727.907 243.772L725.555 241.898L730.023 234.956C732.492 231.209 734.844 227.792 735.197 227.462C735.549 227.131 737.43 227.682 739.429 228.674C742.369 230.107 760.24 240.686 764.708 243.662C765.884 244.543 745.778 272.205 743.897 272.205C743.309 272.205 740.135 270.441 736.843 268.237C727.437 261.845 704.157 249.723 691.694 244.654C685.345 242.119 679.701 239.584 679.231 239.143C678.408 238.482 691.106 207.294 692.164 207.184C692.282 207.184 694.986 208.176 698.043 209.278ZM401.284 235.727C405.634 243.552 409.161 250.384 409.161 250.935C409.161 251.376 407.162 252.809 404.811 254.021C390.584 261.074 372.83 272.094 358.016 283.115C352.255 287.413 347.081 290.829 346.729 290.609C345.553 290.278 323.331 265.482 323.331 264.711C323.331 263.939 339.439 251.707 346.611 246.968C348.728 245.645 350.961 244.654 351.549 244.874C352.137 245.094 355.077 248.401 357.898 252.258L363.189 259.311L360.485 261.294C358.839 262.507 357.428 263.388 357.075 263.388C356.84 263.388 355.077 261.405 353.313 258.98C351.549 256.556 349.786 254.572 349.315 254.572C348.963 254.572 345.318 256.996 341.203 259.972L333.795 265.372L340.497 272.976C344.26 277.054 347.434 280.69 347.552 280.911C347.787 281.131 350.491 279.368 353.548 276.943C362.366 270.221 374.594 262.176 387.057 255.013C393.406 251.486 398.579 247.96 398.579 247.409C398.579 246.747 396.463 242.67 393.759 238.262L389.056 230.217L383.177 233.303C380.002 234.956 376.24 237.16 374.947 238.152L372.36 239.915L375.417 244.654L378.474 249.392L375.535 251.596C372.125 254.021 372.36 254.241 365.893 244.543L361.19 237.27L370.126 232.311C384.823 224.156 389.644 221.731 391.525 221.621C392.583 221.621 396.228 226.801 401.284 235.727ZM785.283 258.319C789.516 261.515 795.748 266.364 798.922 269.119L804.801 274.188L798.334 280.58C794.807 284.217 791.633 287.082 791.28 287.082C790.927 287.082 789.399 286.2 787.753 285.209L784.931 283.225L788.693 279.588C790.81 277.605 792.456 275.4 792.456 274.739C792.456 273.527 781.639 264.27 779.287 263.498C777.994 263.058 774.702 266.474 768.823 274.188L765.296 278.817L769.176 281.903C777.994 288.735 787.87 297.441 798.452 307.911C808.916 318.16 809.974 318.821 811.973 317.388C813.266 316.507 817.029 313.641 820.321 310.996L826.435 306.147L819.733 299.094L813.031 292.041L808.681 296.119L804.213 300.196L801.626 297.772L798.922 295.347L806.094 288.625L813.266 281.903L819.733 288.405C823.378 291.931 828.316 297 830.667 299.756C833.019 302.511 835.488 304.825 836.076 305.045C838.427 305.927 836.546 307.8 823.025 318.49L808.916 329.621L805.154 325.433C796.571 315.956 775.877 296.78 766.001 288.956C760.24 284.437 755.302 280.249 755.067 279.809C754.832 279.368 759.064 273.858 764.238 267.686C769.528 261.405 774.467 255.454 775.172 254.352C775.995 253.249 776.818 252.368 777.053 252.368C777.288 252.368 781.051 255.013 785.283 258.319ZM332.502 293.364L337.793 298.543L328.505 307.69C317.335 318.711 302.521 335.241 294.878 345.27C291.704 349.347 288.882 352.654 288.294 352.654C287.824 352.654 281.357 348.686 273.95 343.837C266.543 338.988 260.076 335.021 259.606 335.021C259.018 335.021 258.665 334.47 258.665 333.809C258.665 332.376 267.248 320.805 274.538 312.209L279.476 306.588L287.236 312.209C291.468 315.405 294.996 318.16 294.996 318.49C294.996 318.821 294.055 320.254 292.762 321.576L290.41 324.221L285.825 320.805C283.356 318.931 281.004 317.388 280.652 317.388C279.946 317.388 270.54 329.07 269.835 330.943C269.129 332.596 285.237 343.176 286.883 342.184C287.589 341.743 291.233 337.556 295.113 332.817C303.931 321.907 309.81 315.515 319.569 306.037L327.211 298.543L319.686 291.38L312.044 284.217L305.342 290.498L298.523 296.89L302.991 301.078C307.224 305.156 307.224 305.266 305.107 307.47C303.931 308.682 302.638 309.674 302.168 309.674C301.698 309.674 298.053 306.919 294.055 303.613L286.765 297.552L299.464 285.319L312.162 273.196L319.569 280.69C323.684 284.768 329.445 290.498 332.502 293.364ZM857.004 332.266L866.528 345.38L858.65 350.119C854.418 352.764 850.185 354.858 849.479 354.858C848.774 354.858 847.481 353.645 846.775 352.213C845.599 349.678 845.835 349.237 850.538 346.482L855.593 343.507L852.536 338.878C850.89 336.454 848.421 332.927 847.01 331.274L844.541 328.078L836.781 333.258C832.431 336.123 828.551 338.988 828.198 339.649C827.846 340.2 830.08 344.278 833.137 348.576C841.014 359.596 853.124 379.653 855.476 385.384C856.534 387.919 857.827 390.123 858.298 390.123C859.238 390.123 876.874 382.96 877.697 382.188C878.638 381.417 870.29 365.878 868.879 365.878C868.291 365.878 866.058 366.87 863.941 368.082C858.885 370.947 857.827 370.837 856.181 367.641C855.005 365.107 855.241 364.666 858.65 362.792C866.528 358.384 872.407 355.629 872.877 356.07C874.053 357.172 887.691 383.951 887.691 385.164C887.691 385.935 886.28 387.147 884.517 387.698C882.636 388.249 875.228 391.335 868.056 394.311L854.77 399.931L845.835 383.4C840.779 374.253 832.313 360.588 826.905 352.984C821.614 345.49 817.146 338.878 817.146 338.327C817.146 337.776 820.438 335.131 824.318 332.596C828.316 329.951 833.254 326.756 835.253 325.433C837.252 324.111 840.544 321.796 842.425 320.254C844.424 318.821 846.305 317.939 846.775 318.27C847.246 318.711 851.831 324.992 857.004 332.266ZM899.802 414.037C902.741 422.413 904.74 429.576 904.387 430.017C903.211 431.009 886.398 435.527 885.81 434.976C885.457 434.645 885.105 433.102 884.987 431.449C884.752 428.694 885.34 428.253 890.278 426.931L895.686 425.388L894.511 421.2C893.453 417.674 890.043 408.858 889.455 407.976C889.22 407.756 868.879 414.368 868.879 414.698C868.879 414.809 870.408 419.217 872.407 424.617C875.934 434.535 880.637 451.617 883.106 463.629C884.282 469.58 884.87 470.572 886.986 470.572C891.101 470.572 904.74 468.258 905.563 467.486C906.268 466.715 903.682 452.609 902.388 450.735C902.035 450.294 899.331 450.404 896.392 450.956C892.042 451.837 890.748 451.727 889.925 450.625C887.339 446.768 888.75 445.445 897.215 443.682C901.8 442.69 906.268 441.919 907.091 441.919C908.972 441.919 915.792 472.115 914.263 473.547C913.558 474.209 879.108 479.388 878.638 478.947C878.403 478.727 877.227 473.217 875.934 466.604C872.994 451.727 867.586 432.662 863.001 420.76C861.002 415.8 859.473 411.502 859.473 411.062C859.473 410.731 862.53 409.409 866.293 408.086C869.937 406.653 876.992 404.119 881.813 402.356C886.633 400.482 891.454 399.049 892.629 399.049C894.04 398.939 895.804 402.686 899.802 414.037ZM235.973 530.082C236.326 548.045 239.971 576.368 243.38 587.278C244.321 590.474 244.203 590.694 240.088 591.686C237.737 592.347 234.445 593.008 232.799 593.339C231.152 593.67 225.156 594.992 219.395 596.204C211.282 597.968 208.696 598.188 207.99 597.196C206.932 595.433 202.229 572.18 202.229 568.323C202.229 565.127 204.816 564.245 215.75 563.915C221.276 563.694 221.629 563.804 221.982 566.67C222.334 569.535 221.982 569.755 216.456 570.417C211.988 570.968 210.459 571.629 210.577 572.951C210.694 577.58 213.634 588.931 214.692 589.262C215.397 589.482 220.1 588.711 225.274 587.608C232.916 585.845 234.562 585.074 234.445 583.421C234.327 582.208 233.151 574.384 231.858 565.898C230.565 557.413 229.036 545.4 228.683 539.339L227.86 528.098L223.628 527.437C216.808 526.445 207.167 526.666 206.344 527.878C205.874 528.539 205.991 532.947 206.462 537.796L207.285 546.613L213.516 545.951L219.865 545.18V548.596C219.865 552.343 219.63 552.453 206.227 553.666L200.23 554.217L199.407 547.494C199.055 543.747 198.702 536.143 198.702 530.413V520.053L217.279 520.384L235.738 520.715L235.973 530.082ZM895.216 576.478C902.388 577.69 909.208 578.902 910.383 579.233C912.97 580.004 912.852 580.996 908.032 599.841L904.975 611.853L901.095 611.082C898.979 610.751 894.628 609.759 891.454 608.878C885.81 607.225 885.575 607.004 886.398 604.139C887.103 602.045 888.044 601.274 889.573 601.494C890.748 601.604 893.688 602.045 895.922 602.376L900.037 603.037L901.448 595.874C902.271 592.017 903.211 588.049 903.564 587.168C904.152 585.735 902.388 585.074 895.099 583.531C882.165 580.996 882.636 580.996 881.695 584.633C877.933 598.188 870.643 621.441 867.704 628.604C865.822 633.453 864.411 637.531 864.529 637.641C866.645 639.184 884.282 645.355 884.752 644.694C885.81 643.151 891.219 629.266 891.219 628.274C891.219 627.723 888.867 626.731 885.928 625.959C880.519 624.527 879.461 622.764 881.695 619.457C882.636 618.025 884.164 618.135 891.689 620.449C896.627 621.882 900.625 623.315 900.625 623.755C900.625 625.629 889.102 654.613 888.397 654.613C888.279 654.613 883.694 652.849 878.285 650.645C872.759 648.441 865.705 645.686 862.413 644.474C859.238 643.261 856.064 641.939 855.593 641.498C855.123 641.057 855.711 638.413 857.004 635.657C863.353 621.772 872.642 592.017 875.346 577.139C876.051 573.172 876.287 572.951 879.108 573.613C880.872 573.943 888.044 575.266 895.216 576.478ZM253.139 619.347C256.549 628.715 263.015 643.482 267.483 652.188C271.833 660.784 275.243 668.057 275.008 668.278C273.362 669.49 243.145 684.478 242.91 684.147C242.205 683.486 228.096 655.053 228.096 654.502C228.096 653.731 245.732 646.457 246.32 647.008C246.555 647.229 247.025 648.772 247.495 650.315C248.201 652.739 247.731 653.4 243.498 655.164C240.794 656.266 238.677 657.808 238.677 658.69C238.677 660.013 245.144 673.127 246.32 674.229C247.025 674.89 264.544 665.523 264.544 664.421C264.544 663.87 262.545 659.351 259.958 654.392C255.373 645.025 245.967 623.204 243.38 615.711C242.557 613.176 241.264 611.633 240.088 611.633C237.972 611.633 229.859 613.837 224.333 615.931L221.159 617.033L224.098 625.408C225.744 629.927 227.86 633.674 228.683 633.674C229.506 633.674 232.093 632.902 234.327 632.021C238.325 630.478 238.677 630.478 239.853 632.682C240.558 633.894 241.029 635.437 240.794 636.098C240.088 637.862 224.098 643.592 222.922 642.49C222.334 641.939 219.513 634.886 216.691 626.951C212.928 615.931 211.988 612.074 213.046 611.523C213.869 610.972 218.572 609.649 223.51 608.327C228.331 607.115 235.268 605.131 238.795 604.029C242.322 602.817 245.497 601.935 245.967 602.045C246.555 602.155 249.729 609.98 253.139 619.347ZM866.175 659.572C874.758 663.539 881.813 667.066 881.813 667.286C881.813 669.931 866.528 695.388 864.999 695.388C862.883 695.388 848.892 687.453 848.892 686.241C848.892 685.47 849.715 684.037 850.538 682.935C852.184 680.951 852.419 681.061 857.122 683.927C859.944 685.69 862.295 686.572 863.001 685.91C865.587 683.486 872.407 670.702 871.584 669.931C871.113 669.49 866.528 667.396 861.59 665.192L852.536 661.335L847.481 669.821C841.014 680.841 836.076 688.225 826.905 700.127C822.79 705.417 819.498 710.045 819.498 710.266C819.498 710.817 835.606 722.939 836.429 722.939C836.781 722.939 839.486 719.633 842.543 715.666L848.186 708.282L845.247 706.078C843.718 704.976 841.367 703.212 840.073 702.441C837.84 700.898 837.84 700.898 840.309 698.474L842.895 696.049L850.655 701.008C854.888 703.653 858.298 706.078 858.298 706.408C858.298 707.07 845.129 724.151 840.544 729.441L837.604 732.968L823.26 722.388C815.383 716.547 808.916 711.368 808.916 710.817C808.916 710.266 809.504 709.494 810.092 709.163C814.089 706.849 837.369 673.898 844.776 660.123C847.01 655.825 849.244 652.408 849.715 652.408C850.185 652.408 857.592 655.604 866.175 659.572ZM288.176 686.241C297.582 699.355 307.576 711.478 318.276 722.608C323.684 728.119 328.034 733.078 328.034 733.519C328.034 734.4 303.814 756.331 302.168 756.882C301.345 757.212 286.413 742.445 280.887 735.833L278.3 732.637L281.71 729.992C283.591 728.559 287.001 725.804 289.352 724.041L293.585 720.845L296.171 723.38L298.758 725.915L294.055 729.551C291.351 731.425 289.235 733.408 289.235 733.739C289.352 734.18 292.174 737.486 295.701 741.012L302.05 747.625L309.693 741.012C313.808 737.486 317.217 734.07 317.335 733.629C317.335 733.078 313.69 728.67 309.105 723.71C304.519 718.751 296.642 709.494 291.704 703.212C277.83 685.58 279.241 686.902 276.654 688.886C275.478 689.878 271.716 692.082 268.424 693.845C265.014 695.608 262.192 697.812 262.192 698.804C262.192 700.127 269.247 710.045 272.069 712.69C272.304 712.91 274.773 711.808 277.359 710.155C282.062 707.29 282.298 707.29 284.532 709.163C285.825 710.266 286.765 711.588 286.648 712.029C286.178 713.131 271.833 722.939 270.658 722.939C269.835 722.939 250.317 696.27 250.788 695.829C251.493 695.278 281.592 677.755 281.827 677.755C281.945 677.755 284.884 681.612 288.176 686.241ZM814.795 732.196C821.849 738.147 827.728 743.437 827.728 743.768C827.728 744.208 822.202 749.608 815.5 755.89L803.155 767.351L796.688 760.959C793.043 757.433 790.104 754.237 790.104 753.796C790.104 753.355 791.162 752.143 792.573 750.931C794.925 748.947 795.042 748.947 798.922 753.135L802.802 757.433L805.624 755.339C807.152 754.237 810.445 751.151 812.914 748.506L817.499 743.768L810.092 737.486C805.977 734.07 802.332 731.094 801.979 730.984C801.626 730.763 795.16 736.163 787.753 742.776C780.345 749.498 769.881 758.094 764.59 761.841C759.299 765.588 755.184 769.225 755.419 769.886C756.713 773.523 767.295 785.755 768.588 785.204C770.939 784.433 782.932 775.396 782.932 774.514C783.05 774.074 781.404 771.98 779.287 769.776L775.642 765.808L778.229 763.384L780.816 760.959L784.813 765.368C787.165 767.792 789.986 771.098 791.28 772.751L793.631 775.727L780.698 785.425C773.526 790.714 767.295 795.233 766.707 795.453C766.119 795.674 761.886 790.714 757.065 784.433C752.362 778.151 747.424 771.98 746.249 770.657C744.955 769.225 744.015 767.902 744.367 767.682C744.603 767.461 747.189 765.698 750.129 763.825C760.828 756.661 777.406 742.996 788.576 732.086C794.925 725.915 800.451 720.955 800.921 721.066C801.391 721.176 807.623 726.245 814.795 732.196ZM366.246 763.714C372.007 767.792 381.766 773.963 387.645 777.38C397.756 783.331 398.462 783.882 397.168 786.086C395.758 788.621 380.825 812.535 380.238 813.086C379.415 814.078 352.607 798.208 351.079 795.894C350.726 795.343 352.843 791.596 355.782 787.629C361.073 780.465 361.19 780.355 364.012 782.119C367.54 784.212 367.54 784.212 363.777 789.172C362.131 791.486 361.073 793.8 361.426 794.351C361.778 794.902 365.541 797.437 369.656 799.861L377.181 804.27L382.589 795.563C385.528 790.825 387.998 786.747 387.998 786.417C387.998 786.196 384.47 783.882 380.12 781.237C370.596 775.727 357.546 766.69 346.258 757.874L338.146 751.372L330.621 758.976L323.214 766.47L330.033 772.2C333.795 775.396 337.44 778.041 338.028 778.041C338.734 778.041 340.85 776.278 342.849 774.074C346.141 770.327 346.611 770.106 348.963 771.539C350.374 772.421 351.549 773.523 351.549 773.963C351.549 775.286 340.85 787.959 339.674 787.959C338.734 787.959 324.86 777.71 316.982 771.098L312.279 767.241L323.919 755.339C330.268 748.727 336.029 742.996 336.735 742.555C337.323 742.225 341.791 745.09 346.729 749.168C351.667 753.135 360.367 759.747 366.246 763.714ZM744.25 789.502C749.423 797.327 753.538 803.829 753.421 803.939C747.072 808.457 724.497 820.139 723.439 819.478C722.851 819.257 720.617 815.731 718.383 811.653C714.386 804.49 714.268 804.27 716.502 802.727C719.912 800.412 720.382 800.743 723.204 805.812C724.615 808.457 725.908 810.772 726.143 810.992C726.614 811.433 743.074 802.286 743.074 801.625C743.074 800.743 733.198 785.645 732.257 785.094C731.787 784.763 728.26 786.086 724.615 788.07C710.623 795.233 696.397 802.065 687.226 805.592C682.053 807.686 677.35 809.67 676.879 810C675.939 810.772 681.347 825.87 683.346 828.404C684.169 829.286 686.638 828.735 692.87 826.2C697.573 824.327 701.57 822.674 701.805 822.453C702.158 822.233 701.217 819.808 699.689 817.053C698.278 814.188 697.22 811.763 697.455 811.653C698.631 810.772 703.334 808.788 703.686 809.119C704.509 809.89 711.329 824.216 711.329 825.208C711.329 825.759 709.33 827.082 706.979 827.963C704.509 828.955 697.455 831.71 691.341 834.135C685.227 836.449 679.819 838.102 679.348 837.661C678.525 837 669.472 814.629 667.356 808.237C666.65 806.143 667.473 805.592 673.94 803.388C684.874 799.641 712.975 786.637 723.674 780.465C728.847 777.38 733.433 774.955 733.903 775.065C734.374 775.176 739.077 781.678 744.25 789.502ZM449.137 805.372C456.544 807.906 466.538 810.992 471.241 812.204C475.826 813.416 479.706 815.07 479.706 815.731C479.706 819.368 470.888 847.47 469.83 847.47C467.949 847.47 448.666 842.29 442.435 840.196C439.613 839.204 437.379 837.992 437.379 837.551C437.379 837 438.79 833.033 440.436 828.735C443.258 821.792 443.846 821.021 446.08 821.682C450.077 822.784 450.43 823.665 448.314 828.514C447.138 831.38 446.785 833.584 447.491 834.135C448.078 834.686 452.429 836.119 457.014 837.331L465.597 839.535L466.773 835.568C467.361 833.363 468.654 829.065 469.595 825.98C470.653 823.004 471.006 820.249 470.535 819.808C470.065 819.478 462.893 817.053 454.663 814.519C446.315 811.874 433.734 807.355 426.445 804.38C419.273 801.404 413.276 798.98 413.041 798.98C412.688 798.98 403.282 816.392 403.282 817.163C403.282 817.935 418.567 824.327 420.331 824.327C421.154 824.327 422.682 822.123 423.74 819.368C426.092 813.747 425.739 813.968 429.619 815.621C432.323 816.833 432.441 817.053 430.912 820.91C430.089 823.114 428.326 826.972 427.15 829.506L424.916 834.025L414.334 829.947C399.99 824.216 393.876 821.241 393.876 819.698C393.876 819.037 397.404 811.874 401.636 803.829L409.396 789.392L422.565 795.123C429.737 798.319 441.729 802.947 449.137 805.372ZM657.832 819.588C659.478 824.988 661.83 832.261 663.005 835.898C665.122 842.51 665.122 842.51 662.653 843.392C659.478 844.604 633.612 850.776 631.848 850.776C631.143 850.776 629.614 846.919 628.556 842.29C627.028 835.568 626.91 833.694 628.086 832.923C631.731 830.829 633.494 832.041 634.905 837.551C635.728 840.527 636.669 843.061 637.021 843.061C637.374 843.061 641.842 841.959 647.015 840.747C654.423 838.874 656.186 837.992 655.716 836.559C655.363 835.568 653.952 831.38 652.659 827.192C651.366 823.004 649.955 819.368 649.602 819.037C649.367 818.706 643.37 819.808 636.434 821.351C622.912 824.327 616.093 825.539 598.692 827.743L587.757 829.065L588.463 838.543C588.933 843.723 589.639 848.461 590.227 848.902C590.697 849.453 595.282 849.453 600.338 848.902C610.567 847.91 609.979 848.572 608.803 839.204C608.451 836.339 608.803 835.898 611.625 835.568C615.035 835.237 615.388 835.788 616.681 844.163C617.151 846.919 617.739 850.004 617.974 850.996C618.327 852.098 617.739 853.09 616.446 853.421C611.39 854.853 584.936 857.278 583.995 856.396C582.819 855.294 579.527 824.327 580.468 822.894C580.703 822.453 582.819 822.123 585.171 822.123C593.636 822.123 623.735 817.384 637.609 813.857C645.487 811.874 652.541 810.221 653.364 810.11C654.187 810 656.069 814.298 657.832 819.588ZM510.276 820.029C518.976 821.241 535.554 822.563 546.959 822.894L567.77 823.555L568.122 840.527L568.475 857.498L550.839 857.167L533.203 856.837L533.32 851.327C533.673 837.882 533.438 838.653 537.318 838.653C540.845 838.653 540.845 838.763 540.845 844.604V850.445L550.016 851.106C554.954 851.437 559.539 851.327 560.01 850.886C560.48 850.335 560.833 845.596 560.598 840.196L560.245 830.388L542.609 829.616C532.968 829.286 521.798 828.404 517.918 827.853C514.038 827.192 507.924 826.421 504.397 825.98L497.813 825.319L495.814 834.465C494.756 839.535 493.815 844.163 493.815 844.825C493.815 845.596 496.754 846.478 500.634 846.808C504.279 847.249 508.747 847.8 510.393 848.131C513.333 848.682 513.568 848.351 514.391 843.392C515.449 836.67 515.449 836.67 519.094 837.331L522.151 837.882L521.445 846.257C520.975 850.886 520.269 854.963 519.799 855.404C519.094 856.176 500.399 854.082 490.876 852.098C486.525 851.216 486.173 850.886 486.408 847.58C486.761 840.086 491.699 817.714 493.11 817.714C493.815 817.714 501.575 818.706 510.276 820.029Z" fill="url(#paint38_linear_12_93)"/>
<path d="M520.387 237.49C497.695 240.135 462.658 248.621 443.963 256.225C386.469 279.368 340.497 314.523 306.518 361.25L299.816 370.396L302.756 374.033C304.402 376.017 306.048 379.213 306.4 381.086C307.106 384.062 307.694 384.613 310.633 384.613C318.511 384.613 324.507 390.564 324.507 398.168V402.025L330.974 402.466C337.558 403.017 343.319 406.323 343.319 409.629C343.319 411.833 345.2 411.392 347.669 408.527C352.725 402.796 366.952 391.335 376.358 385.605C398.226 372.05 428.914 361.139 460.776 355.519C475.473 352.874 475.944 352.984 483.821 359.927C501.81 375.686 532.497 387.037 574.354 393.429C596.575 396.735 607.04 402.025 617.151 414.809C623.97 423.294 624.088 424.507 618.327 427.592C607.863 432.992 599.162 444.564 597.634 454.703L596.928 459.662L610.449 459.331L623.97 459L619.267 463.298C616.681 465.723 613.036 470.903 611.037 474.87C607.98 480.931 607.275 483.796 606.922 492.392L606.452 502.751L603.277 502.09C601.631 501.649 594.224 501.098 587.052 500.658C572.002 499.886 562.126 501.539 549.193 507.049C540.257 510.907 539.787 510.907 542.726 507.931C552.015 498.233 579.997 486 593.048 486C600.926 486 601.749 484.458 595.282 481.813C582.114 476.523 576.235 475.531 559.657 475.641C546.018 475.641 542.373 476.082 533.438 478.617C523.914 481.372 510.393 487.323 500.987 492.833L497.107 495.147L499.106 491.511C504.867 481.151 526.618 465.282 541.433 460.654C548.017 458.67 544.49 457.347 532.027 457.347C503.103 457.347 479.118 465.723 461.364 482.143C432.206 509.143 425.504 549.698 444.433 585.294C463.716 621.772 496.989 645.025 548.017 657.808C596.223 669.821 663.005 668.608 726.026 654.502C738.371 651.747 739.076 651.857 731.316 655.274C686.403 674.89 640.196 683.376 586.111 681.833C528.735 680.29 478.765 664.641 442.552 636.87C399.167 603.698 378.239 550.029 387.88 496.8C394.111 463.188 407.28 440.045 432.558 418.445C443.728 408.968 455.485 401.474 473.122 392.768C479.471 389.682 484.174 386.817 483.586 386.486C480.882 384.943 460.424 384.503 447.961 385.715C422.917 388.139 396.58 394.641 372.007 404.56C352.255 412.384 343.437 417.233 343.319 419.988C343.319 420.319 347.081 420.98 351.667 421.311C356.487 421.641 362.131 422.964 365.188 424.286L370.361 426.711L379.532 421.2C390.349 414.698 402.342 408.968 414.569 404.449C424.916 400.482 452.311 393.098 454.192 393.76C454.898 393.98 452.076 395.743 447.843 397.837C404.105 419.107 377.181 454.703 369.891 500.658C361.19 554.878 380.355 607.666 422.447 645.466C463.363 682.274 520.975 700.788 594.342 700.898C619.032 700.898 639.138 699.025 665.122 694.176C703.804 687.123 735.196 675.111 768.117 655.053C776.348 649.984 783.049 646.127 783.049 646.568C783.049 648.551 769.881 663.319 760.475 671.804C747.542 683.486 740.252 688.666 726.026 696.821C706.626 707.841 684.169 716.657 662.535 721.727C628.673 729.772 589.991 729.772 560.833 721.837C552.485 719.523 550.721 719.743 554.954 722.719C565.888 729.992 588.345 737.817 607.863 741.013C630.672 744.759 629.732 744.319 617.857 745.861C601.866 747.955 565.888 748.727 548.84 747.294C520.857 744.98 497.46 739.249 474.18 729C439.26 713.572 412.806 691.2 392.23 659.792C389.056 655.164 385.999 650.976 385.293 650.535C383.53 649.543 385.176 663.539 388.115 673.347C392.465 688.445 402.224 704.535 415.392 718.972C420.331 724.372 420.918 725.253 418.449 724.592C409.984 722.168 386.116 703.984 369.421 687.233C340.732 658.36 324.389 617.253 324.272 573.613C324.272 555.76 326.388 541.764 331.561 526.776C333.443 521.045 335.089 516.086 335.089 515.866C335.089 514.764 326.741 526.005 322.273 532.947C314.513 545.4 308.869 561.38 305.107 582.429C304.049 588.16 302.873 586.066 300.522 574.274C298.17 562.592 298.053 539.449 300.404 526.005C305.225 498.233 318.275 473.988 340.144 452.278C346.141 446.327 349.903 441.919 348.61 442.36C344.26 443.903 336.735 444.343 332.62 443.352C329.092 442.36 328.387 442.58 326.506 444.784C325.448 446.107 322.978 447.539 321.097 447.98C318.863 448.421 316.747 449.964 315.219 452.388C311.574 458.229 307.576 460.103 298.053 460.213C293.114 460.213 288.059 460.984 285.472 462.086C283.003 463.188 280.181 463.96 279.005 463.96C275.831 463.96 267.013 459.551 265.602 457.237C265.014 456.135 263.956 455.143 263.368 455.143C259.253 455.143 253.139 508.151 254.55 530.633C257.959 582.539 270.422 622.984 295.701 663.429C306.048 679.959 311.809 687.674 326.271 703.653C368.95 750.71 422.447 782.008 486.408 797.217C511.216 803.168 531.204 805.151 564.36 804.931C597.399 804.71 630.672 799.09 661.83 788.4C675.939 783.551 707.919 768.894 719.559 761.951C782.462 724.261 829.727 665.743 850.067 600.282C857.122 577.47 861.59 550.69 861.942 528.98L862.177 518.511L856.769 518.18C844.776 517.409 834.195 523.58 830.667 533.278C827.023 543.637 817.499 553.335 807.858 556.421C801.979 558.184 794.925 557.964 786.459 555.429C771.057 551.021 756.595 539.67 738.489 517.629C727.907 504.735 722.263 499.886 711.094 494.045L703.686 490.298L710.153 490.96C719.324 491.841 728.142 496.249 736.019 503.743C739.664 507.38 743.074 510.245 743.427 510.245C745.19 510.245 741.545 502.862 737.195 497.351C734.491 494.156 732.492 490.96 732.727 490.298C733.668 487.764 745.19 500.878 753.421 513.882C768.353 537.245 777.994 545.29 794.454 547.935C802.214 549.147 803.508 549.037 808.563 547.053C813.501 545.18 814.912 543.858 819.85 536.143C822.907 531.294 827.493 525.013 830.197 522.037C838.31 513.221 849.95 509.253 859.003 512.449L862.177 513.662L861.472 501.539C857.474 436.078 825.729 369.405 776.113 322.237C725.085 273.637 665.239 245.646 594.577 237.49C577.058 235.507 538.376 235.507 520.387 237.49ZM486.173 343.396C492.757 349.568 497.107 352.433 505.69 356.401C520.152 363.013 526.501 364.445 553.19 366.98C587.405 370.286 627.263 375.686 635.963 378.221C656.539 384.172 674.057 396.294 680.054 408.858C681.817 412.494 682.876 416.021 682.523 416.572C682.17 417.233 678.408 417.674 674.175 417.674C664.534 417.674 657.362 414.478 650.307 406.984C639.608 395.743 638.197 394.421 637.609 394.972C635.846 396.625 653.011 416.462 657.832 418.335C662.77 420.209 692.517 421.641 692.517 419.988C692.517 417.013 688.872 411.062 683.111 404.56L676.879 397.507L681.582 398.168C689.812 399.38 717.443 408.417 728.965 413.596C751.187 423.625 758.359 429.796 756.713 437.952C756.125 441.037 756.595 442.139 760.357 445.996C763.414 449.082 766.589 450.956 769.999 451.837C772.938 452.498 777.876 454.372 781.051 455.915C785.754 458.339 788.693 458.89 797.394 459.111C805.036 459.331 809.269 459.992 812.914 461.645C819.263 464.621 820.556 464.511 825.847 461.205C828.198 459.662 830.432 458.449 830.667 458.449C831.02 458.449 831.255 460.213 831.255 462.307C831.255 466.605 828.669 472.335 826.317 473.107C825.141 473.437 825.494 474.87 827.493 478.727C831.138 485.89 830.785 488.645 825.847 493.494C823.495 495.698 820.438 500.107 818.91 503.192C816.793 507.6 805.389 521.596 805.389 519.723C805.389 519.502 807.035 515.756 808.916 511.568C810.915 507.27 812.443 501.87 812.443 499.666V495.588L807.035 496.36C803.978 496.69 800.568 497.021 799.392 497.021C798.099 497.021 793.749 501.649 787.752 509.253C779.169 520.164 771.292 527.217 770.351 524.792C770.234 524.241 771.645 520.274 773.643 515.866C775.642 511.458 777.641 505.507 777.994 502.641L778.582 497.351L773.526 496.139C769.763 495.258 766.824 493.384 762.944 489.637C758.594 485.449 755.89 483.796 749.305 481.813C739.899 479.058 734.961 478.837 728.377 481.041C719.206 484.127 713.68 483.135 705.45 476.633C700.629 472.776 699.806 472.556 694.045 472.996C690.635 473.327 687.461 473.878 686.991 474.319C685.815 475.421 696.632 505.837 702.393 517.409C707.566 527.658 720.97 544.409 724.144 544.409C724.967 544.409 728.847 541.433 732.61 537.686L739.664 531.074L738.841 540C737.901 549.698 738.606 551.021 743.779 551.021C746.366 551.021 753.538 544.409 753.773 541.874C753.773 541.102 754.361 541.764 755.067 543.307C756.83 547.494 756.595 561.049 754.714 564.796C753.538 567.331 751.657 568.543 747.542 569.645C743.779 570.747 741.663 571.96 741.193 573.502C739.899 577.36 733.903 583.751 730.141 585.184C724.967 587.168 724.732 585.955 729.318 581.437C732.962 578.021 735.784 572.4 734.491 571.298C734.256 571.078 733.08 572.511 731.904 574.494C729.788 578.241 722.381 583.862 721.205 582.649C720.852 582.319 722.381 579.233 724.732 575.927C727.554 571.739 728.495 569.535 727.554 569.315C713.798 565.678 709.683 561.931 705.332 548.927C702.04 538.898 700.041 536.584 685.697 526.445C660.771 508.923 638.785 502.531 621.266 507.49C618.092 508.372 614.917 509.143 614.212 509.143C610.332 509.143 608.921 489.858 612.095 480.821C615.505 471.013 623.147 462.307 629.261 461.315C634.905 460.433 643.958 467.486 654.775 481.041C662.3 490.298 669.002 496.36 669.002 493.715C669.002 491.731 653.129 466.935 649.602 463.298C643.841 457.678 635.14 455.694 616.446 455.915C598.574 456.135 598.809 456.356 603.63 446.878C607.157 439.935 614.917 432.662 622.207 429.466C625.264 428.143 627.85 426.711 627.85 426.16C627.85 423.074 620.443 412.715 613.859 406.543C603.277 396.735 596.575 393.87 573.884 390.013C550.604 386.156 545.783 385.164 534.966 381.858C512.392 375.135 495.579 366.65 485.702 357.062C473.474 345.27 465.597 331.494 465.597 321.907C465.597 318.16 465.715 318.16 471.711 326.756C475.003 331.605 481.587 339.099 486.173 343.396ZM609.391 345.05C616.798 349.568 629.379 354.747 647.956 360.919C663.358 365.988 696.044 380.756 706.626 387.368C712.387 391.005 716.032 394.311 719.559 399.16C722.146 402.796 724.144 406.103 723.909 406.323C723.674 406.543 717.443 404.229 710.271 401.254C697.808 396.074 684.286 388.029 684.286 385.715C684.286 384.282 673.822 378.662 672.882 379.543C672.411 379.984 675.468 383.511 679.583 387.368C685.58 392.988 686.638 394.531 684.757 394.531C681.465 394.531 671.353 391.225 671.353 390.123C671.353 388.139 660.184 379.103 653.952 376.017C650.307 374.254 641.372 370.507 634.082 367.641C626.792 364.886 617.739 361.139 613.859 359.376C603.63 354.527 594.694 344.168 590.814 332.707C590.109 330.613 591.167 331.164 596.223 335.462C599.75 338.437 605.629 342.735 609.391 345.05Z" fill="url(#paint39_linear_12_93)"/>
<path d="M691.341 438.282C691.341 438.833 693.575 440.266 696.397 441.368C699.101 442.47 704.745 446.437 708.86 450.074L716.267 456.796L719.677 452.939C721.558 450.845 723.086 448.862 723.086 448.531C722.969 447.87 714.503 441.919 710.506 439.935C707.096 438.172 691.341 436.739 691.341 438.282Z" fill="url(#paint40_linear_12_93)"/>
<path d="M1477.92 567.551C1477.92 581.768 1478.04 582.98 1480.03 582.98C1481.33 582.98 1483.21 581.988 1484.27 580.886C1486.38 578.792 1488.62 567.772 1487.79 563.694C1486.03 554.768 1484.27 552.123 1480.15 552.123C1478.04 552.123 1477.92 553.004 1477.92 567.551Z" fill="url(#paint41_linear_12_93)"/>
<path d="M60.1985 108.221L60.5513 133.899L65.0191 134.229L69.3694 134.56V126.846V119.131L75.6009 118.801C81.5972 118.47 81.7148 118.36 82.0675 114.944L82.4202 111.417L75.013 111.086L67.6058 110.756L67.253 96.6498L66.9003 82.6539H63.4906H59.9634L60.1985 108.221Z" fill="url(#paint42_linear_12_93)"/>
<path d="M1851.92 96.6498L1852.39 110.756L1844.99 111.086L1837.58 111.417L1837.93 114.944C1838.29 118.36 1838.4 118.47 1844.52 118.801L1850.63 119.131V126.846V134.56L1854.75 134.229C1857.1 134.009 1858.86 133.568 1858.86 133.017C1858.86 132.576 1858.86 121.115 1858.86 107.45V82.6539H1855.22H1851.45L1851.92 96.6498Z" fill="url(#paint43_linear_12_93)"/>
<path d="M59.9634 971.449V997.347H64.0785H68.1936V982.91V968.474L75.2481 968.914L82.3026 969.245V965.167V961.09L76.1887 960.759L69.9573 960.429L69.6045 952.935L69.2518 945.551H64.6664H59.9634V971.449Z" fill="url(#paint44_linear_12_93)"/>
<path d="M1849.45 953.265V960.98H1843.58H1837.7V964.837V968.694H1844.75H1851.81V983.021V997.347H1855.92H1860.04V971.449V945.551H1854.75H1849.45V953.265Z" fill="url(#paint45_linear_12_93)"/>
<path d="M71.7207 985.225V997.347H85.8297H99.9387V1010.57V1023.91L112.637 1023.58L125.217 1023.25L125.57 998.119L125.805 973.102H98.763H71.7207V985.225Z" fill="url(#paint46_linear_12_93)"/>
<path d="M1794.19 998.449V1023.8H1807.13H1820.06V1010.57V997.347H1834.17H1848.28V985.224V973.102H1821.24H1794.19V998.449Z" fill="url(#paint47_linear_12_93)"/>
<path d="M72.0734 1002.42C71.8382 1003.08 71.7207 1008.04 71.9558 1013.44L72.3085 1023.24H84.066H95.8235L96.1763 1012.45C96.2938 1006.6 96.0587 1001.76 95.5884 1001.65C87.123 1000.98 72.5437 1001.42 72.0734 1002.42Z" fill="url(#paint48_linear_12_93)"/>
<path d="M1823.94 1002.42C1823.71 1003.08 1823.59 1008.04 1823.82 1013.44L1824.18 1023.24L1833.58 1023.58C1848.75 1024.13 1848.28 1024.46 1848.28 1012.22V1001.76L1840.99 1001.64C1836.87 1001.53 1831.58 1001.42 1829 1001.31C1826.53 1001.31 1824.29 1001.76 1823.94 1002.42Z" fill="url(#paint49_linear_12_93)"/>
<path d="M55.2603 1025.45V1037.13L67.1353 1036.8L79.0104 1036.47L79.4807 1031.73C79.951 1026.77 79.7159 1026.55 71.4856 1027.1C68.4287 1027.21 68.3111 1027.1 67.9584 1020.82L67.6056 1014.43L61.4917 1014.1L55.2603 1013.77V1025.45Z" fill="url(#paint50_linear_12_93)"/>
<path d="M130.155 1014.65C129.685 1014.98 129.332 1017.96 129.332 1021.26V1027.1H114.636H99.9387V1030.96V1034.82H127.686H155.317L154.964 1030.08L154.611 1025.45L146.734 1025.12L138.738 1024.79V1019.39C138.738 1013.88 138.738 1013.88 134.858 1013.88C132.625 1013.88 130.508 1014.21 130.155 1014.65Z" fill="url(#paint51_linear_12_93)"/>
<path d="M1781.26 1019.39V1024.9H1773.03H1764.8V1029.86V1034.82H1792.43H1820.06V1030.96V1027.1H1805.36H1790.67V1020.49V1013.88H1785.96H1781.26V1019.39Z" fill="url(#paint52_linear_12_93)"/>
<path d="M1851.81 1020.38V1027.1H1846.05H1840.28L1840.64 1031.73L1840.99 1036.47H1852.51H1864.15V1025.45V1014.43L1858.04 1014.1L1851.81 1013.77V1020.38Z" fill="url(#paint53_linear_12_93)"/>
<defs>
<linearGradient id="paint0_linear_12_93" x1="960" y1="1080" x2="960" y2="0.000854492" gradientUnits="userSpaceOnUse">
<stop stop-color="#530404"/>
<stop offset="1" stop-color="#8B181A"/>
</linearGradient>
<linearGradient id="paint1_linear_12_93" x1="67.2309" y1="65.1313" x2="67.2309" y2="44.0824" gradientUnits="userSpaceOnUse">
<stop stop-color="#530404"/>
<stop offset="1" stop-color="#8B181A"/>
</linearGradient>
<linearGradient id="paint2_linear_12_93" x1="1852.39" y1="65.1313" x2="1852.39" y2="44.0824" gradientUnits="userSpaceOnUse">
<stop stop-color="#530404"/>
<stop offset="1" stop-color="#8B181A"/>
</linearGradient>
<linearGradient id="paint3_linear_12_93" x1="127.569" y1="66.1233" x2="127.569" y2="46.2866" gradientUnits="userSpaceOnUse">
<stop stop-color="#530404"/>
<stop offset="1" stop-color="#8B181A"/>
</linearGradient>
<linearGradient id="paint4_linear_12_93" x1="1792.43" y1="66.007" x2="1792.43" y2="46.2864" gradientUnits="userSpaceOnUse">
<stop stop-color="#530404"/>
<stop offset="1" stop-color="#8B181A"/>
</linearGradient>
<linearGradient id="paint5_linear_12_93" x1="83.711" y1="78.2456" x2="83.711" y2="57.3068" gradientUnits="userSpaceOnUse">
<stop stop-color="#530404"/>
<stop offset="1" stop-color="#8B181A"/>
</linearGradient>
<linearGradient id="paint6_linear_12_93" x1="99.0413" y1="106.899" x2="99.0413" y2="57.3069" gradientUnits="userSpaceOnUse">
<stop stop-color="#530404"/>
<stop offset="1" stop-color="#8B181A"/>
</linearGradient>
<linearGradient id="paint7_linear_12_93" x1="1821.24" y1="106.899" x2="1821.24" y2="57.3069" gradientUnits="userSpaceOnUse">
<stop stop-color="#530404"/>
<stop offset="1" stop-color="#8B181A"/>
</linearGradient>
<linearGradient id="paint8_linear_12_93" x1="1836.35" y1="78.2456" x2="1836.35" y2="57.3068" gradientUnits="userSpaceOnUse">
<stop stop-color="#530404"/>
<stop offset="1" stop-color="#8B181A"/>
</linearGradient>
<linearGradient id="paint9_linear_12_93" x1="960" y1="1021.59" x2="960" y2="58.4089" gradientUnits="userSpaceOnUse">
<stop stop-color="#530404"/>
<stop offset="1" stop-color="#8B181A"/>
</linearGradient>
<linearGradient id="paint10_linear_12_93" x1="960" y1="1021.59" x2="960" y2="58.4089" gradientUnits="userSpaceOnUse">
<stop stop-color="#530404"/>
<stop offset="1" stop-color="#8B181A"/>
</linearGradient>
<linearGradient id="paint11_linear_12_93" x1="960" y1="1021.59" x2="960" y2="58.4089" gradientUnits="userSpaceOnUse">
<stop stop-color="#530404"/>
<stop offset="1" stop-color="#8B181A"/>
</linearGradient>
<linearGradient id="paint12_linear_12_93" x1="960" y1="1021.59" x2="960" y2="58.4089" gradientUnits="userSpaceOnUse">
<stop stop-color="#530404"/>
<stop offset="1" stop-color="#8B181A"/>
</linearGradient>
<linearGradient id="paint13_linear_12_93" x1="960" y1="1021.59" x2="960" y2="58.4089" gradientUnits="userSpaceOnUse">
<stop stop-color="#530404"/>
<stop offset="1" stop-color="#8B181A"/>
</linearGradient>
<linearGradient id="paint14_linear_12_93" x1="960" y1="1021.59" x2="960" y2="58.4089" gradientUnits="userSpaceOnUse">
<stop stop-color="#530404"/>
<stop offset="1" stop-color="#8B181A"/>
</linearGradient>
<linearGradient id="paint15_linear_12_93" x1="960" y1="1021.59" x2="960" y2="58.4089" gradientUnits="userSpaceOnUse">
<stop stop-color="#530404"/>
<stop offset="1" stop-color="#8B181A"/>
</linearGradient>
<linearGradient id="paint16_linear_12_93" x1="960" y1="1021.59" x2="960" y2="58.4089" gradientUnits="userSpaceOnUse">
<stop stop-color="#530404"/>
<stop offset="1" stop-color="#8B181A"/>
</linearGradient>
<linearGradient id="paint17_linear_12_93" x1="960" y1="1021.59" x2="960" y2="58.4089" gradientUnits="userSpaceOnUse">
<stop stop-color="#530404"/>
<stop offset="1" stop-color="#8B181A"/>
</linearGradient>
<linearGradient id="paint18_linear_12_93" x1="960" y1="1021.59" x2="960" y2="58.4089" gradientUnits="userSpaceOnUse">
<stop stop-color="#530404"/>
<stop offset="1" stop-color="#8B181A"/>
</linearGradient>
<linearGradient id="paint19_linear_12_93" x1="960" y1="1021.59" x2="960" y2="58.4089" gradientUnits="userSpaceOnUse">
<stop stop-color="#530404"/>
<stop offset="1" stop-color="#8B181A"/>
</linearGradient>
<linearGradient id="paint20_linear_12_93" x1="960" y1="1021.59" x2="960" y2="58.4089" gradientUnits="userSpaceOnUse">
<stop stop-color="#530404"/>
<stop offset="1" stop-color="#8B181A"/>
</linearGradient>
<linearGradient id="paint21_linear_12_93" x1="960" y1="1021.59" x2="960" y2="58.4089" gradientUnits="userSpaceOnUse">
<stop stop-color="#530404"/>
<stop offset="1" stop-color="#8B181A"/>
</linearGradient>
<linearGradient id="paint22_linear_12_93" x1="960" y1="1021.59" x2="960" y2="58.4089" gradientUnits="userSpaceOnUse">
<stop stop-color="#530404"/>
<stop offset="1" stop-color="#8B181A"/>
</linearGradient>
<linearGradient id="paint23_linear_12_93" x1="960" y1="1021.59" x2="960" y2="58.4089" gradientUnits="userSpaceOnUse">
<stop stop-color="#530404"/>
<stop offset="1" stop-color="#8B181A"/>
</linearGradient>
<linearGradient id="paint24_linear_12_93" x1="960" y1="1021.59" x2="960" y2="58.4089" gradientUnits="userSpaceOnUse">
<stop stop-color="#530404"/>
<stop offset="1" stop-color="#8B181A"/>
</linearGradient>
<linearGradient id="paint25_linear_12_93" x1="960" y1="1021.59" x2="960" y2="58.4089" gradientUnits="userSpaceOnUse">
<stop stop-color="#530404"/>
<stop offset="1" stop-color="#8B181A"/>
</linearGradient>
<linearGradient id="paint26_linear_12_93" x1="960" y1="1021.59" x2="960" y2="58.4089" gradientUnits="userSpaceOnUse">
<stop stop-color="#530404"/>
<stop offset="1" stop-color="#8B181A"/>
</linearGradient>
<linearGradient id="paint27_linear_12_93" x1="960" y1="1021.59" x2="960" y2="58.4089" gradientUnits="userSpaceOnUse">
<stop stop-color="#530404"/>
<stop offset="1" stop-color="#8B181A"/>
</linearGradient>
<linearGradient id="paint28_linear_12_93" x1="960" y1="1021.59" x2="960" y2="58.4089" gradientUnits="userSpaceOnUse">
<stop stop-color="#530404"/>
<stop offset="1" stop-color="#8B181A"/>
</linearGradient>
<linearGradient id="paint29_linear_12_93" x1="960" y1="1021.59" x2="960" y2="58.4089" gradientUnits="userSpaceOnUse">
<stop stop-color="#530404"/>
<stop offset="1" stop-color="#8B181A"/>
</linearGradient>
<linearGradient id="paint30_linear_12_93" x1="960" y1="1021.59" x2="960" y2="58.4089" gradientUnits="userSpaceOnUse">
<stop stop-color="#530404"/>
<stop offset="1" stop-color="#8B181A"/>
</linearGradient>
<linearGradient id="paint31_linear_12_93" x1="960" y1="1021.59" x2="960" y2="58.4089" gradientUnits="userSpaceOnUse">
<stop stop-color="#530404"/>
<stop offset="1" stop-color="#8B181A"/>
</linearGradient>
<linearGradient id="paint32_linear_12_93" x1="960" y1="1021.59" x2="960" y2="58.4089" gradientUnits="userSpaceOnUse">
<stop stop-color="#530404"/>
<stop offset="1" stop-color="#8B181A"/>
</linearGradient>
<linearGradient id="paint33_linear_12_93" x1="960" y1="1021.59" x2="960" y2="58.4089" gradientUnits="userSpaceOnUse">
<stop stop-color="#530404"/>
<stop offset="1" stop-color="#8B181A"/>
</linearGradient>
<linearGradient id="paint34_linear_12_93" x1="960" y1="1021.59" x2="960" y2="58.4089" gradientUnits="userSpaceOnUse">
<stop stop-color="#530404"/>
<stop offset="1" stop-color="#8B181A"/>
</linearGradient>
<linearGradient id="paint35_linear_12_93" x1="960" y1="1021.59" x2="960" y2="58.4089" gradientUnits="userSpaceOnUse">
<stop stop-color="#530404"/>
<stop offset="1" stop-color="#8B181A"/>
</linearGradient>
<linearGradient id="paint36_linear_12_93" x1="960" y1="1021.59" x2="960" y2="58.4089" gradientUnits="userSpaceOnUse">
<stop stop-color="#530404"/>
<stop offset="1" stop-color="#8B181A"/>
</linearGradient>
<linearGradient id="paint37_linear_12_93" x1="960" y1="1021.59" x2="960" y2="58.4089" gradientUnits="userSpaceOnUse">
<stop stop-color="#530404"/>
<stop offset="1" stop-color="#8B181A"/>
</linearGradient>
<linearGradient id="paint38_linear_12_93" x1="558.374" y1="869.003" x2="558.374" y2="171.951" gradientUnits="userSpaceOnUse">
<stop stop-color="#530404"/>
<stop offset="1" stop-color="#8B181A"/>
</linearGradient>
<linearGradient id="paint39_linear_12_93" x1="558.26" y1="804.947" x2="558.26" y2="236.003" gradientUnits="userSpaceOnUse">
<stop stop-color="#530404"/>
<stop offset="1" stop-color="#8B181A"/>
</linearGradient>
<linearGradient id="paint40_linear_12_93" x1="707.214" y1="456.796" x2="707.214" y2="437.626" gradientUnits="userSpaceOnUse">
<stop stop-color="#530404"/>
<stop offset="1" stop-color="#8B181A"/>
</linearGradient>
<linearGradient id="paint41_linear_12_93" x1="1482.94" y1="582.98" x2="1482.94" y2="552.123" gradientUnits="userSpaceOnUse">
<stop stop-color="#530404"/>
<stop offset="1" stop-color="#8B181A"/>
</linearGradient>
<linearGradient id="paint42_linear_12_93" x1="71.1918" y1="134.56" x2="71.1918" y2="82.6539" gradientUnits="userSpaceOnUse">
<stop stop-color="#530404"/>
<stop offset="1" stop-color="#8B181A"/>
</linearGradient>
<linearGradient id="paint43_linear_12_93" x1="1848.22" y1="134.56" x2="1848.22" y2="82.6539" gradientUnits="userSpaceOnUse">
<stop stop-color="#530404"/>
<stop offset="1" stop-color="#8B181A"/>
</linearGradient>
<linearGradient id="paint44_linear_12_93" x1="71.133" y1="997.347" x2="71.133" y2="945.551" gradientUnits="userSpaceOnUse">
<stop stop-color="#530404"/>
<stop offset="1" stop-color="#8B181A"/>
</linearGradient>
<linearGradient id="paint45_linear_12_93" x1="1848.87" y1="997.347" x2="1848.87" y2="945.551" gradientUnits="userSpaceOnUse">
<stop stop-color="#530404"/>
<stop offset="1" stop-color="#8B181A"/>
</linearGradient>
<linearGradient id="paint46_linear_12_93" x1="98.763" y1="1023.91" x2="98.763" y2="973.102" gradientUnits="userSpaceOnUse">
<stop stop-color="#530404"/>
<stop offset="1" stop-color="#8B181A"/>
</linearGradient>
<linearGradient id="paint47_linear_12_93" x1="1821.24" y1="1023.8" x2="1821.24" y2="973.102" gradientUnits="userSpaceOnUse">
<stop stop-color="#530404"/>
<stop offset="1" stop-color="#8B181A"/>
</linearGradient>
<linearGradient id="paint48_linear_12_93" x1="84.0169" y1="1023.24" x2="84.0169" y2="1001.33" gradientUnits="userSpaceOnUse">
<stop stop-color="#530404"/>
<stop offset="1" stop-color="#8B181A"/>
</linearGradient>
<linearGradient id="paint49_linear_12_93" x1="1835.99" y1="1023.78" x2="1835.99" y2="1001.31" gradientUnits="userSpaceOnUse">
<stop stop-color="#530404"/>
<stop offset="1" stop-color="#8B181A"/>
</linearGradient>
<linearGradient id="paint50_linear_12_93" x1="67.442" y1="1037.13" x2="67.442" y2="1013.77" gradientUnits="userSpaceOnUse">
<stop stop-color="#530404"/>
<stop offset="1" stop-color="#8B181A"/>
</linearGradient>
<linearGradient id="paint51_linear_12_93" x1="127.628" y1="1034.82" x2="127.628" y2="1013.88" gradientUnits="userSpaceOnUse">
<stop stop-color="#530404"/>
<stop offset="1" stop-color="#8B181A"/>
</linearGradient>
<linearGradient id="paint52_linear_12_93" x1="1792.43" y1="1034.82" x2="1792.43" y2="1013.88" gradientUnits="userSpaceOnUse">
<stop stop-color="#530404"/>
<stop offset="1" stop-color="#8B181A"/>
</linearGradient>
<linearGradient id="paint53_linear_12_93" x1="1852.22" y1="1036.47" x2="1852.22" y2="1013.77" gradientUnits="userSpaceOnUse">
<stop stop-color="#530404"/>
<stop offset="1" stop-color="#8B181A"/>
</linearGradient>
</defs>
</svg>
