<svg width="162" height="162" viewBox="0 0 162 162" fill="none" xmlns="http://www.w3.org/2000/svg">
<path d="M61.6362 2.30132C45.5029 6.16798 28.0362 17.2346 18.0362 29.9013C11.5029 38.0347 4.16958 52.8347 1.90291 62.168C-0.630422 72.8347 -0.0970884 94.168 3.10291 103.768C11.2362 129.101 30.7029 149.368 55.1029 157.768C68.0362 162.168 93.3696 162.168 106.303 157.768C132.17 148.835 153.236 125.501 159.503 98.8347C161.636 89.368 161.636 72.168 159.503 62.8347C155.503 46.168 143.37 27.2346 130.036 16.968C111.236 2.56798 84.4362 -3.29868 61.6362 2.30132ZM105.37 6.16798C139.903 17.768 160.703 48.168 159.103 84.7013C158.036 107.101 150.836 122.835 134.303 138.568C115.503 156.435 89.9029 163.635 64.0363 158.168C35.9029 152.301 11.3696 128.835 4.03625 100.701C1.36958 90.568 1.50291 71.368 4.16958 60.968C11.6362 31.9013 37.2362 8.30132 67.1029 2.83466C77.5029 0.834656 94.0363 2.30132 105.37 6.16798Z" fill="#D82E26"/>
<path d="M60.3029 7.36789C52.3029 9.50124 51.7696 10.0346 53.6362 14.8346C54.9696 18.5679 54.8362 18.7012 46.9696 23.3679C42.5695 26.0346 38.3029 28.0346 37.5029 27.7679C36.3029 27.3679 42.7029 22.1679 49.2362 18.1679C51.2362 16.9679 51.2362 16.5679 49.5029 14.1679C47.6362 11.6346 47.3695 11.6346 38.1695 18.0346C32.9695 21.5012 28.3029 25.1012 27.9029 25.7679C27.5029 26.4346 28.4362 28.4346 30.0362 30.1679L33.1029 33.3679L29.1029 38.4346C26.8362 41.2346 24.4362 44.8346 23.5029 46.4346C21.9029 49.5012 19.3695 50.5679 19.3695 48.3012C19.3695 47.6346 21.5029 44.0346 24.1695 40.1679C28.4362 34.0346 28.7029 32.9679 26.9695 31.2346C25.2362 29.5012 24.5695 29.7679 21.5029 33.1012C16.7029 38.3012 10.3029 51.1012 12.1695 51.7679C12.9695 52.0346 14.7029 52.9679 15.9029 53.9012C18.0362 55.5012 18.0362 56.1679 15.7695 65.2346C14.5695 70.4346 12.9695 74.8346 12.3029 74.8346C11.1029 74.8346 11.5029 70.7012 13.5029 60.7012C14.1695 57.5012 13.7695 56.3012 12.0362 55.6346C10.7029 55.2346 9.36955 55.1012 8.96955 55.3679C7.90288 56.5679 4.70288 71.3679 4.70288 75.7679C4.70288 79.6346 5.10288 80.0346 9.10288 80.4346C13.2362 80.8346 13.3695 81.1012 14.4362 88.1679C14.9695 92.1679 15.5029 96.5679 15.7695 97.7679C15.9029 98.9679 15.5029 100.035 14.7029 100.168C14.0362 100.168 12.8362 96.7012 12.1695 92.1679C10.9695 85.1012 10.5695 84.1679 7.76955 84.1679C5.23621 84.1679 4.70288 84.8346 4.83621 88.4346C4.83621 90.8346 5.90288 96.4346 7.23621 100.835C9.50288 108.968 10.0362 109.368 16.0362 107.501C18.1695 106.835 19.2362 107.635 20.9695 111.101C22.1695 113.501 24.4362 117.368 26.0362 119.768C27.6362 122.035 28.3029 124.301 27.5029 124.701C26.5695 125.368 23.6362 121.368 17.3695 111.101C16.7029 110.035 12.7029 112.701 12.7029 114.168C12.7029 116.568 23.3695 132.301 25.6362 133.101C26.7029 133.501 28.8362 132.701 30.3029 131.101L33.1029 128.435L39.6362 133.635C43.3695 136.435 46.8362 138.835 47.5029 138.835C48.1695 138.835 48.7029 139.368 48.7029 140.168C48.7029 142.435 46.0362 141.635 39.9029 137.368C31.6362 131.768 26.3029 133.901 33.1029 140.301C36.1695 143.235 48.5695 150.835 50.4362 150.835C50.9696 150.835 52.1696 148.968 52.9696 146.701C54.0362 143.768 54.9696 142.968 56.5695 143.501C57.7696 144.035 62.1696 145.101 66.4362 145.901C70.9696 146.835 74.0362 148.168 74.0362 149.101C74.0362 150.968 72.8362 150.835 62.1696 148.035C56.9696 146.701 55.3695 147.368 55.3695 150.835C55.3695 153.501 63.1029 155.901 74.0362 156.435C79.9029 156.835 80.0362 156.701 80.4362 152.568C80.8362 148.701 81.3696 148.301 86.4362 147.501C89.5029 147.101 94.0362 146.301 96.4362 145.901C103.503 144.701 101.37 147.768 94.0362 149.368C90.3029 150.168 86.3029 150.835 85.2362 150.835C83.9029 150.835 83.3696 151.901 83.6362 153.901C84.0362 156.435 84.7029 156.835 89.3696 156.435C96.5695 155.901 108.703 152.435 108.703 150.835C108.703 150.168 108.17 148.168 107.37 146.301C106.17 143.101 106.57 142.568 112.436 139.501C115.903 137.635 119.77 135.368 120.97 134.568C122.17 133.635 123.636 133.368 124.17 133.901C125.37 135.101 121.903 137.901 114.97 141.635C110.703 143.901 110.17 144.568 111.37 146.835C112.17 148.301 113.37 149.501 113.903 149.501C115.503 149.501 130.703 139.368 132.57 136.968C133.636 135.635 133.37 134.435 131.37 131.768L128.57 128.301L134.17 120.835C137.236 116.835 140.303 113.501 140.97 113.501C142.436 113.501 140.17 117.901 135.636 123.901C132.97 127.368 132.703 128.568 134.036 130.168C134.97 131.235 136.17 132.168 136.703 132.168C138.303 132.168 148.436 116.968 149.37 113.101C150.17 110.168 149.77 109.501 146.836 108.701C142.703 107.768 142.836 108.301 145.503 96.1679C146.97 90.0346 148.17 87.1012 148.97 87.9012C149.77 88.7012 149.77 91.9012 148.703 96.8346C147.37 103.101 147.37 104.701 148.97 105.635C149.903 106.301 151.103 106.835 151.636 106.835C152.97 106.835 155.236 98.0346 156.303 89.2346L157.103 81.6346L152.57 81.2346C148.17 80.8346 148.036 80.5679 146.97 73.5012C146.436 69.5012 145.903 65.2346 145.636 64.1679C145.503 63.1012 146.036 61.9012 146.703 61.5012C147.503 61.1012 148.57 64.4346 149.236 69.1012C150.436 76.7012 150.836 77.5012 153.636 77.5012C155.903 77.5012 156.703 76.7012 156.703 74.4346C156.703 71.2346 153.103 55.2346 152.036 53.3679C151.636 52.8346 149.37 52.9679 147.103 53.7679C144.436 54.7012 142.703 54.8346 142.436 54.0346C142.17 53.2346 139.903 49.5012 137.37 45.6346C134.703 41.6346 132.97 38.1679 133.37 37.7679C134.436 36.7012 138.703 41.1012 141.503 46.1679C144.036 51.1012 146.97 52.1679 148.17 48.8346C149.37 45.7679 137.77 28.1679 134.57 28.1679C133.77 28.1679 132.036 29.3679 130.836 30.7012C128.57 33.2346 128.303 33.2346 120.703 27.7679C116.303 24.7012 112.836 21.7679 112.836 21.1012C112.57 19.1012 115.903 20.3012 122.036 24.7012C126.703 28.0346 128.836 28.8346 129.903 27.7679C130.703 26.9679 131.37 25.6346 131.37 24.8346C131.37 23.2346 113.37 10.8346 111.103 10.8346C110.436 10.8346 109.103 12.5679 108.303 14.8346C106.57 19.5012 106.703 19.5012 99.3696 16.8346C96.3029 15.7679 92.3029 14.8346 90.5695 14.8346C88.8362 14.8346 87.3696 14.1679 87.3696 13.3679C87.3696 12.3012 89.3696 12.1679 93.7696 12.7012C105.103 14.4346 105.37 14.3012 105.77 11.2346C106.17 8.83456 105.236 8.16789 99.3696 6.9679C95.6362 6.16789 89.9029 5.50124 86.7029 5.50124C80.9696 5.50124 80.7029 5.63457 80.7029 9.36789C80.7029 13.1012 80.4362 13.3679 71.2362 14.8346C62.7029 16.3012 59.1029 16.0346 60.9696 14.1679C61.3695 13.7679 65.3695 12.8346 69.9029 12.0346C76.4362 10.8346 78.0362 10.0346 78.0362 8.03456C78.0362 5.90123 77.1029 5.50124 72.4362 5.63457C69.2362 5.63457 63.9029 6.43456 60.3029 7.36789ZM75.3696 8.16789C75.3696 8.83456 73.1029 9.7679 70.4362 10.1679C61.1029 11.7679 58.7029 12.9679 59.1029 15.6346C59.7696 19.2346 59.9029 19.2346 65.6362 17.6346C68.4362 16.8346 73.2362 16.1679 76.4362 16.1679C81.9029 16.1679 82.0362 16.1679 82.0362 11.5012C82.0362 7.10123 82.3029 6.83456 86.4362 6.83456C93.1029 6.9679 102.036 8.9679 103.77 10.8346C105.37 12.5679 101.77 12.3012 90.4362 10.0346C86.3029 9.23456 86.0362 9.36789 86.0362 12.7012C86.0362 15.2346 86.7029 16.1679 88.5695 16.1679C90.0362 16.1679 94.8362 17.3679 99.3696 18.7012L107.636 21.3679L109.103 17.3679C109.903 15.2346 111.236 13.5012 112.036 13.5012C114.57 13.5012 128.703 23.3679 128.703 25.1012C128.703 27.2346 126.57 27.3679 125.37 25.5012C124.436 24.0346 114.703 17.5012 113.503 17.5012C113.103 17.5012 112.17 18.7012 111.37 20.0346C110.303 22.3012 110.836 23.1012 114.97 25.6346C117.636 27.3679 121.77 30.4346 124.17 32.4346C128.303 36.0346 128.303 36.0346 130.703 33.5012C132.036 32.0346 133.903 30.8346 134.703 30.8346C137.37 30.8346 147.903 46.8346 146.303 48.4346C145.37 49.3679 144.17 48.1679 142.303 44.7012C138.57 37.3679 134.57 34.0346 132.17 36.0346C130.436 37.5012 130.97 38.8346 135.503 45.7679C138.303 50.3012 140.703 54.8346 140.703 55.9012C140.703 56.9679 141.503 57.5012 142.436 57.1012C149.103 54.5679 150.036 54.7012 151.236 57.7679C152.97 61.9012 155.636 75.1012 154.836 75.7679C153.503 77.1012 151.37 74.5679 151.37 71.7679C151.37 66.4346 148.57 58.8346 146.703 58.8346C143.636 58.8346 143.37 60.7012 144.97 72.0346L146.57 82.8346H151.103H155.636L154.703 89.6346C153.37 99.5012 152.17 103.235 150.036 103.901C148.836 104.301 148.57 103.768 149.236 102.035C149.77 100.568 150.57 96.3012 150.97 92.4346C151.636 86.1679 151.503 85.5012 148.97 85.5012C146.836 85.5012 145.903 86.9679 144.303 93.7679C143.236 98.4346 141.903 103.368 141.37 104.968C140.703 107.235 141.236 108.035 144.57 109.501C146.836 110.435 148.703 111.368 148.703 111.501C148.703 113.768 137.636 129.501 136.17 129.501C134.303 129.501 135.636 126.435 140.036 120.435C143.503 115.501 144.303 113.635 143.103 112.435C141.236 110.568 138.036 110.301 138.036 112.168C138.036 112.835 135.236 116.835 131.903 120.968L125.77 128.435L128.836 131.635C131.236 134.168 131.503 135.101 130.17 136.701C127.903 139.368 116.17 146.835 114.303 146.835C111.37 146.835 112.703 144.835 117.103 142.435C119.37 141.101 122.836 138.835 124.57 137.368C127.503 134.968 127.636 134.568 125.77 132.568C123.77 130.701 123.103 130.968 117.636 134.701C114.303 136.968 109.903 139.501 108.036 140.168C104.436 141.501 104.303 142.568 106.703 148.435C107.37 150.301 106.303 151.101 100.57 152.701C92.8362 155.101 86.0362 155.501 86.0362 153.635C86.0362 152.968 88.8362 152.035 92.4362 151.501C101.37 150.168 103.77 148.701 102.036 145.501C100.97 143.501 100.036 143.235 96.5695 144.168C94.3029 144.835 89.7696 145.501 86.4362 145.768C81.7696 145.901 80.1695 146.568 79.3696 148.701C78.8362 150.301 78.7029 152.301 78.9696 153.235C80.3029 156.435 60.8362 154.301 57.5029 150.701C56.4362 149.501 57.1029 149.368 60.7029 150.035C75.2362 152.701 75.3696 152.701 75.3696 149.368C75.3696 146.435 74.4362 145.901 67.7696 144.568C63.5029 143.635 58.4362 142.568 56.5695 142.035C53.6362 141.368 52.9696 141.768 52.1696 144.701C51.7696 146.568 50.5695 148.168 49.6362 148.168C46.7029 148.168 32.7029 138.701 32.7029 136.701C32.7029 134.435 33.3695 134.701 41.2362 140.435C47.3695 144.835 48.1695 144.968 50.0362 141.635C51.1029 139.501 50.5695 138.568 45.6362 135.768C42.5695 133.901 38.5695 130.835 36.8362 128.968L33.5029 125.501L30.5695 128.301C28.8362 129.901 26.7029 130.835 25.6362 130.435C23.9029 129.768 14.0362 116.035 14.0362 114.301C14.0362 111.635 17.2362 114.301 20.4362 119.501C24.4362 126.168 26.8362 127.635 29.6362 125.368C31.1029 124.035 31.1029 123.501 29.5029 121.635C28.5695 120.435 25.7695 116.035 23.5029 111.901C19.3695 104.568 19.1029 104.435 15.2362 105.768C12.9695 106.568 10.9695 106.835 10.5695 106.568C9.50288 105.368 6.16955 87.7679 6.83621 86.5679C8.30288 84.1679 9.76955 87.1012 10.7029 94.1679C11.2362 98.9679 12.3029 101.901 13.5029 102.435C17.2362 103.768 17.7695 100.968 16.3029 89.7679L14.8362 78.8346H10.3029H5.76955L6.70288 72.0346C8.03621 62.1679 9.23621 58.4346 11.3695 57.7679C12.5695 57.3679 12.8362 57.9012 12.1695 59.6346C11.6362 61.1012 10.8362 65.3679 10.4362 69.1012C9.76955 75.5012 9.90288 76.1679 12.4362 76.1679C14.5695 76.1679 15.5029 74.7012 17.1029 67.7679C18.1695 63.2346 19.5029 58.3012 20.0362 56.7012C20.7029 54.4346 20.1695 53.6346 16.8362 52.1679C14.5695 51.2346 12.7029 50.3012 12.7029 50.0346C12.7029 48.4346 23.7695 32.1679 24.8362 32.1679C26.4362 32.1679 26.3029 35.7679 24.7029 36.8346C23.9029 37.3679 21.7695 40.1679 19.9029 43.1012C17.1029 47.5012 16.8362 48.7012 18.3029 49.6346C21.2362 51.6346 22.7029 50.9679 25.2362 46.7012C26.5695 44.4346 29.5029 40.5679 31.6362 38.0346L35.7695 33.3679L32.8362 30.3012C31.3695 28.7012 30.0362 26.9679 30.0362 26.4346C30.0362 25.1012 44.9696 14.8346 46.9696 14.8346C50.0362 14.8346 48.8362 16.8346 44.1695 19.3679C41.6362 20.7012 38.3029 23.2346 36.7029 24.8346C34.1695 27.5012 34.1695 27.9012 36.0362 29.5012C37.7696 30.9679 38.7029 30.8346 41.7696 28.5679C43.7696 27.2346 47.9029 24.5679 51.1029 22.8346C57.2362 19.3679 57.2362 19.2346 55.3695 14.3012C54.1696 11.1012 54.4362 10.8346 59.7696 9.50124C62.8362 8.70123 66.0362 7.7679 66.7029 7.50124C69.5029 6.5679 75.3696 6.83456 75.3696 8.16789Z" fill="#D82E26"/>
<path d="M63.3696 21.368C48.4362 26.168 39.3696 32.568 30.5696 44.4347C17.1029 62.7013 14.9696 87.368 24.9696 108.168C29.2362 117.101 42.4362 131.635 49.6362 135.368C75.1029 148.435 104.57 144.301 124.17 124.835C134.436 114.568 140.17 103.235 142.17 88.8347C143.503 79.2347 143.37 76.8347 140.836 66.968C137.503 53.368 133.103 45.6347 123.77 36.4347C107.903 20.968 83.5029 14.8347 63.3696 21.368ZM98.7029 23.2347C102.97 24.7013 103.903 25.768 103.636 28.0347C103.103 31.2347 103.77 31.5013 107.37 29.1013C109.636 27.768 110.303 27.9013 111.37 29.5013C112.97 32.0347 112.17 34.3013 109.903 33.6347C108.836 33.368 106.97 32.8347 105.77 32.568C104.17 32.0347 103.37 32.568 103.37 33.9013C103.37 35.1013 105.103 36.168 108.036 36.7013C111.37 37.368 112.703 38.3013 112.703 40.0347C112.703 43.1013 117.77 44.7013 120.436 42.568C121.37 41.768 121.903 39.768 121.503 38.3013C121.103 36.4347 122.57 37.368 126.303 41.5013C132.97 48.968 136.97 56.568 135.77 59.6347C134.97 61.6347 134.836 61.6347 133.903 59.1013C132.17 54.4347 130.303 55.2347 123.636 63.5014C121.636 65.9013 121.903 69.6347 124.17 70.4347C124.97 70.7013 126.036 69.768 126.436 68.168C126.836 66.4347 128.17 65.5014 130.303 65.6347C132.303 65.6347 132.703 66.0347 131.37 66.4347C128.303 67.6347 127.37 69.768 128.836 72.4347C130.57 75.5014 136.036 75.768 134.836 72.7013C134.17 71.1013 134.57 70.7013 136.17 71.368C137.236 71.768 138.836 72.168 139.503 72.168C140.17 72.168 140.703 76.0347 140.703 80.8347C140.703 85.6347 140.436 89.5013 140.036 89.5013C139.636 89.5013 137.636 88.0347 135.636 86.168C130.036 80.8347 121.503 76.3013 114.17 74.568C110.436 73.768 107.37 72.7013 107.37 72.3013C107.37 71.9013 109.236 69.768 111.37 67.768C116.836 62.568 116.97 54.968 111.77 50.968C109.636 49.2347 107.37 48.4347 105.636 48.968C104.036 49.5013 101.903 48.7013 99.6362 46.4347C94.8362 41.9013 89.9029 40.168 81.6362 40.168C74.5696 40.168 67.2362 43.368 63.9029 47.9013C63.1029 49.1013 61.5029 49.6347 60.1696 49.1013C56.5696 47.6347 51.7696 50.4347 50.3029 54.7013C48.4362 59.9013 50.3029 65.9013 54.5696 68.7013C56.3029 69.768 58.0362 72.568 58.5696 74.968C59.7696 80.968 69.6362 90.3013 76.9696 92.168C81.3696 93.5013 84.0362 93.368 89.9029 91.6347C96.4362 89.9013 97.1029 89.9013 94.7029 91.6347C93.2362 92.7013 89.5029 94.3013 86.4362 94.968C81.2362 96.3013 80.9696 96.7013 80.0362 102.568C78.4362 113.901 75.1029 123.368 70.5696 129.635C64.3029 138.301 62.8362 139.368 59.5029 137.501C55.9029 135.635 55.9029 133.235 59.5029 131.101C61.1029 130.035 62.0362 128.301 61.7696 126.435C61.5029 124.168 62.0362 123.635 64.0362 123.901C68.0362 124.435 70.7029 119.368 68.5696 115.235C67.1029 112.568 66.1696 112.168 62.8362 112.968C59.2362 113.768 58.9696 113.635 60.5696 111.768C62.0362 109.901 61.9029 109.235 60.1696 107.501C57.2362 104.568 52.7029 106.168 52.7029 110.168C52.7029 112.035 53.6362 113.501 55.3696 113.901C57.3696 114.435 58.0362 115.768 58.0362 118.701C58.0362 123.501 56.5696 124.035 54.7029 119.768C53.1029 116.168 48.4362 115.235 46.0362 118.168C45.1029 119.235 43.2362 120.168 41.9029 120.168C39.1029 120.168 38.8362 119.635 40.5696 116.301C42.0362 113.768 41.1029 111.768 38.0362 110.435C36.9696 109.901 34.9696 108.701 33.6362 107.901C31.6362 106.435 30.9696 106.568 29.5029 108.568C25.1029 114.301 18.7029 84.3013 21.2362 70.3013C21.9029 66.7013 22.8362 65.5014 24.7029 65.5014C26.1696 65.5014 27.3696 64.8347 27.3696 64.168C27.3696 63.368 28.0362 62.8347 28.8362 62.8347C29.6362 62.8347 30.0362 63.6347 29.6362 64.7013C28.7029 67.1013 31.2362 68.168 34.4362 66.568C37.6362 64.968 37.2362 61.6347 33.7696 60.3013C31.7696 59.6347 31.3696 58.968 32.5696 58.3013C34.4362 57.1013 38.0362 59.768 38.0362 62.3013C38.0362 64.968 40.4362 64.568 41.9029 61.768C43.6362 58.4347 35.6362 48.568 32.1696 49.9013C30.9696 50.4347 30.3029 51.368 30.7029 52.168C31.1029 52.8347 30.8362 53.5013 30.1696 53.5013C26.7029 53.5013 29.2362 48.0347 36.0362 40.7013C41.9029 34.3013 43.2362 33.368 43.3696 35.6347C43.3696 37.768 44.4362 38.7013 47.5029 39.368C52.1696 40.3013 54.0362 39.5013 54.0362 36.7013C54.0362 35.6347 55.3696 34.8347 57.3696 34.8347C61.7696 34.8347 63.3696 31.1013 60.0362 28.7013C58.5696 27.6347 58.3029 26.8347 59.2362 26.8347C60.1696 26.8347 60.4362 26.168 60.0362 25.5013C59.6362 24.7013 60.0362 24.168 60.9696 24.0347C61.9029 24.0347 63.6362 23.768 64.7029 23.5013C65.7696 23.368 67.5029 24.0347 68.4362 24.968C69.6362 26.3013 69.6362 26.8347 68.5696 26.8347C67.7696 26.8347 67.5029 27.768 67.9029 28.968C68.3029 30.0347 68.1696 30.568 67.3696 30.168C66.5696 29.768 66.0362 30.0347 66.0362 30.8347C66.0362 31.6347 65.3696 31.9013 64.5696 31.368C63.6362 30.8347 63.2362 31.5013 63.6362 32.968C64.3029 36.7013 67.7696 36.0347 69.7696 31.768C71.5029 28.3013 74.0362 26.8347 74.0362 29.5013C74.0362 30.168 75.5029 30.8347 77.3696 30.8347C80.0362 30.8347 80.7029 30.168 80.7029 27.6347C80.7029 24.168 76.8362 21.768 75.2362 24.3013C74.5696 25.5013 73.5029 25.368 71.3696 23.768C68.7029 21.9013 68.5696 21.6347 70.9696 20.968C75.1029 19.768 93.1029 21.2347 98.7029 23.2347ZM78.3029 27.5013C78.3029 28.168 77.6362 28.968 76.8362 29.2347C76.0362 29.5013 75.3696 28.7013 75.3696 27.5013C75.3696 26.3013 76.0362 25.5013 76.8362 25.768C77.6362 26.0347 78.3029 26.8347 78.3029 27.5013ZM56.7029 28.168C56.7029 28.8347 55.7696 29.5013 54.7029 29.5013C53.6362 29.5013 52.7029 28.8347 52.7029 28.168C52.7029 27.368 53.6362 26.8347 54.7029 26.8347C55.7696 26.8347 56.7029 27.368 56.7029 28.168ZM51.3696 33.368C51.3696 36.568 47.9029 38.0347 46.8362 35.2347C45.7696 32.7013 46.9696 30.8347 49.5029 30.8347C50.5696 30.8347 51.3696 32.0347 51.3696 33.368ZM118.036 33.2347C118.036 34.968 116.436 36.168 115.103 35.368C113.77 34.568 114.97 32.168 116.836 32.168C117.503 32.168 118.036 32.7013 118.036 33.2347ZM119.103 39.1013C118.303 41.5013 115.37 41.9013 115.37 39.6347C115.37 38.4347 116.303 37.5013 117.503 37.5013C118.703 37.5013 119.37 38.168 119.103 39.1013ZM92.7029 46.168C92.7029 49.2347 90.3029 49.768 88.8362 47.1013C88.0362 45.6347 87.7696 44.168 88.1696 43.768C89.5029 42.568 92.7029 44.3013 92.7029 46.168ZM76.7029 46.0347C76.7029 48.4347 74.5696 49.9013 72.7029 48.8347C70.9696 47.768 72.5696 44.168 74.8362 44.168C75.9029 44.168 76.7029 44.968 76.7029 46.0347ZM84.7029 49.5013C84.7029 50.968 83.7696 52.168 82.7029 52.168C81.6362 52.168 80.7029 50.968 80.7029 49.5013C80.7029 48.0347 81.6362 46.8347 82.7029 46.8347C83.7696 46.8347 84.7029 48.0347 84.7029 49.5013ZM79.3696 49.5013C79.3696 50.168 78.8362 50.8347 78.0362 50.8347C77.3696 50.8347 76.7029 50.168 76.7029 49.5013C76.7029 48.7013 77.3696 48.168 78.0362 48.168C78.8362 48.168 79.3696 48.7013 79.3696 49.5013ZM88.7029 49.5013C88.7029 50.168 88.1696 50.8347 87.3696 50.8347C86.7029 50.8347 86.0362 50.168 86.0362 49.5013C86.0362 48.7013 86.7029 48.168 87.3696 48.168C88.1696 48.168 88.7029 48.7013 88.7029 49.5013ZM58.5696 57.1013C56.9696 63.9013 55.6362 65.2347 54.7029 61.1013C53.5029 56.568 54.5696 53.5013 57.3696 53.5013C58.9696 53.5013 59.2362 54.4347 58.5696 57.1013ZM99.2362 55.2347C103.903 59.1013 103.37 68.168 98.3029 70.168C96.5696 70.8347 96.5696 70.568 98.4362 68.4347C101.236 65.368 101.37 59.768 98.7029 57.5013C97.2362 56.3013 91.7696 55.768 82.3029 55.6347C70.4362 55.5013 67.6362 55.9013 65.7696 57.768C62.5696 60.968 62.7029 64.8347 66.0362 68.168C69.2362 71.368 67.9029 71.768 64.4362 68.568C61.5029 65.9013 61.3696 59.2347 64.1696 56.0347C66.0362 54.0347 68.7029 53.6347 81.9029 53.768C91.2362 53.768 98.0362 54.3013 99.2362 55.2347ZM109.77 55.1013C111.77 57.1013 111.903 62.4347 109.903 63.5014C108.036 64.7013 107.903 64.4347 106.836 58.4347C105.903 53.368 106.97 52.3013 109.77 55.1013ZM76.7029 60.3013C78.1696 61.368 78.3029 61.9013 76.9696 62.4347C76.1696 62.7013 75.6362 63.6347 76.1696 64.3013C76.8362 65.368 76.3029 65.6347 72.7029 66.0347C72.0362 66.168 71.3696 65.6347 71.5029 64.968C71.5029 64.3013 70.8362 63.2347 69.7696 62.7013C68.3029 61.768 68.4362 61.2347 70.0362 60.168C72.5696 58.568 74.1696 58.568 76.7029 60.3013ZM94.9696 60.8347C95.7696 63.368 92.0362 66.968 89.6362 66.0347C88.4362 65.6347 87.7696 64.7013 88.1696 64.0347C88.5696 63.368 88.1696 62.8347 87.2362 62.8347C86.1696 62.8347 86.1696 62.3013 87.3696 60.8347C89.2362 58.568 94.1696 58.568 94.9696 60.8347ZM80.8362 68.568C80.7029 70.168 78.8362 69.768 78.3029 68.0347C77.9029 67.2347 78.4362 66.7013 79.3696 66.968C80.1696 67.368 80.8362 68.0347 80.8362 68.568ZM86.0362 68.0347C86.0362 68.8347 85.5029 69.768 84.7029 70.168C84.0362 70.568 83.3696 70.0347 83.3696 68.968C83.3696 67.768 84.0362 66.8347 84.7029 66.8347C85.5029 66.8347 86.0362 67.368 86.0362 68.0347ZM67.2362 74.0347C69.9029 75.5014 70.0362 75.9013 68.0362 76.568C65.6362 77.6347 60.7029 75.5014 60.7029 73.5014C60.7029 71.6347 63.3696 71.9013 67.2362 74.0347ZM101.636 75.9013C100.303 77.1013 98.5696 77.5013 97.1029 76.968C94.9696 76.0347 94.9696 75.768 98.0362 74.168C102.036 72.0347 104.436 73.1013 101.636 75.9013ZM82.8362 77.5013C89.3696 77.5013 91.2362 77.1013 90.5696 75.768C89.9029 74.568 90.0362 74.568 91.3696 75.768C94.3029 78.4347 91.7696 84.168 86.5696 86.3013C82.4362 88.0347 81.5029 88.0347 77.5029 86.168C72.9696 84.0347 70.3029 78.8347 72.3029 75.9013C72.9696 74.7013 73.3696 74.7013 73.7696 75.9013C74.0362 76.968 77.3696 77.5013 82.8362 77.5013ZM116.436 77.768C118.703 80.0347 118.436 89.1013 116.036 91.1013C114.836 92.0347 113.103 93.6347 112.036 94.4347C109.636 96.7013 107.37 96.568 104.17 94.168C101.903 92.4347 101.903 92.168 105.236 88.8347C107.103 86.968 108.703 84.8347 108.703 84.168C108.703 83.368 109.37 82.8347 110.17 82.8347C110.836 82.8347 111.236 82.3013 110.703 81.6347C110.303 80.968 110.57 80.0347 111.37 79.5013C112.17 78.968 112.436 78.0347 112.036 77.368C110.836 75.6347 114.57 75.9013 116.436 77.768ZM132.703 89.5013C133.503 90.968 134.97 92.168 136.17 92.168C139.503 92.168 139.636 95.368 136.703 102.968L134.036 110.301L127.37 110.435C120.303 110.568 117.103 108.035 118.836 103.635C119.236 102.435 119.103 101.501 118.303 101.501C116.17 101.501 115.236 97.5013 116.703 94.7013C117.503 93.368 119.103 92.168 120.436 92.168C121.636 92.168 123.503 90.968 124.436 89.5013C125.37 88.0347 127.236 86.8347 128.703 86.8347C130.036 86.8347 131.903 88.0347 132.703 89.5013ZM103.37 101.768C103.37 106.301 97.2362 110.968 91.6362 110.701C85.5029 110.301 83.3696 108.701 83.3696 104.701C83.3696 101.901 84.0362 101.501 89.1029 101.501C92.1696 101.368 96.1696 100.568 98.0362 99.6347C101.903 97.368 103.37 98.0347 103.37 101.768ZM107.37 110.835C107.37 114.435 107.77 114.835 111.77 114.968C117.103 115.101 125.103 117.901 125.77 119.901C126.17 121.101 125.236 121.101 122.036 120.035C119.77 119.235 114.17 118.835 109.503 119.101C98.0362 119.768 89.5029 124.968 84.4362 134.168C80.3029 141.768 79.5029 139.635 83.2362 131.368C86.3029 124.568 90.4362 120.568 97.6362 117.368C101.77 115.368 103.37 113.768 104.036 110.835C105.236 105.635 107.37 105.635 107.37 110.835ZM58.3029 110.168C58.3029 110.835 57.6362 111.635 56.8362 111.901C56.0362 112.168 55.3696 111.368 55.3696 110.168C55.3696 108.968 56.0362 108.168 56.8362 108.435C57.6362 108.701 58.3029 109.501 58.3029 110.168ZM33.9029 112.968C34.3029 112.701 35.3696 113.901 36.3029 115.635C37.1029 117.368 37.2362 118.568 36.7029 118.168C36.0362 117.768 35.3696 118.168 35.1029 118.968C34.8362 119.901 33.5029 118.968 32.3029 116.968C30.9696 114.968 30.3029 112.701 30.8362 111.901C31.6362 110.701 32.0362 110.701 32.4362 111.901C32.7029 112.835 33.3696 113.235 33.9029 112.968ZM66.0362 118.168C66.0362 119.101 65.2362 120.168 64.1696 120.568C61.7696 121.501 60.0362 117.368 62.3029 116.035C64.3029 114.835 66.0362 115.768 66.0362 118.168ZM85.5029 118.301C86.4362 122.168 85.2362 124.168 82.0362 124.168C78.5696 124.168 77.3696 121.768 79.3696 118.301C81.3696 114.435 84.5696 114.435 85.5029 118.301ZM52.4362 123.901C54.1696 122.435 54.4362 122.435 53.6362 124.435C53.1029 126.168 53.5029 126.835 55.1029 126.968C57.2362 127.101 57.2362 127.235 55.1029 127.768C53.7696 128.035 52.7029 129.235 52.7029 130.168C52.7029 133.901 49.6362 133.768 45.9029 129.768C42.1696 125.768 40.8362 123.235 43.2362 124.701C45.2362 125.901 48.7029 124.035 48.8362 121.635C48.9696 120.435 49.3696 120.835 49.6362 122.568C50.1696 125.235 50.5696 125.368 52.4362 123.901ZM112.703 124.968C112.703 128.435 110.436 129.368 109.236 126.168C108.17 123.501 109.636 119.768 111.37 120.835C112.036 121.235 112.703 123.101 112.703 124.968ZM99.9029 127.635C101.903 129.635 102.836 133.501 101.236 133.501C98.8362 133.501 95.3696 130.301 95.3696 128.168C95.3696 124.968 97.1029 124.701 99.9029 127.635ZM75.3696 134.168C75.3696 133.368 76.0362 133.768 76.7029 135.101C78.9696 138.835 76.8362 141.768 72.8362 140.835C68.1696 139.635 68.0362 139.501 70.9696 135.768C72.5696 133.501 73.6362 132.968 74.3029 134.035C74.8362 134.835 75.3696 134.968 75.3696 134.168ZM92.4362 138.701C93.7696 139.501 93.2362 140.035 90.4362 140.568C86.3029 141.368 84.3029 140.568 85.3696 138.701C86.4362 137.235 90.1696 137.101 92.4362 138.701Z" fill="#D82E26"/>
<path d="M39.9029 71.768C39.5029 73.1013 38.0362 76.4347 36.5696 79.1013C34.4362 83.368 34.3029 84.0347 36.1696 83.2347C38.0362 82.568 38.1696 83.6347 37.5029 92.3013C36.8362 100.035 36.9696 101.235 38.0362 98.168C38.8362 95.9013 39.3696 90.8347 39.1029 86.8347C38.9696 82.0347 39.6362 78.0347 41.1029 75.2347C42.5696 72.568 42.8362 70.7013 42.0362 70.168C41.2362 69.768 40.3029 70.4347 39.9029 71.768Z" fill="#D82E26"/>
<path d="M32.7029 74.168C32.7029 75.2347 32.1695 76.168 31.3695 76.168C30.7029 76.168 30.0362 75.5013 30.0362 74.8347C30.0362 74.0347 29.3695 73.5013 28.7029 73.5013C27.6362 73.5013 27.6362 74.3013 28.5695 75.768C29.5029 77.5013 29.2362 78.8347 27.7695 80.4347C25.9029 82.4347 26.0362 82.568 28.7029 81.9013C31.3695 81.2347 31.5029 81.368 30.3029 83.768C29.5029 85.2347 27.9029 87.1013 26.8362 88.168C25.6362 89.1013 24.7029 90.4347 24.7029 91.2347C24.7029 91.9013 25.7695 91.6347 27.1029 90.4347C30.3029 87.5013 31.3695 87.6347 31.3695 90.7013C31.3695 94.7013 29.9029 97.5013 27.7695 97.5013C26.1695 97.5013 26.1695 97.9013 28.0362 99.768C31.3695 103.101 32.7029 99.9013 32.7029 87.9013C32.7029 80.568 33.2362 77.1013 34.7029 75.6347C35.7695 74.568 36.7029 73.368 36.7029 72.968C36.7029 72.568 35.7695 72.168 34.7029 72.168C33.6362 72.168 32.7029 73.1013 32.7029 74.168Z" fill="#D82E26"/>
<path d="M46.7028 73.5013C44.1695 74.568 44.1695 74.7013 47.1028 74.7013C51.1028 74.8347 50.3028 77.768 45.9028 78.8347C43.7695 79.368 42.8362 80.4347 43.1028 82.0347C43.3695 83.368 42.8362 85.368 41.9028 86.568C40.4362 88.4347 40.4362 88.568 42.0362 87.1013C44.5695 84.968 46.0362 85.1013 46.0362 87.5013C46.0362 88.568 45.2362 89.5013 44.4362 89.5013C43.2362 89.5013 43.3695 89.9013 44.7028 90.8347C46.3028 91.9013 46.1695 92.7013 43.5028 96.168C40.8362 99.9013 40.7028 100.301 43.1028 98.968C44.4362 98.168 46.4362 95.768 47.3695 93.5013C48.7028 90.3013 49.9028 89.5013 52.8362 89.5013C54.9695 89.5013 56.7028 88.968 56.7028 88.168C56.7028 87.5013 54.9695 87.2347 52.7028 87.6347C48.1695 88.568 47.5028 87.368 51.1028 84.568C53.1028 82.968 52.9695 82.8347 49.7695 83.6347C46.8362 84.3013 46.0362 83.9013 46.0362 82.3013C46.0362 80.8347 47.7695 79.9013 51.3695 79.368C54.3028 78.8347 56.3028 78.0347 55.9028 77.368C55.6362 76.8347 54.4362 76.568 53.3695 77.1013C50.9695 77.9013 50.7028 76.0347 52.9695 73.768C54.1695 72.568 54.0362 72.168 52.0362 72.3013C50.5695 72.3013 48.1695 72.8347 46.7028 73.5013Z" fill="#D82E26"/>
<path d="M48.7029 93.1014C48.8362 95.5014 53.6362 100.435 55.5029 100.035C56.9695 99.6347 56.1695 98.4347 53.1029 95.768C50.7029 93.6347 48.7029 92.4347 48.7029 93.1014Z" fill="#D82E26"/>
<path d="M76.0362 80.0347C73.6362 80.968 73.7695 81.2347 77.7695 83.368C81.5029 85.2347 82.7029 85.368 85.6362 83.9014C87.5029 82.968 89.1029 81.5014 89.2362 80.8347C89.3695 79.2347 79.6362 78.568 76.0362 80.0347Z" fill="#D82E26"/>
<path d="M125.503 96.8347C126.036 98.168 125.636 99.6347 124.57 100.301C123.103 101.235 123.103 101.501 125.103 101.501C126.303 101.501 127.37 102.435 127.37 103.501C127.37 105.101 127.77 105.101 129.77 103.101C131.236 101.768 131.77 100.301 131.103 99.368C130.57 98.568 130.57 97.368 131.103 96.8347C131.636 96.168 131.236 96.168 130.303 96.7013C129.37 97.2347 127.636 96.968 126.57 96.0347C124.97 94.7013 124.836 94.8347 125.503 96.8347Z" fill="#D82E26"/>
</svg>
