<svg width="162" height="162" viewBox="0 0 162 162" fill="none" xmlns="http://www.w3.org/2000/svg">
<path d="M65.3695 1.50133C35.2362 7.63467 10.3029 31.9013 2.56954 62.8347C-0.363791 74.568 0.569542 94.968 4.56954 106.835C15.7695 139.635 46.4362 161.368 81.3695 161.501C118.836 161.501 152.303 134.435 160.036 97.9013C169.103 55.368 143.236 13.5013 101.37 2.83467C90.5695 0.034668 75.3695 -0.498672 65.3695 1.50133ZM97.3695 3.50133C112.57 6.70134 125.236 13.768 136.703 25.368C153.236 42.168 159.903 58.0347 159.903 80.8347C159.903 104.035 151.903 122.301 135.103 138.168C93.1029 177.901 25.3695 160.701 5.90288 105.501C3.36954 98.3013 2.83621 94.0347 2.83621 80.8347C2.83621 66.8347 3.23621 63.6347 6.43621 54.968C20.1695 17.2347 58.7029 -4.632 97.3695 3.50133Z" fill="#D82E26"/>
<path d="M82.0363 8.83473C82.0363 14.0347 81.7696 14.1681 68.0363 15.5014C60.7029 16.1681 60.3029 16.0347 62.5696 14.1681C64.0363 13.1014 66.7029 12.1681 68.5696 12.1681C74.7029 12.1681 78.0363 10.5681 78.0363 8.03473C78.0363 4.70139 71.3696 4.56805 60.4363 7.63472C54.5696 9.36806 52.7029 10.4347 53.3696 11.7681C55.5029 17.3681 55.6363 20.1681 53.7696 20.1681C52.7029 20.1681 48.9696 22.0347 45.6363 24.3014C42.1696 26.5681 38.7029 28.1681 37.7696 27.9014C36.8363 27.5014 39.5029 24.9681 43.7696 22.1681C51.7696 16.8347 52.0363 16.5681 50.1696 13.6347C49.2363 12.1681 47.6363 12.5681 41.7696 15.9014C37.9029 18.1681 33.2363 21.5014 31.5029 23.3681C28.4363 26.5681 28.4363 26.9681 30.4363 29.2347C31.7696 30.5681 32.7029 32.4347 32.7029 33.2347C32.7029 35.5014 21.7696 49.5014 20.5696 48.8347C19.3696 48.0347 23.7696 39.9014 26.8363 37.5014C29.2363 35.3681 29.2363 32.9681 26.8363 30.9681C25.3696 29.7681 24.1696 30.4347 20.9696 34.4347C17.6363 38.8347 11.3696 49.6347 11.3696 51.2347C11.3696 51.6347 13.2363 52.5681 15.5029 53.5014C18.1696 54.7014 19.2363 55.9014 18.7029 57.2347C18.3029 58.3014 17.3696 61.9014 16.5696 65.3681C14.3029 74.8347 14.0363 75.3681 12.7029 74.0347C11.7696 73.1014 12.1696 69.9014 13.3696 64.8347C15.1029 58.5681 15.1029 56.8347 13.7696 55.9014C9.7696 53.5014 8.30294 55.7681 6.1696 68.3014C4.1696 80.3014 4.1696 80.1681 9.23627 80.1681H13.7696L15.1029 89.7681C15.9029 95.1014 16.0363 100.035 15.5029 100.568C14.3029 101.768 13.7696 99.9014 11.9029 89.1014C11.2363 84.9681 10.5696 84.1681 7.90294 84.1681C4.83627 84.1681 4.70294 84.5681 5.50294 89.7681C6.9696 99.9014 10.1696 109.768 11.7696 109.101C18.8363 106.435 18.9696 106.568 23.5029 114.435C29.2363 124.301 29.2363 124.168 27.3696 124.168C26.5696 124.168 24.0363 121.101 21.7696 117.501C17.3696 110.435 17.1029 110.168 14.1696 112.035C12.5696 113.101 12.5696 114.035 13.6363 116.435C15.7696 121.101 25.2363 133.501 26.5696 133.501C27.3696 133.501 29.2363 132.301 30.8363 130.701L33.7696 128.035L37.5029 131.501C39.6363 133.501 42.9696 136.035 44.9696 137.235C47.1029 138.435 48.7029 140.168 48.7029 141.235C48.7029 143.235 46.5696 142.168 39.5029 136.968C36.9696 135.101 34.1696 133.501 33.2363 133.501C30.3029 133.501 30.1696 137.235 33.1029 139.901C36.8363 143.235 49.2363 150.835 51.1029 150.835C51.7696 150.835 53.1029 148.968 53.9029 146.835C55.5029 142.168 54.8363 142.301 62.0363 144.835C65.1029 145.901 69.1029 146.835 70.8363 146.835C72.7029 146.835 74.0363 147.635 74.0363 148.701C74.0363 150.435 70.1696 150.168 60.5696 147.635C57.9029 146.835 56.8363 147.235 56.1696 148.835C55.7696 150.035 55.6363 151.501 56.0363 152.168C56.7029 153.235 65.5029 155.501 75.1029 156.835L80.7029 157.768V153.101V148.435L90.3029 147.101C95.6363 146.301 100.57 146.168 101.103 146.701C102.303 147.901 100.436 148.435 89.7696 150.301C86.0363 150.968 84.7029 151.768 84.7029 153.635C84.7029 155.768 85.6363 156.168 90.4363 156.168C98.3029 156.035 109.503 152.035 108.836 149.501C107.103 142.968 107.103 141.501 108.836 141.501C109.903 141.501 113.37 139.635 116.703 137.501C123.103 133.235 124.703 132.701 124.703 134.835C124.703 135.635 121.77 138.168 118.036 140.435C110.97 144.835 110.703 145.101 112.57 148.035C113.636 149.635 115.103 149.101 121.37 145.368C125.503 142.835 130.17 139.501 131.636 137.901L134.436 134.835L131.503 131.635L128.436 128.435L134.036 121.235C142.836 110.035 145.503 110.835 137.37 122.301C133.103 128.301 132.836 128.968 134.97 130.568C137.903 132.701 140.036 130.701 146.57 119.635C151.77 110.968 152.303 109.501 149.636 109.501C148.703 109.501 146.97 108.701 145.77 107.768C143.77 106.301 143.77 105.368 145.903 97.2347C147.103 92.3014 148.57 87.7681 149.103 87.3681C150.57 85.9014 150.17 93.5014 148.57 99.3681C147.503 103.501 147.503 104.835 148.97 105.635C149.903 106.301 151.236 106.568 152.036 106.435C153.77 105.768 156.703 94.0347 156.703 87.1014C156.703 81.7681 156.57 81.5014 152.703 81.5014C148.036 81.5014 147.903 81.1014 146.836 69.7681C146.036 60.8347 148.036 58.1681 149.37 66.4347C151.103 76.8347 151.37 77.5014 154.303 77.5014C156.836 77.5014 156.97 76.9681 156.436 69.7681C156.036 65.6347 154.703 59.9014 153.636 57.2347C151.636 52.3014 151.503 52.3014 147.236 53.7681C144.17 54.8347 142.703 54.8347 142.436 53.9014C142.17 53.1014 139.903 49.1014 137.37 44.9681C134.17 39.7681 133.503 37.5014 134.836 37.5014C135.903 37.5014 138.303 40.4347 140.436 44.1681C144.17 50.9681 145.236 51.6347 148.57 49.6347C150.17 48.7014 149.77 47.3681 146.97 42.5681C145.103 39.5014 141.77 34.7014 139.636 32.1681L135.636 27.5014L132.17 30.7014L128.836 33.9014L123.903 29.6347C121.236 27.2347 117.636 24.7014 115.903 23.9014C114.17 23.1014 112.703 21.9014 112.703 21.2347C112.703 18.9681 116.703 20.3014 122.436 24.7014C128.303 29.1014 128.57 29.2347 130.703 26.8347C132.836 24.4347 132.703 24.1681 127.103 20.1681C121.903 16.3014 112.303 10.8347 110.97 10.8347C110.57 10.8347 109.636 12.7014 108.703 14.9681C107.503 17.7681 106.436 18.7014 104.836 18.1681C103.636 17.6347 99.7696 16.7014 96.0363 15.9014C92.4363 15.1014 88.8363 13.9014 88.1696 13.2347C86.3029 11.6347 93.7696 11.9014 99.9029 13.6347C104.036 14.7014 105.37 14.7014 106.17 13.2347C106.836 12.3014 107.103 10.9681 106.97 10.1681C106.436 8.83473 97.7696 6.30139 88.4363 5.10139L82.0363 4.16806V8.83473ZM76.7029 8.03473C76.7029 8.70139 74.4363 9.63472 71.7696 10.0347C59.5029 12.1681 59.2363 12.3014 59.6363 15.2347C59.9029 17.2347 60.8363 18.0347 62.7029 17.7681C64.1696 17.6347 69.2363 16.9681 74.0363 16.4347C82.7029 15.5014 82.7029 15.5014 83.1029 10.9681L83.5029 6.43472L91.1029 7.36806C101.636 8.56805 104.703 9.50139 104.703 11.5014C104.703 12.8347 103.103 12.8347 97.1029 11.3681C86.7029 8.96806 86.0363 8.96806 86.0363 12.8347C86.0363 15.2347 86.7029 16.1681 88.7029 16.1681C90.1696 16.1681 95.1029 17.2347 99.6363 18.4347C105.103 20.0347 108.036 20.3014 108.303 19.3681C108.57 18.5681 109.636 16.8347 110.57 15.5014C112.303 13.1014 112.703 13.2347 118.836 16.8347C126.97 21.5014 130.17 24.1681 129.236 25.6347C128.836 26.3014 125.236 24.5681 121.236 21.9014C115.103 17.9014 113.636 17.3681 112.57 18.9681C110.703 22.0347 111.103 23.6347 114.57 25.2347C116.303 26.0347 119.903 28.5681 122.57 30.9681C126.836 34.7014 127.903 34.9681 130.703 33.7681C132.57 32.8347 134.036 31.5014 134.036 30.7014C134.036 28.1681 138.836 33.1014 143.37 40.1681C147.636 46.8347 148.036 48.1681 146.17 48.1681C145.503 48.1681 143.103 45.1014 140.703 41.5014C138.303 37.7681 135.636 34.8347 134.703 34.8347C131.103 34.8347 131.636 39.1014 135.903 45.9014C138.303 49.6347 140.703 53.9014 141.103 55.3681C141.77 56.9681 142.703 57.5014 144.436 56.8347C151.636 53.9014 152.303 54.8347 154.836 70.4347C156.303 79.7681 153.236 77.1014 151.37 67.5014C149.77 59.1014 148.57 57.6347 144.97 60.0347C143.503 60.8347 143.503 62.1681 144.57 66.3014C145.37 69.2347 146.036 74.0347 146.036 77.1014C146.036 82.7014 146.036 82.8347 150.703 82.8347C154.703 82.8347 155.37 83.2347 155.37 85.9014C155.37 92.1681 152.303 104.168 150.703 104.168C149.37 104.168 149.503 102.301 150.97 96.1681C152.97 87.3681 152.57 85.5014 148.836 85.5014C146.97 85.5014 146.17 86.8347 145.503 91.1014C144.97 94.3014 143.77 99.2347 142.836 102.168C140.97 107.368 140.97 107.501 144.436 109.368C146.436 110.301 148.17 111.368 148.436 111.501C149.236 112.168 143.636 122.035 140.17 126.168C134.97 132.568 134.703 129.101 139.903 121.501C142.57 117.635 144.703 114.035 144.703 113.368C144.703 112.301 144.17 112.035 140.836 111.635C140.303 111.501 136.703 115.368 132.836 120.035L126.036 128.701L128.97 131.768C131.77 134.701 131.77 134.835 129.236 137.635C125.903 141.368 115.77 147.235 113.903 146.568C113.103 146.301 115.77 143.901 119.903 141.101C127.77 135.901 128.436 134.701 125.503 132.301C123.903 130.968 122.436 131.501 118.17 134.568C115.236 136.701 110.97 139.235 108.703 140.168C105.37 141.501 104.836 142.435 105.503 144.701C107.37 150.435 106.836 151.235 100.036 152.968C96.4363 154.035 91.7696 154.835 89.7696 154.835C83.1029 154.835 85.7696 152.701 94.1696 151.101C98.7029 150.301 102.703 149.368 102.97 148.968C103.37 148.701 103.236 147.101 102.703 145.501C102.036 143.501 101.103 142.968 99.6363 143.501C98.4363 143.901 94.7029 144.568 91.3696 144.968C79.9029 146.301 79.3696 146.568 79.3696 150.835C79.3696 154.568 78.9696 154.835 74.5696 154.835C68.3029 154.835 58.0363 152.168 58.0363 150.568C58.0363 149.768 60.1696 149.635 63.7696 150.301C73.5029 152.035 76.0363 151.768 76.4363 148.701C76.7029 146.435 75.7696 145.768 69.1029 144.568C64.8363 143.768 59.7696 142.568 57.7696 142.168C54.7029 141.368 53.9029 141.768 52.5696 144.701C51.6363 146.568 50.3029 148.168 49.5029 148.168C46.9696 148.168 32.7029 138.301 32.7029 136.568C32.7029 134.035 33.3696 134.301 40.5696 139.501C44.0363 142.035 47.6363 144.168 48.5696 144.168C49.9029 144.168 50.1696 143.635 50.5696 140.301C50.7029 138.968 34.7029 126.835 32.9696 126.835C32.3029 126.835 30.7029 128.035 29.3696 129.501C26.9696 132.035 26.8363 132.035 21.2363 124.701C15.7696 117.635 14.0363 113.501 16.4363 113.501C16.9696 113.501 18.5696 115.635 19.9029 118.168C21.2363 120.701 23.5029 123.768 24.9696 125.101C27.1029 126.968 27.7696 127.101 29.3696 125.368C30.9696 123.768 30.8363 122.701 27.6363 118.035C25.6363 114.968 22.9696 110.568 21.7696 108.301C19.7696 104.568 19.1029 104.168 16.5696 105.501C15.1029 106.301 13.1029 106.701 12.1696 106.435C10.4363 105.768 7.3696 94.3014 7.3696 88.7014C7.3696 82.7014 9.7696 85.5014 10.5696 92.5681C11.6363 101.235 12.9696 103.368 16.3029 102.301C18.5696 101.501 18.7029 100.835 17.6363 93.1014C15.5029 78.4347 15.6363 78.8347 11.3696 78.8347C7.63627 78.8347 7.3696 78.4347 7.3696 74.0347C7.3696 71.5014 8.03627 66.7014 8.83627 63.3681C10.5696 56.5681 13.5029 55.1014 12.0363 61.7681C11.6363 64.1681 10.8363 68.4347 10.4363 71.1014C9.7696 75.9014 9.90294 76.1681 13.2363 76.1681C15.9029 76.1681 16.7029 75.5014 16.7029 73.2347C16.7029 71.6347 17.7696 66.7014 18.9696 62.3014C20.4363 57.1014 20.7029 54.1681 19.7696 53.9014C19.1029 53.6347 17.2363 52.5681 15.9029 51.6347C13.6363 49.9014 13.6363 49.3681 15.3696 46.0347C18.4363 39.9014 24.8363 32.0347 26.1696 32.8347C26.7029 33.2347 25.1029 36.5681 22.5696 40.3014C17.9029 46.5681 17.3696 50.8347 20.9696 50.8347C21.9029 50.8347 25.6363 46.8347 29.2363 42.0347L35.6363 33.3681L32.8363 30.3014L29.9029 27.2347L34.7029 23.1014C40.1696 18.3014 47.2363 14.3014 48.4363 15.3681C49.2363 16.3014 49.6363 15.9014 41.7696 21.3681C38.1696 23.7681 35.3696 25.9014 35.3696 26.1681C35.3696 27.7681 37.2363 30.8347 38.1696 30.8347C38.8363 30.8347 41.7696 29.1014 44.7029 26.9681C47.5029 24.9681 51.6363 22.4347 53.9029 21.6347C57.5029 20.0347 57.7696 19.6347 56.4363 16.0347C54.7029 11.2347 54.9696 10.8347 62.9696 8.70139C70.5696 6.70139 76.7029 6.43472 76.7029 8.03473Z" fill="#D82E26"/>
<path d="M64.8362 20.968C50.3029 24.8347 36.9696 34.8347 28.5696 47.9014C18.1696 64.3014 16.3029 88.4347 24.3029 105.768C34.9696 128.835 56.5696 142.835 81.3696 142.835C99.9029 142.835 114.57 136.035 127.903 121.235C144.17 103.235 147.77 76.568 136.97 53.5014C132.703 44.4347 118.436 29.768 109.636 25.6347C95.5029 18.8347 79.1029 17.1014 64.8362 20.968ZM83.1029 23.2347C83.5029 24.968 82.7029 25.368 80.3029 25.2347C77.5029 24.968 77.1029 24.568 78.1696 22.4347C79.7696 19.6347 82.5696 20.0347 83.1029 23.2347ZM74.9696 24.4347C74.8362 26.7014 75.6362 27.6347 79.1029 28.568C82.9696 29.768 83.7696 29.5014 85.7696 26.7014C86.9696 24.968 87.9029 23.1014 87.6362 22.4347C87.5029 21.9014 88.5696 21.5014 90.0362 21.5014C91.7696 21.5014 92.4362 22.168 91.9029 23.5014C91.3696 24.568 91.9029 26.568 92.8362 27.9014C94.4362 29.9014 94.4362 30.0347 92.5696 28.4347C90.0362 26.568 86.0362 27.6347 86.0362 30.3014C86.0362 31.368 85.2362 32.168 84.1696 32.168C82.0362 32.168 80.3029 35.768 81.5029 37.6347C82.4362 39.2347 84.1696 39.1014 86.3029 37.1014C87.2362 36.3014 89.2362 35.368 90.7029 35.1014L93.3696 34.568L90.7029 36.7014C88.0362 38.8347 88.0362 38.8347 91.2362 41.5014C92.9696 42.968 94.0362 44.968 93.6362 46.0347C93.2362 47.1014 94.1696 48.8347 95.7696 49.9014C98.3029 51.5014 98.9696 51.5014 100.836 49.6347C102.303 48.3014 102.703 46.568 102.036 44.8347C101.37 42.968 101.903 41.768 103.903 40.8347C106.303 39.6347 106.836 39.768 107.37 42.168C107.903 43.9014 109.236 44.8347 111.37 44.8347C113.77 44.8347 114.703 45.6347 114.703 47.5014C114.703 51.5014 116.57 53.5014 120.17 53.5014C122.836 53.5014 123.37 52.8347 123.37 49.5014C123.37 47.1014 122.703 45.6347 121.77 45.768C119.636 46.3014 118.836 40.968 120.436 38.0347C121.37 36.3014 122.17 36.568 125.503 40.0347C127.636 42.3014 129.37 44.968 129.503 45.768C129.903 50.3014 130.17 50.968 131.236 50.168C132.036 49.768 133.236 50.568 134.036 52.0347C135.503 54.8347 134.703 55.768 131.37 55.6347C130.303 55.5014 129.37 54.568 129.236 53.5014C128.836 47.9014 128.836 47.768 126.703 49.5014C125.103 50.8347 125.103 51.5014 126.97 54.3014C128.97 57.368 128.836 57.768 126.836 59.2347C124.17 61.2347 125.37 66.0347 128.17 64.968C130.836 63.9014 130.436 65.1014 127.236 68.3014C125.236 70.3014 124.036 70.7014 123.503 69.6347C121.903 67.1014 118.036 72.4347 118.97 75.9014C119.77 79.1014 119.903 79.2347 124.436 78.0347C126.036 77.5014 127.37 76.168 127.37 74.968C127.503 73.1014 127.636 73.1014 128.836 75.2347C129.77 76.968 129.77 78.168 128.836 79.368C128.036 80.4347 127.503 82.0347 127.77 82.968C128.036 84.0347 128.036 84.4347 127.77 83.768C126.703 82.0347 121.903 82.8347 121.103 84.968C120.703 86.0347 120.97 88.3014 121.77 89.9014C122.57 91.5014 123.37 94.0347 123.636 95.5014C124.036 97.368 125.236 98.168 128.036 98.3014C139.103 98.7014 139.236 98.8347 138.436 100.968C137.903 102.301 136.703 102.835 134.97 102.301C132.303 101.635 128.703 104.168 128.703 106.701C128.703 107.368 129.636 108.968 130.836 110.168C132.703 112.035 132.836 112.568 130.836 115.235C127.636 119.768 125.103 122.835 124.57 122.835C124.303 122.835 124.036 118.435 124.036 113.235V103.501L117.636 103.901C110.703 104.301 110.57 103.768 115.236 98.4347C116.97 96.3014 116.97 95.9014 115.37 94.8347C113.903 93.9014 113.103 94.4347 112.436 96.8347C112.036 98.568 110.303 101.901 108.57 104.301C105.903 108.035 105.903 108.301 108.17 107.235C109.503 106.435 113.103 105.901 116.036 106.035C120.57 106.168 121.37 106.568 121.77 109.368C122.57 115.101 120.703 124.168 118.703 124.168C117.503 124.168 116.836 125.235 117.103 126.835C117.37 130.168 110.036 135.368 109.103 132.435C108.703 131.635 106.703 130.835 104.57 130.835C100.97 130.835 99.7696 132.701 100.57 137.768C100.57 138.435 89.3696 141.501 86.7029 141.501C85.1029 141.501 86.3029 136.301 88.0362 135.635C89.2362 135.235 90.0362 133.235 90.0362 130.968C90.0362 128.835 90.7029 126.568 91.5029 126.168C92.3029 125.635 92.5696 124.301 92.0362 123.101C91.2362 120.968 97.6362 113.101 99.3696 114.168C100.836 115.101 99.1029 122.968 97.2362 123.768C95.7696 124.301 95.9029 124.835 97.5029 126.568C100.836 129.901 102.17 126.168 101.77 114.168C101.636 105.635 102.036 102.701 104.036 99.768C105.77 96.968 106.036 95.6347 104.836 94.4347C103.77 93.368 103.37 93.5014 103.37 95.1014C103.37 98.3014 99.6362 100.968 97.7696 99.1014C94.9696 96.3014 93.5029 97.368 96.1696 100.301C98.7029 103.101 98.7029 103.101 94.7029 106.435L90.7029 109.768L95.1029 107.635C97.3696 106.435 99.3696 105.768 99.3696 106.168C99.3696 108.035 95.3696 114.435 92.8362 116.701C90.1696 119.101 90.0362 119.101 88.7029 115.368C87.9029 113.235 85.9029 110.168 84.4362 108.435C82.8362 106.835 82.0362 105.501 82.5696 105.501C83.2362 105.501 82.9696 104.701 82.0362 103.635C80.0362 101.101 76.9696 102.301 76.4362 105.901C75.9029 109.901 69.6362 110.035 68.8362 106.168C68.5696 104.701 67.7696 103.101 66.8362 102.568C64.7029 101.101 60.4362 101.235 61.3696 102.701C62.1696 104.035 58.5696 108.168 56.7029 108.168C54.4362 108.168 51.6362 104.168 52.3029 101.768C53.1029 98.3014 48.7029 96.568 46.5696 99.368C42.8362 104.435 35.9029 100.035 39.2362 94.7014C40.0362 93.2347 40.1696 92.168 39.5029 92.168C38.7029 92.168 37.7696 92.7014 37.3696 93.5014C36.9696 94.168 33.2362 94.8347 29.2362 94.8347C23.1029 94.8347 22.0362 94.4347 22.0362 92.3014C22.0362 90.7014 23.5029 89.2347 25.9029 88.4347C29.2362 87.2347 29.7696 86.4347 29.5029 83.2347C29.2362 80.568 28.0362 78.968 24.9696 77.6347C20.4362 75.5014 19.2362 73.1014 23.1029 73.6347C24.3029 73.768 26.4362 73.5014 27.7696 72.8347C28.9696 72.3014 30.9696 72.3014 32.1696 72.7014C33.9029 73.368 34.0362 73.9014 32.7029 75.5014C30.4362 78.168 33.1029 81.5014 37.5029 81.5014C40.1696 81.5014 40.7029 80.8347 40.7029 77.5014C40.7029 74.7014 40.0362 73.5014 38.5696 73.5014C36.5696 73.5014 36.4362 72.4347 37.1029 65.5014C37.9029 58.568 37.6362 57.368 35.6362 56.7014C28.8362 54.568 27.3696 51.768 30.7029 47.5014C32.8362 44.8347 32.8362 44.8347 32.3029 47.768C31.9029 49.368 32.4362 51.368 33.5029 52.3014C34.5696 53.1014 35.3696 53.368 35.3696 52.7014C35.3696 52.168 36.0362 52.3014 36.9696 53.2347C38.9696 55.2347 42.0362 55.368 42.0362 53.368C42.0362 52.4347 42.9696 51.1014 44.1696 50.168C46.1696 48.7014 46.1696 48.3014 44.0362 44.968C42.1696 42.168 40.8362 41.5014 38.4362 42.168C34.1696 43.2347 34.5696 41.1014 39.6362 36.8347C43.6362 33.368 43.9029 33.368 45.6362 35.768C46.7029 37.1014 47.2362 39.1014 46.9696 40.3014C46.5696 41.5014 46.8362 43.2347 47.3696 44.0347C48.7029 46.3014 52.7029 44.3014 52.7029 41.2347C52.7029 39.9014 52.0362 39.1014 51.3696 39.5014C50.5696 40.0347 50.3029 40.8347 50.7029 41.5014C51.1029 42.168 50.8362 42.968 50.0362 43.5014C48.5696 44.4347 48.3029 42.8347 49.5029 39.6347C49.9029 38.4347 51.1029 37.5014 52.0362 37.5014C54.4362 37.5014 54.1696 30.8347 51.7696 29.9014C50.1696 29.2347 50.4362 28.7014 52.8362 27.368C57.1029 24.968 57.7696 25.1014 57.5029 27.768C57.5029 29.1014 58.4362 30.3014 59.7696 30.568C62.5696 31.1014 64.4362 26.968 61.9029 25.5014C59.5029 23.9014 64.8362 21.768 70.9696 21.6347C74.7029 21.5014 75.2362 21.9014 74.9696 24.4347ZM97.9029 28.4347C98.0362 27.6347 98.7029 26.8347 99.5029 26.8347C100.17 26.8347 100.57 27.368 100.036 28.0347C99.6362 28.7014 100.303 30.168 101.37 31.2347C103.77 33.6347 104.036 35.368 101.77 34.0347C100.836 33.368 100.57 33.768 101.103 35.2347C101.636 36.7014 101.37 37.1014 99.9029 36.568C98.8362 36.168 98.0362 36.7014 98.0362 37.6347C98.0362 39.1014 97.6362 39.1014 96.7029 37.5014C95.9029 36.168 95.3696 36.0347 95.3696 37.1014C95.3696 38.0347 94.8362 38.8347 94.0362 38.8347C93.3696 38.8347 93.1029 38.0347 93.5029 36.968C93.9029 36.0347 93.2362 34.3014 92.1696 33.1014C90.3029 31.368 90.4362 31.1014 92.7029 30.4347C94.1696 30.0347 95.3696 28.7014 95.5029 27.2347C95.5029 25.1014 95.6362 25.1014 96.7029 27.5014C97.3696 28.968 97.9029 29.368 97.9029 28.4347ZM62.0362 27.368C62.0362 27.768 61.5029 28.4347 60.7029 28.8347C60.0362 29.2347 59.3696 28.968 59.3696 28.3014C59.3696 27.5014 60.0362 26.8347 60.7029 26.8347C61.5029 26.8347 62.0362 27.1014 62.0362 27.368ZM111.37 28.168C113.103 29.368 112.97 29.9014 110.17 32.168C106.836 35.1014 103.103 35.9014 105.77 33.2347C106.703 32.3014 107.37 30.568 107.37 29.2347C107.37 26.568 108.436 26.3014 111.37 28.168ZM50.7029 34.8347C50.0362 35.9014 49.2362 35.9014 48.4362 35.1014C47.6362 34.3014 47.5029 32.968 48.0362 32.168C48.7029 31.1014 49.5029 31.1014 50.3029 31.9014C51.1029 32.7014 51.2362 34.0347 50.7029 34.8347ZM115.77 35.2347C116.703 34.8347 116.97 34.8347 116.436 35.5014C115.903 36.0347 116.036 37.368 116.836 38.4347C118.036 39.768 117.903 40.168 116.836 40.168C115.903 40.168 115.503 40.7014 115.903 41.2347C116.17 41.768 115.103 42.3014 113.37 42.3014C111.636 42.3014 110.57 41.768 110.836 41.2347C111.236 40.7014 110.703 40.168 109.77 40.0347C108.436 40.0347 108.436 39.768 109.903 39.2347C111.37 38.568 111.37 38.3014 109.903 37.368C108.436 36.4347 108.57 36.168 110.436 36.168C111.636 36.168 112.703 35.368 112.836 34.4347C112.836 33.2347 113.103 33.2347 113.636 34.568C113.903 35.368 114.97 35.768 115.77 35.2347ZM86.0362 35.368C86.0362 36.8347 83.5029 37.368 82.7029 36.168C82.3029 35.5014 82.8362 34.8347 83.9029 34.8347C85.1029 34.8347 86.0362 35.1014 86.0362 35.368ZM99.3696 41.5014C99.3696 42.168 98.7029 42.8347 97.9029 42.8347C97.2362 42.8347 96.9696 42.168 97.3696 41.5014C97.7696 40.7014 98.4362 40.168 98.8362 40.168C99.1029 40.168 99.3696 40.7014 99.3696 41.5014ZM41.1029 48.168C40.7029 49.6347 39.6362 50.8347 38.7029 50.8347C35.9029 50.8347 35.2362 46.968 37.7696 45.6347C40.7029 44.0347 41.9029 44.968 41.1029 48.168ZM98.5696 47.9014C95.6362 48.568 94.4362 46.968 96.7029 45.5014C97.9029 44.7014 98.9696 44.8347 99.6362 45.9014C100.17 46.8347 99.7696 47.6347 98.5696 47.9014ZM120.703 49.5014C120.703 51.2347 120.036 51.9014 118.703 51.368C116.57 50.4347 116.17 49.1014 117.636 47.768C119.236 46.0347 120.703 46.8347 120.703 49.5014ZM30.1696 58.7014C30.9696 57.368 31.3696 57.9014 31.3696 60.4347C31.3696 63.1014 32.0362 64.168 33.7696 64.3014C35.5029 64.3014 35.3696 64.568 33.1029 65.5014C31.3696 66.168 30.0362 67.768 30.0362 69.1014C30.0362 71.1014 29.7696 71.2347 28.7029 69.5014C27.6362 67.9014 27.1029 67.9014 26.3029 69.2347C25.5029 70.3014 25.1029 68.968 24.9696 65.5014C24.8362 62.568 25.2362 60.168 26.0362 60.168C26.7029 60.168 26.9696 59.1014 26.5696 57.768C25.9029 55.9014 26.0362 55.9014 27.3696 58.0347C28.7029 60.0347 29.2362 60.168 30.1696 58.7014ZM138.303 60.968C139.636 63.768 139.503 64.568 137.903 65.5014C136.57 66.4347 135.903 66.168 135.636 64.8347C135.37 63.768 134.036 62.8347 132.57 62.8347C129.636 62.8347 129.37 61.368 131.636 59.1014C134.17 56.568 136.57 57.2347 138.303 60.968ZM128.703 61.5014C128.703 62.168 128.036 62.8347 127.236 62.8347C126.57 62.8347 126.303 62.168 126.703 61.5014C127.103 60.7014 127.77 60.168 128.17 60.168C128.436 60.168 128.703 60.7014 128.703 61.5014ZM136.17 68.3014C137.236 68.7014 137.37 69.9014 136.57 72.0347C135.636 74.4347 134.97 74.8347 133.503 73.6347C132.57 72.8347 131.37 72.568 130.836 73.1014C130.436 73.6347 130.703 72.0347 131.503 69.6347C132.303 67.2347 133.37 65.768 133.903 66.568C134.303 67.2347 135.37 68.0347 136.17 68.3014ZM124.436 73.768C123.636 76.168 120.703 76.568 120.703 74.3014C120.703 73.1014 121.636 72.168 122.836 72.168C124.036 72.168 124.703 72.8347 124.436 73.768ZM37.3696 78.8347C36.7029 79.9014 35.9029 79.9014 35.1029 79.1014C34.3029 78.3014 34.1696 76.968 34.7029 76.168C35.3696 75.1014 36.1696 75.1014 36.9696 75.9014C37.7696 76.7014 37.9029 78.0347 37.3696 78.8347ZM142.036 79.6347C142.036 82.168 141.37 82.8347 138.836 82.8347C135.903 82.8347 133.37 79.768 134.57 77.768C134.836 77.2347 136.703 76.7014 138.57 76.7014C141.37 76.4347 142.036 77.1014 142.036 79.6347ZM25.9029 80.968C26.4362 80.568 26.8362 81.5014 26.8362 82.8347C26.8362 85.9014 22.4362 87.368 21.5029 84.568C21.1029 83.5014 21.5029 81.9014 22.4362 80.8347C23.2362 79.9014 24.3029 79.6347 24.4362 80.3014C24.7029 80.968 25.3696 81.2347 25.9029 80.968ZM131.903 84.4347C131.236 85.5014 131.636 85.6347 133.236 85.1014C134.57 84.568 135.236 84.7014 134.703 85.5014C134.303 86.3014 134.836 86.8347 136.036 86.8347C138.036 86.8347 138.036 86.968 136.036 88.968C134.836 90.168 134.17 91.9014 134.436 92.7014C134.836 93.5014 133.503 94.168 131.37 94.168C128.97 94.168 127.903 93.6347 128.303 92.4347C128.836 91.368 128.17 91.1014 126.57 91.6347C124.436 92.3014 124.436 92.168 126.036 90.968C127.77 89.6347 127.77 89.368 126.036 88.168C124.303 87.1014 124.436 86.8347 126.436 86.8347C127.77 86.8347 129.103 85.9014 129.503 84.8347C130.036 83.768 130.836 82.8347 131.636 82.8347C132.303 82.8347 132.436 83.5014 131.903 84.4347ZM135.37 106.168C135.37 107.235 134.836 108.168 134.17 108.168C132.436 108.168 131.236 106.035 132.303 104.968C133.77 103.501 135.37 104.168 135.37 106.168ZM43.5029 107.235C43.6362 108.168 43.6362 109.501 43.5029 110.435C43.3696 111.235 43.9029 112.301 44.7029 112.835C47.1029 114.301 46.0362 117.235 42.0362 120.168L37.9029 123.101L35.2362 119.635C33.7696 117.768 31.7696 115.368 30.9696 114.435C28.9696 112.435 28.3029 109.635 29.2362 107.368C30.0362 105.235 43.3696 105.101 43.5029 107.235ZM64.7029 111.101C64.7029 112.301 65.1029 112.168 65.9029 110.968C66.9696 109.368 67.5029 109.635 68.8362 112.435C70.1696 115.501 70.9696 115.901 74.1696 115.235C76.7029 114.835 78.0362 115.101 78.0362 116.035C78.0362 116.968 78.7029 117.235 79.6362 116.701C81.1029 115.768 80.8362 118.035 78.7029 123.101C78.0362 124.701 78.5696 125.368 80.9696 125.768C85.5029 126.435 85.7696 132.968 81.3696 134.035C78.5696 134.701 78.3029 135.235 79.3696 138.168C80.5696 141.368 80.4362 141.501 75.9029 141.501C72.3029 141.501 70.9696 140.835 70.1696 138.435C68.7029 134.568 69.3696 133.635 73.1029 134.568C75.7696 135.235 75.9029 135.101 74.1696 133.101C72.0362 130.301 70.4362 130.301 67.9029 132.701C66.9696 133.768 64.8362 134.301 63.3696 133.901C61.5029 133.368 60.7029 133.901 60.7029 135.501C60.7029 137.101 60.0362 137.501 58.5696 136.968C57.3696 136.568 56.0362 136.168 55.6362 136.168C55.1029 136.168 56.1696 135.368 58.0362 134.435C60.3029 133.235 61.2362 131.768 60.9696 129.768C60.7029 128.035 61.2362 126.701 62.3029 126.568C63.2362 126.568 64.7029 126.301 65.3696 126.301C68.1696 125.901 70.0362 123.901 70.0362 121.101L69.9029 118.168L67.5029 121.101C65.2362 123.768 64.9696 123.768 62.8362 121.768C60.8362 119.768 60.7029 119.768 60.7029 122.568C60.7029 124.835 59.9029 125.501 57.1029 125.501C53.6362 125.501 53.6362 125.635 56.0362 127.368C58.5696 129.235 58.5696 129.368 56.1696 132.035C53.5029 134.968 50.5696 134.301 46.1696 129.901C44.5696 128.168 44.5696 127.768 46.1696 126.701C47.2362 126.035 48.8362 125.501 49.7696 125.501C51.5029 125.501 51.6362 124.701 50.1696 120.835C48.7029 117.101 51.7696 114.435 56.5696 115.501C59.9029 116.168 60.4362 115.901 61.2362 112.968C62.1696 109.368 64.7029 108.168 64.7029 111.101ZM106.17 135.235C104.436 136.968 102.703 135.635 104.036 133.635C104.436 132.835 105.503 132.568 106.303 132.968C107.103 133.501 107.103 134.301 106.17 135.235ZM67.3696 138.835C67.3696 139.501 66.4362 139.768 65.3696 139.368C64.3029 138.835 63.7696 138.035 64.1696 137.368C64.9696 135.901 67.3696 137.101 67.3696 138.835Z" fill="#D82E26"/>
<path d="M68.7029 36.4347C66.5696 44.8347 66.0362 45.5013 66.4362 39.2347L66.8362 33.5013L61.7696 39.2347C59.1029 42.3013 56.4362 46.0347 55.9029 47.5013C55.3696 48.968 53.9029 51.6347 52.5696 53.5013C50.0362 56.968 46.7029 68.7013 45.6362 78.4347C44.9696 83.9013 44.9696 83.9013 51.3696 86.7013C60.3029 90.568 70.5696 92.568 77.1029 91.768C88.5696 90.3013 100.97 87.1013 103.37 84.8347C105.903 82.568 106.17 82.568 108.703 84.8347C111.103 86.968 111.37 86.968 111.37 85.1013C111.37 80.0347 106.436 77.5013 97.1029 77.368C92.0362 77.368 86.8362 76.8347 85.3696 76.3013C82.8362 75.2347 82.8362 75.2347 85.6362 73.768C87.2362 72.8347 91.7696 72.168 95.7696 72.168C106.036 72.168 110.836 70.168 112.57 65.2347C114.436 60.0347 114.436 60.168 111.77 60.968C109.503 61.6347 109.503 61.6347 111.77 59.768C114.57 57.368 114.703 56.168 112.036 56.168C110.836 56.168 109.37 57.5013 108.703 59.1013L107.503 62.168V59.1013C107.37 56.4347 106.703 56.168 100.836 56.168C95.6362 56.168 93.3696 55.368 89.2362 52.0347C84.8362 48.4347 76.9696 44.168 74.8362 44.168C74.4362 44.168 73.9029 46.168 73.6362 48.4347C73.3696 50.8347 72.9696 47.9013 72.9696 41.768C72.7029 29.768 70.9696 27.6347 68.7029 36.4347ZM71.2362 56.8347C71.3696 61.2347 69.2362 56.4347 68.3029 50.168L67.5029 44.8347L69.3696 49.5013C70.3029 52.0347 71.2362 55.368 71.2362 56.8347ZM82.0362 52.168C82.0362 52.8347 81.1029 53.5013 79.9029 53.5013C78.8362 53.5013 78.3029 52.8347 78.7029 52.168C79.1029 51.368 80.0362 50.8347 80.8362 50.8347C81.5029 50.8347 82.0362 51.368 82.0362 52.168ZM88.0362 58.4347C88.1696 60.3013 87.3696 61.768 85.7696 62.3013C82.5696 63.2347 80.5696 61.9013 81.6362 59.2347C82.3029 57.6347 82.0362 57.368 80.5696 58.168C78.9696 59.2347 78.9696 58.968 80.5696 56.968C83.2362 53.768 87.7696 54.7013 88.0362 58.4347ZM66.4362 62.8347C66.9696 63.2347 66.5696 64.7013 65.6362 65.9013C63.5029 68.968 55.3696 67.6347 55.3696 64.3013C55.3696 60.3013 57.9029 58.8347 61.9029 60.568C63.7696 61.368 65.7696 62.4347 66.4362 62.8347ZM106.036 62.8347C106.036 63.5013 105.37 64.168 104.57 64.168C103.903 64.168 103.636 63.5013 104.036 62.8347C104.436 62.0347 105.103 61.5013 105.503 61.5013C105.77 61.5013 106.036 62.0347 106.036 62.8347ZM74.9696 66.168C76.0362 69.1013 74.1696 70.568 72.5696 68.168C71.5029 66.568 71.3696 66.968 71.6362 69.5013C71.9029 71.9013 73.2362 73.2347 76.4362 74.168C80.9696 75.5013 81.9029 77.1013 78.8362 78.3013C76.0362 79.368 69.1029 75.368 68.3029 72.3013C67.6362 69.5013 70.5696 64.168 72.8362 64.168C73.5029 64.168 74.4362 65.1013 74.9696 66.168ZM102.703 65.5013C103.103 66.168 102.836 66.8347 102.17 66.8347C101.37 66.8347 100.703 66.168 100.703 65.5013C100.703 64.7013 100.97 64.168 101.236 64.168C101.636 64.168 102.303 64.7013 102.703 65.5013ZM107.37 66.8347C107.37 67.5013 106.836 68.168 106.036 68.168C105.37 68.168 104.703 67.5013 104.703 66.8347C104.703 66.0347 105.37 65.5013 106.036 65.5013C106.836 65.5013 107.37 66.0347 107.37 66.8347ZM60.4362 74.168C60.7029 74.4347 60.3029 75.9013 59.3696 77.368C57.6362 80.7013 50.4362 81.2347 49.2362 78.168C47.5029 73.9013 49.7696 71.768 55.1029 72.8347C57.7696 73.368 60.1696 73.9013 60.4362 74.168ZM71.5029 82.568C72.4362 85.1013 72.0362 85.9013 69.2362 87.1013C64.8362 89.1013 61.7696 86.3013 63.5029 81.768C64.9696 77.768 69.9029 78.3013 71.5029 82.568ZM102.17 80.568C100.303 82.4347 92.3029 82.7013 88.3029 81.1013C84.9696 79.6347 85.5029 79.5013 93.9029 79.5013C98.9696 79.5013 102.703 80.0347 102.17 80.568Z" fill="#D82E26"/>
<path d="M40.0363 86.7013C38.9696 88.568 47.103 94.168 54.0363 96.568C66.9696 100.835 80.703 100.968 80.703 96.7013C80.703 95.368 78.9696 94.8347 74.4363 94.8347C66.8363 94.8347 56.303 92.168 48.303 88.3013C41.7696 85.1013 41.103 84.968 40.0363 86.7013Z" fill="#D82E26"/>
<path d="M40.7029 97.5014C40.7029 98.1681 41.6362 98.8347 42.7029 98.8347C43.7695 98.8347 44.7029 98.1681 44.7029 97.5014C44.7029 96.7014 43.7695 96.1681 42.7029 96.1681C41.6362 96.1681 40.7029 96.7014 40.7029 97.5014Z" fill="#D82E26"/>
<path d="M55.3696 103.501C55.3696 104.568 56.0363 105.501 56.703 105.501C57.503 105.501 58.0363 104.568 58.0363 103.501C58.0363 102.435 57.503 101.501 56.703 101.501C56.0363 101.501 55.3696 102.435 55.3696 103.501Z" fill="#D82E26"/>
<path d="M71.3696 104.835C71.3696 105.901 72.0363 106.835 72.703 106.835C73.503 106.835 74.0363 105.901 74.0363 104.835C74.0363 103.768 73.503 102.835 72.703 102.835C72.0363 102.835 71.3696 103.768 71.3696 104.835Z" fill="#D82E26"/>
<path d="M109.103 110.568C104.703 110.968 104.17 111.901 105.503 116.968C106.036 119.101 107.103 119.501 110.036 119.101C112.036 118.835 114.17 117.635 114.57 116.301C114.97 115.101 115.636 113.501 116.036 112.701C116.97 110.701 114.57 110.035 109.103 110.568ZM112.436 114.435C111.77 117.901 107.37 118.301 107.37 114.968C107.37 112.968 108.17 112.168 110.17 112.168C112.036 112.168 112.703 112.835 112.436 114.435Z" fill="#D82E26"/>
<path d="M34.0363 113.368C34.0363 114.835 34.5696 116.301 35.2363 116.701C36.8363 117.768 39.7696 113.901 38.7029 112.168C37.2363 109.901 34.0363 110.701 34.0363 113.368Z" fill="#D82E26"/>
<path d="M68.7029 127.501C68.7029 128.568 69.5029 129.501 70.5695 129.501C71.5029 129.501 73.1029 128.568 74.0362 127.501C75.5029 125.768 75.1029 125.501 72.1695 125.501C70.0362 125.501 68.7029 126.168 68.7029 127.501Z" fill="#D82E26"/>
<path d="M63.3696 129.368C63.3696 130.168 64.0363 131.101 64.703 131.501C65.503 131.901 66.0363 131.368 66.0363 130.301C66.0363 129.101 65.503 128.168 64.703 128.168C64.0363 128.168 63.3696 128.701 63.3696 129.368Z" fill="#D82E26"/>
</svg>
