<svg width="162" height="162" viewBox="0 0 162 162" fill="none" xmlns="http://www.w3.org/2000/svg">
<path d="M64.0362 1.1679C35.6362 6.90123 9.90284 31.4346 2.96951 59.3012C-3.43049 85.1679 1.10284 108.635 16.7028 129.435C52.1695 176.501 125.103 169.968 152.436 117.168C163.77 95.4346 164.036 66.3679 153.103 44.6346C142.303 23.1679 122.036 7.30123 98.8362 1.83456C90.1695 -0.298771 72.8362 -0.565438 64.0362 1.1679ZM108.57 6.50123C132.436 15.7012 150.97 36.3679 157.37 60.6346C159.77 69.7012 160.036 87.4346 157.903 97.4346C152.97 120.635 134.036 143.701 112.17 153.168C96.8362 159.701 75.9028 161.168 60.0362 157.035C49.1028 154.101 35.2362 146.101 26.8362 137.968C10.4362 122.101 3.36951 106.768 2.30284 84.3679C1.50284 67.9679 3.23617 59.8346 10.0362 45.7012C18.7028 27.7012 34.3028 13.3012 52.4362 6.50123C63.6362 2.23456 70.5695 1.30123 84.9695 1.83456C95.2362 2.23456 99.9028 3.1679 108.57 6.50123Z" fill="#D82E26"/>
<path d="M70.7029 4.76803C63.9029 5.70137 52.7029 9.16803 52.7029 10.5014C52.7029 11.168 53.2362 13.168 54.0362 15.168C55.1029 18.1014 54.9695 18.768 52.3029 19.7014C50.7029 20.368 47.1029 22.5014 44.3029 24.368C39.3695 27.7014 36.7029 28.6347 36.7029 27.0347C36.7029 25.7014 40.5695 22.9014 46.4362 19.7014C50.7029 17.4347 51.2362 16.768 50.0362 14.5014C49.2362 13.0347 48.0362 11.8347 47.5029 11.8347C46.0362 11.8347 32.8362 20.6347 29.5029 23.968C26.8362 26.368 26.8362 26.5014 29.9029 29.7014L32.9695 32.9014L26.8362 41.0347C19.6362 50.768 17.3695 49.7014 24.1695 39.8347C28.5695 33.3014 28.8362 32.6347 26.7029 30.6347C24.7029 28.6347 24.4362 28.768 21.9029 31.8347C18.0362 36.768 11.3695 48.2347 11.3695 50.1014C11.3695 51.0347 12.8362 52.1014 14.7029 52.6347C18.7029 53.568 18.7029 53.568 15.9029 64.5014C13.5029 74.2347 10.5695 76.5014 12.1695 67.4347C13.7695 58.2347 13.6362 55.3014 11.1029 54.768C8.56952 54.2347 6.70286 59.7014 5.23619 72.1014L4.30286 79.8347H8.96952H13.6362L14.4362 88.2347C14.8362 92.9014 15.3695 97.3014 15.6362 97.968C15.9029 98.6347 15.5029 99.3014 14.7029 99.568C14.0362 99.8347 12.8362 96.368 12.1695 91.8347C10.9695 84.768 10.5695 83.8347 7.76952 83.8347C5.50286 83.8347 4.70286 84.6347 4.70286 86.768C4.70286 90.1014 8.30286 106.101 9.36952 107.968C9.76952 108.501 12.0362 108.368 14.3029 107.568C17.5029 106.368 18.7029 106.501 19.1029 107.701C19.3695 108.501 21.6362 112.368 24.1695 115.968C29.1029 123.435 29.3695 123.835 27.3695 123.835C26.0362 123.835 18.7029 114.368 17.7695 111.568C17.5029 110.768 16.0362 110.501 14.3029 111.035L11.3695 111.968L14.7029 118.235C16.7029 121.701 19.9029 126.635 22.1695 129.168L26.0362 133.701L29.6362 131.035L33.2362 128.235L40.9695 133.701C45.1029 136.768 48.5695 139.568 48.5695 140.101C48.8362 142.235 45.5029 141.035 39.3695 136.635C34.7029 133.301 32.5695 132.501 31.5029 133.568C30.7029 134.368 30.0362 135.701 30.0362 136.501C30.0362 137.968 48.0362 150.501 50.0362 150.501C50.5695 150.501 51.7695 148.635 52.7029 146.501C54.5695 141.835 54.5695 141.835 62.0362 144.501C65.1029 145.568 69.1029 146.501 70.8362 146.501C72.5695 146.501 74.0362 147.168 74.0362 147.968C74.0362 149.035 72.0362 149.168 67.7695 148.635C56.3029 147.035 56.0362 147.035 55.6362 149.968C55.3695 152.235 56.3029 152.901 62.3029 154.235C66.1695 155.168 71.7695 155.968 74.7029 156.235C79.9029 156.501 80.0362 156.368 80.7029 151.835C81.2362 148.235 82.0362 147.168 84.3029 147.035C85.7695 146.901 90.1695 146.501 93.9029 145.968C97.9029 145.435 100.703 145.568 100.703 146.368C100.703 147.568 98.8362 148.101 88.4362 149.968C84.7029 150.635 83.3695 151.435 83.3695 153.301C83.3695 155.435 84.3029 155.835 88.8362 155.835C91.7695 155.835 97.5029 154.901 101.503 153.701C108.97 151.568 109.903 149.968 107.37 145.168C106.17 142.901 106.836 142.101 112.57 139.168C116.17 137.435 119.503 135.301 120.036 134.501C120.97 132.901 124.703 132.635 124.703 134.235C124.703 134.768 121.37 137.301 117.37 139.701C111.103 143.568 110.303 144.501 111.503 146.635C112.17 147.968 113.236 149.168 113.903 149.168C115.37 149.168 134.036 135.968 134.036 134.901C134.036 134.368 132.703 132.635 131.103 130.901L128.303 127.835L132.303 122.901C134.436 120.101 136.97 116.368 137.903 114.635C139.103 112.501 140.036 111.968 140.97 112.901C141.903 113.835 140.836 116.368 137.37 121.168C132.836 127.435 132.57 128.235 134.436 130.101C136.303 131.968 136.836 131.835 139.903 128.368C144.836 122.768 150.97 110.235 149.236 109.568C148.436 109.301 146.703 108.235 145.37 107.301C143.103 105.701 143.103 105.168 145.636 95.7014C147.503 88.9014 148.703 86.5014 149.37 88.1014C149.903 89.3014 149.37 93.568 148.17 97.4347C147.103 101.301 146.303 104.501 146.436 104.635C146.57 104.768 148.036 105.301 149.636 105.701C152.17 106.501 152.703 105.835 154.57 97.3014C157.77 83.3014 157.503 81.4347 152.436 80.9014C148.303 80.5014 148.17 80.368 146.57 71.168C145.77 65.968 145.37 61.4347 145.636 60.768C147.103 58.368 148.703 61.8347 149.503 69.168C150.303 76.5014 150.703 77.168 153.503 77.168C157.37 77.168 157.636 73.968 154.303 61.168C152.036 52.2347 151.503 51.968 145.236 53.8347C142.97 54.5014 142.036 53.7014 140.036 49.3014C138.703 46.368 136.57 42.9014 135.236 41.7014C132.303 39.0347 132.036 37.168 134.436 37.168C135.37 37.168 137.903 40.1014 140.036 43.8347C144.17 51.0347 144.303 51.0347 147.236 49.3014C149.77 47.7014 148.036 43.568 141.103 34.2347C136.036 27.168 134.303 26.5014 130.836 30.368C128.436 33.0347 128.303 32.9014 121.77 27.7014C118.17 24.9014 114.57 22.5014 113.903 22.5014C113.236 22.5014 112.703 21.8347 112.703 21.168C112.703 18.6347 116.303 19.8347 122.303 24.368C126.836 27.8347 128.703 28.6347 129.903 27.4347C132.57 24.768 131.503 23.0347 124.436 18.2347C112.703 10.368 111.236 9.8347 109.103 12.6347C108.17 13.968 107.37 15.8347 107.37 16.9014C107.37 18.2347 106.57 18.5014 104.436 17.8347C102.703 17.3014 98.1695 16.2347 94.4362 15.4347C90.3029 14.5014 87.3695 13.168 87.3695 12.2347C87.3695 10.368 88.5695 10.5014 99.2362 13.3014C104.436 14.6347 106.036 13.968 106.036 10.5014C106.036 7.96803 100.703 6.2347 87.1029 4.36803L80.7029 3.56803V8.10137V12.768L71.2362 14.368C62.4362 15.8347 59.1029 15.568 60.9695 13.8347C61.3695 13.4347 65.3695 12.368 69.9029 11.568C76.9695 10.2347 78.0362 9.56803 77.7695 7.30137C77.3695 4.36803 76.4362 4.10137 70.7029 4.76803ZM75.3695 7.70137C75.3695 8.36803 72.5695 9.30137 69.1029 9.8347C60.4362 11.168 58.1695 12.5014 58.9695 15.8347C59.5029 17.8347 60.4362 18.368 61.9029 17.7014C63.1029 17.3014 68.0362 16.5014 73.1029 16.2347C82.1695 15.4347 82.1695 15.568 82.5695 9.30137C82.7029 8.2347 83.5029 7.16803 84.4362 6.76803C87.6362 5.70137 100.303 7.96803 102.836 9.96803C105.236 11.8347 104.97 11.968 100.036 11.3014C97.1029 10.9014 92.7029 10.2347 90.4362 9.70137C86.4362 8.90137 86.0362 9.16803 86.0362 12.1014C86.0362 14.9014 86.9695 15.4347 93.7695 16.9014C97.9029 17.8347 102.97 18.9014 104.836 19.3014C107.77 19.968 108.436 19.568 109.236 16.6347C109.636 14.768 110.836 13.168 111.77 13.168C114.703 13.168 128.703 22.6347 128.703 24.6347C128.703 26.768 128.703 26.768 119.636 20.6347C114.17 16.9014 113.77 16.9014 111.636 19.0347C109.503 21.168 109.503 21.4347 111.77 22.6347C113.103 23.4347 117.37 26.6347 121.236 29.8347L128.303 35.568L131.636 32.2347L134.97 28.9014L138.97 34.1014C144.036 40.5014 147.903 47.8347 146.17 47.8347C145.37 47.8347 142.836 44.768 140.436 41.168C135.903 34.368 134.303 33.4347 131.77 35.968C130.57 37.168 131.103 38.9014 133.903 43.0347C136.036 46.1014 138.703 50.368 139.903 52.768C141.77 56.6347 142.436 56.9014 145.503 55.8347C150.57 53.8347 150.703 53.968 152.436 60.768C155.503 74.1014 155.77 76.2347 153.903 75.568C152.836 75.168 151.903 73.568 151.636 71.7014C150.703 64.368 148.436 58.5014 146.703 58.5014C143.636 58.5014 143.37 60.368 144.97 71.7014L146.57 82.5014H151.103H155.636L154.703 88.1014C153.236 97.8347 151.37 103.835 149.77 103.835C148.97 103.835 148.703 102.635 149.37 100.768C149.77 99.168 150.57 95.0347 150.97 91.4347C151.636 85.7014 151.503 85.168 148.836 85.168C146.97 85.168 145.903 86.2347 145.37 88.768C144.303 93.7014 142.436 101.168 141.37 104.501C140.703 106.635 141.37 107.701 144.703 109.168L148.836 111.168L143.636 119.835C138.703 127.835 135.37 131.168 135.37 127.968C135.37 127.168 137.503 123.435 140.303 119.701C144.17 114.235 144.703 112.635 143.236 111.701C140.036 109.701 138.836 110.501 132.303 119.435L125.903 128.235L128.57 131.035C130.17 132.635 131.37 134.368 131.37 134.901C131.37 136.235 116.436 146.501 114.436 146.501C111.37 146.501 112.57 144.501 117.236 141.968C119.77 140.635 123.103 138.101 124.703 136.501C127.236 133.835 127.236 133.435 125.37 131.835C123.636 130.368 122.703 130.501 119.636 132.768C117.636 134.235 113.37 136.768 110.17 138.368C104.436 141.301 104.17 142.101 106.57 147.968C107.37 149.701 105.903 150.501 99.6362 152.368C95.3695 153.568 90.5695 154.501 88.9695 154.501C83.9029 154.501 85.7695 152.101 91.7695 151.168C101.103 149.568 103.236 148.368 102.436 145.168C101.903 142.901 100.97 142.501 98.8362 143.168C97.3695 143.568 92.3029 144.368 87.7695 144.768C79.1029 145.568 78.4362 146.235 79.2362 152.768C79.6362 155.968 59.2362 153.435 57.2362 150.235C56.3029 148.768 60.0362 149.035 71.1029 151.301C75.1029 152.101 75.3695 151.968 75.3695 148.635C75.3695 146.101 74.7029 145.168 72.8362 145.168C71.3695 145.168 66.5695 143.968 62.0362 142.635L53.7695 139.968L52.3029 143.968C51.5029 146.101 50.0362 147.835 49.2362 147.835C46.5695 147.835 32.7029 137.968 32.7029 136.101C32.7029 134.235 32.8362 134.235 41.9029 140.501C47.5029 144.368 47.7695 144.368 49.6362 141.835C51.2362 139.435 51.2362 139.035 49.2362 137.835C48.0362 137.035 43.7695 133.968 39.9029 130.901L32.9695 125.301L30.0362 128.501C28.3029 130.368 26.4362 131.435 25.7695 131.035C25.2362 130.635 22.1695 126.768 19.2362 122.235C15.5029 116.768 14.1695 113.835 15.1029 112.901C16.0362 111.968 17.3695 113.168 19.1029 116.635C22.8362 123.968 26.8362 127.301 29.2362 125.301C30.9695 123.835 30.4362 122.501 25.9029 115.568C23.1029 111.035 20.7029 106.501 20.7029 105.435C20.7029 104.235 19.9029 103.835 18.5695 104.368C10.9695 107.301 10.4362 107.035 8.96952 100.235C5.76952 86.1014 5.63619 84.768 7.50286 85.4347C8.56952 85.8347 9.90286 89.568 10.7029 93.968C11.7695 100.501 12.4362 101.835 14.7029 101.835C17.6362 101.835 17.7695 101.035 16.0362 86.768L14.9695 78.5014H10.4362H5.90286L6.83619 71.4347C8.16952 61.4347 9.23619 58.1014 11.3695 57.4347C12.5695 57.0347 12.8362 57.568 12.1695 59.3014C11.6362 60.768 10.8362 65.0347 10.4362 68.768C9.76952 75.168 9.90286 75.8347 12.4362 75.8347C14.5695 75.8347 15.5029 74.368 17.1029 67.4347C18.1695 62.9014 19.5029 57.968 20.0362 56.368C20.7029 54.1014 20.1695 53.3014 16.8362 51.8347C14.5695 50.9014 12.7029 49.968 12.7029 49.8347C12.7029 49.0347 19.6362 37.4347 21.9029 34.5014C26.7029 28.5014 26.4362 32.9014 21.6362 40.1014C18.3029 45.168 17.3695 47.568 18.3029 48.768C20.5695 51.568 22.5695 50.768 25.2362 46.368C26.5695 44.1014 29.5029 40.2347 31.6362 37.7014L35.7695 33.0347L32.7029 29.8347C30.1695 27.168 29.9029 26.2347 31.2362 24.6347C33.5029 21.968 45.2362 14.5014 47.1029 14.5014C50.0362 14.5014 48.7029 16.5014 44.4362 18.9014C42.0362 20.2347 38.5695 22.5014 36.8362 23.968C33.9029 26.368 33.7695 26.9014 35.6362 28.6347C37.3695 30.5014 38.5695 30.1014 46.8362 25.0347C51.9029 21.8347 56.3029 19.168 56.5695 19.0347C56.8362 18.768 56.4362 16.9014 55.6362 14.6347C54.3029 10.9014 54.4362 10.6347 58.4362 9.30137C67.6362 6.50137 75.3695 5.70137 75.3695 7.70137Z" fill="#D82E26"/>
<path d="M61.5029 21.3013C20.0362 35.3013 5.10289 85.4346 32.3029 119.168C52.8362 144.368 87.5029 149.835 114.97 131.968C141.37 114.901 150.17 80.5013 135.636 51.1679C131.503 42.7679 118.036 29.4346 109.636 25.3013C94.5696 17.9679 75.9029 16.5013 61.5029 21.3013ZM89.5029 21.3013C89.9029 22.1013 89.1029 24.1013 87.5029 25.5679C85.9029 27.1679 84.7029 27.7013 84.7029 26.7679C84.7029 25.8346 85.3696 25.1679 86.0362 25.1679C86.8362 25.1679 87.3696 24.6346 87.3696 23.9679C87.3696 23.3013 86.1696 23.0346 84.7029 23.4346C82.1696 24.1013 81.1029 22.5013 82.9696 20.7679C84.3029 19.3013 88.4362 19.7013 89.5029 21.3013ZM70.0362 23.8346C70.0362 25.3013 70.7029 26.5013 71.3696 26.5013C72.1696 26.5013 72.7029 27.4346 72.7029 28.5013C72.7029 29.5679 73.9029 30.5013 75.3696 30.5013C76.8362 30.5013 78.0362 29.8346 78.0362 28.9013C78.0362 27.7013 78.4362 27.7013 79.5029 28.7679C80.5696 29.8346 80.4362 30.9013 79.2362 32.7679C77.9029 35.0346 77.1029 35.1679 74.5696 33.9679C72.8362 33.1679 71.2362 31.4346 70.8362 30.2346C70.1696 27.3013 66.9696 27.1679 64.7029 29.8346C63.3696 31.4346 63.5029 31.8346 65.5029 31.9679C66.9696 31.9679 67.3696 32.3679 66.3029 32.7679C65.5029 33.0346 64.9696 33.9679 65.5029 34.6346C65.9029 35.3013 65.5029 35.8346 64.8362 35.8346C64.0362 35.8346 63.3696 36.9013 63.3696 38.1013C63.3696 39.9679 63.1029 40.1013 62.1696 38.6346C61.2362 37.1679 60.9696 37.1679 60.3029 38.6346C59.7696 39.8346 59.5029 39.7013 59.5029 37.9679C59.3696 35.8346 59.1029 35.7013 57.1029 37.3013C55.2362 38.9013 55.1029 38.9013 55.9029 37.3013C56.5696 36.2346 56.3029 35.0346 55.2362 34.3679C53.6362 33.4346 53.6362 33.1679 55.2362 33.1679C56.7029 33.1679 56.7029 32.7679 55.3696 31.1679C53.9029 29.4346 54.0362 29.3013 55.9029 29.9679C57.6362 30.6346 57.9029 30.2346 57.1029 28.3679C56.3029 26.1013 56.4362 26.1013 58.4362 27.7013C60.3029 29.1679 60.7029 29.1679 60.7029 27.7013C60.7029 26.1013 60.9696 26.1013 61.9029 27.7013C63.6362 30.5013 66.3029 27.9679 65.5029 24.3679C64.8362 21.8346 65.2362 21.1679 67.3696 21.1679C69.1029 21.1679 70.0362 22.1013 70.0362 23.8346ZM79.3696 23.0346C79.3696 23.9679 78.5696 25.5679 77.5029 26.3679C76.0362 27.5679 75.5029 27.4346 74.8362 25.7013C73.5029 22.2346 73.9029 21.1679 76.7029 21.1679C78.1696 21.1679 79.3696 21.9679 79.3696 23.0346ZM95.3696 23.1679C95.3696 24.2346 94.4362 25.1679 93.3696 25.1679C91.2362 25.1679 90.7029 23.5679 92.3029 22.1013C93.7696 20.5013 95.3696 21.0346 95.3696 23.1679ZM114.303 29.9679C119.236 33.1679 119.503 33.4346 117.103 35.1679C115.103 36.7679 114.703 36.6346 114.303 35.0346C114.036 33.9679 113.37 33.1679 112.703 33.1679C110.303 33.1679 107.37 34.9013 107.37 36.2346C107.37 37.0346 106.436 38.7679 105.236 40.1013C103.37 42.1013 103.236 42.7679 104.836 44.6346C106.436 46.5013 106.703 46.5013 107.636 43.9679C108.303 42.2346 109.77 41.1679 111.636 41.3013C113.636 41.3013 114.036 41.7013 112.703 42.1013C109.77 43.3013 108.703 45.5679 110.303 47.4346C112.57 50.1013 115.37 49.4346 115.37 46.1013C115.503 43.7013 115.636 43.5679 116.703 45.3013C117.77 47.1679 118.836 47.3013 123.503 45.9679C128.57 44.6346 129.236 44.7679 131.37 47.5679C134.703 51.7013 139.503 64.5013 140.303 71.5679C140.97 76.5013 140.57 77.5679 137.37 80.3679C134.17 83.1679 133.903 83.7013 135.636 86.3679C136.57 87.9679 138.17 88.9013 138.97 88.5013C140.836 87.8346 141.103 89.1679 139.903 92.5013C139.236 93.9679 138.703 94.2346 138.036 93.1679C137.503 92.2346 135.77 91.9679 133.636 92.6346C130.836 93.3013 130.036 94.2346 130.036 97.3013C130.036 99.9679 129.503 100.901 128.17 100.368C126.303 99.5679 124.17 103.301 125.503 105.301C126.703 107.301 131.37 106.635 131.37 104.501C131.37 103.435 132.57 102.501 134.036 102.501C137.37 102.501 137.37 102.768 134.17 108.901C130.703 115.568 123.503 123.701 123.37 121.168C123.37 119.435 123.236 119.435 122.036 121.168C120.97 122.901 120.57 122.901 118.703 121.035C115.236 117.568 113.77 109.035 116.036 105.568C118.836 101.435 118.57 101.168 113.77 101.301C110.97 101.301 110.17 101.701 111.37 102.235C112.57 102.768 113.503 104.901 113.503 107.435C113.503 111.168 112.97 111.835 110.436 111.835C107.636 111.835 107.37 112.501 107.37 117.835C107.37 123.568 107.503 123.835 110.036 122.235C112.303 120.901 112.436 120.368 110.703 120.101C107.903 119.435 108.17 117.168 111.103 117.035C113.236 116.901 113.236 116.768 111.103 116.235C107.903 115.435 108.036 113.168 111.37 113.168C113.103 113.168 114.036 114.101 114.036 115.701C114.036 117.168 115.503 120.101 117.37 122.235L120.57 126.101L114.97 130.101C109.103 134.235 97.2362 139.168 91.1029 139.968C88.7029 140.368 86.7029 139.568 85.1029 137.568C82.0362 134.101 76.7029 134.768 76.7029 138.635C76.7029 140.635 76.0362 141.035 72.4362 140.368C64.0362 138.901 63.9029 138.768 69.1029 133.435C71.7696 130.635 74.0362 127.301 74.0362 125.835C74.0362 123.835 74.4362 123.701 75.6362 124.901C77.6362 126.901 79.9029 127.035 78.7029 125.168C78.1696 124.368 79.6362 123.835 81.9029 123.835C86.7029 123.835 87.2362 124.768 83.2362 126.235C80.7029 127.301 80.8362 127.568 85.7696 130.768C92.3029 135.168 97.1029 135.968 97.7696 132.901C98.0362 131.701 97.1029 130.368 95.5029 129.835C92.0362 128.768 84.9696 120.635 83.9029 116.501C82.3029 110.235 84.7029 98.7679 88.4362 94.2346C91.2362 90.9013 103.77 83.8346 106.703 83.8346C107.103 83.8346 107.37 85.4346 107.503 87.4346L107.636 91.1679L109.236 87.3013L110.97 83.4346L112.436 87.7013C114.436 93.3013 114.836 92.9013 114.303 86.1013L113.903 80.5013L116.57 85.1679L119.103 89.8346L118.436 84.3679C117.77 79.5679 118.036 78.6346 120.57 77.8346C122.17 77.4346 123.103 76.5013 122.703 75.8346C122.303 75.3013 123.236 75.0346 124.703 75.4346C128.703 76.5013 128.036 72.6346 123.903 69.8346C121.503 68.2346 120.703 66.7679 121.103 64.9013C121.77 62.7679 121.503 62.5013 120.303 63.7013C117.903 66.1013 116.436 65.4346 117.37 62.1013C118.303 59.1679 118.303 59.1679 116.17 61.8346L114.17 64.5013L114.036 61.8346C114.036 60.1013 113.636 59.7013 112.97 60.7679C112.17 62.1013 110.436 61.9679 105.503 60.5013C97.1029 57.9679 83.7696 57.9679 78.8362 60.5013C74.4362 62.7679 74.0362 62.9013 74.0362 61.4346C74.0362 59.8346 80.1696 57.1679 83.5029 57.1679C86.9696 57.1679 86.1696 54.7679 81.7696 51.4346C76.4362 47.4346 68.7029 51.1679 68.7029 57.9679C68.7029 60.5013 68.0362 61.1679 65.5029 61.1679C59.1029 61.1679 55.1029 68.5013 58.7029 73.9679C61.1029 77.7013 65.6362 79.8346 71.7696 79.9679C75.7696 79.9679 75.9029 80.1013 73.1029 81.4346C70.7029 82.5013 68.8362 82.3679 64.7029 80.7679C59.6362 78.7679 58.9696 78.9013 45.1029 83.4346C37.2362 85.9679 28.8362 89.1679 26.4362 90.5013C24.1696 91.8346 21.9029 92.6346 21.5029 92.2346C21.1029 91.7013 20.7029 88.5013 20.7029 85.0346V78.5013L24.3029 79.9679C27.2362 81.0346 28.3029 80.9013 29.6362 79.0346C31.2362 76.9013 31.3696 76.9013 31.3696 79.7013C31.3696 82.1013 32.0362 82.6346 34.4362 82.2346C38.1696 81.7013 38.8362 75.0346 35.1029 75.3013C33.7696 75.4346 33.1029 75.0346 33.5029 74.3679C34.7029 72.2346 37.9029 73.0346 39.6362 75.8346C40.5696 77.3013 42.0362 78.5013 42.9696 78.5013C45.7696 78.5013 44.9696 74.6346 41.2362 69.7013C37.1029 64.3679 32.8362 63.5679 32.5696 68.1013C32.4362 70.6346 32.3029 70.7679 31.7696 68.6346C31.2362 66.6346 30.3029 66.3679 26.4362 66.9013C22.3029 67.5679 21.9029 67.4346 22.3029 64.7679C22.7029 62.2346 23.5029 61.8346 28.1696 62.1013C33.3696 62.3679 33.7696 62.1013 34.5696 58.5013C35.5029 53.7013 40.7029 52.6346 40.7029 57.1679C40.7029 59.0346 41.6362 59.8346 43.5029 59.8346C45.6362 59.8346 46.1696 59.1679 45.7696 56.7679C45.5029 55.1679 44.5696 53.9679 43.6362 54.2346C42.4362 54.3679 42.3029 53.4346 42.8362 51.1679C43.3696 48.9013 43.1029 47.8346 41.9029 47.8346C40.9696 47.8346 40.7029 47.4346 41.2362 46.9013C41.7696 46.3679 43.7696 45.9679 45.7696 45.8346C48.4362 45.8346 49.5029 45.0346 49.7696 42.7679C50.3029 39.4346 50.5696 39.3013 53.9029 41.4346C55.9029 42.6346 56.1696 43.7013 55.2362 46.1013C54.3029 48.5013 54.7029 49.4346 56.7029 50.5013C60.0362 52.2346 64.9696 49.9679 63.9029 47.3013C63.5029 46.2346 64.4362 44.1013 66.0362 42.5013C67.6362 40.9013 68.5696 38.7679 68.1696 37.7013C67.7696 36.6346 68.0362 35.8346 68.7029 35.8346C69.5029 35.8346 70.0362 36.3679 70.0362 37.0346C70.0362 39.1679 74.3029 39.9679 76.3029 38.2346C77.9029 36.9013 78.7029 37.1679 80.5696 39.5679C82.7029 42.5013 82.9696 42.5013 86.7029 40.6346C91.2362 38.2346 92.3029 32.2346 88.8362 29.5679C86.9696 28.2346 86.9696 27.9679 88.9696 27.1679C91.9029 25.9679 94.0362 27.4346 94.0362 30.5013C94.0362 31.8346 94.8362 33.1679 95.9029 33.5679C98.4362 34.5013 99.9029 30.6346 97.9029 28.3679C96.7029 26.9013 96.8362 25.9679 97.9029 24.6346C99.3696 22.9013 100.17 23.0346 104.303 24.6346C106.836 25.8346 111.37 28.2346 114.303 29.9679ZM50.8362 31.4346C54.1696 35.8346 52.5696 37.3013 48.0362 34.1013C46.7029 33.0346 46.0362 31.5679 46.5696 30.7679C47.9029 28.6346 48.8362 28.7679 50.8362 31.4346ZM98.0362 30.5013C98.0362 31.1679 97.5029 31.8346 96.7029 31.8346C96.0362 31.8346 95.3696 31.1679 95.3696 30.5013C95.3696 29.7013 96.0362 29.1679 96.7029 29.1679C97.5029 29.1679 98.0362 29.7013 98.0362 30.5013ZM87.3696 32.5013C89.3696 31.3013 87.1029 37.0346 84.9696 38.7679C83.7696 39.8346 83.2362 39.8346 83.7696 39.0346C84.3029 38.1013 83.7696 37.0346 82.5696 36.6346C80.5696 35.8346 80.5696 35.5679 82.8362 33.0346C84.1696 31.4346 85.5029 30.9013 85.7696 31.7013C86.0362 32.5013 86.7029 32.9013 87.3696 32.5013ZM46.5696 37.1679C47.5029 37.1679 48.3029 38.1013 48.3029 39.1679C48.3029 40.2346 47.5029 41.1679 46.4362 41.1679C45.5029 41.1679 44.7029 41.9679 44.5696 42.7679C44.5696 44.1013 44.3029 44.1013 43.7696 42.7679C43.5029 41.9679 42.4362 41.1679 41.5029 41.1679C40.5696 41.1679 39.7696 40.2346 39.7696 39.1679C39.7696 38.1013 40.5696 37.1679 41.6362 37.1679C42.5696 37.1679 43.3696 36.3679 43.5029 35.4346C43.5029 34.1013 43.7696 34.1013 44.3029 35.4346C44.5696 36.3679 45.6362 37.1679 46.5696 37.1679ZM74.5696 37.3013C74.1696 37.9679 73.2362 38.2346 72.5696 37.7013C71.9029 37.3013 71.6362 36.3679 72.1696 35.7013C72.5696 35.0346 73.5029 34.7679 74.1696 35.3013C74.8362 35.7013 75.1029 36.6346 74.5696 37.3013ZM38.0362 42.5013C38.0362 43.9679 37.1029 45.5679 36.0362 45.9679C34.9696 46.5013 34.0362 48.2346 34.0362 49.9679C34.0362 53.7013 33.2362 53.9679 30.4362 51.1679C28.7029 49.3013 28.8362 48.6346 32.0362 44.5013C36.0362 39.1679 38.0362 38.6346 38.0362 42.5013ZM60.7029 41.7013C60.7029 42.1013 60.1696 42.7679 59.3696 43.1679C58.7029 43.5679 58.0362 43.3013 58.0362 42.6346C58.0362 41.8346 58.7029 41.1679 59.3696 41.1679C60.1696 41.1679 60.7029 41.4346 60.7029 41.7013ZM61.3696 46.3679C62.3029 47.9679 59.7696 49.5679 58.0362 48.5013C56.5696 47.5679 57.5029 45.1679 59.3696 45.1679C60.0362 45.1679 60.8362 45.7013 61.3696 46.3679ZM40.0362 49.0346C40.9696 50.6346 38.4362 52.2346 36.7029 51.1679C35.2362 50.2346 36.1696 47.8346 38.0362 47.8346C38.7029 47.8346 39.5029 48.3679 40.0362 49.0346ZM31.9029 58.6346C30.9696 60.1013 29.9029 60.1013 27.5029 58.6346C25.7696 57.5679 25.7696 57.0346 27.3696 55.1679C29.1029 53.0346 29.3696 53.0346 30.9696 55.3013C31.9029 56.5013 32.3029 58.1013 31.9029 58.6346ZM44.7029 57.1679C44.7029 57.8346 44.1696 58.5013 43.3696 58.5013C42.7029 58.5013 42.0362 57.8346 42.0362 57.1679C42.0362 56.3679 42.7029 55.8346 43.3696 55.8346C44.1696 55.8346 44.7029 56.3679 44.7029 57.1679ZM89.5029 63.7013C88.3029 65.5679 83.3696 65.5679 83.3696 63.7013C83.3696 62.9013 84.5696 62.6346 86.0362 63.1679C88.1696 63.8346 88.5696 63.5679 87.7696 61.5679C87.1029 59.7013 87.3696 59.5679 88.7029 60.7679C89.6362 61.5679 89.9029 62.9013 89.5029 63.7013ZM70.0362 65.1679C71.6362 66.2346 71.6362 66.5013 69.3696 66.5013C67.9029 66.5013 67.3696 67.0346 68.0362 67.5679C69.9029 68.9013 70.0362 73.1679 68.1696 73.1679C67.3696 73.1679 67.6362 73.8346 68.7029 74.5013C70.4362 75.5679 70.3029 75.8346 68.1696 75.8346C65.1029 75.8346 60.7029 72.2346 60.7029 69.7013C60.7029 67.5679 64.4362 63.8346 66.4362 63.8346C67.3696 63.8346 68.9696 64.5013 70.0362 65.1679ZM99.9029 65.0346C101.37 67.3013 99.1029 70.5013 95.9029 70.5013C93.6362 70.5013 92.9696 69.9679 93.5029 68.5013C94.0362 67.4346 93.6362 66.5013 92.7029 66.5013C91.9029 66.5013 91.6362 65.8346 92.0362 65.1679C93.1029 63.5679 98.9696 63.4346 99.9029 65.0346ZM111.37 64.2346C111.37 64.5013 110.036 65.8346 108.57 67.3013C105.636 69.8346 105.636 69.8346 107.236 66.7679C108.57 64.3679 111.37 62.6346 111.37 64.2346ZM113.503 69.4346C112.036 71.4346 111.37 71.8346 111.37 70.3679C111.37 68.2346 114.17 64.7679 115.103 65.8346C115.37 66.1013 114.703 67.7013 113.503 69.4346ZM88.0362 67.8346C88.4362 68.5013 87.9029 69.1679 86.8362 69.1679C85.6362 69.1679 84.3029 69.1679 83.7696 69.3013C83.2362 69.3013 82.5696 68.7679 82.3029 67.9679C81.6362 66.1013 86.9696 66.1013 88.0362 67.8346ZM98.0362 78.3679C98.0362 83.5679 90.0362 85.1679 87.1029 80.6346C84.7029 77.0346 86.1696 75.7013 89.5029 78.3679C91.3696 79.8346 93.7696 80.6346 94.8362 80.2346C96.4362 79.7013 96.5696 79.1679 95.3696 78.5013C94.4362 77.9679 94.1696 76.7679 94.5696 75.9679C95.9029 73.9679 98.0362 75.4346 98.0362 78.3679ZM59.3696 82.5013C59.3696 84.1013 55.6362 85.8346 54.5696 84.7679C53.3696 83.5679 55.3696 81.1679 57.5029 81.1679C58.5696 81.1679 59.3696 81.8346 59.3696 82.5013ZM84.5696 84.7679C89.3696 87.5679 89.5029 87.9679 86.3029 91.0346C84.0362 93.0346 83.5029 93.0346 79.6362 91.0346C75.1029 88.9013 74.3029 86.7679 76.9696 84.1013C79.1029 81.9679 79.7696 82.1013 84.5696 84.7679ZM140.703 84.5013C140.703 85.5679 140.17 86.5013 139.37 86.5013C138.703 86.5013 138.036 85.5679 138.036 84.5013C138.036 83.4346 138.703 82.5013 139.37 82.5013C140.17 82.5013 140.703 83.4346 140.703 84.5013ZM51.3696 86.3679C51.3696 87.8346 46.1696 89.7013 45.1029 88.7679C44.7029 88.3679 44.8362 87.4346 45.3696 86.6346C46.4362 84.9013 51.3696 84.6346 51.3696 86.3679ZM59.3696 87.8346C59.3696 88.5013 58.4362 89.1679 57.3696 89.1679C56.3029 89.1679 55.3696 88.5013 55.3696 87.8346C55.3696 87.0346 56.3029 86.5013 57.3696 86.5013C58.4362 86.5013 59.3696 87.0346 59.3696 87.8346ZM40.7029 90.2346C40.7029 90.7679 39.3696 91.9679 37.9029 92.9013C34.8362 94.9013 31.6362 93.3013 33.2362 90.6346C34.3029 89.0346 40.7029 88.6346 40.7029 90.2346ZM52.7029 90.5013C52.7029 91.1679 51.7696 91.8346 50.5696 91.8346C49.5029 91.8346 48.9696 91.1679 49.3696 90.5013C49.7696 89.7013 50.7029 89.1679 51.5029 89.1679C52.1696 89.1679 52.7029 89.7013 52.7029 90.5013ZM72.8362 91.9679C76.0362 94.2346 76.4362 95.1679 75.2362 96.6346C73.3696 98.9013 71.2362 99.0346 66.7029 96.9013C63.1029 95.3013 62.4362 93.3013 64.9696 90.7679C67.2362 88.5013 68.3029 88.7679 72.8362 91.9679ZM59.3696 93.0346C59.3696 93.7013 58.4362 94.5013 57.3696 95.0346C55.3696 95.7013 54.7029 94.3679 56.3029 92.7679C57.5029 91.4346 59.3696 91.5679 59.3696 93.0346ZM30.0362 94.2346C30.0362 95.8346 26.9696 98.5013 25.1029 98.5013C22.8362 98.5013 22.8362 94.9013 25.1029 94.1013C27.6362 93.0346 30.0362 93.0346 30.0362 94.2346ZM45.3696 94.5013C44.9696 95.1679 43.6362 95.8346 42.5696 95.8346C41.5029 95.8346 40.7029 95.1679 40.7029 94.5013C40.7029 93.7013 41.9029 93.1679 43.5029 93.1679C44.9696 93.1679 45.7696 93.7013 45.3696 94.5013ZM138.036 97.1679C138.036 99.0346 135.77 99.9679 133.503 99.0346C131.903 98.3679 131.636 97.7013 132.703 96.3679C134.303 94.6346 138.036 95.1679 138.036 97.1679ZM34.9696 99.4346C32.9696 101.435 30.0362 100.901 30.0362 98.5013C30.0362 97.1679 34.1696 95.9679 35.7696 96.9013C36.4362 97.1679 36.0362 98.3679 34.9696 99.4346ZM63.3696 101.035C63.3696 101.835 64.4362 102.501 65.7696 102.501C68.4362 102.501 69.2362 106.101 66.9696 108.768C66.1696 109.968 66.1696 110.501 67.1029 110.501C67.9029 110.501 68.4362 111.701 68.3029 113.168C68.1696 114.768 67.2362 115.835 65.7696 115.835C64.3029 115.835 63.3696 116.768 63.3696 118.235C63.3696 120.768 58.7029 121.968 57.3696 119.701C56.8362 119.035 55.7696 118.901 54.9696 119.435C51.9029 121.301 50.0362 120.901 50.0362 118.368C50.0362 116.768 49.1029 115.835 47.5029 115.835C44.8362 115.835 42.7029 112.368 44.7029 111.168C45.3696 110.768 45.6362 108.635 45.1029 106.501C44.4362 103.035 44.8362 102.501 47.2362 102.501C49.1029 102.501 50.0362 101.701 50.0362 99.8346C50.0362 96.9013 54.5696 96.1013 56.1696 98.6346C56.8362 99.7013 57.5029 99.4346 58.3029 97.9679C59.3696 96.1013 59.7696 96.1013 61.5029 97.7013C62.5696 98.7679 63.3696 100.235 63.3696 101.035ZM46.0362 98.3679C46.0362 99.9679 43.3696 101.701 42.4362 100.768C41.5029 99.8346 43.2362 97.1679 44.8362 97.1679C45.5029 97.1679 46.0362 97.7013 46.0362 98.3679ZM82.0362 101.835C82.0362 104.235 81.3696 105.168 79.5029 105.168C78.0362 105.168 76.7029 104.368 76.3029 103.435C75.3696 100.768 76.8362 98.5013 79.5029 98.5013C81.3696 98.5013 82.0362 99.4346 82.0362 101.835ZM27.3696 102.501C27.3696 103.168 26.8362 103.835 26.0362 103.835C25.3696 103.835 24.7029 103.168 24.7029 102.501C24.7029 101.701 25.3696 101.168 26.0362 101.168C26.8362 101.168 27.3696 101.701 27.3696 102.501ZM41.2362 106.101C41.9029 108.368 41.6362 109.968 40.4362 110.635C36.1696 113.435 32.1696 110.768 33.5029 106.101C34.0362 103.568 35.2362 102.501 37.3696 102.501C39.5029 102.501 40.7029 103.568 41.2362 106.101ZM130.036 103.035C130.036 103.435 129.503 104.101 128.703 104.501C128.036 104.901 127.37 104.635 127.37 103.968C127.37 103.168 128.036 102.501 128.703 102.501C129.503 102.501 130.036 102.768 130.036 103.035ZM80.4362 112.768C80.0362 116.768 77.1029 118.368 75.9029 115.301C74.7029 112.368 76.1696 109.168 78.7029 109.168C80.3029 109.168 80.7029 110.235 80.4362 112.768ZM36.1696 115.168C36.7029 116.235 37.7696 117.168 38.7029 117.168C40.5696 117.168 44.7029 120.768 44.7029 122.235C44.7029 122.768 44.0362 124.101 43.3696 125.168C42.4362 126.768 41.6362 126.635 38.7029 123.835C36.7029 121.968 33.9029 118.901 32.4362 116.768L29.9029 113.168H32.7029C34.1696 113.168 35.7696 114.101 36.1696 115.168ZM81.1029 121.568C78.0362 122.901 74.0362 122.101 74.0362 120.101C74.0362 119.568 76.3029 119.301 79.1029 119.568C83.6362 120.101 83.7696 120.368 81.1029 121.568ZM69.7696 123.835C71.2362 126.235 71.1029 127.168 68.5696 130.635C66.1696 134.101 65.1029 134.635 60.3029 134.235C56.3029 133.968 54.5696 133.168 54.3029 131.435C54.0362 130.235 54.7029 129.168 55.6362 129.168C58.1696 129.168 66.1696 123.168 65.1029 122.101C64.7029 121.568 65.1029 121.168 66.1696 121.168C67.2362 121.168 68.8362 122.368 69.7696 123.835ZM50.0362 126.768C52.9696 131.568 53.3696 133.168 51.5029 133.168C50.8362 133.168 49.5029 131.168 48.5696 128.768C47.6362 126.501 46.7029 124.101 46.3029 123.435C46.0362 122.901 46.1696 122.501 46.5696 122.501C47.1029 122.501 48.5696 124.501 50.0362 126.768ZM90.7029 129.168C90.3029 129.835 89.1029 130.501 88.0362 130.501C86.9696 130.501 85.7696 129.835 85.3696 129.168C84.8362 128.368 86.0362 127.835 88.0362 127.835C90.0362 127.835 91.2362 128.368 90.7029 129.168ZM82.3029 139.168C82.3029 139.835 81.6362 140.635 80.8362 140.901C80.0362 141.168 79.3696 140.368 79.3696 139.168C79.3696 137.968 80.0362 137.168 80.8362 137.435C81.6362 137.701 82.3029 138.501 82.3029 139.168Z" fill="#D82E26"/>
<path d="M106.036 100.501C104.97 101.701 104.97 102.501 105.77 102.501C107.37 102.501 109.236 99.968 108.303 99.0347C108.036 98.768 106.97 99.3013 106.036 100.501Z" fill="#D82E26"/>
<path d="M100.703 103.168C100.703 103.435 101.37 105.301 102.303 107.168C103.77 110.501 108.97 111.835 110.57 109.301C110.97 108.768 109.77 108.501 108.036 108.901C104.703 109.435 103.37 107.301 106.436 106.101C107.37 105.701 107.103 105.301 105.77 105.301C104.436 105.168 103.37 104.501 103.37 103.835C103.37 103.035 102.836 102.501 102.036 102.501C101.37 102.501 100.703 102.768 100.703 103.168Z" fill="#D82E26"/>
<path d="M100.703 116.101C100.703 117.835 100.303 120.635 99.7696 122.368L98.9696 125.435L102.703 123.035C106.036 120.901 106.17 120.501 103.903 119.701C101.503 118.768 101.503 118.635 104.036 118.635C106.303 118.501 106.436 118.235 104.703 117.168C102.97 115.968 102.97 115.701 104.703 114.501C106.303 113.435 106.17 113.168 103.77 113.168C101.503 113.168 100.703 113.968 100.703 116.101Z" fill="#D82E26"/>
<path d="M52.303 105.568C52.703 106.101 52.1696 107.435 51.3696 108.501C50.0363 110.101 50.0363 110.501 51.3696 110.501C52.303 110.501 52.703 111.435 52.303 112.368C51.7696 113.701 52.1696 114.101 53.503 113.568C54.5696 113.168 55.3696 113.701 55.3696 114.635C55.3696 115.968 55.7696 115.968 56.8363 114.901C57.6363 114.101 59.2363 113.701 60.4363 114.101C61.7696 114.635 62.1696 114.368 61.503 113.301C60.9696 112.501 61.2363 110.901 62.0363 109.835C63.3696 108.235 63.3696 107.835 62.0363 107.835C61.103 107.835 60.703 107.035 61.103 105.968C61.6363 104.635 60.5696 104.235 56.703 104.368C53.903 104.368 51.903 105.035 52.303 105.568ZM58.8363 107.968C60.1696 110.235 57.103 112.768 55.2363 110.901C53.6363 109.301 54.703 106.501 56.703 106.501C57.3696 106.501 58.303 107.168 58.8363 107.968Z" fill="#D82E26"/>
<path d="M36.0362 107.835C36.4362 108.501 37.1029 109.168 37.5029 109.168C37.7695 109.168 38.0362 108.501 38.0362 107.835C38.0362 107.035 37.3695 106.501 36.5695 106.501C35.9029 106.501 35.6362 107.035 36.0362 107.835Z" fill="#D82E26"/>
</svg>
