<svg width="162" height="162" viewBox="0 0 162 162" fill="none" xmlns="http://www.w3.org/2000/svg">
<path d="M62.7029 2.63472C36.8362 8.10139 13.7695 29.0347 4.30285 55.4347C1.36952 63.8347 0.836182 67.3014 0.836182 81.1681C0.836182 95.3014 1.23618 98.3681 4.43618 107.035C16.0362 138.901 42.9695 159.435 75.5029 161.435C108.836 163.435 138.303 146.635 153.103 117.035C159.636 103.968 161.77 93.8347 161.103 77.8347C160.17 54.9014 152.303 37.8347 135.236 21.9681C115.903 3.83473 89.6362 -3.23195 62.7029 2.63472ZM94.5695 3.16806C134.303 10.6347 162.036 45.9681 159.636 85.9681C157.503 119.568 136.436 145.968 102.703 157.301C92.7029 160.635 70.4362 160.635 59.3695 157.301C20.7028 145.701 -3.69715 107.168 3.10285 68.2347C6.16952 50.7681 12.7028 38.2347 25.3695 25.7014C44.4362 6.76805 69.9029 -1.49861 94.5695 3.16806Z" fill="#D82E26"/>
<path d="M66.4363 6.50134C54.5696 8.90134 51.6363 10.5013 53.3696 13.8347C55.2363 17.3013 55.103 20.5013 53.103 20.5013C52.1696 20.5013 48.703 22.368 45.3696 24.5013C39.103 28.6347 37.3696 29.3013 37.3696 27.3013C37.3696 26.6347 40.4363 24.2347 44.0363 21.968C50.4363 17.968 52.303 14.9013 49.2363 13.168C47.6363 12.1013 34.4363 19.8347 30.4363 24.1013L27.6363 27.168L30.703 30.5013L33.903 33.8347L30.4363 37.568C28.5696 39.568 26.0363 42.768 24.703 44.768C22.4363 48.5013 20.0363 49.7013 20.0363 47.3013C20.0363 46.6347 22.1696 43.3013 24.703 39.968C28.8363 34.5013 29.103 33.7013 27.2363 31.8347C25.503 30.2347 24.703 30.1013 23.2363 31.3013C20.1696 33.8347 10.703 50.2347 11.6363 51.4347C11.903 52.1013 13.7696 53.3013 15.6363 53.968C18.303 54.9013 18.8363 55.8347 18.1696 58.2347C17.6363 59.8347 16.5696 63.968 15.6363 67.4347C14.703 70.9013 13.503 74.1013 12.9696 74.6347C11.503 76.1013 11.903 68.5013 13.503 62.6347C14.5696 58.5013 14.5696 57.168 13.103 56.368C12.1696 55.7013 10.8363 55.4347 10.0363 55.568C8.30296 56.2347 5.36963 67.968 5.36963 74.768C5.36963 80.2347 5.50296 80.5014 9.36963 80.5014C14.0363 80.5014 14.1696 80.9013 15.3696 92.1013C16.1696 100.768 14.303 104.101 12.8363 96.5013C12.4363 94.2347 11.6363 90.6347 11.2363 88.5014C10.1696 82.9013 5.36963 82.768 5.36963 88.5014C5.36963 94.1013 7.90296 105.168 9.76963 107.835C11.2363 109.701 12.0363 109.835 15.3696 108.235C18.0363 107.035 19.2363 106.901 19.6363 107.968C19.903 108.901 22.1696 112.901 24.703 117.035C27.903 122.235 28.5696 124.501 27.2363 124.501C26.1696 124.501 23.7696 121.568 21.6363 117.835C17.903 111.035 16.8363 110.368 13.503 112.368C11.903 113.301 12.303 114.635 15.103 119.435C16.9696 122.501 20.303 127.301 22.4363 129.701L26.303 134.368L30.0363 131.435L33.7696 128.501L38.303 132.635C40.9696 134.901 44.4363 137.301 46.1696 138.101C47.903 138.901 49.3696 140.101 49.3696 140.768C49.3696 143.035 45.503 141.701 39.7696 137.168C33.903 132.768 33.6363 132.635 31.3696 135.168C29.2363 137.568 29.3696 137.835 34.9696 141.835C40.1696 145.701 49.7696 151.168 51.103 151.168C51.503 151.168 52.4363 149.301 53.3696 147.035C54.5696 144.368 55.7696 143.301 57.103 143.835C58.1696 144.235 61.7696 145.168 65.2363 145.968C74.303 148.101 74.9696 148.368 74.1696 149.701C73.6363 150.368 70.0363 150.101 65.2363 149.035C60.703 147.968 56.8363 147.301 56.703 147.435C56.4363 147.701 56.0363 149.035 55.7696 150.368C55.3696 153.301 60.703 155.435 73.103 157.035L80.0363 157.968V153.301C80.0363 149.035 80.303 148.635 85.3696 147.968C88.303 147.568 93.103 146.768 96.0363 146.368C104.97 145.035 102.036 148.101 92.703 149.835C85.6363 151.168 84.0363 151.968 84.0363 153.968C84.0363 157.568 89.103 157.701 101.77 154.235C109.77 152.101 109.903 151.701 107.503 145.701C106.703 144.101 108.436 142.368 114.303 139.035C124.036 133.301 124.036 133.301 124.036 134.901C124.036 135.701 121.103 138.235 117.37 140.635C110.303 145.168 110.036 145.435 111.903 148.368C112.836 149.835 114.303 149.435 119.77 146.501C123.503 144.501 128.17 141.168 130.17 139.035C133.636 135.435 133.636 135.035 131.636 132.768C128.57 129.301 128.836 127.568 133.103 122.635C135.103 120.368 137.636 117.035 138.836 115.168C139.903 113.435 141.236 112.635 141.636 113.301C142.036 113.968 140.303 117.701 137.77 121.568C133.903 127.301 133.37 128.901 134.703 130.501C136.17 132.368 136.703 132.368 138.97 130.235C141.903 127.568 150.703 113.435 150.703 111.435C150.703 110.768 148.97 109.435 146.703 108.768L142.836 107.301L144.57 100.901C145.636 97.4347 146.836 92.768 147.37 90.6347C147.903 88.2347 148.703 87.3013 149.503 88.1013C150.17 88.768 149.903 92.2347 148.703 97.168C146.97 103.435 146.97 105.168 148.303 106.101C152.303 108.501 153.77 106.235 155.903 93.7013C157.903 81.7013 157.903 81.8347 152.97 81.8347H148.57L146.97 72.1013C145.236 61.0347 147.103 56.9013 149.236 67.168C150.036 70.9013 150.703 74.9013 150.703 75.8347C150.703 77.0347 152.036 77.8347 154.17 77.8347C157.503 77.8347 157.503 77.568 156.703 72.1013C156.17 69.0347 154.97 63.3013 153.77 59.4347C151.77 52.1013 151.77 52.1013 144.57 54.768C143.77 55.0347 140.97 51.8347 138.57 47.568C132.836 37.7013 132.836 37.8347 134.703 37.8347C135.503 37.8347 138.036 40.768 140.303 44.5013C144.703 51.568 144.97 51.8347 147.903 49.968C149.636 48.9013 149.503 47.968 147.236 43.8347C145.903 41.0347 142.57 36.368 139.77 33.3013L134.97 27.8347L131.636 31.0347L128.17 34.1013L125.236 31.3013C123.503 29.7013 120.17 27.168 117.77 25.4347C115.37 23.8347 113.37 22.1013 113.37 21.4347C113.37 19.4347 116.436 20.6347 121.37 24.5013C126.836 28.9013 130.036 29.568 131.103 26.6347C132.036 24.368 128.303 20.768 119.236 15.3013C111.77 10.768 109.37 10.2347 109.37 12.9013C109.37 13.8347 108.57 15.7013 107.636 16.9013C106.17 19.0347 105.503 19.168 100.17 17.168C96.9696 16.1013 92.9696 15.168 91.2363 15.168C89.2363 15.168 88.0363 14.368 88.0363 13.168C88.0363 11.0347 88.8363 11.168 100.036 13.968C104.57 15.168 107.236 13.7013 106.303 10.5013C105.77 8.90134 97.3696 6.50134 88.4363 5.43468L81.3696 4.63467V9.16801C81.3696 13.3013 81.103 13.7013 75.7696 14.5013C72.5696 14.9013 68.0363 15.7013 65.7696 16.1013C58.0363 17.3013 60.9696 14.1013 69.103 12.5013C73.2363 11.568 77.103 10.6347 77.6363 10.368C78.703 9.70134 77.3696 4.50134 76.1696 4.63467C75.7696 4.63467 71.3696 5.56801 66.4363 6.50134ZM76.0363 8.23468C76.0363 8.90134 72.1696 10.1013 67.3696 11.0347C58.9696 12.768 57.503 13.968 59.7696 17.4347C60.5696 18.768 62.0363 18.768 65.3696 17.8347C67.903 17.0347 72.8363 16.5013 76.303 16.5013H82.703V11.8347C82.703 7.56801 82.9696 7.16801 86.703 7.16801C88.8363 7.16801 93.6363 7.83467 97.3696 8.63467C105.636 10.368 106.57 13.168 98.4363 11.7013C88.703 9.968 86.0363 10.2347 86.0363 13.0347C86.0363 15.0347 88.1696 15.968 96.5696 18.1013C106.703 20.6347 107.236 20.6347 108.836 18.5013C109.903 17.168 110.836 15.4347 111.103 14.6347C111.636 12.9013 119.503 16.9013 125.77 22.1013C132.303 27.568 129.103 27.968 121.636 22.6347C118.036 19.968 114.436 17.8347 113.503 17.8347C112.17 17.8347 111.903 18.368 111.503 21.7013C111.37 22.2347 115.37 25.8347 120.17 29.4347L129.103 36.2347L132.303 32.9013L135.503 29.7013L140.17 36.1013C146.836 45.4347 148.303 48.5013 146.036 48.5013C145.103 48.5013 143.903 47.4347 143.37 46.1013C142.97 44.9013 140.836 41.7013 138.703 39.168C135.236 35.0347 134.57 34.768 132.836 36.5013C131.103 38.2347 131.503 39.4347 136.036 46.9013C138.97 51.568 141.503 56.1013 141.636 56.768C142.036 57.7013 143.236 57.7013 145.236 56.6347C146.836 55.7013 148.97 55.3013 149.903 55.568C151.636 56.2347 154.703 67.7013 154.703 73.3013C154.703 79.3013 152.703 76.5014 151.103 68.368C149.37 58.9013 149.103 58.6347 145.636 59.8347C143.37 60.5013 143.103 61.168 144.036 64.6347C144.703 66.9013 145.37 71.4347 145.503 74.6347C145.903 81.968 146.436 82.768 151.37 83.4347C154.97 83.8347 155.37 84.2347 154.97 87.8347C154.303 95.4347 151.77 104.501 150.436 104.501C149.503 104.501 149.37 102.901 150.036 100.101C150.436 97.8347 151.236 93.568 151.636 90.768C152.303 85.968 152.17 85.568 149.37 86.1013C146.703 86.5014 145.903 87.968 143.903 96.5013C140.836 109.168 140.836 108.368 144.703 109.835C146.57 110.501 148.036 111.835 148.036 112.635C148.036 114.635 140.57 126.368 137.903 128.635C133.903 131.968 134.703 128.501 139.37 121.968C144.17 115.435 144.703 111.168 141.103 111.168C140.17 111.168 136.436 115.168 132.97 119.968L126.703 128.635L129.236 132.235C131.236 135.168 131.37 136.101 129.903 137.435C127.37 139.835 115.636 147.168 114.436 147.168C111.903 147.168 113.903 144.901 120.036 140.768C127.103 136.235 127.77 135.035 124.836 132.635C123.236 131.301 121.77 131.835 117.503 134.901C114.57 137.035 110.303 139.568 108.17 140.501C104.703 141.835 104.303 142.501 105.503 145.435C107.37 150.501 107.103 150.901 99.7696 153.168C91.903 155.435 85.3696 155.835 85.3696 153.835C85.3696 153.035 86.303 152.501 87.3696 152.501C88.303 152.501 92.303 151.835 96.0363 151.035C101.903 149.835 102.836 149.168 102.436 146.768C102.17 144.768 101.236 143.968 99.3696 144.235C97.903 144.368 92.8363 145.035 88.0363 145.568C79.503 146.501 79.3696 146.501 78.9696 150.768C78.5696 154.768 78.1696 155.168 73.903 155.168C67.6363 155.168 57.3696 152.501 57.3696 150.901C57.3696 150.101 59.2363 149.835 62.0363 150.368C64.5696 150.768 68.8363 151.568 71.3696 151.968C75.7696 152.768 76.0363 152.501 76.0363 149.301C76.0363 146.768 75.3696 145.835 73.3696 145.835C71.903 145.835 66.9696 144.768 62.4363 143.568C56.9696 141.968 54.0363 141.701 53.7696 142.635C53.503 143.435 52.4363 145.168 51.503 146.501C49.903 148.768 49.3696 148.635 42.9696 145.168C35.7696 141.301 31.103 137.035 32.4363 135.701C32.8363 135.301 36.303 137.168 40.1696 139.835C44.0363 142.368 47.7696 144.368 48.5696 144.101C52.0363 143.035 50.4363 139.435 44.5696 135.168C41.103 132.635 37.103 129.701 35.7696 128.635C33.6363 127.035 32.9696 127.168 30.703 129.168C29.2363 130.501 27.2363 131.168 26.1696 130.768C24.1696 129.968 14.703 116.768 14.703 114.901C14.703 112.235 17.3696 114.501 21.2363 120.501C23.6363 124.101 26.4363 127.168 27.503 127.168C31.2363 127.168 30.9696 123.301 26.8363 117.301C24.5696 114.101 22.1696 109.835 21.3696 107.968C20.303 104.901 19.7696 104.635 16.703 105.835C14.703 106.635 12.703 107.168 12.0363 107.168C10.703 107.168 8.70296 100.368 7.2363 91.4347C5.90296 82.6347 8.70296 84.768 10.8363 94.1013C12.303 101.035 13.2363 102.501 15.3696 102.501C17.2363 102.501 17.903 101.701 17.6363 99.8347C17.503 98.368 16.9696 93.168 16.4363 88.1013L15.6363 79.168H11.2363C6.0363 79.168 5.76963 77.8347 8.16963 65.4347C9.2363 60.5013 10.4363 57.8347 11.6363 57.8347C12.9696 57.8347 13.2363 58.6347 12.5696 60.768C11.2363 65.168 9.50296 72.9013 9.36963 74.768C9.36963 75.7013 10.703 76.5014 12.4363 76.5014C14.9696 76.5014 15.6363 75.3013 17.6363 67.4347C18.8363 62.5013 20.1696 57.568 20.703 56.368C21.2363 54.768 20.303 53.7013 17.503 52.5013C15.2363 51.568 13.3696 50.368 13.3696 49.8347C13.3696 47.968 24.0363 32.5013 25.3696 32.5013C27.3696 32.5013 27.103 33.3013 21.7696 41.3013C17.7696 47.4347 17.2363 48.9013 18.8363 49.968C21.6363 51.7013 22.1696 51.3013 29.2363 41.8347L35.7696 33.168L33.103 30.2347C30.303 27.3013 30.303 27.168 32.8363 24.368C36.303 20.6347 46.303 14.768 48.303 15.4347C49.103 15.7013 46.4363 18.2347 42.303 21.0347C34.1696 26.5013 33.6363 27.3013 36.703 29.8347C38.303 31.168 39.503 30.9013 43.3696 27.968C45.903 25.968 50.1696 23.4347 52.8363 22.368C57.6363 20.368 57.7696 19.968 55.103 12.9013C54.703 11.968 57.103 10.5013 60.9696 9.30135C68.0363 7.16801 76.0363 6.63467 76.0363 8.23468Z" fill="#D82E26"/>
<path d="M64.0363 21.3013C53.9029 23.9679 43.7696 30.5013 35.3696 39.4346C20.8363 55.0346 15.5029 75.7013 20.7029 95.8346C24.0363 108.768 27.9029 115.301 38.0363 125.301C50.0363 137.168 60.4363 141.835 77.5029 142.901C86.8363 143.435 90.8363 143.035 98.4363 140.635C136.303 129.168 153.77 87.4346 135.636 51.7013C123.103 27.0346 91.9029 13.8346 64.0363 21.3013ZM83.2363 22.5013C83.6363 23.5679 83.1029 25.3013 81.9029 26.3679C80.7029 27.5679 80.5696 28.6346 81.3696 29.1679C82.9696 30.2346 83.1029 32.5013 81.5029 32.5013C79.7696 32.5013 78.5696 26.7679 80.0363 25.3013C80.5696 24.7679 80.8363 23.3013 80.4363 22.3679C80.0363 21.3013 80.3029 20.5013 81.1029 20.5013C81.7696 20.5013 82.7029 21.4346 83.2363 22.5013ZM76.5696 22.9013C76.9696 23.5679 76.0363 25.0346 74.5696 26.2346C73.2363 27.4346 72.0363 27.8346 72.0363 27.0346C72.0363 26.3679 71.5029 25.9679 70.8363 26.3679C70.1696 26.9013 69.9029 25.9679 70.3029 24.5013C70.9696 21.8346 75.2363 20.7679 76.5696 22.9013ZM88.7029 25.8346C88.0363 26.9013 87.2363 26.9013 86.4363 26.1013C85.6363 25.3013 85.5029 23.9679 86.0363 23.1679C86.7029 22.1013 87.5029 22.1013 88.3029 22.9013C89.1029 23.7013 89.2363 25.0346 88.7029 25.8346ZM98.3029 23.3013C101.636 24.5013 101.77 24.9013 99.7696 25.9679C98.4363 26.7679 97.3696 27.9679 97.3696 28.7679C97.3696 29.5679 96.4363 31.3013 95.2363 32.6346C94.0363 33.9679 93.3696 35.9679 93.7696 37.1679C94.8363 39.7013 97.3696 39.8346 97.3696 37.3013C97.3696 35.3013 102.303 33.0346 103.636 34.368C104.17 34.7679 103.503 35.1679 102.436 35.1679C99.6363 35.1679 98.3029 39.0346 100.17 41.3013C102.703 44.368 106.703 43.5679 106.703 40.1013C106.703 38.2346 107.103 37.7013 107.77 38.7679C108.436 39.7013 111.903 40.2346 117.37 40.1013C124.436 39.8346 126.036 40.2346 126.436 42.1013C126.703 43.7013 126.17 44.1013 124.17 43.5679C121.903 43.0346 121.37 43.7013 120.57 48.368C119.77 53.0346 119.236 53.8346 116.57 53.8346C112.836 53.8346 112.57 52.9013 115.503 49.7013C116.703 48.368 117.236 46.6346 116.703 45.9679C115.37 43.5679 111.903 44.368 111.103 47.0346C110.703 48.5013 109.77 49.4346 108.836 49.0346C108.036 48.7679 106.703 49.5679 105.903 50.9013C104.036 53.9679 106.836 58.6346 109.903 57.4346C111.903 56.6346 114.17 60.768 112.836 62.9013C111.636 64.9013 114.036 66.768 119.103 67.7013C123.636 68.5013 124.303 68.368 124.97 65.9679C126.036 61.8346 128.036 62.6346 128.036 67.0346C128.036 71.1679 130.836 73.1679 133.236 70.768C135.103 68.9013 135.103 70.5013 133.37 73.9679C131.636 77.0346 126.036 77.3013 124.836 74.5013C123.903 71.9679 120.436 71.9679 117.903 74.5013C116.303 76.1013 116.303 76.9013 117.636 79.1679C118.703 80.7679 120.17 81.5679 121.503 81.1679C122.836 80.6346 124.036 81.3013 124.57 82.7679C124.97 84.1013 125.77 85.9679 126.17 86.7679C126.57 87.8346 126.036 88.5013 124.836 88.5013C123.636 88.5013 122.703 87.568 122.703 86.5013C122.703 84.2346 120.303 83.9679 115.636 85.7013C112.97 86.7679 112.436 87.8346 112.57 91.3013C112.703 94.2346 113.636 95.9679 115.37 96.6346C119.77 98.368 122.703 97.9679 122.703 95.7013C122.703 94.368 121.77 93.8346 119.77 94.1013C117.503 94.368 116.57 93.7013 116.303 91.7013C115.77 87.568 119.37 86.7679 121.236 90.6346C122.036 92.368 123.503 93.8346 124.703 93.8346C127.503 93.8346 127.236 97.7013 124.436 98.768C121.236 99.9679 119.903 102.101 121.236 103.835C121.903 104.501 122.703 106.901 123.236 108.901C124.036 112.235 124.57 112.635 128.036 111.835C133.236 110.635 133.236 113.035 128.17 119.035L124.303 123.568L119.37 119.435C114.303 114.901 105.236 109.835 102.436 109.835C101.503 109.835 99.6363 111.301 98.4363 113.035C96.1696 116.235 96.1696 116.235 103.37 119.835C110.303 123.168 116.97 129.435 115.37 131.035C114.97 131.435 113.103 129.968 111.103 127.968C109.236 125.835 104.57 122.768 100.836 121.035L94.1696 117.968L91.1029 120.768L88.0363 123.568L95.6363 126.635C99.7696 128.368 104.436 130.901 105.77 132.368C108.436 135.035 108.436 135.035 103.503 137.435C98.7029 139.701 98.4363 139.701 97.2363 137.435C96.4363 136.235 94.9696 135.168 94.0363 135.168C92.9696 135.168 92.0363 134.501 92.0363 133.701C92.0363 132.901 90.9696 132.501 89.7696 132.768C86.5696 133.301 86.7029 137.168 89.9029 137.168C91.3696 137.168 92.7029 137.968 92.9696 138.768C93.9029 141.301 89.2363 140.901 87.3696 138.235C85.6363 135.835 82.7029 136.901 82.7029 139.968C82.7029 141.968 76.8363 142.635 72.8363 141.035C69.3696 139.701 73.6363 133.168 87.3696 119.168C94.1696 112.235 101.103 103.835 102.836 100.501C106.97 92.368 107.103 81.7013 102.97 74.768C101.37 71.9679 100.036 67.4346 100.036 64.768C100.036 61.9679 99.1029 58.5013 98.0363 56.9013C95.2363 52.7679 79.9029 47.9679 73.2363 49.0346C68.0363 49.8346 67.5029 49.4346 67.9029 44.5013C68.0363 43.1679 67.5029 43.4346 66.4363 45.1679C65.6363 46.6346 63.9029 48.5013 62.8363 49.4346C61.1029 50.6346 61.3696 50.7679 64.1696 50.2346C67.3696 49.7013 67.6363 49.8346 67.6363 55.4346C67.6363 62.1013 74.8363 77.0346 79.1029 79.4346C80.5696 80.1013 83.7696 80.5013 86.3029 80.1013C90.1696 79.4346 91.1029 79.8346 92.3029 82.5013C94.4363 87.1679 92.5696 94.368 87.6363 100.101C80.9696 108.101 58.1696 129.435 59.9029 126.235C60.7029 124.635 62.0363 122.901 62.7029 122.501C63.5029 122.101 64.0363 121.035 64.0363 120.368C64.0363 118.235 58.7029 120.235 50.8363 125.435C46.8363 127.968 43.9029 129.301 44.3029 128.235C44.8363 127.035 44.1696 126.368 42.5696 126.235C38.4363 125.835 24.0363 107.435 24.0363 102.368C24.0363 99.9679 36.3029 94.1013 36.9696 96.1013C37.3696 97.0346 38.1696 97.8346 38.8363 97.8346C40.9696 97.8346 40.1696 94.368 37.3696 91.8346C34.9696 89.7013 34.7029 89.7013 34.7029 91.568C34.7029 92.9013 34.1696 93.8346 33.3696 93.8346C32.7029 93.8346 32.0363 92.6346 32.0363 91.1679C32.0363 89.4346 32.9696 88.5013 34.7029 88.5013C36.4363 88.5013 37.3696 87.568 37.3696 86.1013C37.3696 84.7679 38.0363 83.0346 38.8363 82.2346C41.2363 79.8346 38.8363 77.5679 35.1029 78.5013C32.0363 79.1679 31.9029 78.9013 32.1696 74.9013C32.4363 72.5013 32.1696 69.7013 31.5029 68.768C29.5029 65.4346 28.4363 67.4346 29.1029 73.8346C29.6363 80.368 29.6363 80.5013 26.1696 80.5013C22.3029 80.5013 22.0363 81.0346 24.1696 86.9013C25.1029 89.568 26.1696 90.7679 27.5029 90.2346C30.5696 89.0346 29.7696 94.9013 26.5696 96.6346C22.8363 98.6346 21.9029 96.9013 20.7029 87.0346C19.7696 79.3013 20.1696 75.5679 22.9696 64.6346L24.4363 58.9013L29.7696 59.7013C33.5029 60.368 35.5029 60.1013 36.3029 58.9013C36.9696 57.7013 37.3696 58.1013 37.3696 60.1013C37.3696 65.0346 43.3696 63.5679 44.3029 58.5013C44.5696 56.5013 44.0363 55.8346 41.7696 55.9679C40.1696 55.9679 39.1029 55.5679 39.5029 54.9013C40.8363 52.7679 45.2363 53.8346 46.0363 56.5013C46.4363 57.9679 47.5029 59.1679 48.1696 59.1679C50.5696 59.1679 50.9696 55.0346 48.8363 52.6346C47.6363 51.3013 46.7029 49.5679 46.7029 48.7679C46.7029 46.7679 41.7696 44.1013 40.0363 45.1679C39.2363 45.5679 38.7029 46.9013 38.7029 47.9679C38.7029 49.8346 38.4363 49.7013 36.5696 47.9679C35.5029 46.7679 33.9029 45.8346 33.1029 45.8346C32.3029 45.8346 32.7029 44.6346 34.1696 43.0346C35.9029 41.0346 37.6363 40.5013 40.3029 41.0346C42.3029 41.4346 44.3029 41.1679 44.8363 40.368C45.2363 39.5679 48.1696 39.1679 51.1029 39.4346C55.5029 39.7013 56.8363 39.3013 57.1029 37.4346C57.6363 34.6346 58.3029 34.6346 60.9696 37.3013C62.8363 39.1679 63.3696 39.1679 65.1029 37.4346C67.3696 35.1679 66.1696 32.5013 62.9696 32.5013C60.1696 32.368 56.0363 29.4346 56.0363 27.3013C56.0363 25.3013 57.6363 25.4346 60.8363 27.7013C62.7029 29.1679 63.7696 29.1679 65.1029 28.1013C66.4363 27.0346 67.1029 27.0346 67.9029 28.2346C68.4363 29.0346 70.9696 29.9679 73.6363 30.1013C76.3029 30.3679 78.1696 30.9013 77.7696 31.5679C77.5029 32.1013 78.1696 32.9013 79.2363 33.3013C81.7696 34.2346 85.6363 31.4346 84.5696 29.5679C84.0363 28.7679 84.7029 28.5013 86.1696 29.0346C88.9696 29.8346 92.8363 25.4346 91.3696 23.1679C90.3029 21.4346 93.6363 21.4346 98.3029 23.3013ZM65.1029 24.6346C64.8363 25.4346 64.0363 25.9679 63.3696 25.9679C62.7029 25.9679 61.9029 25.4346 61.6363 24.6346C61.3696 23.8346 62.1696 23.1679 63.3696 23.1679C64.5696 23.1679 65.3696 23.8346 65.1029 24.6346ZM106.303 28.7679C105.903 29.8346 105.503 29.4346 105.503 27.9679C105.37 26.5013 105.77 25.7013 106.17 26.2346C106.57 26.6346 106.703 27.8346 106.303 28.7679ZM55.2363 31.9679C56.4363 35.1679 54.9696 36.7679 52.0363 35.1679C50.5696 34.368 49.7696 32.9013 50.1696 31.8346C51.2363 29.1679 54.1696 29.3013 55.2363 31.9679ZM48.0363 33.0346C48.0363 33.4346 47.5029 34.1013 46.7029 34.5013C46.0363 34.9013 45.3696 34.6346 45.3696 33.9679C45.3696 33.1679 46.0363 32.5013 46.7029 32.5013C47.5029 32.5013 48.0363 32.7679 48.0363 33.0346ZM64.0363 35.1679C64.0363 35.8346 63.5029 36.5013 62.7029 36.5013C62.0363 36.5013 61.3696 35.8346 61.3696 35.1679C61.3696 34.368 62.0363 33.8346 62.7029 33.8346C63.5029 33.8346 64.0363 34.368 64.0363 35.1679ZM44.0363 37.1679C44.0363 38.2346 43.1029 39.1679 42.0363 39.1679C39.9029 39.1679 39.3696 37.5679 40.9696 36.1013C42.4363 34.5013 44.0363 35.0346 44.0363 37.1679ZM128.97 47.5679C129.236 50.368 125.77 52.1013 123.903 50.2346C122.036 48.368 123.636 45.0346 126.436 45.0346C127.77 45.0346 128.97 46.1013 128.97 47.5679ZM115.37 47.1679C115.77 47.8346 115.236 48.5013 114.036 48.5013C112.836 48.5013 112.303 47.8346 112.703 47.1679C113.103 46.368 113.77 45.8346 114.036 45.8346C114.303 45.8346 114.97 46.368 115.37 47.1679ZM76.0363 51.1679C76.0363 51.8346 75.5029 52.5013 74.7029 52.5013C74.0363 52.5013 73.3696 51.8346 73.3696 51.1679C73.3696 50.368 74.0363 49.8346 74.7029 49.8346C75.5029 49.8346 76.0363 50.368 76.0363 51.1679ZM110.97 53.1679C110.97 53.8346 110.303 54.6346 109.503 54.9013C108.703 55.1679 108.036 54.368 108.036 53.1679C108.036 51.9679 108.703 51.1679 109.503 51.4346C110.303 51.7013 110.97 52.5013 110.97 53.1679ZM86.7029 53.0346C86.7029 53.3013 87.1029 54.5013 87.5029 55.7013C88.1696 57.3013 87.5029 57.8346 84.8363 57.8346C81.1029 57.8346 80.9696 57.7013 82.1696 54.6346C82.8363 52.7679 86.7029 51.4346 86.7029 53.0346ZM134.436 54.7679C134.17 56.2346 132.57 57.3013 130.303 57.5679C126.436 58.1013 125.636 56.7679 128.303 54.1013C130.836 51.5679 134.97 52.1013 134.436 54.7679ZM72.0363 55.7013C72.0363 56.1013 71.5029 56.7679 70.7029 57.1679C70.0363 57.5679 69.3696 57.3013 69.3696 56.6346C69.3696 55.8346 70.0363 55.1679 70.7029 55.1679C71.5029 55.1679 72.0363 55.4346 72.0363 55.7013ZM121.903 57.8346C123.77 57.8346 124.036 63.1679 122.036 63.3013C121.37 63.3013 119.77 63.5679 118.57 63.8346C117.236 64.1013 116.57 63.3013 116.57 61.3013C116.703 58.2346 119.103 54.7679 119.77 56.6346C120.036 57.3013 120.97 57.8346 121.903 57.8346ZM96.0363 59.7013C96.0363 60.768 95.1029 61.8346 94.0363 62.368C92.9696 62.768 92.0363 62.9013 92.0363 62.6346C92.0363 62.2346 91.6363 61.1679 91.2363 59.9679C90.7029 58.368 91.2363 57.8346 93.2363 57.8346C94.8363 57.8346 96.0363 58.6346 96.0363 59.7013ZM88.9696 62.1013C88.5696 63.1679 88.1696 62.768 88.1696 61.3013C88.0363 59.8346 88.4363 59.0346 88.8363 59.5679C89.2363 59.9679 89.3696 61.1679 88.9696 62.1013ZM138.036 62.368C138.303 63.9679 138.436 66.2346 138.436 67.4346C138.303 69.3013 137.903 69.4346 136.17 68.2346C131.903 65.0346 130.703 63.0346 132.436 61.3013C134.703 58.7679 137.37 59.3013 138.036 62.368ZM77.9029 63.9679C79.3696 67.7013 78.8363 68.6346 75.7696 68.2346C74.0363 67.9679 72.5696 66.768 72.3029 65.3013C71.9029 63.8346 72.3029 63.1679 73.2363 63.7013C74.0363 64.2346 74.7029 63.9679 74.7029 63.3013C74.7029 61.0346 76.9696 61.5679 77.9029 63.9679ZM86.4363 64.9013C86.7029 66.2346 86.0363 67.1679 84.8363 67.1679C83.5029 67.1679 82.7029 65.9679 82.7029 64.368C82.7029 61.1679 85.7696 61.5679 86.4363 64.9013ZM92.4363 70.5013C89.7696 74.1013 88.0363 74.768 88.0363 72.1013C88.0363 69.8346 90.7029 67.1679 92.9696 67.1679C94.4363 67.1679 94.1696 67.9679 92.4363 70.5013ZM83.7696 74.1013C83.3696 75.0346 82.3029 75.8346 81.3696 75.8346C80.4363 75.8346 79.3696 75.0346 79.1029 74.1013C78.7029 73.1679 79.6363 72.5013 81.3696 72.5013C83.1029 72.5013 84.0363 73.1679 83.7696 74.1013ZM101.37 78.368C101.37 79.3013 100.57 81.1679 99.5029 82.5013C97.7696 84.9013 97.6363 84.7679 95.2363 81.3013C92.9696 77.5679 92.9696 77.4346 95.3696 75.7013C98.0363 73.7013 101.37 75.3013 101.37 78.368ZM123.236 77.1679C122.303 79.4346 120.57 79.8346 119.503 77.9679C118.57 76.6346 119.903 75.1679 122.17 75.1679C123.236 75.1679 123.636 75.9679 123.236 77.1679ZM135.903 79.4346C136.703 77.9679 137.236 78.1013 137.903 79.9679C138.703 82.1013 138.97 82.1013 140.17 80.5013C140.97 79.1679 141.103 79.9679 140.57 83.1679C140.036 85.7013 139.77 89.0346 139.77 90.5013C139.903 92.6346 139.636 92.7679 138.57 91.1679C137.503 89.7013 136.97 89.568 136.436 90.7679C135.37 93.4346 133.37 92.7679 134.303 90.1013C135.103 88.1013 134.97 88.1013 132.97 89.7013C130.97 91.3013 130.836 91.1679 131.503 87.3013C132.036 84.6346 131.903 83.1679 130.836 83.1679C130.036 83.1679 129.37 82.6346 129.37 81.8346C129.37 81.1679 130.303 80.9013 131.37 81.3013C132.836 81.9679 133.236 81.4346 132.57 79.7013C131.903 77.5679 132.036 77.5679 133.236 79.1679C134.436 80.7679 134.97 80.9013 135.903 79.4346ZM34.7029 83.0346C34.7029 84.5013 34.1696 86.1013 33.3696 86.5013C32.5696 87.0346 32.0363 85.8346 32.0363 83.9679C32.0363 82.1013 32.7029 80.5013 33.3696 80.5013C34.1696 80.5013 34.7029 81.7013 34.7029 83.0346ZM29.3696 85.3013C29.3696 87.1679 28.8363 88.368 28.0363 87.8346C27.3696 87.4346 26.7029 85.8346 26.7029 84.368C26.7029 83.0346 27.3696 81.8346 28.0363 81.8346C28.8363 81.8346 29.3696 83.4346 29.3696 85.3013ZM130.036 85.8346C130.436 86.5013 130.17 87.1679 129.503 87.1679C128.703 87.1679 128.036 86.5013 128.036 85.8346C128.036 85.0346 128.303 84.5013 128.57 84.5013C128.97 84.5013 129.636 85.0346 130.036 85.8346ZM101.103 96.1013C100.836 98.5013 99.7696 99.7013 97.7696 99.9679C95.1029 100.368 94.7029 99.8346 94.7029 96.5013C94.7029 93.0346 95.2363 92.5013 98.1696 92.5013C101.103 92.5013 101.503 93.0346 101.103 96.1013ZM136.836 95.7013C139.37 98.368 139.236 98.768 135.636 99.4346C132.97 99.9679 132.57 99.568 133.103 96.9013C133.77 93.3013 134.17 93.1679 136.836 95.7013ZM134.436 101.968C136.303 101.968 136.17 102.235 134.036 103.168C131.636 104.235 131.636 104.368 133.77 104.368C135.77 104.501 135.903 104.768 134.436 106.368C133.503 107.435 132.303 107.968 131.77 107.568C131.103 107.301 130.703 107.835 130.57 108.768C130.57 110.101 130.303 110.101 129.77 108.768C129.503 107.968 128.57 107.435 127.903 107.968C127.236 108.368 126.703 107.435 126.703 105.968C126.703 104.368 125.903 103.168 125.103 103.035C124.17 103.035 124.703 102.368 126.436 101.568C128.036 100.768 129.37 99.4346 129.37 98.6346C129.37 97.8346 130.036 98.2346 130.836 99.4346C131.503 100.768 133.236 101.835 134.436 101.968ZM89.1029 107.035C91.6363 108.635 90.5696 113.035 87.5029 113.568C83.9029 114.368 82.1696 111.968 83.9029 108.635C85.6363 105.568 86.4363 105.301 89.1029 107.035ZM113.236 116.368C115.503 118.101 116.17 119.435 115.37 121.568C114.303 125.301 112.036 125.301 111.103 121.835C110.703 120.101 109.236 119.168 107.236 119.168C103.77 119.168 103.236 117.835 105.636 115.435C107.77 113.301 109.503 113.435 113.236 116.368ZM80.9696 122.368C80.7029 123.168 79.1029 124.635 77.2363 125.435C75.5029 126.368 74.1696 127.968 74.4363 128.901C74.5696 129.968 73.7696 131.568 72.5696 132.635C70.8363 134.101 70.3029 133.968 69.2363 132.368C68.5696 131.301 68.3029 129.701 68.7029 128.768C69.1029 127.701 69.3696 125.968 69.3696 124.635C69.3696 123.301 70.9696 121.835 73.7696 121.035C78.5696 119.568 81.7696 120.101 80.9696 122.368ZM56.5696 133.168C55.7696 135.301 53.3696 135.968 53.3696 134.101C53.3696 132.635 54.8363 131.168 56.1696 131.168C56.8363 131.168 56.9696 132.101 56.5696 133.168Z" fill="#D82E26"/>
<path d="M46.7029 66.2347C46.7029 67.168 51.6362 72.5013 52.5695 72.5013C54.4362 72.5013 53.1029 68.5013 50.8362 67.168C48.1695 65.8347 46.7029 65.4347 46.7029 66.2347Z" fill="#D82E26"/>
<path d="M49.7695 75.568C44.1695 76.768 42.7028 77.568 42.0362 80.1013C41.6362 82.1013 42.0362 84.1013 43.3695 85.3013C44.7028 86.6347 45.3695 89.8347 45.3695 94.5013C45.3695 102.901 47.1028 104.501 55.9028 104.501C63.1028 104.501 65.3695 103.435 65.3695 99.968C65.3695 95.568 63.7695 94.768 62.1695 98.2347C61.1028 100.368 59.2362 101.301 55.5028 101.568C49.7695 102.101 48.7028 101.435 47.5028 96.1013C46.8362 93.0347 47.2362 92.2347 50.0362 91.168C51.9028 90.5013 54.9695 88.9013 56.8362 87.7013C59.7695 85.7013 59.9028 85.168 58.0362 84.2347C56.4362 83.3013 55.2362 83.8347 53.2362 86.368C50.1695 90.2347 48.0362 90.9013 48.0362 87.8347C48.0362 86.6347 47.1028 85.4347 46.0362 85.0347C43.9028 84.1013 43.5028 82.1013 45.1028 79.568C45.6362 78.768 48.8362 77.7013 52.4362 77.168C57.9028 76.368 58.5695 76.5013 57.9028 78.368C56.9695 81.0347 58.5695 81.0347 61.9028 78.5013C63.2362 77.568 63.9028 76.1013 63.3695 75.3013C62.4362 73.568 59.5028 73.7013 49.7695 75.568Z" fill="#D82E26"/>
<path d="M63.6362 107.701C56.8362 109.568 53.2362 111.701 58.7029 110.768C60.5696 110.368 63.1029 109.701 64.3029 109.168C68.1696 107.701 65.6362 112.901 61.6362 114.901C58.4362 116.368 57.7696 116.235 55.7696 113.835L53.5029 111.035L47.6362 114.901C44.4362 117.168 40.9696 119.968 39.9029 121.301C38.1696 123.435 38.3029 123.568 41.2362 122.768C43.1029 122.368 45.2362 122.501 46.1696 123.168C47.1029 124.101 49.6362 123.435 53.5029 121.301C56.7029 119.568 61.5029 117.435 64.1696 116.635C66.7029 115.835 70.9696 113.035 73.3696 110.501L77.9029 105.835L73.9029 105.968C71.7696 105.968 67.2362 106.768 63.6362 107.701Z" fill="#D82E26"/>
</svg>
