<svg width="162" height="161" viewBox="0 0 162 161" fill="none" xmlns="http://www.w3.org/2000/svg">
<path d="M62.0362 1.96793C58.0362 3.0346 49.9029 6.2346 43.9029 9.16793C18.3029 21.7013 0.702881 50.7679 0.702881 80.5013C0.702881 101.035 8.30288 119.968 22.5695 135.301C31.9029 145.435 41.3695 151.701 55.1029 156.901C62.9696 159.968 66.0362 160.368 81.3696 160.368C97.9029 160.368 99.2362 160.235 109.636 155.968C147.636 140.901 168.303 102.768 160.036 63.1679C153.903 33.9679 129.903 9.4346 100.036 1.8346C90.1696 -0.698737 71.7696 -0.565404 62.0362 1.96793ZM97.3696 3.16793C125.103 9.0346 149.103 31.0346 157.103 58.1013C170.17 101.835 141.903 148.501 96.7029 157.968C89.6362 159.435 83.5029 159.835 76.1696 159.301C12.5695 154.235 -19.6971 82.9013 18.5695 32.2346C30.4362 16.5013 46.9695 6.6346 69.3696 1.96793C75.3696 0.767929 88.5696 1.30126 97.3696 3.16793Z" fill="#D82E26"/>
<path d="M69.2363 5.16796C52.303 8.50129 51.7696 9.03463 54.5696 15.968C55.2363 17.4346 53.3696 19.3013 47.2363 22.9013C42.703 25.568 38.4363 27.8346 37.6363 27.8346C35.3696 27.8346 39.6363 23.8346 45.6363 20.2346C51.7696 16.768 52.0363 16.2346 50.1696 13.3013C49.103 11.568 48.1696 11.7013 44.0363 13.968C41.2363 15.3013 36.5696 18.6346 33.503 21.3013C28.1696 25.968 28.1696 26.2346 30.4363 28.768C31.6363 30.2346 32.703 31.968 32.703 32.6346C32.703 34.6346 21.903 48.6346 20.8363 47.8346C19.6363 46.9013 20.303 45.4346 24.9696 39.0346C28.4363 34.2346 28.8363 32.9013 27.3696 31.168C26.0363 29.568 25.3696 29.4346 23.6363 30.768C20.8363 33.168 11.3696 47.8346 11.3696 49.968C11.3696 50.768 13.2363 52.2346 15.503 53.0346C18.8363 54.1013 19.503 55.0346 18.703 56.768C17.903 58.6346 14.9696 69.8346 14.1696 74.368C14.0363 74.768 13.503 74.5013 12.703 73.7013C11.7696 72.768 12.0363 69.7013 13.3696 64.5013C15.503 56.6346 14.9696 54.6346 10.5696 54.5013C9.23631 54.5013 6.96965 62.5013 5.23631 74.1013L4.30298 79.8346H9.10298H13.7696L15.103 89.4346C15.903 94.768 16.0363 99.7013 15.503 100.235C14.303 101.435 13.7696 99.568 11.903 88.768C11.2363 84.6346 10.5696 83.8346 7.90298 83.8346C5.23631 83.8346 4.70298 84.368 5.23631 86.768C5.63631 88.5013 6.56965 93.568 7.36965 97.968C9.50298 109.035 10.0363 109.701 14.703 107.568C18.0363 106.101 18.5696 106.235 19.903 108.368C20.703 109.701 22.9696 113.301 24.9696 116.368C28.9696 122.235 29.503 123.835 27.3696 123.835C26.5696 123.835 24.1696 120.768 21.903 117.168C17.6363 110.101 17.103 109.835 14.1696 111.701C12.4363 112.768 12.5696 113.701 14.703 117.701C16.1696 120.368 19.503 125.035 22.1696 128.235L27.103 133.835L30.5696 130.635L33.903 127.435L38.303 131.301C40.8363 133.435 44.303 136.101 46.0363 137.301C47.903 138.501 48.9696 139.968 48.303 140.635C47.7696 141.168 44.5696 139.701 41.3696 137.435C34.5696 132.635 33.6363 132.368 31.503 135.035C30.303 136.501 30.9696 137.701 34.9696 140.901C37.7696 143.035 42.5696 146.101 45.6363 147.701L51.2363 150.501L53.3696 146.368C54.9696 143.435 56.1696 142.501 57.7696 143.168C58.9696 143.568 63.103 144.635 66.703 145.435C70.4363 146.235 73.903 147.435 74.5696 148.101C76.4363 149.701 68.9696 149.435 62.8363 147.701C58.703 146.635 57.3696 146.635 56.5696 148.101C55.903 149.035 55.6363 150.368 55.7696 151.168C56.4363 152.901 65.6363 155.435 73.503 155.968C80.0363 156.501 80.0363 156.501 80.4363 152.235C80.8363 147.701 81.103 147.568 94.4363 145.835C101.37 144.901 103.37 147.168 96.703 148.368C94.5696 148.768 90.9696 149.568 88.703 149.968C85.903 150.501 84.703 151.435 84.703 153.301C84.703 155.435 85.6363 155.835 90.4363 155.835C98.303 155.701 109.503 151.701 108.836 149.168C107.236 143.168 107.236 141.168 108.57 141.168C109.37 141.168 112.97 139.301 116.436 137.168C123.37 132.901 124.703 132.501 124.703 134.368C124.703 135.035 121.77 137.435 118.036 139.835C110.97 144.368 110.703 144.768 112.57 147.701C113.503 149.301 114.836 148.901 119.636 146.101C122.703 144.235 127.503 140.901 130.036 138.768L134.703 134.768L131.503 131.435L128.436 127.968L132.57 122.901C134.836 120.101 137.903 116.368 139.37 114.501C144.303 108.235 142.303 115.168 137.236 121.835C132.836 127.701 132.703 128.235 134.97 129.968C137.103 131.568 137.77 131.301 140.436 128.101C143.636 124.368 151.37 111.835 151.37 110.235C151.37 109.835 149.503 108.768 147.236 107.968C144.036 106.901 143.236 105.968 144.036 104.235C144.436 102.901 145.503 98.768 146.303 95.168C147.103 91.4346 148.303 87.968 148.97 87.168C150.57 85.3013 150.303 92.768 148.436 98.768C147.103 103.168 147.236 104.235 148.836 105.301C149.903 105.968 151.236 106.235 152.036 106.101C153.77 105.435 156.703 93.7013 156.703 86.768C156.703 81.4346 156.57 81.168 152.703 81.168C148.303 81.168 148.17 80.768 146.703 67.3013C145.77 58.6346 148.036 57.7013 149.37 66.2346C150.97 76.368 151.37 77.168 154.036 77.168C156.17 77.168 156.703 76.2346 156.703 72.5013C156.703 64.768 152.57 51.568 150.303 52.5013C143.37 55.168 142.836 54.9013 138.17 45.8346C135.636 41.168 133.903 36.9013 134.303 36.5013C135.236 35.568 143.37 46.9013 143.37 49.0346C143.37 50.768 146.036 50.9013 148.57 49.3013C150.17 48.2346 149.636 46.768 145.903 40.5013C143.37 36.368 140.036 31.8346 138.436 30.2346L135.503 27.568L132.036 30.368L128.436 33.0346L123.636 29.168C120.836 27.0346 117.236 23.968 115.37 22.5013C109.77 18.1013 115.503 19.3013 121.77 23.8346C128.036 28.368 129.103 28.6346 131.37 25.968C132.57 24.368 131.903 23.168 127.103 19.8346C121.903 15.968 112.303 10.5013 110.97 10.5013C110.57 10.5013 109.636 12.368 108.703 14.6346C107.503 17.3013 106.303 18.368 104.97 17.8346C103.903 17.4346 100.303 16.5013 96.8363 15.7013C87.3696 13.4346 86.8363 13.168 88.1696 11.8346C88.9696 11.0346 92.0363 11.168 96.703 12.368C103.37 14.2346 104.17 14.1013 105.77 12.1013C107.103 10.2346 107.103 9.56796 105.37 8.36796C103.37 6.90129 83.503 3.30129 82.5696 4.23463C82.303 4.50129 82.0363 6.50129 81.7696 8.90129C81.6363 11.7013 80.703 13.168 79.3696 13.3013C78.303 13.3013 76.1696 13.568 74.703 13.8346C64.9696 15.568 60.703 15.8346 60.703 14.6346C60.703 13.4346 62.5696 12.9013 73.103 11.0346C77.2363 10.368 78.0363 9.70129 78.0363 7.03463C78.0363 3.56796 77.6363 3.56796 69.2363 5.16796ZM76.703 7.83463C76.703 8.50129 75.503 9.16796 73.903 9.16796C72.4363 9.16796 68.5696 9.83463 65.2363 10.6346C60.303 11.968 59.2363 12.6346 59.6363 15.0346C59.903 17.0346 60.8363 17.7013 62.703 17.4346C64.1696 17.168 69.2363 16.6346 74.0363 16.1013C82.5696 15.168 82.703 15.168 83.103 10.768C83.503 7.03463 84.0363 6.50129 87.3696 6.50129C93.503 6.50129 104.703 9.30129 104.703 10.768C104.703 11.7013 103.103 11.8346 100.436 11.3013C86.5696 8.50129 86.0363 8.50129 86.0363 12.368C86.0363 15.0346 86.703 15.8346 88.9696 15.8346C90.5696 15.8346 95.503 16.9013 99.903 18.1013C105.103 19.568 108.036 19.8346 108.303 18.9013C108.57 18.2346 109.636 16.5013 110.57 15.0346C112.703 12.2346 115.236 13.0346 124.436 19.7013C132.436 25.568 130.036 27.4346 121.77 21.8346C118.036 19.168 114.303 17.3013 113.503 17.568C110.303 18.6346 111.37 22.368 115.636 24.9013C118.036 26.5013 121.77 29.3013 123.77 31.168C127.503 34.6346 128.57 34.768 132.97 31.568C134.703 30.368 135.636 30.368 137.503 31.968C140.036 33.968 147.37 45.0346 147.37 46.768C147.37 49.4346 144.836 47.3013 140.836 41.168C136.17 33.968 135.236 33.4346 132.703 36.5013C131.503 37.968 131.77 39.3013 134.57 42.9013C136.436 45.3013 138.836 49.4346 140.036 52.2346C141.903 56.9013 142.17 57.0346 146.036 55.568C148.303 54.768 150.436 54.5013 150.836 54.9013C151.903 55.968 155.37 69.568 155.37 72.768C155.37 74.5013 154.836 75.8346 154.17 75.8346C152.97 75.8346 152.436 73.8346 150.57 63.4346C149.903 59.168 149.236 58.368 146.836 58.768C144.97 59.0346 144.17 59.968 144.436 61.8346C144.57 63.3013 145.103 68.5013 145.636 73.4346L146.436 82.5013H150.836C154.703 82.5013 155.37 83.0346 155.37 85.568C155.37 92.1013 152.303 103.835 150.57 103.835C149.37 103.835 149.236 102.768 150.036 99.4346C150.57 97.168 151.503 92.9013 152.036 90.1013C152.703 85.568 152.57 85.168 149.77 85.168C147.103 85.168 146.436 86.2346 144.57 94.1013C143.37 99.168 142.036 104.101 141.503 105.301C140.836 106.901 141.636 107.835 144.57 108.901C146.836 109.701 148.703 110.901 148.703 111.568C148.703 113.701 138.17 129.168 136.703 129.168C134.703 129.168 134.97 128.368 140.303 120.368C144.303 114.235 144.836 112.768 143.236 111.701C140.17 109.835 138.57 110.235 136.97 113.701C136.17 115.568 133.37 119.435 130.703 122.235L126.036 127.435L128.836 131.035C131.103 133.835 131.236 135.035 130.036 136.501C127.636 139.301 116.57 146.501 114.436 146.501C111.103 146.501 112.836 144.501 120.036 140.101C127.77 135.435 128.436 134.368 125.503 131.968C124.036 130.768 122.17 131.301 116.436 134.901C112.57 137.301 108.303 139.835 106.836 140.235C105.503 140.768 104.703 141.968 105.103 142.901C107.636 149.701 107.503 150.235 103.37 151.701C96.703 153.968 86.0363 155.035 86.0363 153.435C86.0363 152.101 87.903 151.568 98.4363 149.701C103.236 148.901 104.303 147.435 102.303 144.235C101.636 143.035 99.7697 143.035 96.0363 143.835C93.103 144.501 88.1696 145.168 85.103 145.168C79.503 145.168 79.3696 145.301 79.3696 149.835C79.3696 154.101 79.103 154.501 75.3696 154.501C73.2363 154.501 68.4363 153.835 64.703 153.035C56.4363 151.301 55.503 148.501 63.7696 149.968C73.7696 151.835 76.0363 151.435 76.4363 148.101C76.8363 145.835 76.303 145.168 73.6363 145.168C70.703 145.168 61.7696 142.768 56.5696 140.635C54.9696 139.968 53.903 140.768 52.703 143.701C51.7696 145.968 50.4363 147.835 49.7696 147.835C48.0363 147.835 34.5696 139.035 33.3696 137.168C31.2363 133.701 34.303 134.501 40.4363 139.035C44.0363 141.701 47.7696 143.835 48.5696 143.835C49.903 143.835 50.1696 143.301 50.5696 139.968C50.703 139.435 46.703 135.835 41.903 132.235L32.9696 125.435L30.303 128.235C27.903 130.501 27.2363 130.635 25.3696 129.168C21.503 125.968 15.2363 115.835 15.6363 113.568C15.903 112.101 17.7696 113.968 21.103 118.901C26.303 126.901 27.503 127.568 29.903 124.635C31.2363 123.035 30.703 121.568 27.6363 117.301C25.503 114.368 22.9696 110.101 22.0363 107.835C21.103 105.568 19.6363 103.968 18.8363 104.235C11.6363 106.901 11.6363 106.901 9.50298 99.7013C7.10298 91.968 6.70298 85.168 8.56965 85.168C9.23631 85.168 10.1696 88.368 10.5696 92.2346C11.6363 100.901 12.9696 103.035 16.303 101.968C18.5696 101.168 18.703 100.501 17.6363 92.768C15.503 78.1013 15.6363 78.5013 11.3696 78.5013C7.63631 78.5013 7.36965 78.1013 7.36965 73.7013C7.36965 67.4346 10.0363 57.168 11.6363 57.168C12.4363 57.168 12.5696 58.6346 12.1696 60.5013C11.6363 62.368 10.9696 66.5013 10.4363 69.8346C9.76965 75.3013 9.90298 75.8346 12.5696 75.8346C14.1696 75.8346 15.6363 75.0346 15.903 74.1013C17.103 69.7013 19.7696 58.9013 20.303 56.2346C20.8363 53.968 20.1696 52.9013 17.503 51.8346C12.9696 50.1013 13.103 48.5013 18.8363 39.8346C24.703 30.9013 24.1696 31.4346 25.903 32.368C26.703 32.9013 25.503 35.8346 22.703 39.7013C20.1696 43.3013 18.0363 46.768 18.0363 47.7013C18.0363 49.0346 18.5696 49.3013 21.903 49.7013C22.5696 49.8346 25.903 46.1013 29.2363 41.4346L35.503 33.0346L32.8363 29.4346L30.303 25.7013L37.503 20.5013C41.503 17.568 45.6363 15.0346 46.703 14.768C49.503 14.1013 49.2363 16.768 46.4363 17.8346C41.503 19.4346 35.2363 25.8346 36.1696 28.2346C37.2363 31.168 39.7696 31.168 42.4363 28.1013C43.7696 26.768 47.6363 24.2346 51.2363 22.5013C57.3696 19.7013 57.7696 19.168 56.5696 16.2346C54.703 11.168 54.9696 10.768 61.7696 8.63463C69.103 6.36796 76.703 5.96796 76.703 7.83463Z" fill="#D82E26"/>
<path d="M64.7029 20.368C46.4362 25.4347 30.4362 39.968 23.1029 58.2347C18.7029 69.3013 18.7029 91.7013 23.2362 102.901C35.1029 132.768 68.0362 149.035 98.1695 139.835C110.436 136.235 118.703 131.035 127.236 121.701C144.436 102.901 148.036 76.1013 136.436 52.1013C132.836 44.5013 120.57 31.3013 113.103 26.9013C99.6362 19.0347 79.5029 16.368 64.7029 20.368ZM79.3695 23.8347C79.3695 27.4347 78.9695 27.8347 75.1029 27.8347H70.7029L70.5695 35.7013C70.5695 40.768 69.7695 44.768 68.1695 47.168C66.8362 49.168 66.1695 51.0347 66.5695 51.4347C67.6362 52.6347 72.7029 43.4347 72.7029 40.1013C72.7029 36.368 75.9029 35.0347 79.9029 37.0347C84.3029 39.4347 90.5695 38.368 91.2362 35.168C91.6362 32.6347 91.6362 32.6347 89.1029 34.768C86.4362 37.3013 82.0362 37.968 82.0362 36.1013C82.0362 35.4347 83.3695 34.2347 85.1029 33.4347C88.0362 31.968 88.0362 31.968 84.5695 31.968C81.6362 31.8347 81.2362 31.3013 81.7695 27.968C82.1695 24.768 83.2362 23.8347 88.0362 22.5013C92.5695 21.3013 94.8362 21.3013 98.5695 22.5013C101.236 23.3013 103.37 24.6347 103.37 25.3013C103.37 26.9013 100.57 31.8347 98.4362 34.2347C96.1695 36.6347 96.3029 38.1013 98.8362 39.0347C101.636 40.1013 104.836 37.568 103.77 35.0347C102.836 32.5013 104.703 32.6347 106.57 35.3013C108.303 37.568 113.236 36.5013 112.303 33.8347C111.77 32.768 112.97 32.368 115.503 32.5013C120.17 32.768 131.103 43.7013 128.436 45.3013C127.503 45.8347 126.036 45.3013 125.103 44.1013C123.636 42.1013 123.503 42.2347 123.37 45.4347C123.37 47.568 122.703 49.168 121.903 49.168C120.97 49.168 120.703 47.968 121.236 46.1013C121.77 43.7013 121.37 43.0347 119.37 42.9013C117.37 42.768 116.703 43.568 116.703 45.968C116.703 48.1013 116.17 49.0347 115.236 48.368C114.436 47.968 114.036 46.368 114.436 45.0347C114.97 42.9013 114.57 42.6347 111.636 43.3013C105.37 44.768 105.236 45.8347 110.036 59.7013L114.703 73.0347L118.703 72.2347C120.836 71.8347 124.17 70.6347 125.903 69.568C128.57 67.8347 129.236 67.8347 130.17 69.3013C131.903 72.1013 131.636 74.2347 129.103 75.7013C126.97 76.9013 126.97 77.3013 130.436 80.5013C132.436 82.368 134.036 84.1013 134.036 84.368C134.036 84.6347 129.503 82.368 124.036 79.3013C118.57 76.1013 109.636 71.568 104.036 69.168C98.5695 66.768 94.0362 63.968 94.0362 63.0347C94.0362 61.8347 92.4362 61.168 89.5029 61.168C86.7029 61.168 84.7029 60.368 84.1695 59.168C83.5029 57.4347 82.8362 57.4347 78.7029 59.4347C74.4362 61.4347 74.1695 61.968 76.1695 63.4347C78.5695 65.168 77.9029 69.168 74.9695 69.168C73.7695 69.168 73.3695 70.5013 73.7695 73.8347C74.3029 77.7013 73.7695 78.6347 71.2362 79.568C69.5029 80.2347 66.9695 80.5013 65.6362 80.1013C63.6362 79.568 63.7695 79.168 67.1029 77.168C71.5029 74.5013 73.3695 72.1013 72.1695 70.9013C71.7695 70.368 70.0362 71.3013 68.3029 72.9013C64.7029 76.368 62.0362 76.6347 62.0362 73.8347C62.0362 72.768 61.5029 71.8347 60.7029 71.8347C60.0362 71.8347 59.3695 70.9013 59.3695 69.7013C59.3695 66.5013 62.4362 68.2347 63.5029 71.968C64.4362 75.0347 64.4362 75.0347 64.5695 72.1013C64.7029 70.368 65.5029 69.168 66.8362 69.168C70.3029 69.168 74.0362 66.5013 73.2362 64.6347C72.5695 63.0347 71.5029 63.0347 65.6362 64.768C57.5029 67.0347 56.4362 67.968 56.1695 71.968C56.0362 73.968 54.7029 75.3013 51.3695 76.368C46.5695 77.8347 44.5695 81.568 47.2362 84.2347C48.1695 85.168 48.4362 84.9013 48.1695 82.9013C47.6362 80.2347 50.1695 78.6347 55.1029 78.5013C57.3695 78.5013 57.1029 83.168 54.7029 85.168C53.6362 86.1013 53.1029 87.3013 53.3695 87.8347C53.7695 88.5013 55.6362 87.568 57.6362 85.7013C61.1029 82.5013 67.3695 81.3013 67.3695 83.8347C67.3695 84.5013 65.6362 85.168 63.3695 85.168C60.7029 85.168 59.3695 85.8347 59.3695 87.168C59.3695 89.568 60.0362 89.7013 63.3695 87.568C64.7029 86.6347 66.4362 86.368 66.9695 87.0347C68.4362 88.5013 63.1029 92.1013 60.4362 91.4347C59.1029 91.0347 57.3695 91.7013 56.5695 92.768C55.2362 94.2347 55.3695 95.168 57.5029 97.168C59.7695 99.4347 61.2362 99.568 73.3695 98.5013C83.2362 97.7013 86.9695 97.8347 87.6362 98.9013C88.4362 100.235 87.6362 114.368 86.7029 115.568C86.4362 115.835 82.8362 114.501 78.5695 112.768C74.1695 110.901 68.8362 109.035 66.4362 108.635C64.1695 108.101 60.7029 106.235 58.7029 104.368C55.1029 101.035 48.7029 99.968 48.7029 102.901C48.7029 103.835 47.5029 105.168 46.1695 106.101C44.1695 107.435 43.6362 109.168 43.9029 115.435L44.0362 123.168L51.1029 122.768C56.8362 122.501 59.7695 123.168 66.4362 126.635C76.9695 131.835 87.3695 138.635 87.3695 140.101C87.3695 141.435 80.8362 141.435 72.3029 140.368C66.9695 139.568 66.3029 139.168 66.4362 136.235C66.7029 132.501 60.0362 127.301 58.3029 129.968C57.7695 130.768 56.0362 131.835 54.3029 132.368C48.8362 134.101 34.3029 121.301 28.1695 109.435C25.9029 104.901 26.0362 101.168 28.5695 101.168C29.3695 101.168 29.6362 101.968 29.2362 103.035C28.3029 105.435 30.1695 106.501 33.7695 105.568C37.7695 104.635 38.9695 99.8347 35.9029 97.568C34.0362 96.2347 33.3695 96.2347 32.4362 97.568C31.7695 98.6347 31.3695 98.5013 31.3695 96.768C31.3695 93.0347 37.7695 93.8347 39.6362 97.8347C41.3695 101.568 43.1029 101.568 45.2362 97.968C46.4362 96.2347 46.1695 95.3013 43.9029 93.4347C42.3029 92.2347 40.5695 89.8347 40.0362 88.2347C39.1029 85.0347 34.0362 82.9013 31.3695 84.5013C30.5695 85.0347 30.1695 86.2347 30.5695 87.3013C30.9695 88.2347 30.7029 89.4347 30.0362 89.8347C29.2362 90.368 28.7029 89.7013 28.7029 88.5013C28.7029 87.3013 27.1029 86.1013 24.7029 85.568C20.9695 84.9013 20.7029 84.5013 20.8362 78.6347C20.8362 73.168 23.1029 64.6347 23.2362 68.768C23.3695 71.0347 25.5029 70.9013 29.5029 68.368C31.9029 66.768 32.4362 65.7013 31.3695 64.5013C28.3029 60.768 33.5029 56.1013 37.9029 58.5013C39.2362 59.168 41.5029 59.3013 43.1029 58.9013C45.2362 58.368 46.0362 58.768 46.0362 60.368C46.0362 61.568 46.5695 62.5013 47.2362 62.5013C47.9029 62.5013 49.3695 62.9013 50.5695 63.3013C51.9029 63.8347 53.1029 63.0347 54.1695 60.768C55.5029 57.968 55.2362 56.9013 52.9695 54.5013C51.2362 52.6347 50.0362 52.1013 49.3695 53.0347C48.9695 53.8347 48.0362 54.5013 47.2362 54.5013C45.5029 54.5013 45.6362 49.568 47.5029 48.5013C48.1695 47.968 49.3695 46.1013 50.0362 44.368C50.7029 42.6347 52.3029 41.168 53.6362 41.168C55.7695 41.3013 55.9029 41.3013 53.7695 42.5013C50.9695 44.2347 52.1695 49.168 55.3695 49.168C58.0362 49.168 59.6362 46.1013 58.5695 43.168C58.0362 42.1013 58.4362 41.168 59.2362 41.168C60.0362 41.168 60.7029 39.8347 60.7029 38.1013C60.7029 36.368 61.5029 34.2347 62.4362 33.3013C63.7695 31.968 63.2362 31.0347 60.1695 28.6347C55.9029 25.0347 56.3029 24.6347 66.1695 21.968C77.5029 18.9013 79.3695 19.168 79.3695 23.8347ZM85.6362 20.6347C85.2362 21.0347 84.0362 21.168 83.1029 20.768C82.0362 20.368 82.4362 19.968 83.9029 19.968C85.3695 19.8347 86.1695 20.2347 85.6362 20.6347ZM112.17 28.6347C113.503 29.7013 114.036 30.368 113.103 29.968C112.303 29.4347 111.103 29.968 110.436 31.0347C109.636 32.5013 108.97 32.6347 107.37 31.4347C106.303 30.5013 105.236 29.0347 105.103 28.1013C104.57 25.8347 108.97 26.1013 112.17 28.6347ZM56.7029 29.168C57.7695 29.8347 58.1695 30.5013 57.3695 30.5013C56.7029 30.5013 56.9695 31.168 58.0362 31.8347C59.7695 33.0347 59.7695 33.168 58.0362 33.168C56.3029 33.168 56.3029 33.3013 58.0362 34.5013C59.5029 35.4347 59.5029 35.8347 58.3029 35.8347C57.2362 35.8347 56.9695 36.5013 57.5029 37.4347C58.1695 38.5013 57.7695 38.6347 56.3029 38.1013C54.9695 37.568 54.0362 37.968 54.0362 38.768C54.0362 39.7013 53.2362 39.168 52.1695 37.8347C50.4362 35.568 49.9029 35.4347 46.8362 37.0347C42.9695 39.168 41.2362 38.368 42.5695 35.0347C43.2362 33.3013 43.9029 33.168 44.9695 34.2347C46.5695 35.8347 50.4362 34.768 49.2362 33.0347C48.8362 32.368 49.2362 31.8347 50.0362 31.8347C50.8362 31.8347 51.2362 31.3013 50.8362 30.6347C50.3029 29.968 51.3695 29.7013 52.9695 30.1013C55.5029 30.6347 55.6362 30.5013 54.0362 29.3013C51.5029 27.568 53.9029 27.4347 56.7029 29.168ZM79.1029 31.4347C78.4362 34.9013 74.0362 35.3013 74.0362 31.968C74.0362 29.968 74.8362 29.168 76.8362 29.168C78.7029 29.168 79.3695 29.8347 79.1029 31.4347ZM102.036 35.8347C102.036 36.5013 101.503 37.168 100.703 37.168C100.036 37.168 99.3695 36.5013 99.3695 35.8347C99.3695 35.0347 100.036 34.5013 100.703 34.5013C101.503 34.5013 102.036 35.0347 102.036 35.8347ZM42.0362 40.368C42.0362 40.768 41.5029 41.4347 40.7029 41.8347C40.0362 42.2347 39.3695 41.968 39.3695 41.3013C39.3695 40.5013 40.0362 39.8347 40.7029 39.8347C41.5029 39.8347 42.0362 40.1013 42.0362 40.368ZM42.8362 44.9013C40.1695 45.4347 40.0362 47.8347 42.7029 47.8347C43.7695 47.8347 44.7029 48.5013 44.7029 49.3013C44.7029 50.1013 43.5029 50.368 42.0362 49.8347C40.5695 49.3013 39.3695 49.568 39.3695 50.368C39.3695 51.168 40.0362 51.8347 40.8362 51.8347C41.5029 51.8347 41.7695 52.5013 41.3695 53.3013C40.7029 54.1013 39.7695 53.8347 38.5695 52.2347C36.9695 49.968 36.8362 50.1013 36.5695 53.168L36.4362 56.5013L35.5029 53.168C34.8362 50.9013 34.3029 50.368 33.5029 51.568C32.9695 52.368 31.9029 53.168 31.1029 53.168C30.1695 53.168 30.1695 52.5013 31.2362 51.3013C32.4362 49.968 32.4362 49.3013 31.3695 48.9013C30.4362 48.6347 30.8362 47.168 32.5695 45.0347C35.1029 41.8347 35.6362 41.7013 40.0362 43.0347C42.7029 43.8347 43.9029 44.6347 42.8362 44.9013ZM56.8362 46.9013C55.1029 48.6347 53.3695 47.3013 54.7029 45.3013C55.1029 44.5013 56.1695 44.2347 56.9695 44.6347C57.7695 45.168 57.7695 45.968 56.8362 46.9013ZM111.37 49.4347C111.37 50.1013 110.836 50.5013 110.036 50.5013C109.37 50.5013 108.703 49.168 108.703 47.4347C108.703 45.0347 108.97 44.9013 110.036 46.5013C110.703 47.568 111.37 48.9013 111.37 49.4347ZM129.103 50.2347C128.303 53.4347 126.036 54.2347 126.036 51.4347C126.036 49.7013 128.836 46.2347 129.503 46.9013C129.77 47.168 129.636 48.6347 129.103 50.2347ZM137.903 59.168C140.836 66.768 142.97 81.168 141.236 81.168C138.97 81.168 128.836 64.6347 128.703 60.768C128.703 59.4347 129.636 56.2347 130.703 53.4347C133.103 47.8347 133.77 48.368 137.903 59.168ZM123.37 56.9013C123.37 59.168 118.57 62.5013 115.37 62.5013C113.903 62.5013 113.503 56.768 114.97 55.4347C115.37 54.9013 117.503 54.5013 119.636 54.5013C122.436 54.5013 123.37 55.168 123.37 56.9013ZM52.1695 57.3013C53.2362 59.168 49.7695 61.4347 48.1695 59.8347C46.9695 58.6347 48.1695 55.8347 50.0362 55.8347C50.7029 55.8347 51.6362 56.5013 52.1695 57.3013ZM27.3695 57.7013C27.3695 58.1013 26.8362 58.768 26.0362 59.168C25.3695 59.568 24.7029 59.3013 24.7029 58.6347C24.7029 57.8347 25.3695 57.168 26.0362 57.168C26.8362 57.168 27.3695 57.4347 27.3695 57.7013ZM28.0362 63.968C28.0362 64.9013 26.9695 65.968 25.7695 66.2347C23.3695 66.6347 22.4362 63.8347 24.3029 61.968C25.6362 60.6347 28.0362 61.8347 28.0362 63.968ZM90.0362 65.168C87.5029 66.768 82.4362 66.9013 81.3695 65.3013C80.9695 64.5013 82.9695 63.8347 85.6362 63.568C91.6362 63.0347 92.7029 63.568 90.0362 65.168ZM94.8362 71.968C97.3695 76.9013 96.4362 81.968 92.4362 85.4347C87.5029 89.7013 85.7695 88.2347 89.5029 82.9013C92.1695 78.9013 92.7029 76.9013 92.0362 72.9013C90.9695 66.768 91.9029 66.5013 94.8362 71.968ZM86.1695 75.568C86.9695 79.3013 86.4362 80.5013 83.6362 83.168C80.9695 85.7013 79.6362 86.1013 77.7695 85.0347C75.3695 83.7013 75.3695 83.568 78.0362 79.8347C79.5029 77.8347 80.7029 74.768 80.7029 73.168C80.7029 68.5013 85.1029 70.5013 86.1695 75.568ZM114.036 77.7013C114.036 77.968 111.903 79.168 109.236 80.5013C105.503 82.2347 103.636 84.6347 99.9029 92.2347L95.3695 101.835L96.0362 93.8347C97.1029 82.5013 98.0362 79.8347 101.236 78.5013C104.036 77.3013 114.036 76.768 114.036 77.7013ZM122.703 86.768C125.636 87.568 127.103 88.5013 126.036 88.6347C124.97 88.9013 121.903 89.3013 119.236 89.8347C114.836 90.5013 113.636 91.7013 107.903 101.168C104.303 107.035 100.97 111.835 100.57 111.835C99.6362 111.835 102.17 101.435 105.503 91.4347C107.503 85.4347 107.77 85.168 112.436 85.168C115.103 85.168 119.77 85.8347 122.703 86.768ZM77.9029 89.568C78.9695 91.0347 78.5695 92.1013 76.0362 94.5013C72.8362 97.4347 72.5695 97.568 70.4362 95.4347C68.3029 93.3013 68.3029 93.0347 70.8362 90.6347C73.9029 87.4347 75.9029 87.168 77.9029 89.568ZM140.703 92.6347C140.703 93.568 139.903 94.5013 138.836 94.9013C137.636 95.3013 137.236 96.9013 137.636 99.0347C138.436 102.901 137.77 103.168 133.903 101.168C131.903 100.101 131.503 98.9013 132.17 96.1013C132.703 94.1013 133.37 92.1013 133.636 91.568C134.57 89.968 140.703 90.9013 140.703 92.6347ZM120.036 95.8347C124.436 97.4347 135.503 107.835 134.57 109.301C134.17 109.968 130.97 109.035 127.503 107.168L121.103 103.968L118.57 107.035C111.37 115.835 104.57 122.768 103.903 122.235C103.37 121.568 115.236 94.5013 116.17 94.5013C116.303 94.5013 118.036 95.0347 120.036 95.8347ZM55.3695 104.635C55.3695 106.501 54.9695 106.635 53.1029 105.035C51.7695 104.101 50.4362 103.035 50.1695 102.901C49.9029 102.635 50.8362 102.501 52.4362 102.501C54.3029 102.501 55.3695 103.301 55.3695 104.635ZM94.5695 115.835L95.5029 119.168L92.8362 115.968C89.9029 112.768 89.3695 108.501 90.9695 104.235C91.7695 102.501 92.1695 103.168 92.7029 107.168C93.2362 110.101 94.0362 113.968 94.5695 115.835ZM50.9695 108.635C51.2362 109.568 50.1695 109.968 48.1695 109.568C46.3029 109.168 45.1029 108.235 45.5029 107.568C46.5695 105.968 50.3029 106.768 50.9695 108.635ZM130.036 115.701C130.036 117.435 126.836 119.835 124.703 119.835C123.503 119.835 121.37 121.168 119.903 122.635C117.236 125.568 104.97 133.168 102.703 133.168C102.036 133.168 103.903 130.635 106.836 127.435C109.77 124.368 114.436 119.035 117.236 115.435L122.303 109.168L126.17 111.968C128.303 113.435 130.036 115.168 130.036 115.701ZM64.1695 111.968C65.2362 113.701 62.1695 119.835 60.1695 119.835C59.3695 119.835 57.9029 119.301 56.8362 118.635C55.2362 117.568 55.2362 116.901 57.2362 113.968C59.5029 110.368 62.5695 109.435 64.1695 111.968ZM50.0362 113.168C50.0362 113.835 48.8362 114.501 47.2362 114.501C45.7695 114.501 44.9695 113.835 45.3695 113.168C45.7695 112.368 47.1029 111.835 48.1695 111.835C49.2362 111.835 50.0362 112.368 50.0362 113.168ZM78.4362 117.568C78.3029 119.568 78.3029 121.701 78.1695 122.368C78.0362 123.035 76.4362 124.501 74.5695 125.835C71.5029 127.701 70.8362 127.835 69.2362 126.235C67.6362 124.635 67.9029 123.701 70.7029 119.835C72.5695 117.301 73.7695 114.501 73.5029 113.568C72.9695 112.501 73.6362 112.235 75.7695 113.035C77.7695 113.835 78.5695 115.168 78.4362 117.568ZM51.3695 119.835C51.3695 120.501 49.7695 121.168 47.9029 121.168C46.0362 121.168 44.8362 120.635 45.3695 119.835C45.7695 119.035 47.3695 118.501 48.8362 118.501C50.1695 118.501 51.3695 119.035 51.3695 119.835ZM96.0362 125.568C98.0362 129.568 97.9029 129.835 94.8362 132.768C90.8362 136.501 88.9695 136.501 84.8362 133.168C82.7029 131.301 82.0362 129.835 82.7029 128.235C83.3695 126.901 83.9029 125.168 84.0362 124.501C84.1695 123.701 84.4362 122.768 84.4362 122.235C84.5695 121.835 86.8362 121.435 89.3695 121.435C93.2362 121.435 94.3029 122.101 96.0362 125.568ZM64.7029 137.835C64.7029 137.968 63.2362 137.835 61.3695 137.435C58.1695 136.901 56.9695 134.635 58.8362 132.768C59.6362 132.101 64.7029 136.635 64.7029 137.835Z" fill="#D82E26"/>
<path d="M86.0362 26.5014L82.7029 27.568L86.4362 27.7014C88.5695 27.8347 89.9029 28.368 89.5029 29.0347C88.9695 29.7014 89.9029 29.968 91.3695 29.568C94.5695 28.768 94.8362 27.0347 91.9029 25.968C90.7029 25.568 89.7695 25.168 89.6362 25.3014C89.5029 25.4347 87.9029 25.968 86.0362 26.5014Z" fill="#D82E26"/>
<path d="M81.7696 40.9013C79.103 41.168 78.0363 42.1013 78.0363 43.968C78.0363 45.3013 76.8363 47.7013 75.3696 49.168C73.903 50.6347 73.2363 51.8347 73.903 51.8347C75.7696 51.8347 79.103 48.2347 80.0363 45.0347C81.2363 41.3013 84.0363 42.6347 84.0363 47.0347C84.1696 52.5013 89.6363 54.9013 95.2363 51.8347C97.103 50.9013 97.503 49.568 96.9696 46.9013L96.1696 43.168L95.3696 46.5013C94.703 49.168 93.7696 49.8347 90.703 49.8347C87.103 49.8347 86.703 49.4347 86.5696 45.568C86.5696 40.368 86.4363 40.368 81.7696 40.9013Z" fill="#D82E26"/>
<path d="M88.1695 128.501C88.7029 129.568 89.5029 130.101 90.1695 129.701C92.0362 128.635 91.5029 126.501 89.3695 126.501C88.1695 126.501 87.7695 127.301 88.1695 128.501Z" fill="#D82E26"/>
</svg>
