<svg width="1920" height="1080" viewBox="0 0 1920 1080" fill="none" xmlns="http://www.w3.org/2000/svg">
<path fill-rule="evenodd" clip-rule="evenodd" d="M0 540V1080H960H1920V540V0.000836253H960H0V540ZM82.0673 39.5641C83.0079 39.6743 83.4782 41.7682 83.4782 46.3967V53.009L89.1218 52.6783L94.6479 52.3477L95.0006 47.1681C95.3533 42.76 95.706 41.9886 98.2927 41.4375C99.8212 40.9967 117.34 40.7763 137.092 40.7763L172.953 40.8865L172.6 43.311C172.247 45.4049 171.424 45.7355 166.133 46.0661L159.902 46.3967V50.2539V54.0008H960H1760.1V50.2539V46.3967L1753.98 46.0661C1748.69 45.7355 1747.75 45.4049 1747.75 43.5314C1747.75 41.3362 1748.69 41.3274 1783.19 41.0007L1783.61 40.9967C1803.37 40.8865 1820.65 40.9967 1822.18 41.3273C1824.41 41.8784 1824.76 42.6498 1824.76 47.4988V53.009L1830.41 52.6783L1835.93 52.3477L1836.29 45.9559L1836.64 39.6743H1852.39H1868.27V54.5518V69.3192L1860.39 69.6498L1852.39 69.9804L1852.04 74.0579L1851.69 78.2457H1857.57H1863.56V114.613C1863.56 146.242 1863.33 150.98 1861.8 150.98C1860.51 150.98 1860.04 149.548 1860.04 145.029C1860.04 138.637 1859.1 137.646 1853.33 138.637L1850.63 139.078L1850.51 327.748C1850.47 366.482 1850.41 415.918 1850.34 468.744L1850.34 470.024C1850.23 558.29 1850.12 655.839 1850.04 728.67L1849.69 941.143H1854.75H1859.92L1860.27 935.633C1860.51 932.547 1861.21 930.012 1861.8 929.792C1862.51 929.682 1863.09 942.245 1863.33 965.498L1863.56 1001.42L1857.68 1001.31L1851.81 1001.09V1005.83V1010.57H1860.04H1868.27V1025.45V1040.33H1852.39H1836.52V1033.71V1027.1H1829.94C1823.59 1027.1 1823.47 1027.21 1823.59 1030.08C1823.71 1031.84 1823.82 1034.27 1823.71 1035.59L1823.59 1038.12H1785.96C1753.28 1038.12 1748.34 1037.9 1748.34 1036.47C1748.34 1035.15 1749.87 1034.82 1754.92 1034.82H1761.39L1761.04 1030.08L1760.69 1025.45H960H159.314L158.961 1030.08L158.609 1034.82H165.075C170.131 1034.82 171.66 1035.15 171.66 1036.47C171.66 1037.9 166.604 1038.12 133.448 1038.12H95.2357V1032.61V1027.1H89.357H83.4782V1033.71V1040.33H67.6056H51.733V1025.45V1010.57H60.0808H68.3111L67.9584 1005.94L67.6056 1001.2H61.962H56.436V965.057C56.436 933.759 56.6712 929.021 58.1996 929.021C59.493 929.021 59.9632 930.453 59.9632 934.972V940.923L64.1959 941.363C66.4299 941.584 68.5462 941.474 68.7814 941.143C69.0165 940.812 69.2517 935.082 69.3692 928.359C69.3917 926.484 69.4196 924.807 69.4445 923.307C69.5795 915.177 69.6279 912.266 68.2626 911.244C67.5015 910.675 66.3009 910.692 64.4311 910.718C63.8038 910.727 63.1013 910.737 62.3147 910.727C53.7318 910.616 47.853 907.31 43.6203 900.367L40.9161 895.629L44.9137 898.604C51.0275 902.902 60.1984 902.131 67.3705 896.731C69.2517 895.188 69.3692 876.343 69.3692 517.298C69.3692 261.625 69.0165 139.299 68.1935 138.858C67.488 138.417 65.3717 138.307 63.4905 138.637C60.316 139.078 60.0808 139.409 59.7281 144.699C59.493 147.895 58.7875 150.429 57.9645 150.76C56.7887 151.091 56.436 143.376 56.436 114.723V78.2457H61.7269H67.0177V73.8375V69.4294H59.493H51.8506L51.4978 54.4416C51.2627 46.1763 51.2627 39.4539 51.3803 39.3437C51.4978 39.1233 78.4225 39.3437 82.0673 39.5641ZM56.0833 45.9559C55.7306 47.0579 55.613 51.6865 55.7306 56.2048L55.8482 64.4701L61.3742 64.8007L66.7826 65.1313L67.6057 59.0701L68.4287 52.8987H73.602H78.7753V48.4905V44.0824H67.7232C58.0821 44.0824 56.5536 44.3028 56.0833 45.9559ZM1841.22 52.8987V48.4905V44.0824H1852.39H1863.56V54.662V65.1313L1858.04 64.8007L1852.39 64.4701L1852.04 58.6293L1851.69 52.8987H1846.4H1841.22ZM99.9388 49.5926V52.8988H115.224H130.508V59.511V66.1232H134.036C137.798 66.1232 137.916 65.9028 137.563 58.6294L137.328 54.0008H146.263H155.199V50.1437V46.2865H127.569H99.9388V49.5926ZM1764.8 54.0007V50.1436V46.2864H1792.43H1820.06V49.5926V52.8987H1804.78H1789.61L1789.26 59.1803C1788.9 65.2415 1788.79 65.5722 1785.73 65.9028C1782.44 66.2334 1782.44 66.1232 1782.44 60.1722V54.0007H1773.62H1764.8ZM72.5438 60.8334C72.1911 62.817 72.0735 65.9028 72.3086 67.7762C72.3229 67.9904 72.3389 68.2257 72.3561 68.4772C72.4799 70.2963 72.6614 72.963 72.6614 74.6089L72.8965 78.2456H84.0661H95.2358V67.7762V57.3068H84.1837H73.1317L72.5438 60.8334ZM99.9387 82.5436V69.9803V57.3069H112.872H125.805V82.1028V106.899H99.4684H73.1316L72.6613 104.364C72.4262 103.042 72.191 97.7517 72.3086 92.5722V83.2048L86.1824 82.8742L99.9387 82.5436ZM1794.19 82.1028V106.899H1820.65H1847.1L1847.22 103.813C1847.22 102.822 1847.35 100.484 1847.5 97.6785L1847.5 97.674V97.6711V97.6693V97.6681C1847.6 95.7964 1847.71 93.717 1847.81 91.6905L1848.28 82.6538H1834.17H1820.06V69.9803V57.3069H1807.13H1794.19V82.1028ZM1824.76 78.2456V67.7762V57.3068H1835.93C1844.05 57.3068 1847.1 57.6375 1847.22 58.6293C1847.34 59.4007 1847.46 64.1395 1847.57 69.0987L1847.93 78.2456H1836.29H1824.76ZM142.501 61.9354C142.854 65.4619 142.971 65.5721 149.085 65.9027L155.199 66.2333V75.0496V83.8659L146.734 83.5353L138.151 83.2047L137.798 77.1435C137.328 70.7516 136.269 69.319 132.742 70.2007C130.626 70.7517 130.508 72.0742 130.508 90.4782V110.205H116.752C109.11 110.205 99.3508 110.535 95.0006 110.976L87.0055 111.637V115.274V119.021H94.06H101.232L100.879 126.956L100.527 135.001L91.4733 135.331L82.3025 135.662V129.49C82.3025 126.184 81.9497 123.319 81.4794 123.319C80.8916 123.209 79.2455 123.099 77.5995 122.988L74.6601 122.878L74.3074 507.931C74.0722 874.249 74.1898 892.874 76.071 892.102C77.2467 891.772 84.1837 891.441 91.4733 891.441C98.6454 891.551 104.642 891.331 104.642 890.89C104.642 890.559 103.348 888.796 101.702 886.923C95.3533 879.87 98.9981 866.535 108.757 861.135C113.342 858.71 115.223 858.27 120.514 858.71C126.276 859.151 126.863 859.041 127.451 856.727C128.509 852.98 134.035 847.359 138.386 845.706C143.324 843.723 151.907 843.723 156.845 845.706C160.372 847.139 165.075 851.437 166.016 854.302C166.369 855.184 167.427 854.963 169.308 853.751C170.954 852.759 173.305 851.878 174.834 851.878C176.48 851.878 177.656 850.996 178.126 849.343C178.596 848.021 180.242 845.376 181.771 843.392C183.417 841.298 184.593 838.433 184.593 836.118C184.593 824.106 193.999 814.408 205.874 814.188C209.636 814.188 210.812 813.637 212.223 811.212C217.043 803.057 224.568 798.98 235.032 798.98C250.552 798.98 262.427 807.135 264.073 818.927L264.896 824.327H270.07C284.061 824.327 292.762 832.812 292.762 846.698V853.861L300.286 853.31C309.575 852.539 315.101 854.192 319.686 859.041C324.86 864.661 326.623 873.478 324.037 881.192C323.331 883.396 323.566 883.506 328.975 882.955C348.14 881.302 370.008 891 376.358 904.114C379.65 910.837 379.179 911.278 372.713 908.302C361.308 903.012 352.725 903.894 340.967 911.498C329.445 918.992 317.805 921.416 306.871 918.661L300.404 917.118L297.23 920.645C294.76 923.51 292.527 924.612 287.001 925.825C280.887 927.037 279.946 927.588 279.358 930.233C278.535 934.421 271.951 941.143 266.307 943.457C260.899 945.772 249.259 946.212 243.498 944.339C240.206 943.237 239.383 943.347 237.149 945.331C233.739 948.306 225.509 951.061 219.983 951.061C213.516 951.061 203.993 946.433 200.818 941.694C198.584 938.388 197.644 937.837 195.174 938.388C189.531 939.6 175.304 940.261 171.189 939.6C165.546 938.608 159.432 933.429 156.727 927.367C155.199 923.841 154.141 922.629 152.847 923.069C151.907 923.4 148.732 923.951 145.793 924.282C138.856 924.943 133.33 921.637 129.568 914.474L126.863 909.294L121.455 912.049C114.048 915.686 107.111 915.465 95.1181 911.388C88.2988 908.963 83.7134 908.082 80.0685 908.302L74.6601 908.633L74.3074 933.208L74.0722 957.784L77.8346 957.343C81.597 957.012 81.7146 956.792 82.0673 951.282C82.5376 944.669 83.3606 944.229 94.06 944.669L100.527 945L100.879 953.045L101.232 960.98H93.4721H85.8297V964.837V968.694L107.699 968.914L129.568 969.245L129.803 989.633L129.92 1010.02H134.035H138.151L138.503 1003.08L138.856 996.245H146.969H155.199V1005.06C155.199 1011.56 154.846 1013.88 153.788 1013.77C152.965 1013.66 150.026 1013.66 147.321 1013.77C142.383 1013.88 142.266 1013.99 142.266 1017.73V1021.59H960H1777.73V1017.73V1013.88H1771.27H1764.8V1005.06V996.245L1773.03 996.355L1781.14 996.576L1781.5 1003.3L1781.85 1010.02H1785.96H1790.08L1790.2 989.633L1790.31 969.245L1811.36 969.025C1822.88 968.914 1832.52 968.584 1832.76 968.253C1832.88 967.923 1832.99 966.049 1832.99 964.286V960.98H1825.94H1818.77L1819.12 952.935L1819.47 945L1828.64 944.669L1837.7 944.339V950.29C1837.7 956.572 1838.64 957.674 1843.69 957.674C1845.93 957.674 1845.93 951.061 1845.93 540.551C1845.93 263.278 1845.57 123.429 1844.75 123.319C1844.16 123.209 1842.75 123.099 1841.81 123.099C1840.87 123.099 1839.58 123.209 1838.87 123.319C1838.29 123.319 1837.7 126.184 1837.7 129.49V135.552H1828.29H1818.89V127.286V119.021H1825.94H1832.99V115.164V111.307L1811.6 111.086L1790.08 110.756L1789.73 90.5884C1789.61 78.5761 1789.02 70.421 1788.32 70.421C1783.14 69.7598 1783.02 69.8701 1782.44 76.5925L1781.85 83.2047H1773.15H1764.57V74.9394V66.6741L1770.8 66.1231C1776.91 65.5721 1777.15 65.4619 1777.5 61.9354L1777.85 58.4089H960H142.148L142.501 61.9354ZM600.22 166.96C652.071 172.25 701.452 187.348 746.719 211.923C769.176 224.156 797.864 243.111 809.034 253.36C820.321 263.719 825.259 267.686 825.612 267.025C825.964 266.584 826.2 264.711 826.317 262.947C826.67 258.539 830.785 254.682 836.076 253.911C839.721 253.36 840.661 252.699 841.249 250.054C842.778 243.882 852.654 238.923 860.179 240.686C861.942 241.127 864.882 243.001 866.88 244.984C868.762 246.858 871.701 248.621 873.347 248.841C875.111 249.062 877.227 249.723 878.05 250.384C880.284 252.147 882.988 257.327 882.988 259.972C882.988 263.388 886.751 268.678 889.572 269.229C891.101 269.449 893.1 268.678 894.746 267.025C899.684 262.286 910.03 263.498 912.264 269.229C912.852 270.772 914.381 271.433 917.438 271.654C923.904 271.984 927.667 275.731 927.667 281.682C927.667 284.327 926.961 286.752 926.256 287.303C925.315 287.854 928.137 288.405 933.075 288.845C939.189 289.286 942.246 290.058 944.715 291.821C948.242 294.466 953.416 295.017 955.65 292.923C956.59 292.041 957.06 291.931 957.06 292.813C957.06 293.474 955.65 295.127 953.886 296.449C950.947 298.654 949.653 298.874 942.599 298.323C936.955 297.882 933.428 298.103 930.371 299.315C926.138 301.078 918.496 300.968 914.498 299.315C912.97 298.654 912.382 298.874 912.382 300.086C912.382 303.062 906.386 306.588 902.388 306.037C899.214 305.596 898.508 305.927 896.509 309.454C893.688 314.303 887.926 316.066 880.519 314.303C876.169 313.311 875.816 313.421 873.582 316.286L871.231 319.372L876.992 327.417C888.632 344.278 903.681 371.498 910.854 389.021C928.137 431.119 935.427 465.392 936.72 509.143C937.543 538.568 936.015 559.727 931.194 584.082C927.667 602.266 925.903 608.988 918.261 633.013C914.969 643.151 907.091 661.335 900.507 673.678L897.097 679.959L903.329 679.298C914.146 678.086 924.139 682.384 928.255 689.878C929.548 692.082 930.606 692.853 932.252 692.413C935.427 691.641 942.364 693.955 946.479 697.261C950.006 700.017 953.533 708.392 953.533 714.123C953.533 715.776 954.591 717.98 955.767 718.972C957.06 720.074 958.354 722.057 958.707 723.38C959.177 725.143 960.823 726.245 964.115 727.237C968.818 728.559 968.935 728.449 972.698 724.812C977.518 719.853 983.868 718.2 990.804 719.853C996.566 721.176 1002.56 726.025 1003.62 730.212C1004.33 732.747 1004.8 732.968 1008.91 732.306C1014.79 731.314 1022.78 734.621 1026.55 739.58C1030.07 744.319 1030.54 754.568 1027.37 757.874C1023.26 762.172 1024.55 762.943 1034.42 762.061C1045.48 761.18 1051.83 762.502 1059.35 767.351C1065.82 771.649 1073.93 772.2 1078.05 768.784C1080.98 766.249 1081.22 767.682 1078.52 771.429C1073.11 778.812 1064.88 781.237 1054.3 778.592C1045.01 776.388 1043.71 776.388 1031.84 780.355C1020.43 784.102 1016.08 783.992 1008.91 780.135C1006.79 778.923 1004.91 778.041 1004.68 778.261C1004.66 778.305 1004.61 778.407 1004.54 778.559C1004.52 778.621 1004.49 778.69 1004.46 778.766L1004.38 778.947C1004.06 779.682 1003.54 780.906 1002.91 782.229C1002.09 784.212 999.858 787.078 997.859 788.621C994.567 791.265 993.391 791.486 987.042 791.045L979.87 790.494L977.754 795.343C974.579 802.506 969.053 805.923 959.882 806.474C955.767 806.804 950.006 806.363 947.067 805.702L941.776 804.49L936.72 809.339C928.372 817.494 917.908 818.486 907.326 812.204C903.211 809.78 901.683 809.449 899.919 810.331C896.274 812.204 884.046 811.763 879.461 809.559C873.582 806.694 869.114 802.506 867.703 798.429C866.763 795.563 865.587 794.792 861.002 793.69C857.71 792.808 854.065 790.825 851.948 788.731L848.304 785.204L841.837 786.637C834.782 788.29 826.317 787.298 818.91 783.992L814.795 782.229L807.505 788.4C785.989 806.694 749.07 829.616 721.323 841.959C669.59 864.882 616.093 876.123 557.893 876.123C524.149 876.123 496.637 873.037 465.597 865.653C339.557 835.898 239.383 748.396 197.526 631.47C177.773 576.147 173.423 509.143 185.886 451.617C187.062 445.776 188.473 440.155 188.825 439.274C189.413 437.841 188.59 437.731 183.77 438.282C177.303 438.943 171.424 436.849 169.308 433.213C168.25 431.229 168.367 431.229 171.777 432.331C174.952 433.543 176.127 433.213 182.241 430.017C186.004 428.143 190.001 426.49 190.942 426.49C192 426.49 192.823 425.719 192.823 424.727C192.823 422.082 201.641 397.947 207.637 384.282C217.984 360.478 237.619 327.747 253.021 308.462C281.827 272.535 315.924 242.89 355.076 219.858C407.045 189.441 462.54 171.588 521.445 166.409C548.487 163.984 573.178 164.205 600.22 166.96ZM407.868 201.454C440.436 187.899 482.645 177.099 516.154 173.682C547.782 170.486 591.52 171.809 623.735 176.878C645.369 180.294 684.287 190.874 700.159 197.707C701.06 198.104 702.89 198.881 705.189 199.857L705.202 199.862L705.206 199.864L705.233 199.876L705.252 199.884L705.28 199.896L705.29 199.9C708.077 201.083 711.536 202.552 714.856 203.988C759.064 222.833 804.566 254.462 836.311 288.515C849.597 302.731 857.004 311.658 865.705 323.78C900.507 372.049 921.318 424.507 928.372 481.592C930.959 501.87 930.959 538.127 928.372 559.066C918.966 636.429 884.164 705.417 825.964 762.282C788.34 799.2 740.37 829.065 690.518 846.808C662.418 856.727 637.962 862.567 605.511 866.976C587.17 869.4 532.497 869.731 514.979 867.527C445.139 858.6 386.939 836.229 332.149 797.437C306.283 779.143 269.012 742.115 250.435 716.327C221.159 675.772 199.642 625.188 191.177 576.919C186.004 547.384 184.945 508.372 188.59 480.821C190.472 466.164 195.41 440.817 196.821 438.833C197.408 437.951 204.698 439.605 207.873 441.368C207.99 441.478 207.167 446.107 205.874 451.617C205.66 452.618 205.458 453.522 205.275 454.34L205.275 454.342C204.423 458.153 203.988 460.101 204.752 461.252C205.552 462.456 207.664 462.789 211.986 463.468C212.903 463.612 213.92 463.772 215.045 463.96C222.922 465.282 224.451 464.731 224.568 460.433C224.568 459.111 223.04 458.449 218.69 457.898C215.515 457.458 212.811 456.686 212.811 456.135C212.811 452.939 216.691 439.605 217.866 438.943C218.572 438.613 220.688 440.045 222.687 442.249C225.979 445.886 226.92 446.327 231.975 446.327C236.796 446.327 237.619 446.658 237.031 448.2C234.327 457.347 229.506 485.119 228.919 495.368C228.683 499.776 228.331 500.878 226.685 500.768C225.509 500.768 220.571 500.658 215.75 500.547L206.932 500.327V496.69C206.932 494.817 207.285 490.519 207.755 487.323L208.46 481.372L214.81 482.143L221.159 482.915L220.806 479.168L220.453 475.531L211.87 474.539C207.05 474.098 202.699 474.098 202.229 474.539C201.053 475.641 197.996 505.507 198.819 506.388C199.878 507.38 234.562 508.813 235.15 507.931C235.62 507.38 236.561 499.445 237.266 490.188C238.089 480.931 239.618 469.249 240.676 464.18C242.205 456.576 242.91 455.143 244.438 455.805C245.497 456.245 248.083 456.796 250.2 457.127C253.492 457.568 254.08 458.009 253.492 459.992C249.024 477.184 246.437 505.947 247.26 529.531C248.789 574.715 259.606 614.057 281.239 653.51C293.82 676.433 303.226 689.217 322.861 710.817C373.418 765.919 443.493 801.074 520.857 810.221C536.142 811.984 579.527 811.984 595.4 810.221C642.665 804.821 689.695 788.51 729.435 763.825C764.238 742.225 801.509 706.078 823.378 672.686C851.243 630.037 868.644 575.155 868.879 529.751C868.879 525.674 869.35 522.368 869.937 522.368C871.819 522.368 879.461 530.523 880.284 533.278C880.637 534.821 880.402 541.653 879.696 548.707C878.991 555.649 878.403 561.49 878.638 561.6C879.343 562.151 914.734 565.898 914.734 565.457C914.734 565.202 914.931 563.946 915.212 562.163C915.415 560.87 915.662 559.3 915.909 557.633C916.497 553.666 917.085 546.502 917.32 541.653L917.673 532.837L908.149 532.507C898.743 532.176 898.508 532.286 898.038 534.931C897.215 538.678 897.685 538.898 904.505 538.898H910.266L909.443 547.935C908.972 553.004 908.385 557.413 908.149 557.743C907.679 558.515 888.044 556.2 887.103 555.209C886.633 554.878 886.986 547.494 887.691 538.788C888.514 529.641 888.632 517.409 888.279 510.135L887.456 497.241L893.1 496.58C901.33 495.698 908.62 495.368 909.325 495.919C909.56 496.249 910.031 500.437 910.266 505.286L910.618 514.102L904.505 514.433C898.508 514.764 898.273 514.874 898.273 518.07V521.266H908.385H918.614L917.79 505.066C917.32 496.139 916.615 488.425 916.144 488.094C915.674 487.653 908.149 487.984 899.449 488.866C895.345 489.23 891.398 489.569 888.275 489.837L888.273 489.838C884.775 490.138 882.309 490.35 881.813 490.409C880.284 490.409 880.049 493.164 880.402 509.694L880.872 529.09L874.993 523.249L869.232 517.409L868.409 504.735C867.233 484.237 863.353 460.323 858.885 446.327C858.287 444.323 857.129 440.629 855.999 437.025L855.511 435.47L855.177 434.404C855.038 433.96 854.902 433.525 854.77 433.102C844.776 401.033 823.143 363.454 797.746 334.47C773.408 306.698 737.195 278.927 702.863 261.845C677.232 249.172 641.254 237.601 613.389 233.082C575.882 227.131 532.615 227.352 499.106 233.743C415.628 249.723 345.671 293.474 298.876 358.935C292.997 367.09 291.233 368.854 289.352 368.413C288.059 368.082 285.237 368.413 283.238 369.074C278.418 370.617 277.83 369.956 280.416 366.319C281.475 364.776 281.945 363.013 281.357 362.572C280.887 362.021 273.832 357.943 265.72 353.425C256.314 348.135 250.552 345.6 249.729 346.151C248.201 347.364 233.974 372.821 233.974 374.364C233.974 375.025 237.854 377.009 242.44 378.992C250.435 382.298 251.023 382.409 252.434 380.645C254.903 377.449 254.315 376.347 248.554 373.813L243.263 371.388L247.731 363.674C250.2 359.486 252.904 355.96 253.727 355.96C254.55 355.96 258.783 358.054 263.133 360.588C264.582 361.432 265.953 362.228 267.141 362.917C269.52 364.298 271.167 365.253 271.246 365.327C272.186 365.768 262.78 380.425 261.017 381.307C258.547 382.519 256.314 387.919 256.314 392.437C256.314 394.2 255.843 395.633 255.373 395.633C254.785 395.633 253.609 396.845 252.786 398.388C250.787 401.805 245.261 403.788 243.38 401.694C242.322 400.482 242.44 399.6 243.851 397.617C244.909 396.294 245.732 394.531 245.732 393.649C245.732 392.327 232.093 385.715 229.389 385.715C228.801 385.715 226.332 390.123 223.863 395.633C219.865 404.89 219.277 405.551 216.103 405.551C214.222 405.551 211.165 406.323 209.284 407.204C207.285 408.196 205.756 408.637 205.756 408.307C205.756 407.976 208.46 401.364 211.753 393.649C238.207 331.494 279.241 280.911 336.029 240.466C354.254 227.462 383.177 211.703 407.868 201.454ZM581.714 197.661C582.063 191.603 582.349 186.639 582.349 185.694C582.584 183.601 581.761 183.49 564.713 183.16L546.724 182.829V192.196V201.674H550.839H554.954V195.503C554.954 190.323 555.307 189.441 556.835 189.992C557.893 190.323 562.244 190.654 566.476 190.654H574.354L574.001 200.572L573.648 210.49H558.129C543.784 210.49 524.972 211.703 514.861 213.245L510.746 213.907L509.335 205.311C509.192 204.424 509.056 203.602 508.93 202.84C508.054 197.553 507.653 195.127 508.681 193.918C509.553 192.893 511.453 192.742 514.962 192.462C515.549 192.416 516.18 192.365 516.86 192.307C527.089 191.315 527.912 191.866 527.912 198.588C527.912 202.666 528.029 202.776 532.144 202.776H536.495L535.672 198.588C535.319 196.384 534.966 192.196 534.966 189.221V184.041H530.616C525.208 184.041 499.694 187.017 498.988 187.678C498.283 188.339 503.809 220.188 504.632 221.07C505.102 221.401 512.745 220.96 521.798 219.968C530.851 218.976 547.547 218.205 559.304 218.205H580.585L581.408 202.996C581.51 201.211 581.612 199.445 581.709 197.763L581.714 197.661ZM632.083 191.645C632.554 190.213 630.555 189.552 621.149 188.119C601.396 185.033 597.399 184.813 596.811 186.466C595.4 190.433 592.46 218.535 593.401 219.307C593.871 219.637 600.691 220.85 608.333 221.952C624.794 224.156 643.488 228.123 656.421 232.09C661.595 233.743 666.062 234.515 666.65 234.074C667.591 233.082 678.408 204.429 678.408 202.886C678.408 201.784 655.481 194.731 647.133 193.299C644.311 192.858 644.076 193.299 640.784 205.311L640.635 205.839C639.829 208.688 639.462 209.986 639.947 210.726C640.354 211.346 641.357 211.575 643.2 211.994L643.37 212.033C646.075 212.584 646.545 212.254 647.721 209.168C648.426 207.294 649.014 204.87 649.014 203.768C649.014 202.556 649.367 201.674 649.955 201.674C651.366 201.674 662.3 204.65 665.71 205.862L668.884 207.074L665.945 215.119L665.697 215.817C663.461 222.108 662.551 224.67 660.906 225.293C659.775 225.721 658.298 225.234 655.806 224.412L655.363 224.266C647.133 221.621 623.03 216.441 611.625 214.899C606.334 214.127 601.749 213.245 601.514 212.805C600.926 211.703 603.395 194.621 604.336 193.629C605.159 192.747 620.678 194.841 622.207 196.054C622.56 196.384 622.56 198.919 621.972 201.674C620.914 206.964 621.737 208.286 626.204 208.286C628.438 208.286 628.909 207.294 630.202 200.792C630.907 196.715 631.848 192.637 632.083 191.645ZM490.17 213.796C488.877 208.617 487.348 201.454 486.643 197.817C485.938 194.18 485.114 190.874 484.644 190.543C483.821 189.772 481.94 190.213 463.833 194.621C457.367 196.274 451.723 197.927 451.253 198.258C450.783 198.699 451.488 202.776 453.017 207.515C455.133 214.458 455.956 216.001 457.955 216.001C462.893 216.001 463.716 214.458 461.717 208.947C460.659 206.192 460.306 203.658 460.776 203.437C461.247 203.107 465.479 201.894 470.182 200.682C476.414 199.029 478.765 198.809 479.118 199.801C479.824 201.454 483.233 216.882 483.233 218.205C483.233 218.645 481.352 219.417 479.001 219.858C471.711 221.07 443.258 229.335 434.675 232.641C430.207 234.405 425.974 235.837 425.504 235.837C423.975 235.837 415.98 220.409 416.568 218.866C417.156 217.433 432.558 211.372 433.852 212.143C434.204 212.364 435.38 214.678 436.203 217.103C437.732 221.401 438.084 221.621 441.377 221.07C443.258 220.629 445.021 220.188 445.257 220.078C445.374 219.858 444.316 216.552 442.67 212.694C441.024 208.837 439.731 204.98 439.731 204.209C439.731 203.437 438.79 202.776 437.614 202.776C433.852 202.776 405.634 214.017 405.634 215.45C405.634 216.001 419.743 244.764 420.448 245.535C420.566 245.756 428.091 243.221 437.026 239.915C453.957 233.633 467.125 229.666 482.058 226.47C486.878 225.368 491.228 224.266 491.699 223.825C492.051 223.494 491.464 218.976 490.17 213.796ZM724.262 221.731C724.262 220.739 707.684 212.805 698.043 209.278C697.743 209.17 697.446 209.063 697.154 208.957C696.747 208.81 696.349 208.666 695.969 208.529L695.95 208.522C693.845 207.76 692.254 207.184 692.164 207.184C691.106 207.294 678.408 238.482 679.231 239.143C679.701 239.584 685.345 242.119 691.694 244.654C704.157 249.723 727.437 261.845 736.843 268.237C740.135 270.441 743.309 272.205 743.897 272.205C745.778 272.205 765.884 244.543 764.708 243.662C760.24 240.686 742.369 230.107 739.429 228.674C737.43 227.682 735.549 227.131 735.197 227.462C734.844 227.792 732.492 231.209 730.023 234.956L725.555 241.898L727.907 243.772C731.434 246.527 732.14 246.307 734.844 241.347C736.137 238.923 737.901 236.939 738.606 236.939C739.312 236.939 743.309 238.923 747.424 241.458C753.421 245.094 754.596 246.307 753.656 247.85C751.187 252.037 743.544 261.625 742.486 261.956C741.781 262.176 736.843 259.641 731.552 256.335C726.143 253.029 714.386 246.968 705.332 242.78C696.397 238.703 689.107 234.735 688.99 234.074C688.99 232.09 696.279 217.103 697.337 217.103C699.689 217.103 713.68 224.156 713.68 225.258C713.68 225.919 712.975 227.462 712.152 228.674C708.86 233.192 708.86 234.625 712.387 236.388L715.797 238.041L720.029 230.327C722.381 226.139 724.262 222.282 724.262 221.731ZM409.161 250.935C409.161 250.384 405.634 243.552 401.284 235.727C396.228 226.801 392.583 221.621 391.525 221.621C389.644 221.731 384.823 224.156 370.126 232.311L361.19 237.27L365.893 244.543L366.222 245.036L366.222 245.037C370.193 250.993 371.521 252.985 372.874 253.002C373.554 253.011 374.24 252.52 375.272 251.784C375.357 251.723 375.444 251.661 375.535 251.596L378.474 249.392L375.417 244.654L372.36 239.915L374.947 238.152C376.24 237.16 380.002 234.956 383.177 233.303L389.056 230.217L393.759 238.262C396.463 242.67 398.579 246.747 398.579 247.409C398.579 247.96 393.406 251.486 387.057 255.013C374.594 262.176 362.366 270.221 353.548 276.943C350.491 279.368 347.787 281.131 347.552 280.911C347.434 280.69 344.26 277.054 340.497 272.976L333.795 265.372L341.203 259.972C345.318 256.996 348.963 254.572 349.315 254.572C349.786 254.572 351.549 256.556 353.313 258.98C355.077 261.405 356.84 263.388 357.075 263.388C357.428 263.388 358.839 262.507 360.485 261.294L363.189 259.311L357.898 252.258C355.077 248.401 352.137 245.094 351.549 244.874C350.961 244.654 348.727 245.645 346.611 246.968C339.439 251.707 323.331 263.939 323.331 264.711C323.331 265.482 345.553 290.278 346.729 290.609C347.081 290.829 352.255 287.413 358.016 283.115C372.83 272.094 390.584 261.074 404.811 254.021C407.162 252.809 409.161 251.376 409.161 250.935ZM798.922 269.119C795.748 266.364 789.516 261.515 785.283 258.319C781.051 255.013 777.288 252.368 777.053 252.368C776.818 252.368 775.995 253.25 775.172 254.352C774.467 255.454 769.528 261.405 764.238 267.686C759.064 273.858 754.832 279.368 755.067 279.809C755.302 280.249 760.24 284.437 766.001 288.956C775.877 296.78 796.571 315.956 805.154 325.433L808.916 329.621L823.025 318.49C836.546 307.8 838.427 305.927 836.076 305.045C835.488 304.825 833.019 302.511 830.667 299.756C828.316 297 823.378 291.931 819.733 288.405L813.266 281.903L806.094 288.625L798.922 295.347L801.626 297.772L804.213 300.196L808.681 296.119L813.031 292.041L819.733 299.094L826.435 306.147L820.321 310.996C817.029 313.641 813.266 316.507 811.973 317.388C809.974 318.821 808.916 318.16 798.452 307.911C787.87 297.441 777.994 288.735 769.176 281.903L765.296 278.817L768.823 274.188C774.702 266.474 777.994 263.058 779.287 263.498C781.639 264.27 792.456 273.527 792.456 274.739C792.456 275.401 790.81 277.605 788.693 279.588L784.931 283.225L787.753 285.209C789.399 286.201 790.927 287.082 791.28 287.082C791.633 287.082 794.807 284.217 798.334 280.58L804.801 274.188L798.922 269.119ZM337.793 298.543L332.502 293.364C329.76 290.794 324.842 285.918 320.888 281.998L320.232 281.348L319.569 280.69L312.162 273.196L299.464 285.319L286.765 297.552L294.055 303.613C298.053 306.919 301.697 309.674 302.168 309.674C302.638 309.674 303.931 308.682 305.107 307.47C307.224 305.266 307.224 305.156 302.991 301.078L298.523 296.89L305.342 290.498L312.044 284.217L319.686 291.38L327.211 298.543L319.569 306.037C309.81 315.515 303.931 321.907 295.113 332.817C291.233 337.556 287.588 341.743 286.883 342.184C285.237 343.176 269.129 332.596 269.835 330.943C270.54 329.07 279.946 317.388 280.652 317.388C281.004 317.388 283.356 318.931 285.825 320.805L290.41 324.221L292.762 321.576C294.055 320.254 294.996 318.821 294.996 318.49C294.996 318.16 291.468 315.405 287.236 312.209L279.476 306.588L274.538 312.209C267.248 320.805 258.665 332.376 258.665 333.809C258.665 334.47 259.018 335.021 259.606 335.021C260.076 335.021 266.543 338.988 273.95 343.837C281.357 348.686 287.824 352.654 288.294 352.654C288.882 352.654 291.704 349.347 294.878 345.27C302.521 335.241 317.335 318.711 328.505 307.69L337.793 298.543ZM866.528 345.38L857.004 332.266C851.831 324.992 847.245 318.711 846.775 318.27C846.305 317.939 844.424 318.821 842.425 320.254C840.544 321.796 837.252 324.111 835.253 325.433C834.425 325.981 833.094 326.849 831.534 327.867L831.532 327.868C829.325 329.309 826.66 331.047 824.318 332.596C820.438 335.131 817.146 337.776 817.146 338.327C817.146 338.878 821.614 345.49 826.905 352.984C832.313 360.588 840.779 374.254 845.835 383.4L854.77 399.931L868.056 394.311L869.127 393.866C875.951 391.035 882.729 388.222 884.517 387.698C886.28 387.147 887.691 385.935 887.691 385.164C887.691 383.951 874.053 357.172 872.877 356.07C872.407 355.629 866.528 358.384 858.65 362.792C855.241 364.666 855.005 365.107 856.181 367.641C857.827 370.837 858.885 370.947 863.941 368.082C866.057 366.87 868.291 365.878 868.879 365.878C870.29 365.878 878.638 381.417 877.697 382.188C876.874 382.96 859.238 390.123 858.298 390.123C857.827 390.123 856.534 387.919 855.476 385.384C853.124 379.654 841.014 359.596 833.136 348.576C830.08 344.278 827.846 340.2 828.198 339.649C828.551 338.988 832.431 336.123 836.781 333.258L844.541 328.078L847.01 331.274C848.421 332.927 850.89 336.454 852.536 338.878L855.593 343.507L850.538 346.482C845.835 349.237 845.599 349.678 846.775 352.213C847.481 353.645 848.774 354.858 849.479 354.858C850.185 354.858 854.418 352.764 858.65 350.119L866.528 345.38ZM904.387 430.017C904.74 429.576 902.741 422.413 899.802 414.037C895.804 402.686 894.04 398.939 892.629 399.049C891.454 399.049 886.633 400.482 881.813 402.356C880.705 402.761 879.479 403.207 878.204 403.67L878.198 403.673L878.196 403.673L878.187 403.677C873.917 405.23 869.096 406.984 866.293 408.086C862.53 409.409 859.473 410.731 859.473 411.062C859.473 411.502 861.002 415.8 863.001 420.76C867.586 432.662 872.994 451.727 875.934 466.604C877.227 473.217 878.403 478.727 878.638 478.947C879.108 479.388 913.558 474.209 914.263 473.547C915.792 472.115 908.972 441.919 907.091 441.919C906.268 441.919 901.8 442.69 897.215 443.682C888.749 445.445 887.339 446.768 889.925 450.625C890.748 451.727 892.042 451.837 896.392 450.956C899.331 450.405 902.035 450.294 902.388 450.735C903.682 452.609 906.268 466.715 905.563 467.486C904.74 468.258 891.101 470.572 886.986 470.572C884.87 470.572 884.282 469.58 883.106 463.629C880.637 451.617 875.934 434.535 872.407 424.617C870.408 419.217 868.879 414.809 868.879 414.698C868.879 414.368 889.22 407.756 889.455 407.976C890.043 408.858 893.452 417.674 894.511 421.2L895.686 425.388L890.278 426.931C885.34 428.254 884.752 428.694 884.987 431.449C885.105 433.102 885.457 434.645 885.81 434.976C886.398 435.527 903.211 431.009 904.387 430.017ZM243.38 587.278C239.971 576.368 236.326 548.045 235.973 530.082L235.738 520.715L217.279 520.384L198.702 520.053V530.413C198.702 536.143 199.054 543.747 199.407 547.494L200.23 554.217L206.227 553.666C219.63 552.453 219.865 552.343 219.865 548.596V545.18L213.516 545.951L207.285 546.613L206.462 537.796C205.991 532.947 205.874 528.539 206.344 527.878C207.167 526.666 216.808 526.445 223.628 527.437L227.86 528.098L228.683 539.339C229.036 545.4 230.565 557.413 231.858 565.898C233.151 574.384 234.327 582.209 234.445 583.421C234.562 585.074 232.916 585.845 225.274 587.608C220.1 588.711 215.397 589.482 214.692 589.262C213.634 588.931 210.694 577.58 210.577 572.951C210.459 571.629 211.988 570.968 216.456 570.417C221.982 569.755 222.334 569.535 221.982 566.67C221.629 563.804 221.276 563.694 215.75 563.915C204.816 564.245 202.229 565.127 202.229 568.323C202.229 572.18 206.932 595.433 207.99 597.196C208.696 598.188 211.282 597.968 219.395 596.204C222.449 595.562 225.569 594.888 228.073 594.348C230.291 593.869 232.025 593.494 232.799 593.339C234.445 593.009 237.737 592.347 240.088 591.686C244.203 590.694 244.321 590.474 243.38 587.278ZM910.383 579.233C909.208 578.902 902.388 577.69 895.216 576.478C888.044 575.266 880.872 573.943 879.108 573.613C876.286 572.951 876.051 573.172 875.346 577.139C872.642 592.017 863.353 621.772 857.004 635.657C855.711 638.413 855.123 641.057 855.593 641.498C856.064 641.939 859.238 643.262 862.413 644.474C865.705 645.686 872.759 648.441 878.285 650.645C883.694 652.849 888.279 654.613 888.397 654.613C889.102 654.613 900.625 625.629 900.625 623.755C900.625 623.315 896.627 621.882 891.689 620.449C884.164 618.135 882.636 618.025 881.695 619.457C879.461 622.764 880.519 624.527 885.928 625.96C888.867 626.731 891.219 627.723 891.219 628.274C891.219 629.266 885.81 643.151 884.752 644.694C884.282 645.355 866.645 639.184 864.529 637.641C864.411 637.531 865.822 633.453 867.704 628.604C870.643 621.441 877.933 598.188 881.695 584.633C881.723 584.524 881.75 584.417 881.776 584.314L881.785 584.28C882.026 583.333 882.195 582.666 882.615 582.255C883.615 581.278 886.033 581.753 894.206 583.356L895.099 583.531C902.388 585.074 904.152 585.735 903.564 587.168C903.211 588.049 902.271 592.017 901.448 595.874L900.037 603.037L895.922 602.376L895.407 602.3C893.256 601.981 890.66 601.596 889.573 601.494C888.044 601.274 887.103 602.045 886.398 604.139C885.575 607.004 885.81 607.225 891.454 608.878C894.628 609.759 898.979 610.751 901.095 611.082L904.975 611.853L908.032 599.841C912.852 580.996 912.97 580.004 910.383 579.233ZM267.483 652.188C263.015 643.482 256.549 628.715 253.139 619.347C249.729 609.98 246.555 602.155 245.967 602.045C245.497 601.935 242.322 602.817 238.795 604.029C235.268 605.131 228.331 607.115 223.51 608.327C218.572 609.649 213.869 610.972 213.046 611.523C211.988 612.074 212.928 615.931 216.691 626.951C219.513 634.886 222.334 641.939 222.922 642.49C224.098 643.592 240.088 637.862 240.794 636.098C241.029 635.437 240.558 633.894 239.853 632.682C238.677 630.478 238.325 630.478 234.327 632.021C232.093 632.902 229.506 633.674 228.683 633.674C227.86 633.674 225.744 629.927 224.098 625.408L221.159 617.033L224.333 615.931C229.859 613.837 237.972 611.633 240.088 611.633C241.264 611.633 242.557 613.176 243.38 615.711C245.967 623.204 255.373 645.025 259.958 654.392C262.545 659.351 264.544 663.87 264.544 664.421C264.544 665.523 247.025 674.89 246.32 674.229C245.144 673.127 238.677 660.013 238.677 658.69C238.677 657.808 240.794 656.266 243.498 655.164C247.731 653.4 248.201 652.739 247.495 650.315C247.025 648.772 246.555 647.229 246.32 647.008C245.732 646.457 228.096 653.731 228.096 654.502C228.096 655.053 242.205 683.486 242.91 684.147C243.145 684.478 273.362 669.49 275.008 668.278C275.243 668.057 271.833 660.784 267.483 652.188ZM881.813 667.286C881.813 667.066 874.758 663.539 866.175 659.572C857.592 655.604 850.185 652.408 849.715 652.408C849.244 652.408 847.01 655.825 844.776 660.123C837.369 673.898 814.089 706.849 810.092 709.163C809.504 709.494 808.916 710.266 808.916 710.817C808.916 711.368 815.383 716.547 823.26 722.388L837.604 732.968L840.544 729.441C845.129 724.151 858.298 707.07 858.298 706.408C858.298 706.078 854.888 703.653 850.655 701.008L842.895 696.049L840.309 698.474C838.98 699.778 838.367 700.381 838.431 700.899C838.486 701.345 839.041 701.728 840.073 702.441C841.086 703.045 842.747 704.257 844.154 705.283L844.156 705.285L844.158 705.286C844.547 705.57 844.916 705.839 845.247 706.078L848.186 708.282L842.542 715.666C839.486 719.633 836.781 722.939 836.429 722.939C835.606 722.939 819.498 710.817 819.498 710.266C819.498 710.045 822.79 705.417 826.905 700.127C836.076 688.225 841.014 680.841 847.481 669.821L852.536 661.335L861.59 665.192C866.528 667.396 871.113 669.49 871.583 669.931C872.407 670.702 865.587 683.486 863.001 685.91C862.295 686.572 859.944 685.69 857.122 683.927C852.419 681.061 852.184 680.951 850.538 682.935C849.715 684.037 848.892 685.47 848.892 686.241C848.892 687.453 862.883 695.388 864.999 695.388C866.528 695.388 881.813 669.931 881.813 667.286ZM318.276 722.608C307.576 711.478 297.582 699.355 288.176 686.241C284.884 681.613 281.945 677.755 281.827 677.755C281.592 677.755 251.493 695.278 250.787 695.829C250.317 696.27 269.835 722.939 270.658 722.939C271.833 722.939 286.178 713.131 286.648 712.029C286.765 711.588 285.825 710.266 284.532 709.163C282.298 707.29 282.062 707.29 277.359 710.155C274.773 711.808 272.304 712.91 272.069 712.69C269.247 710.045 262.192 700.127 262.192 698.804C262.192 697.812 265.014 695.608 268.424 693.845C271.716 692.082 275.478 689.878 276.654 688.886C276.734 688.825 276.809 688.765 276.882 688.705C276.905 688.687 276.927 688.668 276.949 688.65C276.983 688.622 277.017 688.594 277.05 688.566C277.102 688.522 277.152 688.479 277.201 688.438C277.585 688.111 277.884 687.857 278.221 687.79C279.41 687.554 281.065 689.662 288.569 699.222C289.517 700.43 290.558 701.757 291.704 703.212C296.642 709.494 304.519 718.751 309.105 723.71C313.69 728.67 317.335 733.078 317.335 733.629C317.217 734.07 313.808 737.486 309.693 741.012L302.05 747.625L295.701 741.012C292.174 737.486 289.352 734.18 289.235 733.739C289.235 733.408 291.351 731.425 294.055 729.551L298.758 725.915L296.171 723.38L293.585 720.845L289.352 724.041C288.005 725.051 286.31 726.387 284.755 727.613C283.595 728.527 282.513 729.38 281.71 729.992L278.3 732.637L280.887 735.833C286.413 742.445 301.345 757.212 302.168 756.882C303.814 756.331 328.034 734.4 328.034 733.519C328.034 733.078 323.684 728.119 318.276 722.608ZM827.728 743.768C827.728 743.437 821.849 738.147 814.795 732.196C807.623 726.245 801.391 721.176 800.921 721.066C800.451 720.955 794.925 725.915 788.576 732.086C777.406 742.996 760.828 756.661 750.129 763.825C747.189 765.698 744.603 767.461 744.367 767.682C744.015 767.902 744.955 769.225 746.249 770.657C747.424 771.98 752.362 778.151 757.065 784.433C761.886 790.715 766.119 795.674 766.707 795.453C767.294 795.233 773.526 790.715 780.698 785.425L793.631 775.727L791.28 772.751C789.986 771.098 787.165 767.792 784.813 765.368L780.816 760.959L778.229 763.384L775.642 765.808L779.287 769.776C781.404 771.98 783.05 774.074 782.932 774.514C782.932 775.396 770.939 784.433 768.588 785.204C767.294 785.755 756.713 773.523 755.419 769.886C755.184 769.225 759.299 765.588 764.59 761.841C769.881 758.094 780.345 749.498 787.753 742.776C795.16 736.163 801.626 730.764 801.979 730.984C802.332 731.094 805.977 734.07 810.092 737.486L817.499 743.768L812.914 748.506C810.445 751.151 807.152 754.237 805.624 755.339L802.802 757.433L798.922 753.135C795.042 748.947 794.925 748.947 792.573 750.931C791.162 752.143 790.104 753.355 790.104 753.796C790.104 754.237 793.043 757.433 796.688 760.959L803.155 767.351L815.5 755.89C822.202 749.608 827.728 744.208 827.728 743.768ZM387.645 777.38C381.766 773.963 372.007 767.792 366.246 763.715C360.367 759.747 351.667 753.135 346.729 749.168C341.791 745.09 337.323 742.225 336.735 742.555C336.029 742.996 330.268 748.727 323.919 755.339L312.279 767.241L316.982 771.098C324.86 777.71 338.734 787.959 339.674 787.959C340.85 787.959 351.549 775.286 351.549 773.963C351.549 773.523 350.374 772.421 348.963 771.539C346.611 770.106 346.141 770.327 342.849 774.074C340.85 776.278 338.734 778.041 338.028 778.041C337.44 778.041 333.795 775.396 330.033 772.2L323.214 766.47L330.621 758.976L338.146 751.372L346.258 757.874C357.546 766.69 370.596 775.727 380.12 781.237C384.47 783.882 387.998 786.196 387.998 786.417C387.998 786.747 385.528 790.825 382.589 795.563L377.181 804.27L369.656 799.861C365.541 797.437 361.778 794.902 361.426 794.351C361.073 793.8 362.131 791.486 363.777 789.172L363.777 789.171C365.909 786.362 366.833 785.144 366.592 784.235C366.407 783.54 365.541 783.026 364.012 782.119C361.19 780.355 361.073 780.465 355.782 787.629C352.843 791.596 350.726 795.343 351.079 795.894C352.607 798.208 379.415 814.078 380.238 813.086C380.825 812.535 395.757 788.621 397.168 786.086C398.462 783.882 397.756 783.331 387.645 777.38ZM753.421 803.939C753.538 803.829 749.423 797.327 744.25 789.502C739.076 781.678 734.373 775.176 733.903 775.066C733.433 774.955 728.847 777.38 723.674 780.465C712.975 786.637 684.874 799.641 673.94 803.388C667.473 805.592 666.65 806.143 667.356 808.237C669.472 814.629 678.525 837 679.348 837.661C679.819 838.102 685.227 836.449 691.341 834.135C694.353 832.94 697.593 831.666 700.401 830.561L700.41 830.558L700.41 830.558C703.298 829.422 705.727 828.466 706.979 827.963C709.33 827.082 711.329 825.759 711.329 825.208C711.329 824.217 704.509 809.89 703.686 809.119C703.334 808.788 698.631 810.772 697.455 811.653C697.22 811.763 698.278 814.188 699.689 817.053C701.217 819.808 702.158 822.233 701.805 822.453C701.57 822.674 697.573 824.327 692.87 826.2C686.638 828.735 684.169 829.286 683.346 828.404C681.347 825.87 675.939 810.772 676.879 810C677.35 809.67 682.053 807.686 687.226 805.592C696.397 802.066 710.623 795.233 724.615 788.07C728.26 786.086 731.787 784.763 732.257 785.094C733.198 785.645 743.074 800.743 743.074 801.625C743.074 802.286 726.614 811.433 726.143 810.992C725.908 810.772 724.615 808.457 723.204 805.812C720.382 800.743 719.912 800.412 716.502 802.727C714.268 804.27 714.386 804.49 718.383 811.653C720.617 815.731 722.851 819.257 723.439 819.478C724.497 820.139 747.072 808.457 753.421 803.939ZM471.241 812.204C466.538 810.992 456.544 807.906 449.137 805.372C441.729 802.947 429.737 798.319 422.565 795.123L409.396 789.392L401.636 803.829C397.404 811.874 393.876 819.037 393.876 819.698C393.876 821.241 399.99 824.217 414.334 829.947L424.916 834.025L427.15 829.506C428.326 826.972 430.089 823.114 430.912 820.91C432.441 817.053 432.323 816.833 429.619 815.621C429.413 815.533 429.218 815.449 429.035 815.37C427.681 814.786 426.923 814.458 426.34 814.654C425.597 814.904 425.139 816.004 424.099 818.506L424.082 818.548C424.005 818.733 423.925 818.926 423.841 819.126L423.74 819.368C422.682 822.123 421.154 824.327 420.331 824.327C418.567 824.327 403.282 817.935 403.282 817.163C403.282 816.392 412.688 798.98 413.041 798.98C413.276 798.98 419.272 801.404 426.445 804.38C433.734 807.355 446.315 811.874 454.663 814.519C462.893 817.053 470.065 819.478 470.535 819.808C471.005 820.249 470.653 823.004 469.595 825.98C468.654 829.065 467.361 833.363 466.773 835.568L465.597 839.535L457.014 837.331C452.429 836.119 448.078 834.686 447.49 834.135C446.785 833.584 447.138 831.38 448.314 828.514C450.43 823.665 450.077 822.784 446.08 821.682C443.846 821.021 443.258 821.792 440.436 828.735C438.79 833.033 437.379 837 437.379 837.551C437.379 837.992 439.613 839.204 442.435 840.196C448.666 842.29 467.949 847.47 469.83 847.47C470.888 847.47 479.706 819.368 479.706 815.731C479.706 815.07 475.826 813.417 471.241 812.204ZM663.003 835.892C661.827 832.252 659.477 824.985 657.832 819.588C656.069 814.298 654.187 810 653.364 810.11C652.541 810.221 645.487 811.874 637.609 813.857C623.735 817.384 593.636 822.123 585.171 822.123C582.819 822.123 580.703 822.453 580.468 822.894C579.527 824.327 582.819 855.294 583.995 856.396C584.936 857.278 611.39 854.853 616.446 853.421C617.739 853.09 618.327 852.098 617.974 850.996C617.739 850.004 617.151 846.919 616.681 844.163C615.388 835.788 615.035 835.237 611.625 835.568C608.803 835.898 608.451 836.339 608.803 839.204C608.821 839.342 608.838 839.477 608.855 839.61L608.885 839.849C608.928 840.183 608.97 840.504 609.01 840.811C609.465 844.305 609.699 846.102 608.916 847.11C608.088 848.178 606.12 848.361 602.068 848.739C601.529 848.789 600.953 848.843 600.338 848.902C595.282 849.453 590.697 849.453 590.227 848.902C589.639 848.461 588.933 843.723 588.463 838.543L587.757 829.065L598.692 827.743C616.093 825.539 622.912 824.327 636.434 821.351C643.37 819.808 649.367 818.706 649.602 819.037C649.955 819.368 651.366 823.004 652.659 827.192C653.952 831.38 655.363 835.568 655.716 836.559C656.186 837.992 654.422 838.874 647.015 840.747C645.375 841.132 643.805 841.505 642.415 841.835L642.394 841.841C639.412 842.55 637.262 843.061 637.021 843.061C636.669 843.061 635.728 840.527 634.905 837.551C633.494 832.041 631.731 830.829 628.086 832.923C626.91 833.694 627.028 835.568 628.556 842.29C629.614 846.919 631.143 850.776 631.848 850.776C633.612 850.776 659.478 844.604 662.653 843.392C663.496 843.091 664.051 842.893 664.333 842.499C664.875 841.739 664.399 840.253 663.006 835.9L663.006 835.899L663.005 835.898L663.003 835.892ZM546.959 822.894C535.554 822.563 518.976 821.241 510.276 820.029C501.575 818.706 493.815 817.714 493.11 817.714C491.699 817.714 486.761 840.086 486.408 847.58C486.173 850.886 486.525 851.216 490.876 852.098C500.399 854.082 519.094 856.176 519.799 855.404C520.269 854.963 520.975 850.886 521.445 846.257L522.151 837.882L519.094 837.331C517.633 837.066 516.758 836.907 516.165 837.245C515.279 837.749 515.025 839.364 514.391 843.392C513.568 848.351 513.332 848.682 510.393 848.131C508.747 847.8 504.279 847.249 500.634 846.808C496.754 846.478 493.815 845.596 493.815 844.825C493.815 844.163 494.756 839.535 495.814 834.465L497.813 825.319L504.397 825.98C507.924 826.421 514.038 827.192 517.918 827.853C521.798 828.404 532.968 829.286 542.609 829.616L560.245 830.388L560.598 840.196C560.833 845.596 560.48 850.335 560.01 850.886C559.539 851.327 554.954 851.437 550.016 851.106L540.845 850.445V844.604C540.845 838.763 540.845 838.653 537.318 838.653C537.107 838.653 536.908 838.651 536.72 838.649C535.789 838.638 535.14 838.631 534.68 838.922C533.618 839.593 533.561 841.852 533.372 849.319L533.345 850.38L533.32 851.327L533.203 856.837L550.839 857.168L568.475 857.498L568.122 840.527L567.77 823.555L546.959 822.894ZM520.387 237.49C497.695 240.135 462.658 248.621 443.963 256.225C386.469 279.368 340.497 314.523 306.518 361.25L299.816 370.397L302.756 374.033C304.402 376.017 306.048 379.213 306.401 381.086C307.106 384.062 307.694 384.613 310.633 384.613C318.511 384.613 324.507 390.564 324.507 398.168V402.025L330.974 402.466C337.558 403.017 343.319 406.323 343.319 409.629C343.319 411.833 345.2 411.392 347.669 408.527C352.725 402.796 366.952 391.335 376.358 385.605C398.227 372.05 428.914 361.139 460.777 355.519C475.473 352.874 475.944 352.984 483.821 359.927C501.81 375.686 532.497 387.037 574.354 393.429C596.576 396.735 607.04 402.025 617.151 414.809C623.971 423.294 624.088 424.507 618.327 427.592C607.863 432.992 599.162 444.564 597.634 454.703L596.928 459.662L610.45 459.331L623.971 459.001L619.268 463.298C616.681 465.723 613.036 470.903 611.037 474.87C607.981 480.931 607.275 483.796 606.922 492.392L606.452 502.752L603.278 502.09C601.631 501.649 594.224 501.098 587.052 500.658C572.003 499.886 562.126 501.539 549.193 507.049C540.257 510.907 539.787 510.907 542.726 507.931C552.015 498.233 579.998 486.001 593.048 486.001C600.926 486.001 601.749 484.458 595.282 481.813C582.114 476.523 576.235 475.531 559.657 475.641C546.018 475.641 542.374 476.082 533.438 478.617C523.914 481.372 510.393 487.323 500.987 492.833L497.107 495.147L499.106 491.511C504.867 481.152 526.619 465.282 541.433 460.654C548.017 458.67 544.49 457.347 532.027 457.347C503.104 457.347 479.118 465.723 461.364 482.143C432.206 509.143 425.504 549.698 444.434 585.294C463.716 621.772 496.99 645.025 548.017 657.809C596.223 669.821 663.006 668.609 726.026 654.502C738.371 651.747 739.077 651.858 731.317 655.274C686.403 674.89 640.196 683.376 586.112 681.833C528.735 680.29 478.766 664.641 442.552 636.87C399.167 603.698 378.239 550.029 387.88 496.801C394.112 463.188 407.28 440.045 432.559 418.445C443.728 408.968 455.486 401.474 473.122 392.768C479.471 389.682 484.174 386.817 483.586 386.486C480.882 384.943 460.424 384.503 447.961 385.715C422.917 388.139 396.581 394.641 372.007 404.56C352.255 412.384 343.437 417.233 343.319 419.988C343.319 420.319 347.082 420.98 351.667 421.311C356.488 421.641 362.131 422.964 365.188 424.286L370.361 426.711L379.532 421.201C390.349 414.699 402.342 408.968 414.57 404.45C424.916 400.482 452.311 393.099 454.192 393.76C454.898 393.98 452.076 395.743 447.843 397.837C404.105 419.107 377.181 454.703 369.891 500.658C361.191 554.878 380.355 607.666 422.447 645.466C463.363 682.274 520.975 700.788 594.342 700.898C619.033 700.898 639.138 699.025 665.122 694.176C703.804 687.123 735.197 675.111 768.118 655.053C776.348 649.984 783.05 646.127 783.05 646.568C783.05 648.551 769.881 663.319 760.475 671.804C747.542 683.486 740.252 688.666 726.026 696.821C706.626 707.841 684.169 716.658 662.535 721.727C628.674 729.772 589.992 729.772 560.833 721.837C552.485 719.523 550.721 719.743 554.954 722.719C565.889 729.992 588.345 737.817 607.863 741.013L608.951 741.191C610.275 741.408 611.514 741.61 612.671 741.799C622.147 743.346 626.112 743.993 626.092 744.475C626.077 744.822 624 745.084 620.427 745.534C619.641 745.633 618.782 745.741 617.857 745.862C601.867 747.955 565.889 748.727 548.84 747.294C520.857 744.98 497.46 739.249 474.18 729C439.26 713.572 412.806 691.2 392.23 659.792C389.056 655.164 385.999 650.976 385.293 650.535C383.53 649.543 385.176 663.539 388.115 673.347C392.466 688.445 402.224 704.535 415.393 718.972C420.331 724.372 420.919 725.253 418.45 724.592C409.984 722.168 386.116 703.984 369.421 687.233C340.733 658.36 324.39 617.254 324.272 573.613C324.272 555.76 326.388 541.764 331.562 526.776L331.894 525.764L332.515 523.876C333.966 519.464 335.089 516.048 335.089 515.866C335.089 514.764 326.741 526.005 322.273 532.947C314.513 545.4 308.87 561.38 305.107 582.429C304.049 588.16 302.873 586.066 300.522 574.274C298.17 562.592 298.053 539.449 300.404 526.005C305.225 498.233 318.276 473.988 340.145 452.278C346.141 446.327 349.903 441.919 348.61 442.36C344.26 443.903 336.735 444.343 332.62 443.352C329.093 442.36 328.387 442.58 326.506 444.784C325.448 446.107 322.979 447.539 321.098 447.98C318.864 448.421 316.747 449.964 315.219 452.388C311.574 458.229 307.576 460.103 298.053 460.213C293.115 460.213 288.059 460.984 285.472 462.086C283.003 463.188 280.181 463.96 279.006 463.96C275.831 463.96 267.013 459.552 265.602 457.237C265.014 456.135 263.956 455.143 263.368 455.143C259.253 455.143 253.139 508.152 254.55 530.633C257.96 582.539 270.423 622.984 295.701 663.429C306.048 679.96 311.809 687.674 326.271 703.653C368.951 750.711 422.447 782.008 486.408 797.217C511.216 803.168 531.204 805.151 564.36 804.931C597.399 804.71 630.672 799.09 661.83 788.4C675.939 783.551 707.919 768.894 719.559 761.951C782.462 724.262 829.727 665.743 850.067 600.282C857.122 577.47 861.59 550.69 861.943 528.98L862.178 518.511L856.769 518.18C844.777 517.409 834.195 523.58 830.668 533.278C827.023 543.637 817.499 553.335 807.858 556.421C801.979 558.184 794.925 557.964 786.459 555.429C771.057 551.021 756.595 539.67 738.489 517.629C727.907 504.735 722.263 499.886 711.094 494.045L703.687 490.298L710.153 490.96C719.324 491.841 728.142 496.249 736.02 503.743C739.665 507.38 743.074 510.245 743.427 510.245C745.191 510.245 741.546 502.862 737.195 497.352C734.491 494.156 732.492 490.96 732.728 490.298C733.668 487.764 745.191 500.878 753.421 513.882C768.353 537.245 777.994 545.29 794.454 547.935C802.214 549.147 803.508 549.037 808.563 547.054C813.502 545.18 814.913 543.858 819.851 536.143C822.908 531.294 827.493 525.013 830.197 522.037C838.31 513.221 849.95 509.254 859.003 512.449L862.178 513.662L861.472 501.539C857.475 436.078 825.729 369.405 776.113 322.237C725.085 273.637 665.24 245.646 594.577 237.49C577.058 235.507 538.376 235.507 520.387 237.49ZM486.173 343.397C492.757 349.568 497.107 352.433 505.69 356.401C520.152 363.013 526.501 364.445 553.191 366.98C587.405 370.286 627.263 375.686 635.963 378.221C656.539 384.172 674.058 396.294 680.054 408.858C681.818 412.494 682.876 416.021 682.523 416.572C682.17 417.233 678.408 417.674 674.175 417.674C664.534 417.674 657.362 414.478 650.307 406.984C639.608 395.743 638.197 394.421 637.609 394.972C635.846 396.625 653.012 416.462 657.832 418.335C662.77 420.209 692.517 421.641 692.517 419.988C692.517 417.013 688.872 411.062 683.111 404.56L676.879 397.507L681.582 398.168C689.813 399.38 717.443 408.417 728.965 413.596C751.187 423.625 758.359 429.796 756.713 437.952C756.125 441.037 756.595 442.139 760.358 445.996C763.415 449.082 766.589 450.956 769.999 451.837C772.938 452.499 777.876 454.372 781.051 455.915C785.754 458.339 788.693 458.89 797.394 459.111C805.036 459.331 809.269 459.992 812.914 461.645C819.263 464.621 820.556 464.511 825.847 461.205C828.198 459.662 830.432 458.45 830.668 458.45C831.02 458.45 831.255 460.213 831.255 462.307C831.255 466.605 828.669 472.335 826.317 473.107C825.142 473.437 825.494 474.87 827.493 478.727C831.138 485.89 830.785 488.645 825.847 493.494C823.495 495.698 820.439 500.107 818.91 503.192C816.794 507.6 805.389 521.596 805.389 519.723C805.389 519.503 807.035 515.756 808.916 511.568C810.915 507.27 812.443 501.87 812.443 499.666V495.588L807.035 496.36C803.978 496.69 800.568 497.021 799.393 497.021C798.099 497.021 793.749 501.649 787.753 509.254C779.17 520.164 771.292 527.217 770.352 524.792C770.234 524.241 771.645 520.274 773.644 515.866C775.642 511.458 777.641 505.507 777.994 502.641L778.582 497.352L773.526 496.139C769.764 495.258 766.824 493.384 762.944 489.637C758.594 485.449 755.89 483.796 749.306 481.813C739.9 479.058 734.961 478.837 728.377 481.041C719.206 484.127 713.68 483.135 705.45 476.633C700.63 472.776 699.807 472.556 694.045 472.996C690.636 473.327 687.461 473.878 686.991 474.319C685.815 475.421 696.632 505.837 702.393 517.409C707.567 527.658 720.97 544.409 724.145 544.409C724.968 544.409 728.848 541.433 732.61 537.686L739.665 531.074L738.841 540C737.901 549.698 738.606 551.021 743.78 551.021C746.366 551.021 753.538 544.409 753.774 541.874C753.774 541.103 754.361 541.764 755.067 543.307C756.831 547.494 756.595 561.049 754.714 564.796C753.538 567.331 751.657 568.543 747.542 569.645C743.78 570.747 741.663 571.96 741.193 573.502C739.9 577.36 733.903 583.751 730.141 585.184C724.968 587.168 724.732 585.956 729.318 581.437C732.963 578.021 735.785 572.4 734.491 571.298C734.256 571.078 733.08 572.511 731.905 574.494C729.788 578.241 722.381 583.862 721.205 582.649C720.852 582.319 722.381 579.233 724.732 575.927C727.554 571.739 728.495 569.535 727.554 569.315C713.798 565.678 709.683 561.931 705.333 548.927C702.041 538.898 700.042 536.584 685.698 526.445C660.772 508.923 638.785 502.531 621.266 507.49C618.092 508.372 614.917 509.143 614.212 509.143C610.332 509.143 608.921 489.858 612.096 480.821C615.505 471.013 623.148 462.307 629.262 461.315C634.905 460.433 643.958 467.486 654.775 481.041C662.3 490.298 669.002 496.36 669.002 493.715C669.002 491.731 653.129 466.935 649.602 463.298C643.841 457.678 635.14 455.694 616.446 455.915L615.233 455.93C605.88 456.048 601.887 456.099 601.02 454.477C600.375 453.27 601.461 451.136 603.358 447.413L603.358 447.413L603.63 446.878C607.157 439.935 614.917 432.662 622.207 429.466C625.264 428.143 627.851 426.711 627.851 426.16C627.851 423.074 620.443 412.715 613.859 406.543C603.278 396.735 596.576 393.87 573.884 390.013C550.604 386.156 545.783 385.164 534.966 381.858C512.392 375.135 495.579 366.65 485.703 357.062C473.475 345.27 465.597 331.495 465.597 321.907C465.597 318.16 465.715 318.16 471.711 326.756C475.003 331.605 481.587 339.099 486.173 343.397ZM609.391 345.05C616.799 349.568 629.379 354.748 647.956 360.919C663.358 365.988 696.044 380.756 706.626 387.368C712.387 391.005 716.032 394.311 719.559 399.16C722.146 402.796 724.145 406.103 723.909 406.323C723.674 406.543 717.443 404.229 710.271 401.254C697.808 396.074 684.287 388.029 684.287 385.715C684.287 384.282 673.823 378.662 672.882 379.543C672.412 379.984 675.469 383.511 679.584 387.368C685.58 392.988 686.638 394.531 684.757 394.531C681.465 394.531 671.353 391.225 671.353 390.123C671.353 388.139 660.184 379.103 653.952 376.017C650.307 374.254 641.372 370.507 634.082 367.641C626.792 364.886 617.739 361.139 613.859 359.376C603.63 354.527 594.695 344.168 590.815 332.707C590.109 330.613 591.167 331.164 596.223 335.462C599.75 338.437 605.629 342.735 609.391 345.05ZM696.397 441.368C693.575 440.266 691.341 438.833 691.341 438.282C691.341 436.739 707.096 438.172 710.506 439.935C714.503 441.919 722.969 447.87 723.086 448.531C723.086 448.862 721.558 450.845 719.677 452.939L716.267 456.796L708.86 450.074C704.745 446.437 699.101 442.47 696.397 441.368ZM60.5512 133.899L60.1984 108.221L59.9633 82.6539H63.4905H66.9002L67.2529 96.6498L67.6057 110.756L75.0129 111.086L82.4201 111.417L82.0674 114.944C81.7147 118.36 81.5971 118.47 75.6008 118.801L69.3693 119.131V126.846V134.56L65.019 134.229L60.5512 133.899ZM1851.92 96.6498L1852.39 110.756L1844.99 111.086L1837.58 111.417L1837.93 114.944C1838.29 118.36 1838.4 118.47 1844.52 118.801L1850.63 119.131V126.846V134.56L1854.75 134.229C1857.1 134.009 1858.86 133.568 1858.86 133.017V107.45V82.6539H1855.22H1851.45L1851.92 96.6498ZM59.9633 997.347V971.449V945.551H64.6663H69.2517L69.6044 952.935L69.9572 960.429L76.1886 960.759L82.3025 961.09V965.167V969.245L75.248 968.914L68.1935 968.474V982.91V997.347H64.0784H59.9633ZM1849.45 953.265V960.98H1843.58H1837.7V964.837V968.694H1844.75H1851.81V983.02V997.347H1855.92H1860.04V971.449V945.551H1854.75H1849.45V953.265ZM71.7208 997.347V985.225V973.102H98.763H125.805L125.57 998.118L125.217 1023.24L112.637 1023.58L99.9388 1023.91V1010.57V997.347H85.8298H71.7208ZM1794.19 998.449V1023.8H1807.13H1820.06V1010.57V997.347H1834.17H1848.28V985.225V973.102H1821.24H1794.19V998.449ZM71.9559 1013.44C71.7207 1008.04 71.8383 1003.08 72.0734 1002.42C72.5437 1001.42 87.123 1000.98 95.5884 1001.64C96.0587 1001.76 96.2939 1006.6 96.1763 1012.44L95.8236 1023.24H84.0661H72.3086L71.9559 1013.44ZM1823.94 1002.42C1823.71 1003.08 1823.59 1008.04 1823.82 1013.44L1824.18 1023.24L1833.58 1023.58L1834.81 1023.62C1842.04 1023.89 1845.39 1024.01 1846.95 1022.4C1848.29 1021.01 1848.29 1018.32 1848.28 1013.3L1848.28 1012.7L1848.28 1012.22V1001.76L1840.99 1001.64C1839.74 1001.61 1838.39 1001.58 1837.03 1001.54C1833.91 1001.47 1830.8 1001.39 1829 1001.31C1826.53 1001.31 1824.29 1001.76 1823.94 1002.42ZM55.2602 1037.13V1025.45V1013.77L61.4917 1014.1L67.6056 1014.43L67.9583 1020.82C68.3111 1027.1 68.4286 1027.21 71.4856 1027.1C79.7158 1026.55 79.951 1026.77 79.4807 1031.73L79.0104 1036.47L67.1353 1036.8L55.2602 1037.13ZM130.156 1014.65C129.685 1014.98 129.333 1017.96 129.333 1021.26V1027.1H114.636H99.9388V1030.96V1034.82H127.686H155.317L154.964 1030.08L154.611 1025.45L146.734 1025.12L138.739 1024.79V1019.39C138.739 1016.31 138.739 1014.95 138.064 1014.35C137.53 1013.88 136.573 1013.88 134.859 1013.88C132.625 1013.88 130.508 1014.21 130.156 1014.65ZM1781.26 1024.9V1019.39V1013.88H1785.96H1790.67V1020.49V1027.1H1805.36H1820.06V1030.96V1034.82H1792.43H1764.8V1029.86V1024.9H1773.03H1781.26ZM1851.81 1020.38V1027.1H1846.05H1840.28L1840.64 1031.73L1840.99 1036.47H1852.51H1864.15V1025.45V1014.43L1858.04 1014.1L1851.81 1013.77V1020.38Z" fill="url(#paint0_linear_12_161)"/>
<defs>
<linearGradient id="paint0_linear_12_161" x1="960" y1="0.000823975" x2="960" y2="1080" gradientUnits="userSpaceOnUse">
<stop stop-color="#8B181A"/>
<stop offset="1" stop-color="#530404"/>
</linearGradient>
</defs>
</svg>
